<?xml version="1.0" encoding="utf-8"?>
<!-- Generator: Adobe Illustrator 25.4.1, SVG Export Plug-In . SVG Version: 6.00 Build 0)  -->
<svg version="1.1" xmlns="http://www.w3.org/2000/svg" xmlns:xlink="http://www.w3.org/1999/xlink" x="0px" y="0px"
	 viewBox="0 0 140 139.99" style="enable-background:new 0 0 140 139.99;" xml:space="preserve">
<style type="text/css">
	.st0{opacity:0.21;}
	.st1{opacity:0.6;fill:#E9DFD0;}
	.st2{fill:#899182;}
	.st3{fill:none;stroke:#000000;stroke-miterlimit:10;}
	.st4{fill:#5C504F;}
	.st5{fill:#FFFFFF;}
	.st6{fill:#F7F6F3;}
	.st7{fill:#EEEEEE;}
	.st8{fill:#829758;}
	.st9{fill:#B9B791;}
	.st10{fill:#E9DFD0;}
	.st11{fill:none;stroke:#D8D8D7;stroke-miterlimit:10;}
	.st12{fill:#A1AE82;}
	.st13{fill:#9F9E9C;}
	.st14{fill:#DD5241;}
	.st15{fill:#6AAB5B;}
	.st16{fill:#538A46;}
	.st17{opacity:0.8;}
	.st18{fill:#53A173;}
	.st19{fill:#468B62;}
	.st20{fill:#DFF0B9;}
	.st21{fill:#B2E05C;}
	.st22{fill:#5DAD83;}
	.st23{fill:#E04448;}
	.st24{fill:#CC393C;}
	.st25{fill:#EDA84B;}
	.st26{fill:#E78C3F;}
	.st27{fill:#C6E781;}
	.st28{fill:#A7D156;}
	.st29{fill:#67534F;}
	.st30{fill:#CCA69E;}
	.st31{fill:#A48480;}
	.st32{fill:#F8E1DA;}
	.st33{fill:#8F7670;}
	.st34{fill:#789633;}
	.st35{fill:#6E892E;}
	.st36{fill:#CF6152;}
	.st37{fill:#C35147;}
	.st38{fill:#81A03A;}
	.st39{fill:#844E1C;}
	.st40{fill:#EFA440;}
	.st41{fill:#E69837;}
	.st42{fill:#E1913E;}
	.st43{fill:#84A53C;}
	.st44{fill:#91B04B;}
	.st45{fill:#8BAA46;}
	.st46{fill:#D38237;}
	.st47{fill:#E6EBF2;}
	.st48{fill:#F2BD47;}
	.st49{fill:#E8626A;}
	.st50{fill:#F5CF5F;}
	.st51{fill:#7DA563;}
	.st52{fill:#6DD6BD;}
	.st53{fill:#646A73;}
	.st54{fill:#6898EC;}
	.st55{fill:#CAD0DF;}
	.st56{fill:#ADD573;}
	.st57{fill:#4F5661;}
	.st58{fill:#D9DFE9;}
	.st59{fill:#77A8F7;}
	.st60{display:none;}
</style>
<g id="REFERENCIA">
</g>
<g id="Capa_3">
</g>
<g id="Elementos">
</g>
<g id="Textos">
</g>
<g id="Iconos">
	<g>
		<path class="st34" d="M46.67,30.33v88.66C71.16,118.99,91,99.14,91,74.66C91,50.18,71.16,30.33,46.67,30.33z"/>
		<path class="st35" d="M53.67,30.94c-2.31-0.39-4.65-0.59-7-0.6v88.66c2.35-0.02,4.69-0.22,7-0.6V30.94z"/>
		<path class="st36" d="M81.67,74.66c0-19.33-15.67-35-35-35v70C66,109.66,81.67,93.99,81.67,74.66z"/>
		<path class="st37" d="M53.67,40.36c-2.3-0.47-4.65-0.7-7-0.7v70c2.35,0,4.7-0.23,7-0.7V40.36z"/>
		<path class="st37" d="M46.67,96.48v13.18c12.46,0.01,23.99-6.61,30.26-17.38c6.27-10.77,6.33-24.07,0.15-34.89
			C69.98,72.51,59.59,85.87,46.67,96.48z"/>
		<path class="st38" d="M2.34,74.66c0,24.48,19.85,44.33,44.33,44.33V30.33C22.19,30.33,2.34,50.18,2.34,74.66z"/>
		<path class="st35" d="M37.34,102.19c0.08-3.69-0.8-7.34-2.57-10.59c-1.46-2.61-2.18-5.56-2.1-8.55c-0.08-2.98,0.64-5.93,2.1-8.54
			c1.76-3.25,2.65-6.89,2.57-10.59c0.08-3.69-0.8-7.34-2.57-10.59c-1.46-2.61-2.18-5.56-2.1-8.54c-0.08-2.98,0.64-5.93,2.1-8.54
			c0.41-0.85,0.82-1.69,1.19-2.63l1.15-2.23c-2.06,0.46-4.09,1.07-6.07,1.82c-0.16,0.33-0.31,0.66-0.47,0.98
			c-1.77,3.25-2.65,6.89-2.57,10.59c-0.08,3.69,0.8,7.34,2.57,10.59c1.46,2.61,2.18,5.56,2.1,8.54c0.08,2.98-0.64,5.93-2.1,8.54
			c-1.76,3.24-2.65,6.89-2.57,10.58c-0.08,3.69,0.8,7.35,2.57,10.59c2.8,5.35,2.8,11.74,0,17.09c-0.73,1.43-1.33,2.93-1.79,4.47
			c1.43,0.63,2.89,1.19,4.38,1.67c0.38-1.42,0.92-2.8,1.61-4.1C36.53,109.53,37.42,105.89,37.34,102.19z"/>
		<path class="st35" d="M21.8,110.56c1.09-2.65,1.61-5.5,1.54-8.36c0.08-3.69-0.8-7.34-2.57-10.59c-1.46-2.61-2.18-5.56-2.1-8.55
			c-0.08-2.98,0.64-5.93,2.1-8.54c1.76-3.25,2.65-6.89,2.57-10.59c0.08-3.69-0.8-7.34-2.57-10.59c-1.46-2.61-2.18-5.56-2.1-8.54
			c0-0.82,0.04-1.64,0.13-2.45l0.35-2.39c-1.84,1.47-3.56,3.07-5.15,4.81v0.03c-0.08,3.69,0.8,7.34,2.57,10.59
			c1.46,2.61,2.18,5.56,2.1,8.54c0.08,2.98-0.64,5.93-2.1,8.54c-1.76,3.24-2.65,6.89-2.57,10.58c-0.08,3.69,0.8,7.35,2.57,10.59
			c1.46,2.61,2.18,5.57,2.1,8.55c0.06,2.04-0.27,4.07-0.97,5.99c1.21,1.05,2.47,2.04,3.79,2.95l0.19-0.34
			C21.73,110.72,21.76,110.64,21.8,110.56z"/>
		<g>
			<path class="st39" d="M53.67,79.33h4.67v4.67h-4.67V79.33z"/>
			<path class="st39" d="M53.67,65.33h4.67V70h-4.67V65.33z"/>
			<path class="st39" d="M53.67,93.33h4.67v4.67h-4.67V93.33z"/>
			<path class="st39" d="M63,70h4.67v4.67H63V70z"/>
			<path class="st39" d="M63,56h4.67v4.67H63V56z"/>
			<path class="st39" d="M63,83.99h4.67v4.67H63V83.99z"/>
			<path class="st39" d="M53.67,51.33h4.67V56h-4.67V51.33z"/>
		</g>
		<path class="st40" d="M35.01,121.33c0,9.02-7.31,16.33-16.33,16.33c-9.02,0-16.33-7.31-16.33-16.33c0-9.02,7.31-16.33,16.33-16.33
			C27.69,104.99,35.01,112.31,35.01,121.33z"/>
		<path class="st41" d="M26.51,107c2.66,6.13,1.82,13.22-2.2,18.56c-4.01,5.34-10.58,8.13-17.21,7.29
			c4.51,4.54,11.26,6.02,17.26,3.8s10.15-7.75,10.61-14.13C35.43,116.13,32.13,110.06,26.51,107z"/>
		<path class="st42" d="M25.67,118.99c-3.75,0.01-7.18-2.11-8.84-5.46l-0.25-0.49l4.18-2.09l0.24,0.49
			c0.88,1.77,2.69,2.89,4.67,2.88V118.99z"/>
		<path class="st39" d="M56.01,111.99h-4.67v-9.33c0-2.58-2.09-4.67-4.67-4.67v-4.67c5.15,0,9.33,4.18,9.33,9.33V111.99z"/>
		<path class="st36" d="M60.27,137.66c-1.27,0-2.53-0.3-3.67-0.87l-2.93-1.47l-2.93,1.47c-1.14,0.57-2.39,0.87-3.67,0.87
			c-3.1,0-5.94-1.75-7.33-4.53l-0.81-1.63c-2.58-5.16-3.92-10.84-3.92-16.6c0-5.47,4.43-9.9,9.9-9.9c2.62,0,5.14,1.04,7,2.9
			l1.77,1.77l1.77-1.77c1.86-1.86,4.37-2.9,7-2.9c5.47,0,9.9,4.43,9.9,9.9c0,5.77-1.34,11.45-3.92,16.61l-0.81,1.63
			C66.21,135.91,63.38,137.66,60.27,137.66z"/>
		<path class="st37" d="M62.44,104.99c-0.18,0-0.35,0.04-0.53,0.05c0.72,1.56,1.1,3.25,1.1,4.97c0,7-1.63,13.91-4.76,20.18
			l-0.99,1.98c-0.69,1.38-1.7,2.58-2.94,3.5l2.29,1.14c4.05,2.03,8.97,0.38,11-3.66l0.81-1.63c2.58-5.16,3.92-10.85,3.92-16.62
			C72.34,109.43,67.91,104.99,62.44,104.99z"/>
		<path class="st38" d="M107.34,28l-14-14h-14l21,21L107.34,28z"/>
		<path class="st38" d="M107.34,28l14-14h14l-21,21L107.34,28z"/>
		<path class="st43" d="M114.33,35h-14V9.33l7-7l7,7V35z"/>
		<path class="st44" d="M114.33,56h-14V35l7-7l7,7V56z"/>
		<path class="st45" d="M100.34,35l-7-7h-14L91,39.66V56h9.33V35z"/>
		<path class="st45" d="M114.33,35l7-7h14l-11.67,11.67V56h-9.33V35z"/>
		<path class="st40" d="M107.34,46.66c16.75,0,30.33,13.58,30.33,30.33v30.33c0,16.75-13.58,30.33-30.33,30.33S77,124.08,77,107.33
			V77C77,60.24,90.58,46.66,107.34,46.66z"/>
		<path class="st41" d="M119.83,49.38c4,5.25,6.17,11.68,6.17,18.28v30.33c0.01,10.31-5.21,19.91-13.87,25.5
			c-8.66,5.59-19.57,6.38-28.95,2.12c7.85,10.4,21.47,14.62,33.83,10.47c12.36-4.14,20.68-15.73,20.66-28.76V77
			C137.66,65.09,130.68,54.28,119.83,49.38z"/>
		<path class="st46" d="M137.67,97.03l-2.33,2.33l-10.7-10.7l10.7-10.7l2.33,2.33V77c-0.01-2.39-0.3-4.77-0.87-7.1l-1.47,1.47
			l-10.7-10.7l4.61-4.61c-1.08-1.13-2.24-2.17-3.48-3.11l-4.43,4.43L110.86,46.9c-2.34-0.3-4.7-0.3-7.04,0L93.34,57.36l-4.43-4.43
			c-1.24,0.95-2.41,1.99-3.49,3.11l4.62,4.62l-10.7,10.7l-1.47-1.47C77.3,72.22,77.01,74.6,77,77v3.3l2.33-2.33l10.7,10.7
			l-10.7,10.7L77,97.03v10.3c0,0.31,0.04,0.61,0.05,0.92l2.29-2.29l10.7,10.7l-7.75,7.75c0.89,1.29,1.88,2.51,2.96,3.64l8.1-8.1
			l10.7,10.7l-5.35,5.35l0.51,0.51c1.52,0.43,3.08,0.75,4.65,0.93l3.49-3.5l3.49,3.49c1.57-0.19,3.13-0.5,4.65-0.93l0.51-0.51
			l-5.35-5.34l10.7-10.7l7.68,7.68l3.3-3.3l-7.68-7.68l10.7-10.7l2.29,2.29c0-0.31,0.05-0.61,0.05-0.92V97.03z M132.03,74.66
			l-10.7,10.7l-10.7-10.7l10.7-10.7L132.03,74.66z M118.04,88.66l-10.7,10.7l-10.7-10.7l10.7-10.7L118.04,88.66z M107.34,49.96
			l10.7,10.7l-10.7,10.7l-10.7-10.7L107.34,49.96z M82.64,74.66l10.7-10.7l10.7,10.7l-10.7,10.7L82.64,74.66z M82.64,102.66
			l10.7-10.7l10.7,10.7l-10.7,10.7L82.64,102.66z M107.34,127.36l-10.7-10.7l10.7-10.7l10.7,10.7L107.34,127.36z M121.33,113.36
			l-10.7-10.7l10.7-10.7l10.7,10.7L121.33,113.36z"/>
		<path d="M126,50.23v-9.6l10.98-10.98c0.67-0.67,0.87-1.67,0.51-2.54c-0.36-0.87-1.21-1.44-2.16-1.44h-8.37l10.02-10.02
			c0.67-0.67,0.87-1.67,0.51-2.54c-0.36-0.87-1.21-1.44-2.16-1.44h-14c-0.62,0-1.21,0.25-1.65,0.68l-3.02,3.02V9.33
			c0-0.62-0.25-1.21-0.68-1.65l-7-7c-0.91-0.91-2.39-0.91-3.3,0l-7,7C98.25,8.12,98,8.71,98,9.33v6.03l-3.02-3.02
			c-0.44-0.44-1.03-0.68-1.65-0.68h-14c-0.94,0-1.79,0.57-2.16,1.44c-0.36,0.87-0.16,1.88,0.51,2.54L87.7,25.67h-8.37
			c-0.94,0-1.79,0.57-2.16,1.44c-0.36,0.87-0.16,1.88,0.51,2.54l10.98,10.98v9.6c-8.76,6.1-13.99,16.09-14,26.77v30.33
			c0,18.04,14.62,32.66,32.66,32.66S140,125.37,140,107.33V77C139.99,66.32,134.77,56.32,126,50.23z M129.7,30.33l-7.68,7.68
			c-0.44,0.44-0.68,1.03-0.68,1.65v7.86c-1.51-0.73-3.07-1.33-4.67-1.82v-9.74l5.63-5.63H129.7z M107.34,49.96l10.7,10.7l-10.7,10.7
			l-10.7-10.7L107.34,49.96z M102.67,44.7v-8.74l4.67-4.67l4.67,4.67v8.74C108.91,44.21,105.76,44.21,102.67,44.7z M118.04,88.66
			l-10.7,10.7l-10.7-10.7l10.7-10.7L118.04,88.66z M93.34,57.36l-2.75-2.75c3.08-2.31,6.6-3.96,10.35-4.85L93.34,57.36z
			 M93.34,63.96l10.7,10.7l-10.7,10.7l-10.7-10.7L93.34,63.96z M104.04,102.66l-10.7,10.7l-10.7-10.7l10.7-10.7L104.04,102.66z
			 M107.34,105.96l10.7,10.7l-10.7,10.7l-10.7-10.7L107.34,105.96z M110.63,102.66l10.7-10.7l10.7,10.7l-10.7,10.7L110.63,102.66z
			 M110.63,74.66l10.7-10.7l10.7,10.7l-10.7,10.7L110.63,74.66z M121.33,57.36l-7.6-7.6c3.75,0.88,7.27,2.53,10.35,4.85
			L121.33,57.36z M122.3,16.33h7.4L114.33,31.7l-3.7-3.7L122.3,16.33z M102.67,10.3l4.67-4.67L112,10.3v9.73l-4.67,4.67l-4.67-4.67
			V10.3z M84.97,16.33h7.4L104.04,28l-3.7,3.7L84.97,16.33z M84.97,30.33h7.4L98,35.96v9.74c-1.6,0.49-3.16,1.09-4.67,1.82v-7.86
			c0-0.62-0.25-1.21-0.68-1.65L84.97,30.33z M87.09,57.71l2.95,2.95l-9.93,9.93C81.24,65.76,83.65,61.31,87.09,57.71z M79.34,77.96
			l10.7,10.7l-10.7,10.7V77.96z M83.98,122.72c-3.03-4.56-4.64-9.92-4.64-15.4v-1.37l10.7,10.7L83.98,122.72z M100.31,134.39
			c-5.14-1.34-9.79-4.11-13.4-8l6.43-6.44l10.7,10.7L100.31,134.39z M107.34,135.32c-0.44,0-0.87-0.05-1.3-0.07l1.3-1.3l1.3,1.3
			C108.2,135.28,107.77,135.32,107.34,135.32z M114.37,134.39l-3.73-3.73l10.7-10.7l6.44,6.44
			C124.16,130.28,119.51,133.05,114.37,134.39z M135.33,107.33c0,5.48-1.61,10.83-4.64,15.4l-6.07-6.07l10.7-10.7V107.33z
			 M135.33,99.36l-10.7-10.7l10.7-10.7V99.36z M124.63,60.66l2.95-2.95c3.43,3.6,5.84,8.04,6.98,12.88L124.63,60.66z"/>
		<path d="M12.42,98.97C1.46,83.55,2.2,62.7,14.21,48.09c0.34,2.55,1.14,5.02,2.36,7.29c1.46,2.61,2.18,5.56,2.1,8.55
			c0.08,2.98-0.64,5.93-2.1,8.54c-1.76,3.24-2.65,6.89-2.57,10.58c-0.08,3.69,0.8,7.35,2.57,10.59c0.82,1.51,1.41,3.12,1.77,4.8
			l4.58-0.89c-0.44-2.08-1.16-4.08-2.16-5.95c-1.46-2.61-2.18-5.56-2.1-8.55c-0.08-2.98,0.64-5.93,2.1-8.54
			c1.76-3.24,2.65-6.89,2.57-10.58c0.08-3.69-0.8-7.34-2.57-10.59c-1.46-2.61-2.18-5.56-2.1-8.54c0-0.52,0.05-0.97,0.08-1.45
			c3.23-2.88,6.89-5.24,10.84-7c-1.12,2.67-1.66,5.55-1.59,8.45c-0.08,3.69,0.8,7.34,2.57,10.59c1.46,2.61,2.18,5.56,2.1,8.54
			c0.08,2.98-0.64,5.93-2.1,8.54c-1.76,3.24-2.65,6.89-2.57,10.58c-0.08,3.69,0.8,7.35,2.57,10.59c1.17,2.11,1.87,4.45,2.04,6.85
			l4.65-0.34c-0.21-3-1.06-5.92-2.49-8.56c-1.46-2.61-2.18-5.56-2.1-8.55c-0.08-2.98,0.64-5.93,2.1-8.54
			c1.76-3.24,2.65-6.89,2.57-10.58c0.08-3.69-0.8-7.34-2.57-10.59c-1.46-2.61-2.18-5.56-2.1-8.54c-0.08-2.98,0.64-5.93,2.1-8.54
			c0.33-0.69,0.66-1.39,0.97-2.12c2.81-0.76,5.69-1.23,8.6-1.4v55.92h4.67V42.09c10.38,0.72,19.78,6.35,25.31,15.17l3.94-2.49
			c-6.37-10.17-17.27-16.63-29.25-17.35v-4.67c12.76,0.72,24.5,7.2,31.92,17.61l3.8-2.71C69.8,26.63,40.67,21.69,19.65,36.61
			S-6.3,80.66,8.62,101.68L12.42,98.97z"/>
		<path d="M53.67,79.33h4.67v4.67h-4.67V79.33z"/>
		<path d="M53.67,65.33h4.67V70h-4.67V65.33z"/>
		<path d="M63,70h4.67v4.67H63V70z"/>
		<path d="M63,56h4.67v4.67H63V56z"/>
		<path d="M63,83.99h4.67v4.67H63V83.99z"/>
		<path d="M53.67,51.33h4.67V56h-4.67V51.33z"/>
		<path d="M18.67,139.99c7.16-0.01,13.69-4.11,16.8-10.57c0.42,1.06,0.86,2.1,1.37,3.12l0.81,1.63c1.77,3.57,5.42,5.83,9.41,5.81
			c1.63,0,3.25-0.38,4.71-1.11l1.89-0.95l1.89,0.95c1.46,0.73,3.07,1.11,4.71,1.11c3.99,0.01,7.64-2.24,9.42-5.82l0.81-1.63
			c2.73-5.48,4.16-11.52,4.17-17.65c-0.01-6.75-5.48-12.23-12.23-12.23c-2.28,0.01-4.51,0.65-6.43,1.87v-1.87
			c0-5.16-4.18-9.33-9.33-9.33v4.67c2.58,0,4.67,2.09,4.67,4.67v1.87c-1.93-1.21-4.16-1.86-6.43-1.87
			c-4.94,0.01-9.39,2.98-11.29,7.53c-5.25-7.04-14.69-9.47-22.69-5.83C2.94,108-1.43,116.72,0.43,125.3
			C2.3,133.88,9.89,140,18.67,139.99z M44.91,107.33c2.01-0.01,3.93,0.79,5.35,2.22l1.77,1.77c0.91,0.91,2.39,0.91,3.3,0l1.77-1.77
			c2.16-2.16,5.42-2.81,8.25-1.64c2.83,1.17,4.67,3.93,4.67,6.99c-0.01,5.4-1.26,10.73-3.68,15.56l-0.81,1.63
			c-0.99,1.99-3.02,3.24-5.24,3.23c-0.91,0-1.81-0.21-2.62-0.62l-2.94-1.47c-0.66-0.33-1.43-0.33-2.09,0l-2.94,1.47
			c-0.81,0.4-1.71,0.62-2.62,0.62c-2.22,0.01-4.26-1.25-5.24-3.24l-0.81-1.63c-2.41-4.83-3.67-10.16-3.68-15.56
			C37.35,110.72,40.73,107.33,44.91,107.33z M18.67,107.33c7.73,0,14,6.27,14,14c0,7.73-6.27,14-14,14c-7.73,0-14-6.27-14-14
			C4.68,113.6,10.95,107.33,18.67,107.33z"/>
		<path d="M25.67,118.99v-4.67c-1.98,0.01-3.79-1.11-4.67-2.88l-0.24-0.49l-4.18,2.09l0.25,0.49
			C18.5,116.89,21.93,119.01,25.67,118.99z"/>
	</g>
</g>
<g id="Guias" class="st60">
</g>
</svg>
