<?xml version="1.0" encoding="utf-8"?>
<!-- Generator: Adobe Illustrator 25.4.1, SVG Export Plug-In . SVG Version: 6.00 Build 0)  -->
<svg version="1.1" xmlns="http://www.w3.org/2000/svg" xmlns:xlink="http://www.w3.org/1999/xlink" x="0px" y="0px"
	 viewBox="0 0 140 140" style="enable-background:new 0 0 140 140;" xml:space="preserve">
<style type="text/css">
	.st0{opacity:0.21;}
	.st1{opacity:0.6;fill:#E9DFD0;}
	.st2{fill:#899182;}
	.st3{fill:none;stroke:#000000;stroke-miterlimit:10;}
	.st4{fill:#5C504F;}
	.st5{fill:#FFFFFF;}
	.st6{fill:#F7F6F3;}
	.st7{fill:#EEEEEE;}
	.st8{fill:#829758;}
	.st9{fill:#B9B791;}
	.st10{fill:#E9DFD0;}
	.st11{fill:none;stroke:#D8D8D7;stroke-miterlimit:10;}
	.st12{fill:#A1AE82;}
	.st13{fill:#9F9E9C;}
	.st14{fill:#DD5241;}
	.st15{fill:#6AAB5B;}
	.st16{fill:#538A46;}
	.st17{opacity:0.8;}
	.st18{fill:#53A173;}
	.st19{fill:#468B62;}
	.st20{fill:#DFF0B9;}
	.st21{fill:#B2E05C;}
	.st22{fill:#5DAD83;}
	.st23{fill:#E04448;}
	.st24{fill:#CC393C;}
	.st25{fill:#EDA84B;}
	.st26{fill:#E78C3F;}
	.st27{fill:#C6E781;}
	.st28{fill:#A7D156;}
	.st29{fill:#67534F;}
	.st30{fill:#CCA69E;}
	.st31{fill:#A48480;}
	.st32{fill:#F8E1DA;}
	.st33{fill:#8F7670;}
	.st34{fill:#789633;}
	.st35{fill:#6E892E;}
	.st36{fill:#CF6152;}
	.st37{fill:#C35147;}
	.st38{fill:#81A03A;}
	.st39{fill:#844E1C;}
	.st40{fill:#EFA440;}
	.st41{fill:#E69837;}
	.st42{fill:#E1913E;}
	.st43{fill:#84A53C;}
	.st44{fill:#91B04B;}
	.st45{fill:#8BAA46;}
	.st46{fill:#D38237;}
	.st47{fill:#E6EBF2;}
	.st48{fill:#F2BD47;}
	.st49{fill:#E8626A;}
	.st50{fill:#F5CF5F;}
	.st51{fill:#7DA563;}
	.st52{fill:#6DD6BD;}
	.st53{fill:#646A73;}
	.st54{fill:#6898EC;}
	.st55{fill:#CAD0DF;}
	.st56{fill:#ADD573;}
	.st57{fill:#4F5661;}
	.st58{fill:#D9DFE9;}
	.st59{fill:#77A8F7;}
	.st60{display:none;}
</style>
<g id="REFERENCIA">
</g>
<g id="Capa_3">
</g>
<g id="Elementos">
</g>
<g id="Textos">
</g>
<g id="Iconos">
	<g>
		<path class="st47" d="M102.81,131.03c0.37,0.14,0.76,0.22,1.16,0.22h23.93c0.4,0,0.79-0.08,1.16-0.22v4.22
			c0,1.4-0.42,2.56-0.92,2.56h-24.41c-0.14-0.01-0.27-0.08-0.35-0.2c-0.42-0.71-0.62-1.54-0.57-2.36V131.03z"/>
		<path class="st48" d="M125.87,46.95c1.79,1.12,3.59,2.25,5.38,3.37v17.5h-6.56v-2.43c0-2.09-0.78-4.11-2.19-5.67V45.24
			C123.67,45.71,124.8,46.28,125.87,46.95z"/>
		<path class="st47" d="M114.84,122.5c-4.23,0-7.65-3.43-7.66-7.66c0.02-4.22,3.44-7.64,7.66-7.66h2.19c4.23,0,7.65,3.43,7.66,7.66
			c-0.02,4.22-3.44,7.64-7.66,7.66H114.84z"/>
		<path class="st49" d="M105,65.39c0-4.7,3.8-8.51,8.5-8.51c0,0,0.01,0,0.01,0h2.67c2.42-0.01,4.72,1.03,6.32,2.84
			c1.4,1.55,2.18,3.57,2.19,5.67v2.43H105V65.39z"/>
		<path class="st50" d="M113.75,43.8c2.99-0.18,5.98,0.32,8.75,1.44v14.48c-1.6-1.82-3.9-2.85-6.32-2.84h-2.43V43.8z"/>
		<path class="st48" d="M113.51,56.88c-4.7,0-8.51,3.8-8.51,8.5c0,0,0,0.01,0,0.01V46.27c2.69-1.47,5.68-2.32,8.75-2.47v13.08
			H113.51z"/>
		<path class="st50" d="M98.44,67.82v-17.5c1.79-1.12,3.59-2.25,5.38-3.37c0.39-0.24,0.79-0.48,1.18-0.68v21.55H98.44z"/>
		<path class="st49" d="M96.25,32.82h36.36c-0.46,1.47-0.9,2.91-1.36,4.37v13.12c-1.79-1.12-3.59-2.25-5.38-3.37
			c-1.07-0.67-2.2-1.24-3.37-1.71c-2.77-1.13-5.76-1.62-8.75-1.44c-3.07,0.15-6.06,1-8.75,2.47c-0.39,0.2-0.79,0.44-1.18,0.68
			c-1.79,1.12-3.59,2.25-5.38,3.37V37.19C97.72,35.73,96.97,34.28,96.25,32.82z"/>
		<path class="st51" d="M33.91,126.88c3.02,0,5.47-2.45,5.47-5.47V95.16c0-3.02-2.45-5.47-5.47-5.47s-5.47,2.45-5.47,5.47v26.25
			C28.44,124.43,30.89,126.88,33.91,126.88z M98.44,98.44l2.45,29.92c0.08,1.18,0.83,2.22,1.92,2.67v4.22
			c-0.05,0.83,0.15,1.65,0.57,2.36l-0.57,0.2H28.63c-6.04-0.01-11.14-4.51-11.9-10.5c-1.92-15.44-3.86-30.9-5.8-46.37h118.12
			c-0.42,3.65-0.83,7.28-1.27,10.94H96.25v5.42c-0.06,0.55,0.32,1.06,0.88,1.14L98.44,98.44z M82.03,126.88
			c3.02,0,5.47-2.45,5.47-5.47V95.16c0-3.02-2.45-5.47-5.47-5.47c-3.02,0-5.47,2.45-5.47,5.47v26.25
			C76.56,124.43,79.01,126.88,82.03,126.88z M57.97,126.88c3.02,0,5.47-2.45,5.47-5.47V95.16c0-3.02-2.45-5.47-5.47-5.47
			c-3.02,0-5.47,2.45-5.47,5.47v26.25C52.5,124.43,54.95,126.88,57.97,126.88z"/>
		<path class="st52" d="M117.03,122.5c4.22-0.02,7.64-3.44,7.66-7.66c0-4.23-3.43-7.65-7.66-7.66h-2.19
			c-4.22,0.02-7.64,3.44-7.66,7.66c0,4.23,3.43,7.65,7.66,7.66H117.03z M102.81,131.03c-1.1-0.45-1.85-1.48-1.92-2.67l-2.45-29.92
			h35l-2.45,29.92c-0.08,1.18-0.83,2.22-1.92,2.67c-0.37,0.14-0.76,0.22-1.16,0.22h-23.93
			C103.58,131.25,103.18,131.18,102.81,131.03z"/>
		<path class="st53" d="M98.2,2.19c3.2-0.06,5.99,2.15,6.67,5.27c0.72,3.54-1.57,7-5.11,7.72c-0.43,0.09-0.88,0.13-1.32,0.13H67.9
			c-2.46,0-4.46,2-4.46,4.46v48.04c0,3.62-2.94,6.56-6.56,6.56c-3.62,0-6.56-2.94-6.56-6.56V8.27c0.01-3.36,2.73-6.07,6.08-6.08
			L98.2,2.19z"/>
		<path class="st47" d="M96.25,91.88h39.37v5.42c0.06,0.55-0.32,1.06-0.88,1.14H97.13c-0.55-0.08-0.94-0.58-0.88-1.14L96.25,91.88z"
			/>
		<path class="st49" d="M72.19,63.83c0-2.33,0.31-4.66,0.92-6.91l0.92-3.48c1.41-5.31,2.24-10.76,2.47-16.25h13.26
			c0.19,4.87,0.86,9.7,2.01,14.44c0.13,0.61,0.28,1.2,0.46,1.82l0.92,3.48c0.61,2.25,0.92,4.58,0.92,6.91v3.98H72.19L72.19,63.83z"
			/>
		<path class="st47" d="M89.75,37.19H76.5c0.04-1.01,0.07-2.01,0.07-3.02v-5.73h13.12v5.73C89.69,35.18,89.71,36.18,89.75,37.19z"/>
		<path class="st53" d="M89.69,28.44H76.56h-2.19v-6.56h17.5v6.56H89.69z"/>
		<path class="st51" d="M91.88,67.82h39.37c3.62,0,6.56,2.94,6.56,6.56c0,3.62-2.94,6.56-6.56,6.56H8.75
			c-3.62,0-6.56-2.94-6.56-6.56c0-3.62,2.94-6.56,6.56-6.56h41.56c0,3.62,2.94,6.56,6.56,6.56c3.62,0,6.56-2.94,6.56-6.56H91.88z"/>
		<path class="st54" d="M50.31,39.38v28.44h-6.56V39.38H50.31z"/>
		<path class="st55" d="M50.31,21.88v17.5h-6.56v-8.75C45.94,27.72,48.13,24.79,50.31,21.88z"/>
		<path class="st47" d="M50.31,19.69c-9.47,0-18.94-0.01-28.42-0.02v-6.54h28.42V19.69z"/>
		<ellipse class="st47" cx="27.34" cy="35" rx="23.22" ry="6.18"/>
		<path class="st56" d="M37.63,67.82H11.35l-1.29-1.22L22.6,53.47L37.63,67.82z"/>
		<g>
			<path class="st57" d="M82.03,89.69c3.01-0.01,5.46,2.42,5.47,5.44c0,0.01,0,0.02,0,0.03v26.25c0,3.02-2.45,5.47-5.47,5.47
				c-3.02,0-5.47-2.45-5.47-5.47V95.16C76.56,92.14,79.01,89.69,82.03,89.69z"/>
			<path class="st57" d="M61.84,91.29c1.02,1.03,1.6,2.42,1.6,3.87v26.25c0,3.02-2.45,5.47-5.47,5.47c-3.02,0-5.47-2.45-5.47-5.47
				V95.16c0-3.02,2.46-5.47,5.48-5.47C59.43,89.69,60.82,90.27,61.84,91.29z"/>
			<path class="st57" d="M37.78,91.29c1.02,1.03,1.6,2.42,1.6,3.87v26.25c0,3.02-2.45,5.47-5.47,5.47s-5.47-2.45-5.47-5.47V95.16
				c0-3.02,2.46-5.47,5.48-5.47C35.37,89.69,36.75,90.27,37.78,91.29z"/>
		</g>
		<path class="st47" d="M22.6,53.47L10.06,66.59l-7.87-7.52l8.75-9.17l3.78-3.96L22.6,53.47z"/>
		<path class="st58" d="M21.9,19.67c9.47,0,18.94,0.01,28.42,0.02v2.19c-2.19,2.91-4.37,5.84-6.56,8.75H10.94l10.94-10.94
			C21.88,19.68,21.88,19.67,21.9,19.67C21.9,19.67,21.9,19.67,21.9,19.67z"/>
		<path class="st59" d="M10.94,39.38h32.81v28.44h-6.12L22.6,53.47l-7.87-7.52l-3.78,3.96L10.94,39.38z"/>
		<path class="st57" d="M105,8.75c0,3.62-2.94,6.56-6.56,6.56h-6.56v36.74c0.11,0.46,0.22,0.92,0.35,1.38l0.92,3.48
			c0.61,2.25,0.92,4.58,0.92,6.91v3.98h4.37V37.19c-0.72-1.47-1.47-2.91-2.19-4.37H105L105,8.75z"/>
		<path d="M131.25,83.13H8.75C3.92,83.13,0,79.21,0,74.38s3.92-8.75,8.75-8.75h41.56c1.21,0,2.19,0.98,2.19,2.19
			c0,1.21-0.98,2.19-2.19,2.19H8.75c-2.42,0-4.37,1.96-4.37,4.37c0,2.42,1.96,4.37,4.37,4.37h122.5c2.42,0,4.37-1.96,4.37-4.37
			c0-2.42-1.96-4.37-4.37-4.37H63.44c-1.21,0-2.19-0.98-2.19-2.19c0-1.21,0.98-2.19,2.19-2.19h67.81c4.83,0,8.75,3.92,8.75,8.75
			S136.08,83.13,131.25,83.13z"/>
		<path d="M127.8,94.07c-0.09,0-0.18,0-0.26-0.01c-1.2-0.14-2.05-1.23-1.91-2.43c0.44-3.65,0.85-7.28,1.27-10.92
			c0.11-1.18,1.16-2.05,2.35-1.93c0.02,0,0.05,0.01,0.07,0.01c1.2,0.14,2.06,1.22,1.92,2.42c0,0,0,0,0,0
			c-0.42,3.66-0.83,7.29-1.27,10.95C129.83,93.24,128.9,94.07,127.8,94.07z"/>
		<path d="M102.81,140H28.63c-7.14-0.01-13.16-5.32-14.05-12.41L8.77,81.21c-0.15-1.2,0.7-2.29,1.9-2.44c1.2-0.15,2.29,0.7,2.44,1.9
			l5.81,46.38c0.62,4.9,4.78,8.57,9.71,8.57h74.18c1.21,0,2.19,0.98,2.19,2.19S104.02,140,102.81,140z"/>
		<path d="M33.91,129.07c-4.23-0.01-7.65-3.43-7.66-7.66V95.16c0-4.23,3.43-7.66,7.66-7.66s7.66,3.43,7.66,7.66v26.25
			C41.56,125.64,38.13,129.06,33.91,129.07z M33.91,91.88c-1.81,0-3.28,1.47-3.28,3.28v26.25c0,1.81,1.47,3.28,3.28,3.28
			c1.81,0,3.28-1.47,3.28-3.28V95.16C37.19,93.35,35.72,91.88,33.91,91.88z"/>
		<path d="M57.97,129.07c-4.23-0.01-7.65-3.43-7.66-7.66V95.16c0-4.23,3.43-7.66,7.66-7.66s7.66,3.43,7.66,7.66v26.25
			C65.62,125.64,62.2,129.06,57.97,129.07z M57.97,91.88c-1.81,0-3.28,1.47-3.28,3.28v26.25c0,1.81,1.47,3.28,3.28,3.28
			c1.81,0,3.28-1.47,3.28-3.28V95.16C61.25,93.35,59.78,91.88,57.97,91.88z"/>
		<path d="M82.03,129.07c-4.23-0.01-7.65-3.43-7.66-7.66V95.16c0-4.23,3.43-7.66,7.66-7.66s7.66,3.43,7.66,7.66v26.25
			C89.68,125.64,86.26,129.06,82.03,129.07z M82.03,91.88c-1.81,0-3.28,1.47-3.28,3.28v26.25c0,1.81,1.47,3.28,3.28,3.28
			c1.81,0,3.28-1.47,3.28-3.28V95.16C85.31,93.35,83.84,91.88,82.03,91.88z"/>
		<path d="M56.88,76.57c-4.83,0-8.75-3.92-8.75-8.75V8.28c0.01-4.57,3.71-8.27,8.28-8.28l20.16,0l21.63,0
			c4.25-0.07,7.95,2.88,8.83,7.04c0.94,4.74-2.14,9.35-6.88,10.3c-0.56,0.11-1.13,0.17-1.7,0.17H67.91c-1.26,0-2.28,1.02-2.28,2.28
			v48.03C65.62,72.65,61.71,76.56,56.88,76.57z M56.4,4.38c-2.15,0-3.9,1.75-3.9,3.9v59.54c0,2.42,1.96,4.37,4.37,4.37
			s4.37-1.96,4.37-4.37V19.79c0-3.67,2.98-6.65,6.65-6.66h30.53c2.42,0,4.38-1.96,4.38-4.38c0-0.3-0.03-0.59-0.09-0.88
			c-0.5-2.08-2.39-3.54-4.53-3.49L56.4,4.38z"/>
		<path d="M105,35.01c-1.21,0-2.19-0.98-2.19-2.18c0,0,0,0,0,0V8.75c0-1.21,0.98-2.19,2.19-2.19c1.21,0,2.19,0.98,2.19,2.19v24.07
			C107.19,34.03,106.21,35,105,35.01C105,35.01,105,35.01,105,35.01z"/>
		<path d="M91.87,13.13L91.87,13.13c1.21,0,2.19,0.98,2.19,2.19v0v6.57c0,1.21-0.98,2.19-2.19,2.19h0c-1.21,0-2.19-0.98-2.19-2.19
			l0,0v-6.57C89.69,14.11,90.66,13.13,91.87,13.13z"/>
		<path d="M43.75,32.82H10.94c-1.21,0-2.19-0.98-2.19-2.19c0-1.21,0.98-2.19,2.19-2.19h32.81c1.21,0,2.19,0.98,2.19,2.19
			C45.94,31.84,44.96,32.82,43.75,32.82z"/>
		<path d="M10.94,52.09c-1.21,0-2.19-0.98-2.19-2.18c0,0,0,0,0,0V30.63c0-0.58,0.23-1.14,0.64-1.55L20.3,18.18
			c0.82-0.88,2.21-0.94,3.09-0.11c0.88,0.82,0.94,2.21,0.11,3.09c-0.03,0.03-0.05,0.06-0.08,0.09l-10.3,10.3V49.9
			C13.13,51.11,12.15,52.09,10.94,52.09C10.94,52.09,10.94,52.09,10.94,52.09z"/>
		<path d="M43.75,70c-1.21,0-2.19-0.98-2.19-2.18c0,0,0,0,0,0V30.63c0-0.47,0.15-0.93,0.44-1.31l6.56-8.75
			c0.72-0.97,2.09-1.17,3.06-0.45c0.97,0.72,1.17,2.09,0.45,3.06c0,0-0.01,0.01-0.01,0.01l-6.12,8.16v36.46
			C45.94,69.02,44.96,70,43.75,70C43.75,70,43.75,70,43.75,70z"/>
		<path d="M50.31,21.88L50.31,21.88L22.2,21.85c-0.31,0.04-0.62,0.02-0.92-0.06c-1.16-0.33-1.83-1.54-1.5-2.7
			c0.11-0.36,0.3-0.7,0.57-0.97c0.17-0.17,0.36-0.3,0.57-0.41c0.1-0.05,0.19-0.09,0.29-0.12c0.22-0.07,0.46-0.11,0.7-0.11h0
			l28.42,0.03c1.21,0,2.19,0.98,2.19,2.19C52.5,20.9,51.52,21.88,50.31,21.88z"/>
		<path d="M21.9,21.85c-1.21,0-2.19-0.98-2.19-2.18c0,0,0,0,0,0v-6.54c0-1.21,0.98-2.19,2.18-2.19c0,0,0,0,0,0l28.42,0
			c1.21,0,2.19,0.98,2.19,2.19s-0.98,2.19-2.19,2.19l-26.23,0v4.35C24.09,20.87,23.11,21.85,21.9,21.85
			C21.9,21.85,21.9,21.85,21.9,21.85z"/>
		<path d="M50.31,41.57l-39.37,0c-1.21,0-2.19-0.98-2.19-2.19c0-1.21,0.98-2.19,2.19-2.19l39.37,0c1.21,0,2.19,0.98,2.19,2.19
			C52.5,40.59,51.52,41.57,50.31,41.57z"/>
		<path d="M131.25,70.01c-1.21,0-2.19-0.98-2.19-2.18c0,0,0,0,0,0V37.19c0-0.22,0.03-0.44,0.1-0.65l0.48-1.54H99.79l0.6,1.21
			c0.15,0.3,0.23,0.64,0.23,0.98v30.62c0,1.21-0.98,2.19-2.19,2.19c-1.21,0-2.19-0.98-2.19-2.19V37.71l-1.96-3.91
			c-0.54-1.08-0.1-2.4,0.98-2.94c0.3-0.15,0.64-0.23,0.98-0.23h36.36c1.21,0,2.19,0.98,2.19,2.19c0,0.22-0.03,0.44-0.1,0.65
			l-1.26,4.06v30.29C133.44,69.03,132.46,70,131.25,70.01C131.25,70.01,131.25,70.01,131.25,70.01z"/>
		<path d="M131.25,52.5c-0.41,0-0.81-0.12-1.16-0.33l-5.38-3.36c-6.03-3.81-13.7-3.81-19.73,0l-5.38,3.36
			c-1.03,0.64-2.37,0.32-3.01-0.7c-0.64-1.02-0.33-2.37,0.69-3.01l5.38-3.36c7.44-4.7,16.93-4.7,24.37,0l5.38,3.36
			c1.02,0.64,1.33,1.99,0.69,3.01C132.7,52.12,132,52.5,131.25,52.5z"/>
		<path d="M124.69,70.01c-1.21,0-2.19-0.98-2.19-2.18c0,0,0,0,0,0v-2.43c-0.03-3.48-2.84-6.29-6.32-6.32h-2.67
			c-3.49,0-6.32,2.83-6.32,6.32v2.43c0,1.21-0.98,2.19-2.19,2.19s-2.19-0.98-2.19-2.19v-2.43c0.01-5.9,4.79-10.69,10.7-10.7h2.67
			c5.9,0.03,10.67,4.8,10.7,10.7v2.43C126.88,69.03,125.9,70,124.69,70.01C124.69,70.01,124.69,70.01,124.69,70.01z"/>
		<path d="M105,68.71c-1.21,0-2.19-0.98-2.19-2.18c0,0,0,0,0,0V46.27c0-1.21,0.98-2.19,2.19-2.19c1.21,0,2.19,0.98,2.19,2.19v20.26
			C107.19,67.73,106.21,68.71,105,68.71C105,68.71,105,68.71,105,68.71z"/>
		<path d="M113.75,59.07c-1.21,0-2.19-0.98-2.19-2.18c0,0,0,0,0,0V43.8c0-1.21,0.98-2.19,2.19-2.19s2.19,0.98,2.19,2.19v13.08
			C115.94,58.09,114.96,59.06,113.75,59.07C113.75,59.07,113.75,59.07,113.75,59.07z"/>
		<path d="M122.5,61.91c-1.21,0-2.19-0.98-2.19-2.18c0,0,0,0,0,0V45.24c0-1.21,0.98-2.19,2.19-2.19s2.19,0.98,2.19,2.19v14.48
			C124.69,60.93,123.71,61.91,122.5,61.91C122.5,61.91,122.5,61.91,122.5,61.91z"/>
		<path d="M91.87,30.63h-17.5c-1.21,0-2.19-0.98-2.19-2.18c0,0,0,0,0,0v-6.56c0-1.21,0.98-2.19,2.18-2.19c0,0,0,0,0,0h17.5
			c1.21,0,2.19,0.98,2.19,2.18c0,0,0,0,0,0v6.56C94.06,29.65,93.08,30.63,91.87,30.63C91.87,30.63,91.87,30.63,91.87,30.63z
			 M76.56,26.26h13.12v-2.19H76.56L76.56,26.26z"/>
		<path d="M94.06,70.01c-1.21,0-2.19-0.98-2.19-2.18c0,0,0,0,0,0v-3.98c0.01-2.14-0.27-4.26-0.84-6.33l-0.99-3.74
			c-0.15-0.56-0.29-1.1-0.42-1.66c-1.18-4.86-1.87-9.83-2.06-14.84c-0.05-1.03-0.07-2.06-0.07-3.1v-5.73c0-1.21,0.98-2.19,2.19-2.19
			c1.21,0,2.19,0.98,2.19,2.19v5.73c0,0.98,0.02,1.95,0.07,2.92c0.18,4.73,0.83,9.42,1.94,14.02c0.12,0.54,0.25,1.03,0.39,1.53
			l0.98,3.72c0.67,2.43,1,4.95,0.99,7.47v3.98C96.25,69.03,95.27,70,94.06,70.01C94.06,70.01,94.06,70.01,94.06,70.01z"/>
		<path d="M72.19,70.01c-1.21,0-2.19-0.98-2.19-2.18c0,0,0,0,0,0v-3.98c-0.01-2.53,0.33-5.06,1-7.5l0.91-3.45
			c1.38-5.16,2.18-10.45,2.4-15.79c0.04-0.98,0.07-1.95,0.07-2.93v-5.73c0-1.21,0.98-2.19,2.19-2.19c1.21,0,2.19,0.98,2.19,2.19
			v5.73c0,1.04-0.02,2.08-0.07,3.12c-0.23,5.65-1.09,11.26-2.55,16.72l-0.91,3.47c-0.57,2.07-0.85,4.21-0.84,6.36v3.98
			C74.38,69.03,73.4,70,72.19,70.01C72.19,70.01,72.19,70.01,72.19,70.01z"/>
		<path d="M89.75,39.38H76.5c-1.21,0-2.19-0.98-2.19-2.19c0-1.21,0.98-2.19,2.19-2.19h13.26c1.21,0,2.19,0.98,2.19,2.19
			C91.94,38.4,90.96,39.38,89.75,39.38z"/>
		<path d="M87.5,63.44h-8.75c-1.21,0-2.19-0.98-2.19-2.19c0-1.21,0.98-2.19,2.19-2.19h8.75c1.21,0,2.19,0.98,2.19,2.19
			C89.69,62.46,88.71,63.44,87.5,63.44z"/>
		<path d="M37.63,70.01c-0.56,0-1.1-0.22-1.51-0.6L22.67,56.56l-9.53,9.98c0.7,0.98,0.48,2.35-0.5,3.05
			c-0.85,0.61-2.02,0.53-2.78-0.19l-1.29-1.23c-0.88-0.83-0.91-2.22-0.08-3.09c0,0,0,0,0,0l12.54-13.12
			c0.83-0.87,2.22-0.9,3.09-0.07l15.03,14.35c0.87,0.83,0.91,2.22,0.07,3.09C38.8,69.76,38.22,70.01,37.63,70.01z"/>
		<path d="M10.07,68.78c-0.56,0-1.1-0.22-1.51-0.6l-7.88-7.52c-0.87-0.83-0.91-2.22-0.07-3.09c0,0,0,0,0,0l12.53-13.13
			c0.83-0.87,2.22-0.91,3.09-0.07l7.88,7.52c0.87,0.83,0.91,2.22,0.07,3.09c-0.83,0.87-2.22,0.91-3.09,0.07l-6.3-6.01L5.28,59
			l6.3,6.01c0.87,0.83,0.91,2.22,0.07,3.09C11.24,68.53,10.66,68.78,10.07,68.78z"/>
		<path d="M134.75,100.63H97.13c-1.76-0.08-3.14-1.56-3.07-3.33v-3.24c0-1.21,0.98-2.19,2.19-2.19c1.21,0,2.19,0.98,2.19,2.19v2.19
			h35.01v-2.19c0-1.21,0.98-2.19,2.19-2.19s2.19,0.98,2.19,2.19v3.24C137.89,99.07,136.52,100.55,134.75,100.63z"/>
		<path d="M137.81,94.07H94.06c-1.21,0-2.19-0.98-2.19-2.19c0-1.21,0.98-2.19,2.19-2.19h43.75c1.21,0,2.19,0.98,2.19,2.19
			C140,93.09,139.02,94.07,137.81,94.07z"/>
		<path d="M127.91,133.44h-23.94c-2.76,0-5.05-2.13-5.25-4.88l-2.45-29.94c-0.1-1.2,0.8-2.26,2.01-2.36c1.2-0.1,2.26,0.8,2.36,2
			l2.45,29.93c0.02,0.48,0.41,0.86,0.89,0.87h23.94c0.48-0.02,0.87-0.4,0.9-0.88l2.45-29.93c0.1-1.2,1.15-2.1,2.36-2.01
			s2.1,1.15,2.01,2.36c0,0,0,0,0,0.01l-2.45,29.93C132.94,131.29,130.66,133.41,127.91,133.44z"/>
		<path d="M128.14,140h-24.41c-1.89,0-3.11-1.86-3.11-4.75v-4.35c0-1.21,0.98-2.19,2.19-2.19s2.19,0.98,2.19,2.19v4.35
			c0,0.13,0.01,0.26,0.01,0.37h21.84c0.01-0.11,0.01-0.24,0.01-0.37v-4.4c0-1.21,0.98-2.19,2.19-2.19s2.19,0.98,2.19,2.19v4.4
			C131.25,138.14,130.03,140,128.14,140z"/>
		<path d="M117.03,124.69h-2.19c-5.44,0-9.84-4.41-9.84-9.84s4.41-9.84,9.84-9.84h2.19c5.44,0,9.84,4.41,9.84,9.84
			S122.47,124.69,117.03,124.69z M114.84,109.38c-3.02,0-5.47,2.45-5.47,5.47s2.45,5.47,5.47,5.47h2.19c3.02,0,5.47-2.45,5.47-5.47
			s-2.45-5.47-5.47-5.47H114.84z"/>
	</g>
</g>
<g id="Guias" class="st60">
</g>
</svg>
