<?xml version="1.0" encoding="utf-8"?>
<!-- Generator: Adobe Illustrator 25.4.1, SVG Export Plug-In . SVG Version: 6.00 Build 0)  -->
<svg version="1.1" xmlns="http://www.w3.org/2000/svg" xmlns:xlink="http://www.w3.org/1999/xlink" x="0px" y="0px"
	 viewBox="0 0 140 119.73" style="enable-background:new 0 0 140 119.73;" xml:space="preserve">
<style type="text/css">
	.st0{opacity:0.21;}
	.st1{opacity:0.6;fill:#E9DFD0;}
	.st2{fill:#899182;}
	.st3{fill:none;stroke:#000000;stroke-miterlimit:10;}
	.st4{fill:#5C504F;}
	.st5{fill:#FFFFFF;}
	.st6{fill:#F7F6F3;}
	.st7{fill:#EEEEEE;}
	.st8{fill:#829758;}
	.st9{fill:#B9B791;}
	.st10{fill:#E9DFD0;}
	.st11{fill:none;stroke:#D8D8D7;stroke-miterlimit:10;}
	.st12{fill:#A1AE82;}
	.st13{fill:#9F9E9C;}
	.st14{fill:#DD5241;}
	.st15{fill:#6AAB5B;}
	.st16{fill:#538A46;}
	.st17{opacity:0.8;}
	.st18{fill:#53A173;}
	.st19{fill:#468B62;}
	.st20{fill:#DFF0B9;}
	.st21{fill:#B2E05C;}
	.st22{fill:#5DAD83;}
	.st23{fill:#E04448;}
	.st24{fill:#CC393C;}
	.st25{fill:#EDA84B;}
	.st26{fill:#E78C3F;}
	.st27{fill:#C6E781;}
	.st28{fill:#A7D156;}
	.st29{fill:#67534F;}
	.st30{fill:#CCA69E;}
	.st31{fill:#A48480;}
	.st32{fill:#F8E1DA;}
	.st33{fill:#8F7670;}
	.st34{fill:#789633;}
	.st35{fill:#6E892E;}
	.st36{fill:#CF6152;}
	.st37{fill:#C35147;}
	.st38{fill:#81A03A;}
	.st39{fill:#844E1C;}
	.st40{fill:#EFA440;}
	.st41{fill:#E69837;}
	.st42{fill:#E1913E;}
	.st43{fill:#84A53C;}
	.st44{fill:#91B04B;}
	.st45{fill:#8BAA46;}
	.st46{fill:#D38237;}
	.st47{fill:#E6EBF2;}
	.st48{fill:#F2BD47;}
	.st49{fill:#E8626A;}
	.st50{fill:#F5CF5F;}
	.st51{fill:#7DA563;}
	.st52{fill:#6DD6BD;}
	.st53{fill:#646A73;}
	.st54{fill:#6898EC;}
	.st55{fill:#CAD0DF;}
	.st56{fill:#ADD573;}
	.st57{fill:#4F5661;}
	.st58{fill:#D9DFE9;}
	.st59{fill:#77A8F7;}
	.st60{display:none;}
</style>
<g id="REFERENCIA">
</g>
<g id="Capa_3">
</g>
<g id="Elementos">
</g>
<g id="Textos">
</g>
<g id="Iconos">
	<g>
		<g>
			<g>
				<path class="st18" d="M99.8,35.75c0-2.85-1.48-5.36-3.71-6.79c-0.81-0.52-1.1-1.59-0.6-2.43c0.71-1.2,1.12-2.61,1.12-4.11
					c0-3.6-2.35-6.64-5.6-7.68c-0.78-0.25-1.3-0.96-1.3-1.78c0-0.02,0-0.04,0-0.06c0-4.45-3.61-8.06-8.06-8.06
					c-4.45,0-8.06,3.61-8.06,8.06c0,0.02,0,0.04,0,0.06c0.01,0.82-0.52,1.53-1.3,1.78c-3.25,1.04-5.6,4.08-5.6,7.68
					c0,1.5,0.41,2.9,1.12,4.11c0.49,0.83,0.21,1.9-0.6,2.43c-2.23,1.43-3.71,3.94-3.71,6.79c0,3.47,2.19,6.42,5.26,7.56
					c0.63,0.23,1.09,0.78,1.19,1.44c0.85,5.71,5.77,10.09,11.71,10.09s10.86-4.38,11.71-10.09c0.1-0.66,0.56-1.21,1.19-1.44
					C97.61,42.17,99.8,39.22,99.8,35.75L99.8,35.75z"/>
				<path class="st19" d="M99.8,35.75c0,3.47-2.19,6.42-5.26,7.56c-0.63,0.23-1.09,0.77-1.19,1.44
					c-0.85,5.71-5.77,10.09-11.71,10.09c-1.38,0-2.69-0.23-3.92-0.66c4.08-1.43,7.14-5.03,7.79-9.42c0.1-0.66,0.56-1.21,1.19-1.44
					c3.07-1.14,5.26-4.09,5.26-7.56c0-2.85-1.48-5.36-3.72-6.79c-0.81-0.52-1.1-1.59-0.6-2.43c0.71-1.2,1.12-2.61,1.12-4.11
					c0-3.6-2.35-6.64-5.6-7.68c-0.78-0.25-1.3-0.96-1.3-1.78v-0.06c0-3.03-1.67-5.67-4.15-7.05c1.16-0.65,2.5-1.02,3.92-1.02
					c4.45,0,8.06,3.61,8.06,8.06v0.06c-0.01,0.82,0.52,1.53,1.3,1.78c3.25,1.04,5.6,4.08,5.6,7.68c0,1.5-0.41,2.9-1.12,4.11
					c-0.49,0.83-0.21,1.9,0.6,2.43C98.31,30.4,99.8,32.9,99.8,35.75L99.8,35.75z"/>
				<ellipse class="st20" cx="81.63" cy="38.93" rx="3.83" ry="21.19"/>
			</g>
			<g>
				<path class="st18" d="M40.19,23.94c-0.9-2.51-3-4.24-5.41-4.8c-0.88-0.2-1.47-1.06-1.3-1.94c0.25-1.28,0.16-2.65-0.31-3.97
					c-1.14-3.16-4.17-5.1-7.36-4.98c-0.77,0.03-1.45-0.43-1.71-1.16c-0.01-0.02-0.01-0.03-0.02-0.05c-1.41-3.92-5.73-5.95-9.64-4.54
					s-5.95,5.73-4.54,9.64c0.01,0.02,0.01,0.03,0.02,0.05c0.26,0.72,0.03,1.51-0.58,1.98c-2.53,1.94-3.64,5.37-2.5,8.53
					c0.47,1.32,1.28,2.42,2.29,3.26c0.7,0.58,0.79,1.61,0.24,2.33c-1.51,1.97-2.02,4.64-1.12,7.15c1.1,3.05,3.96,4.96,7.02,4.99
					c0.63,0.01,1.21,0.34,1.5,0.89c2.55,4.75,8.27,7.05,13.49,5.17c5.23-1.88,8.17-7.29,7.11-12.58c-0.12-0.61,0.11-1.24,0.59-1.64
					C40.29,30.28,41.28,26.99,40.19,23.94z"/>
				<path class="st19" d="M40.19,23.94c1.1,3.05,0.11,6.34-2.24,8.31c-0.48,0.4-0.72,1.03-0.59,1.64c1.06,5.29-1.89,10.7-7.11,12.58
					c-1.21,0.44-2.44,0.65-3.66,0.66c3.14-2.55,4.69-6.69,3.88-10.75c-0.12-0.62,0.11-1.24,0.59-1.64c2.34-1.98,3.33-5.26,2.24-8.31
					c-0.9-2.51-3-4.24-5.42-4.8c-0.88-0.2-1.47-1.06-1.3-1.94c0.25-1.28,0.16-2.65-0.31-3.97c-1.14-3.16-4.17-5.1-7.36-4.98
					c-0.77,0.03-1.45-0.43-1.71-1.16l-0.02-0.05c-0.96-2.67-3.27-4.46-5.88-4.89c0.82-0.94,1.87-1.68,3.13-2.13
					c3.92-1.41,8.24,0.63,9.64,4.54l0.02,0.05c0.25,0.72,0.94,1.18,1.71,1.16c3.19-0.11,6.22,1.82,7.36,4.98
					c0.47,1.32,0.56,2.68,0.31,3.97c-0.17,0.89,0.41,1.74,1.3,1.94C37.19,19.7,39.29,21.43,40.19,23.94L40.19,23.94z"/>
				
					<ellipse transform="matrix(0.9411 -0.338 0.338 0.9411 -9.4991 10.4322)" class="st20" cx="25.2" cy="32.49" rx="3.58" ry="19.81"/>
			</g>
			<g>
				<g>
					<g>
						<path class="st21" d="M119.82,47.08c-1,2.75-3.45,4.56-6.17,4.88c-1.88-1.99-2.59-4.95-1.59-7.7c1-2.75,3.45-4.56,6.17-4.88
							C120.11,41.37,120.82,44.33,119.82,47.08L119.82,47.08z"/>
					</g>
					<g>
						<path class="st22" d="M112.42,44.25c1,2.75,0.29,5.71-1.59,7.7c-2.72-0.32-5.17-2.13-6.17-4.88c-1-2.75-0.29-5.71,1.59-7.7
							C108.97,39.69,111.42,41.5,112.42,44.25z"/>
					</g>
				</g>
				<g>
					<path class="st23" d="M128.12,58.48c0,8.77-7.11,15.88-15.88,15.88s-15.88-7.11-15.88-15.88s7.11-12.12,15.88-12.12
						S128.12,49.71,128.12,58.48L128.12,58.48z"/>
					<path class="st24" d="M128.12,58.48c0,8.77-7.11,15.88-15.88,15.88c-1.34,0-2.63-0.17-3.87-0.47
						c6.9-1.73,12.01-7.97,12.01-15.41c0-7.43-5.11-10.98-12.01-11.88c1.24-0.16,2.53-0.24,3.87-0.24
						C121.01,46.36,128.12,49.71,128.12,58.48L128.12,58.48z"/>
				</g>
			</g>
			<g>
				<g>
					<g>
						<path class="st21" d="M120.89,21.95c-2.78,2.33-6.51,2.75-9.63,1.41c-0.78-3.3,0.29-6.91,3.06-9.24s6.51-2.75,9.62-1.41
							C124.73,16.01,123.67,19.62,120.89,21.95z"/>
					</g>
					<g>
						<path class="st22" d="M114.71,14.35c-0.63,3.57-3.22,6.3-6.47,7.27c-2.72-2.02-4.22-5.48-3.59-9.04
							c0.63-3.57,3.22-6.3,6.47-7.27C113.84,7.33,115.34,10.78,114.71,14.35L114.71,14.35z"/>
					</g>
				</g>
				<g>
					<path class="st25" d="M117.44,35.41c3.23-8.47-2.85-13.51-6.22-15.46s-10.78-4.7-16.5,2.34c-5.07,6.23-17.55,30.65-15.69,48.44
						c0.22,2.07,2.41,3.33,4.31,2.49C99.67,65.94,114.58,42.92,117.44,35.41L117.44,35.41z"/>
					<path class="st26" d="M83.34,73.22c-1.9,0.85-4.09-0.42-4.31-2.49c-0.05-0.48-0.09-0.97-0.12-1.46
						c15.81-7.89,29.99-29.88,32.78-37.18c2.46-6.45-0.47-10.9-3.5-13.53c1.19,0.41,2.22,0.93,3.03,1.39
						c3.37,1.95,9.46,6.98,6.22,15.46C114.58,42.92,99.67,65.94,83.34,73.22z"/>
				</g>
			</g>
			<g>
				<g>
					<g>
						<path class="st21" d="M61.68,16.9c-1.51,2.82-4.44,4.39-7.43,4.31c-1.72-2.45-2.02-5.75-0.51-8.57s4.44-4.39,7.43-4.3
							C62.88,10.78,63.19,14.09,61.68,16.9z"/>
					</g>
					<g>
						<path class="st22" d="M54.13,12.69c0.65,3.13-0.58,6.21-2.92,8.07c-2.89-0.77-5.25-3.11-5.9-6.24s0.58-6.21,2.92-8.07
							C51.12,7.23,53.48,9.57,54.13,12.69L54.13,12.69z"/>
					</g>
				</g>
				<g>
					<path class="st23" d="M68.85,30.52C67.48,40,58.69,46.56,49.21,45.18S33.18,35.02,34.55,25.54s9.58-11.98,19.05-10.6
						S70.23,21.05,68.85,30.52L68.85,30.52z"/>
					<path class="st24" d="M68.85,30.52C67.48,40,58.69,46.56,49.21,45.18c-1.44-0.21-2.82-0.59-4.1-1.12
						c7.72-0.79,14.22-6.72,15.39-14.76c1.17-8.03-3.8-12.66-11.11-14.72c1.36,0.02,2.77,0.14,4.22,0.35
						C63.08,16.32,70.23,21.05,68.85,30.52L68.85,30.52z"/>
				</g>
			</g>
			<g>
				<g>
					<g>
						<circle class="st20" cx="62.43" cy="52.4" r="18.28"/>
					</g>
					<path class="st27" d="M66.98,57.02c0,0-2.22-6.66,4.47-11.05c0,0-2.97-6.78-0.46-11.63c0.48-0.92,1.62-1.26,2.54-0.78
						c3.05,1.61,9.69,6.32,10.8,17.12c1.17,11.27-9.29,18.25-13.55,20.61c-1.13,0.62-2.53,0.45-3.47-0.43
						C65.02,68.71,61.82,63.99,66.98,57.02z"/>
					<path class="st21" d="M84.33,50.69c1.16,11.27-9.29,18.25-13.54,20.61c-0.9,0.5-1.97,0.49-2.85,0.02
						c4.74-3.44,10.69-9.57,9.8-18.22c-0.82-7.87-4.56-12.51-7.72-15.07c0,0,0,0,0,0c0.09-1.26,0.38-2.52,0.98-3.68
						c0.47-0.92,1.62-1.26,2.53-0.77C76.58,35.18,83.22,39.89,84.33,50.69L84.33,50.69z"/>
					<g>
						<path class="st21" d="M67.73,72.62c0.87-0.26,1.57-0.9,1.9-1.74c1.17-2.91,3.19-10.21-2.55-16.72
							c-6.85-7.79-15.69-3.8-15.69-3.8s-0.73-8.49-5.73-8.97c-4.71-0.45-13.69,16.36-0.49,28.13
							C52.78,76.31,63.95,73.76,67.73,72.62z"/>
					</g>
					<g>
						<path class="st28" d="M69.63,70.89c-0.34,0.84-1.04,1.48-1.9,1.74c-0.25,0.08-0.54,0.16-0.86,0.24
							c0.65-3.56,0.45-8.53-3.59-13.12c-5.09-5.79-11.27-5.07-14.12-4.33c-0.82,0.22-1.66-0.31-1.82-1.14
							c-0.5-2.5-1.89-6.96-5.47-7.31c-0.69-0.07-1.47,0.24-2.25,0.83c1.55-3.97,4.15-6.6,6.05-6.42c5,0.48,5.73,8.97,5.73,8.97
							s8.83-3.99,15.69,3.8C72.82,60.68,70.81,67.97,69.63,70.89L69.63,70.89z"/>
					</g>
				</g>
				<g>
					<g>
						<circle class="st20" cx="33.73" cy="48.15" r="18.28"/>
					</g>
					<path class="st27" d="M35.98,54.22c0,0,0.71-6.99,8.62-8.24c0,0,0.08-7.4,4.37-10.79c0.81-0.64,1.99-0.48,2.63,0.34
						c2.12,2.73,6.23,9.75,2.81,20.05C50.83,66.34,38.43,68.41,33.58,68.8c-1.29,0.11-2.49-0.63-2.99-1.82
						C29.39,64.08,28.4,58.46,35.98,54.22z"/>
					<path class="st21" d="M54.4,55.59C50.83,66.34,38.43,68.41,33.58,68.8c-1.02,0.08-2-0.37-2.6-1.16
						c5.74-1.19,13.68-4.33,16.42-12.58c2.49-7.51,0.99-13.28-0.84-16.91c0,0,0,0,0,0c0.6-1.11,1.38-2.15,2.41-2.95
						c0.81-0.64,1.99-0.48,2.63,0.34C53.71,38.26,57.82,45.29,54.4,55.59L54.4,55.59z"/>
					<g>
						<path class="st21" d="M30.25,68.76c0.9,0.12,1.8-0.17,2.45-0.8c2.27-2.17,7.1-8,4.55-16.29c-3.04-9.92-12.74-9.92-12.74-9.92
							s2.83-8.04-1.53-10.53c-4.11-2.35-19.21,9.28-12.02,25.44C15.1,65.97,26.33,68.24,30.25,68.76z"/>
					</g>
					<g>
						<path class="st28" d="M32.69,67.96c-0.65,0.63-1.55,0.92-2.45,0.8c-0.26-0.03-0.56-0.08-0.88-0.13
							c2.05-2.98,3.92-7.59,2.13-13.43c-2.26-7.37-8.19-9.26-11.09-9.75c-0.84-0.14-1.38-0.96-1.19-1.79
							c0.57-2.48,1.14-7.12-1.99-8.91c-0.6-0.34-1.43-0.39-2.4-0.17c3.05-2.98,6.5-4.31,8.15-3.36c4.36,2.49,1.54,10.53,1.54,10.53
							s9.69-0.01,12.74,9.92C39.79,59.96,34.96,65.78,32.69,67.96z"/>
					</g>
				</g>
			</g>
			<g>
				<path class="st29" d="M6.14,76.58h127.71v25.88H6.14L6.14,76.58z"/>
				<g>
					<path class="st30" d="M134.68,84.28H5.32c-1.8,0-3.27-1.46-3.27-3.27V62.35c0-1.8,1.46-3.27,3.27-3.27h129.36
						c1.8,0,3.27,1.46,3.27,3.27v18.67C137.95,82.82,136.49,84.28,134.68,84.28z"/>
					<path class="st31" d="M137.95,62.34v18.67c0,1.8-1.46,3.27-3.27,3.27h-8.63c1.81,0,3.27-1.46,3.27-3.27V62.34
						c0-1.8-1.46-3.27-3.27-3.27h8.63C136.49,59.08,137.95,60.54,137.95,62.34L137.95,62.34z"/>
					<g>
						<path class="st32" d="M10.63,75.91H2.05v-8.47h8.58c0.9,0,1.63,0.73,1.63,1.63v5.2C12.27,75.18,11.53,75.91,10.63,75.91z"/>
					</g>
					<g>
						<path class="st32" d="M137.95,75.91h-8.58c-0.9,0-1.63-0.73-1.63-1.63v-5.2c0-0.9,0.73-1.63,1.63-1.63h8.58V75.91z"/>
					</g>
				</g>
				<g>
					<path class="st31" d="M134.68,117.68H5.32c-1.8,0-3.27-1.46-3.27-3.27V95.75c0-1.8,1.46-3.27,3.27-3.27h129.36
						c1.8,0,3.27,1.46,3.27,3.27v18.67C137.95,116.22,136.49,117.68,134.68,117.68z"/>
					<path class="st33" d="M137.95,95.75v18.66c0,1.8-1.46,3.27-3.27,3.27h-8.63c1.81,0,3.27-1.46,3.27-3.27V95.75
						c0-1.81-1.46-3.27-3.27-3.27h8.63C136.49,92.48,137.95,93.94,137.95,95.75L137.95,95.75z"/>
					<g>
						<path class="st32" d="M10.63,109.32H2.05v-8.47h8.58c0.9,0,1.63,0.73,1.63,1.63v5.2C12.27,108.58,11.53,109.32,10.63,109.32z"
							/>
					</g>
					<g>
						<path class="st32" d="M137.95,109.32h-8.58c-0.9,0-1.63-0.73-1.63-1.63v-5.2c0-0.9,0.73-1.63,1.63-1.63h8.58V109.32z"/>
					</g>
				</g>
			</g>
		</g>
		<g>
			<path d="M93.27,54.04c0.71,0,1.4-0.37,1.78-1.03c0.57-0.98,0.23-2.24-0.75-2.8l-2.85-1.65c-0.98-0.57-2.24-0.23-2.8,0.75
				c-0.57,0.98-0.23,2.24,0.75,2.8l2.85,1.65C92.57,53.95,92.92,54.04,93.27,54.04L93.27,54.04z"/>
			<path d="M140,81.01V62.35c0-2.93-2.39-5.32-5.32-5.32h-4.58c-0.36-4.1-2.23-7.4-5.49-9.6c-0.75-0.5-1.56-0.94-2.43-1.33
				c0.5-2.92-0.37-5.92-2.46-8.14c-0.25-0.26-0.56-0.45-0.89-0.55c0.2-0.45,0.38-0.88,0.53-1.27c1.68-4.41,1.18-8.01-0.17-10.81
				c1.09-0.44,2.11-1.05,3.03-1.82c3.3-2.77,4.73-7.09,3.74-11.28c-0.15-0.63-0.59-1.16-1.18-1.41c-2.58-1.11-5.47-1.19-8.08-0.33
				c-0.54-2.69-2.04-5.13-4.33-6.84c-0.52-0.39-1.19-0.51-1.81-0.32c-4.12,1.24-7.15,4.64-7.9,8.88c-0.21,1.18-0.22,2.36-0.06,3.53
				c-1.72,0.13-3.52,0.6-5.29,1.62c-1.22-2.11-3.17-3.73-5.55-4.53C91.71,7.29,87.19,2.79,81.63,2.79c-5.55,0-10.08,4.5-10.11,10.04
				c-2.44,0.82-4.43,2.5-5.63,4.68c-0.54-0.43-1.11-0.83-1.73-1.21c1.04-3.06,0.59-6.44-1.31-9.15c-0.37-0.53-0.97-0.86-1.62-0.87
				c-2.45-0.07-4.82,0.76-6.68,2.26c-1.35-1.96-3.37-3.42-5.78-4.06c-0.63-0.17-1.3-0.03-1.8,0.37c-2.59,2.06-3.99,5.17-3.86,8.4
				c-1.05,0.28-2.03,0.64-2.94,1.08c-1.61,0.77-2.98,1.79-4.11,3.04c-0.16-0.05-0.32-0.1-0.49-0.14c0.24-1.57,0.08-3.18-0.46-4.69
				c-1.39-3.87-5.04-6.39-9.14-6.35c-1.85-4.88-7.29-7.4-12.21-5.63C11.33,1.43,9.4,3.19,8.31,5.5c-1.07,2.27-1.21,4.81-0.4,7.18
				c-3.19,2.57-4.4,6.84-3.01,10.71c0.54,1.5,1.45,2.85,2.63,3.9c-1.84,2.57-2.3,5.84-1.23,8.83c0.52,1.43,1.35,2.7,2.43,3.72
				c-0.39,0.89-0.73,1.82-1,2.8c-0.3,1.09,0.34,2.22,1.43,2.52c1.09,0.3,2.22-0.34,2.52-1.43c1.42-5.12,5.09-8.84,8.11-10.25
				c1.33-0.62,2.05-0.55,2.16-0.5c2.33,1.33,1.2,6.4,0.62,8.07c-0.22,0.62-0.12,1.32,0.26,1.86c0.38,0.54,1,0.87,1.66,0.87
				c0.34,0,8.24,0.17,10.79,8.47c0.49,1.61,0.7,3.2,0.61,4.76H24.09c-1.39-4.03-0.74-6.95-0.72-7.04c0.27-1.09-0.39-2.2-1.48-2.48
				c-1.1-0.28-2.22,0.38-2.5,1.47c-0.04,0.16-0.85,3.44,0.41,8.05h-6.36c-0.22-0.39-0.42-0.79-0.61-1.2
				c-0.61-1.37-1.06-2.76-1.35-4.12c-0.23-1.11-1.32-1.82-2.43-1.58c-1.11,0.23-1.82,1.32-1.58,2.43c0.32,1.49,0.79,3,1.42,4.48
				H5.32C2.39,57.03,0,59.41,0,62.35v18.67c0,2.51,1.75,4.61,4.09,5.17v4.4C1.75,91.13,0,93.24,0,95.75v18.67
				c0,2.93,2.39,5.32,5.32,5.32h129.36c2.93,0,5.32-2.39,5.32-5.32V95.75c0-2.51-1.75-4.61-4.09-5.17v-4.4
				C138.25,85.62,140,83.52,140,81.01L140,81.01z M135.9,73.86h-6.11v-4.37h6.11V73.86z M125.99,57.03h-20.05
				c2.39-2.87,4.59-5.81,6.5-8.61C118.32,48.45,125.16,50.03,125.99,57.03z M117.4,41.65c0.6,0.97,0.88,2.1,0.81,3.22
				c-1.01-0.21-2.06-0.36-3.18-0.45c0.5-0.81,0.96-1.59,1.39-2.34C116.73,41.9,117.06,41.76,117.4,41.65L117.4,41.65z M122.13,14.25
				c0.2,2.32-0.73,4.6-2.55,6.13c-0.82,0.69-1.77,1.18-2.79,1.45c-0.76-0.83-1.55-1.54-2.28-2.11c1.08-1.38,1.83-3,2.18-4.74
				C118.32,14.03,120.3,13.77,122.13,14.25z M106.68,12.93c0.41-2.35,1.92-4.29,4.03-5.28c1.65,1.65,2.4,3.99,1.98,6.34
				c-0.23,1.32-0.83,2.54-1.71,3.53c-1.07-0.52-2.51-1.09-4.17-1.45C106.54,15.05,106.49,13.98,106.68,12.93L106.68,12.93z
				 M72.89,16.7c1.64-0.53,2.74-2.03,2.72-3.75l0-0.04c0-3.32,2.7-6.01,6.01-6.01c3.32,0,6.01,2.7,6.01,6.01v0.04
				c-0.01,1.72,1.08,3.23,2.72,3.75c1.63,0.52,2.96,1.74,3.66,3.28c-0.3,0.32-0.6,0.66-0.9,1.02c-1.6,1.97-3.73,5.39-5.91,9.63
				c-0.2-2.6-0.48-4.99-0.86-7.05c-0.71-3.9-1.82-7.89-4.73-7.89c-2.78,0-3.87,3.58-4.57,7.08c-0.54,2.68-0.93,6.08-1.14,9.82
				c-0.53-0.34-1.02-0.62-1.43-0.84c-0.94-0.5-2.01-0.6-3.02-0.28c-0.27,0.08-0.52,0.2-0.76,0.33c0.06-0.33,0.12-0.65,0.17-0.98
				c0.55-3.81-0.12-7.2-1.95-10C69.47,18.88,70.95,17.33,72.89,16.7z M81.21,57.03c-0.07-1.11-0.22-2.2-0.45-3.28
				c-0.24-1.11-1.33-1.81-2.43-1.58c-1.11,0.24-1.81,1.33-1.58,2.43c0.17,0.79,0.28,1.6,0.34,2.42h-5.68
				c-0.67-1.42-1.54-2.76-2.61-4.01c0.38-2.14,1.64-3.94,3.77-5.33c0.83-0.55,1.15-1.62,0.76-2.54c-0.03-0.06-2.47-5.78-0.6-9.69
				c2.66,1.45,8.56,5.73,9.57,15.44c0.22,2.09-0.02,4.15-0.7,6.13L81.21,57.03L81.21,57.03z M68.05,37.18
				c-0.38,3.14,0.37,6.25,0.95,8.05c-1.82,1.5-2.91,3.15-3.56,4.73c-0.58-0.4-1.16-0.74-1.74-1.04c0.63-1.61,1.35-4.04,1.23-6.57
				c-0.05-1.13-1.01-2-2.14-1.95c-1.13,0.05-2.01,1.01-1.95,2.14c0.09,1.91-0.52,3.83-1.02,5.05c-0.71-0.14-1.4-0.22-2.06-0.26
				c-0.09-3.95-1.17-7.17-2.35-9.54c0.48-0.23,0.97-0.44,1.47-0.62C60.53,35.82,64.44,35.84,68.05,37.18L68.05,37.18z M56.35,56.24
				c0.56-1.69,0.93-3.3,1.15-4.82c3.1,0.18,5.8,1.55,8.05,4.1c0.43,0.49,0.82,0.99,1.17,1.51H56.06
				C56.16,56.77,56.26,56.5,56.35,56.24z M79.89,35.86c0.2-7.44,1.03-12.18,1.74-14.56c0.84,2.82,1.77,8.75,1.78,17.54
				c-0.15,0.35-0.29,0.7-0.43,1.06C82.02,38.3,80.96,36.97,79.89,35.86L79.89,35.86z M60.03,10.45c0.6,1.28,0.73,2.71,0.39,4.06
				c-1.27-0.47-2.65-0.86-4.12-1.17c-0.02-0.24-0.06-0.47-0.1-0.71C57.16,11.46,58.53,10.68,60.03,10.45z M48.72,8.81
				c1.61,0.75,2.81,2.15,3.3,3.88c-1.7-0.16-3.31-0.19-4.82-0.09C47.25,11.2,47.79,9.86,48.72,8.81L48.72,8.81z M41.93,18.02
				c2.83-1.36,6.76-1.72,11.38-1.05c4.62,0.67,8.29,2.14,10.61,4.24c2.51,2.27,3.46,5.22,2.91,9.01c-0.11,0.75-0.28,1.49-0.5,2.21
				c-3.59-0.71-7.32-0.43-10.86,0.86c-0.77,0.28-1.52,0.61-2.25,0.98c0,0,0,0-0.01-0.01c-0.65-0.84-1.59-1.37-2.64-1.5
				c-0.99-0.12-1.95,0.14-2.75,0.71c-3.12-3.01-7.08-4.92-11.4-5.5c0-0.72,0.05-1.44,0.15-2.16C37.13,22.05,38.88,19.49,41.93,18.02
				L41.93,18.02z M10.86,36.07c-0.29-0.41-0.53-0.85-0.7-1.33c-0.64-1.77-0.33-3.71,0.82-5.2c1.24-1.61,0.99-3.88-0.56-5.16
				C9.67,23.75,9.09,22.93,8.76,22c-0.81-2.25-0.08-4.75,1.82-6.21c1.32-1.02,1.83-2.75,1.25-4.32l-0.01-0.03
				c-0.5-1.38-0.42-2.87,0.2-4.2s1.73-2.33,3.11-2.83c2.85-1.02,6,0.46,7.02,3.31l0.01,0.03c0.55,1.57,2.04,2.59,3.71,2.53
				c2.4-0.08,4.55,1.37,5.36,3.63c0.33,0.93,0.41,1.92,0.23,2.89c-0.34,1.77,0.63,3.48,2.27,4.14c-0.57,1.3-0.98,2.73-1.21,4.29
				c-0.13,0.87-0.19,1.74-0.19,2.62c-0.91,0.06-1.8,0.18-2.69,0.37c-1.65-4.29-3.45-8.17-5.14-11.05c-1.84-3.13-4.07-6.21-6.68-5.27
				c-2.5,0.9-2.34,4.51-1.91,7.55c0.39,2.8,1.24,6.37,2.42,10.2C15.84,30.75,13.05,32.96,10.86,36.07L10.86,36.07z M24,29.44
				c-0.48-0.27-1.02-0.45-1.6-0.53c-1.7-5.42-2.4-9.23-2.58-11.46c1.44,2.09,3.61,6.08,5.9,12.01c-0.34,0.14-0.67,0.3-1,0.46
				C24.5,29.75,24.26,29.58,24,29.44L24,29.44z M27.02,33.37c2.47-1.12,5.17-1.61,7.91-1.41c3.88,0.29,7.44,1.92,10.18,4.62
				c-1.64,2.71-2.23,5.84-2.44,7.72c-2.28,0.62-3.96,1.68-5.2,2.86c-1.01-1.65-2.23-2.97-3.53-4c0-1.06,0.29-3.07,2.44-3.66
				c1.09-0.3,1.73-1.43,1.43-2.53c-0.3-1.09-1.43-1.73-2.53-1.43c-3.18,0.88-4.62,3.17-5.16,5.37c-1.04-0.43-2.06-0.74-3-0.93
				C27.53,37.91,27.66,35.47,27.02,33.37L27.02,33.37z M39.28,51.32c1.23-1.8,3.12-2.92,5.63-3.31c0.99-0.16,1.72-1,1.73-2
				c0-0.06,0.13-6.28,3.43-9.08c1.83,2.42,5.45,8.74,2.37,18.01c-0.24,0.72-0.54,1.42-0.88,2.08h-1.72
				c0.01-0.04,0.02-0.08,0.03-0.12c0.24-1.11-0.46-2.2-1.57-2.44c-1.11-0.24-2.2,0.46-2.44,1.57c-0.07,0.33-0.15,0.66-0.24,0.98H40
				C40.08,55.15,39.84,53.24,39.28,51.32L39.28,51.32z M5.32,61.13h82.55c1.13,0,2.05-0.92,2.05-2.05c0-1.13-0.92-2.05-2.05-2.05
				h-1.99c0.56-2.13,0.72-4.32,0.49-6.55c-0.2-1.92-0.56-3.66-1.04-5.25c0,0,0-0.01,0-0.01c2.2-6.13,4.99-11.95,7.43-16.23
				c1.87,1.73,5.41,4.56,11.61,8.14c0.32,0.19,0.68,0.28,1.02,0.28c0.71,0,1.4-0.37,1.78-1.03c0.57-0.98,0.23-2.24-0.75-2.8
				c-6.84-3.95-10.15-6.86-11.46-8.16c0.48-0.72,0.94-1.33,1.34-1.84c4.75-5.84,10.74-3.67,13.88-1.86
				c3.14,1.82,8.02,5.91,5.33,12.95c-0.85,2.21-2.9,6.04-5.85,10.47c-6.79-0.32-13.03-5.52-13.09-5.57
				c-0.86-0.73-2.16-0.62-2.89,0.24c-0.73,0.86-0.62,2.16,0.24,2.89c0.28,0.24,5.99,5,13.08,6.26c-1.93,2.64-4.11,5.39-6.5,8.05
				H96.8c-1.13,0-2.05,0.92-2.05,2.05c0,1.13,0.92,2.05,2.05,2.05h37.88c0.67,0,1.22,0.55,1.22,1.22v3.05h-6.53
				c-2.03,0-3.68,1.65-3.68,3.68v5.2c0,2.03,1.65,3.68,3.68,3.68h6.53v3.05c0,0.67-0.55,1.22-1.22,1.22H5.32
				c-0.67,0-1.22-0.55-1.22-1.22v-3.05h6.53c2.03,0,3.68-1.65,3.68-3.68v-5.2c0-2.03-1.65-3.68-3.68-3.68H4.1v-3.05
				C4.1,61.67,4.65,61.13,5.32,61.13z M4.1,69.49h6.11v4.37H4.1V69.49z M4.1,102.9h6.11v4.37H4.1V102.9z M134.68,115.63H5.32
				c-0.67,0-1.22-0.55-1.22-1.22v-3.05h6.53c2.03,0,3.68-1.65,3.68-3.68v-5.2c0-2.03-1.65-3.68-3.68-3.68H4.1v-3.05
				c0-0.67,0.55-1.22,1.22-1.22h30.1c1.13,0,2.05-0.92,2.05-2.05s-0.92-2.05-2.05-2.05H8.19v-4.1h123.61v4.1H44.34
				c-1.13,0-2.05,0.92-2.05,2.05s0.92,2.05,2.05,2.05h90.34c0.67,0,1.22,0.55,1.22,1.22v3.05h-6.53c-2.03,0-3.68,1.65-3.68,3.68v5.2
				c0,2.03,1.65,3.68,3.68,3.68h6.53v3.05C135.9,115.08,135.35,115.63,134.68,115.63L134.68,115.63z M135.9,107.26h-6.11v-4.37h6.11
				V107.26z"/>
		</g>
	</g>
</g>
<g id="Guias" class="st60">
</g>
</svg>
