<?xml version="1.0" encoding="UTF-8"?>
<svg id="Capa_2" data-name="Capa 2" xmlns="http://www.w3.org/2000/svg" viewBox="0 0 902.67 654.28">
  <defs>
    <style>
      .cls-1 {
        fill: #00c100;
      }

      .cls-1, .cls-2, .cls-3, .cls-4, .cls-5, .cls-6, .cls-7, .cls-8 {
        stroke-width: 0px;
      }

      .cls-2 {
        fill: #aa0202;
      }

      .cls-3 {
        fill: #894700;
      }

      .cls-4 {
        fill: #381d00;
      }

      .cls-5, .cls-9 {
        fill: #000;
      }

      .cls-6 {
        fill: #f2f2f2;
      }

      .cls-7 {
        fill: #380000;
      }

      .cls-9 {
        font-family: Cambria-Bold, Cambria;
        font-size: 172.97px;
        font-weight: 700;
      }

      .cls-10 {
        letter-spacing: -.02em;
      }

      .cls-8 {
        fill: #004c0e;
      }
    </style>
  </defs>
  <g id="Capa_1-2" data-name="Capa 1">
    <g>
      <g>
        <g>
          <g>
            <polygon class="cls-3" points="260.92 176.83 244.99 143.25 657.68 143.25 641.75 176.83 260.92 176.83"/>
            <path class="cls-4" d="M655.22,144.81l-14.45,30.46h-378.86l-14.45-30.46h407.76M660.14,141.69h0,0ZM660.14,141.69H242.53l17.41,36.69h382.8l17.41-36.69h0Z"/>
          </g>
          <g>
            <polygon class="cls-3" points="304.92 269.57 288.99 235.99 613.68 235.99 597.75 269.57 304.92 269.57"/>
            <path class="cls-4" d="M611.21,237.55l-14.45,30.46h-290.86l-14.45-30.46h319.76M616.14,234.43h0,0ZM616.14,234.43h-329.62l17.41,36.69h294.8l17.41-36.69h0Z"/>
          </g>
          <g>
            <polygon class="cls-3" points="282.92 223.2 266.99 189.62 635.68 189.62 619.75 223.2 282.92 223.2"/>
            <path class="cls-4" d="M633.22,191.18l-14.45,30.46h-334.86l-14.45-30.46h363.76M638.14,188.06h0,0ZM638.14,188.06h-373.62l17.41,36.69h338.8l17.41-36.69h0Z"/>
          </g>
        </g>
        <g>
          <g>
            <path class="cls-6" d="M520.44,135.06c-.44,0-.86-.19-1.16-.52s-.44-.77-.39-1.21c.14-1.27.25-2.6.33-3.95l.03-.45c.02-.43.04-.86.06-1.28l.06-2.03c0-.47.01-.95.01-1.43,0-.3,0-1.2,0-1.2l-.02-1.02c0-.34-.02-.65-.03-.96-.01-.34-.03-.66-.04-.99-.02-.35-.03-.59-.04-.84,0,0-.1-1.46-.1-1.46-.02-.28-.08-.95-.08-.96-.02-.26-.11-1.18-.11-1.18-.02-.23-.04-.43-.06-.63,0,0-.15-1.32-.15-1.33l-.12-.96c-.04-.31-.08-.58-.12-.86,0,0-.17-1.12-.17-1.13-.05-.3-.19-1.14-.19-1.14-.05-.27-.17-.96-.17-.96,0,0-.17-.89-.17-.9-.06-.31-.12-.62-.19-.92-.06-.31-.26-1.23-.26-1.23l-.2-.87s-.3-1.22-.3-1.24c-.09-.36-.18-.7-.27-1.04-.11-.43-.23-.87-.36-1.3l-.13-.46c-.26-.9-.54-1.8-.83-2.7-.08-.26-.17-.51-.25-.76-.08-.25-.17-.5-.25-.74-.07-.2-.4-1.13-.4-1.13-.07-.19-.34-.94-.42-1.12-.11-.3-.22-.58-.33-.86-.11-.28-.38-.93-.38-.93-.11-.27-.22-.55-.34-.82-.11-.25-.34-.81-.35-.84l-.09-.19c-.12-.27-.22-.51-.33-.74l-.37-.82c-.17-.36-.34-.73-.51-1.09l-.3-.61c-.16-.33-.33-.66-.5-.99,0,0-.42-.82-.43-.84-.15-.28-.3-.56-.45-.84-.15-.29-.31-.56-.46-.84-.13-.24-.58-1.03-.58-1.03l-.5-.85s-.68-1.13-.85-1.39l-.51-.8c-.17-.27-.34-.53-.51-.79-.15-.22-.72-1.07-.72-1.07l-.33-.48c-.14-.2-.27-.39-.41-.58.02.03.05.08.05.09.26.49.52.98.78,1.48,0,.01.01.02.02.03,0,0,.27.54.41.8.13.27.27.54.4.81.13.27.44.91.47.98.1.2.21.44.32.68.13.27.25.55.38.84.25.56.5,1.12.74,1.69.24.57.48,1.15.71,1.73.11.26.21.53.32.8.14.37.25.66.36.96.11.28.33.89.33.89.2.56.4,1.13.6,1.69,0,0,.32.94.32.94l.31.97c.1.31.2.62.29.93.1.33.43,1.42.5,1.68.11.37.21.75.32,1.12.07.26.26.96.26.96.06.21.12.45.18.7.12.46.24.94.36,1.42.06.24.12.48.17.73.07.32.15.65.22.97.06.28.38,1.76.38,1.76l.23,1.16c.13.65.25,1.31.36,1.98l.32,1.94c.06.37.11.75.17,1.12.05.31.09.64.13.97.05.34.09.68.13,1.02.04.32.14,1.19.14,1.19l.09.85c.04.33.07.68.1,1.02.03.31.06.62.08.94.04.41.07.83.1,1.25l.07.98.06.99.07,1.35.04.99.03.83c.02.71.04,1.42.04,2.13,0,.35,0,.71,0,1.06s0,1.33,0,1.33l-.03,1.36c0,.29-.01.59-.02.89-.02.79-.06,1.57-.1,2.36-.02.38-.07,1.24-.08,1.28-.02.3-.04.68-.07,1.07-.02.34-.05.69-.08,1.04,0,0,0,.07-.01.14-.08.8-.75,1.4-1.55,1.4h-34.78c-.43,0-.84-.18-1.14-.49s-.45-.74-.42-1.17l.07-1.13c.02-.34.07-1.43.07-1.43.02-.31.06-1.48.07-1.8.01-.34.02-.67.03-1,.04-1.28.05-2.56.05-3.85v-1.22c0-.37-.02-1.31-.02-1.32,0-.34-.04-1.56-.04-1.56l-.03-.89c0-.27-.02-.55-.03-.82-.01-.38-.03-.73-.05-1.09-.01-.26-.02-.5-.04-.75-.03-.52-.06-1.02-.09-1.52l-.05-.75c-.06-.87-.13-1.72-.21-2.57-.03-.36-.06-.71-.1-1.06l-.08-.83c-.02-.25-.14-1.3-.14-1.3-.06-.58-.13-1.15-.21-1.71l-.08-.6c-.07-.56-.15-1.11-.23-1.65,0,0-.3-2-.33-2.13l-.08-.52c-.08-.47-.16-.94-.24-1.41,0,0-.22-1.24-.27-1.48l-.29-1.49c-.05-.24-.27-1.28-.27-1.28-.12-.54-.24-1.08-.36-1.62l-.34-1.44c-.13-.53-.26-1.06-.4-1.59l-.11-.44c-.14-.54-.27-1-.39-1.47l-.19-.68c-.33-1.16-.67-2.29-1.03-3.41l-.2-.61c-.15-.45-.3-.9-.45-1.33l.43,1.84.18.79c.18.83.35,1.62.51,2.43.1.52.21,1.04.31,1.57l.26,1.41c.06.35.13.71.19,1.07.19,1.07.36,2.16.53,3.26.05.36.36,2.44.36,2.44.15,1.08.29,2.16.42,3.24.08.69.16,1.39.24,2.09.05.48.23,2.34.23,2.34,0,0,.17,1.97.2,2.33.03.39.18,2.35.18,2.35l.08,1.24c.05.79.09,1.56.13,2.33l.06,1.2s.09,2.37.09,2.37l.05,2.13c0,.27.01.54.01.8,0,.08.02,1.92.02,1.92,0,.44,0,.9,0,1.36,0,.61,0,1.23,0,1.84,0,.32-.02,1.5-.02,1.5,0,.27,0,.59-.02.91v.69c-.04.95-.07,1.9-.11,2.84,0,.02-.07,1.6-.07,1.64-.03.45-.26.87-.62,1.14-.27.2-.6.31-.94.31h-41.21c-.56,0-1.08-.3-1.35-.79-.13-.22-.2-.47-.2-.73-.02-.38-.04-.75-.05-1.13-.05-1.08-.08-2.18-.11-3.29l-.05-2.45c0-.83-.02-1.65-.02-2.48,0-14.56,1.61-28.59,4.52-40.64-4.11,11.95-6.38,26-6.38,40.64,0,1.29.02,2.57.05,3.84,0,.34.02.67.03,1,0,.32.02.64.04.95.01.28.06,1.27.06,1.27.02.34.03.67.05,1.01l.07,1.14c.03.43-.12.85-.42,1.17s-.71.49-1.14.49h-34.78c-.81,0-1.48-.62-1.55-1.43l-.09-1.14s-.09-1.28-.09-1.31l-.06-1.05c-.04-.78-.08-1.57-.1-2.36,0-.29-.04-1.3-.04-1.3l-.02-1.26c0-.33,0-.67,0-1.02l.03-2.37s.05-1.78.05-1.8l.07-1.53.1-1.65c.04-.66.09-1.32.15-1.98,0-.03.11-1.18.11-1.18l.16-1.57.09-.79c.04-.37.09-.74.14-1.1l.16-1.21.12-.81c.07-.46.14-.91.21-1.36.05-.31.16-.94.16-.96.05-.31.23-1.29.23-1.29.05-.27.1-.57.16-.86l.14-.72s.23-1.13.29-1.4c.07-.32.24-1.1.24-1.1l.36-1.53c.07-.3.39-1.56.39-1.56l.54-1.99c.09-.34.19-.68.29-1.01l.35-1.18.21-.69c.12-.38.25-.77.37-1.15l.39-1.17.26-.74c.11-.32.47-1.31.47-1.31.09-.24.19-.5.28-.76.1-.27.65-1.66.65-1.67,0,0,.34-.84.45-1.09.11-.27.23-.55.35-.82.27-.62.54-1.25.82-1.86.12-.25.49-1.04.49-1.04.12-.26.25-.52.37-.77.13-.28.28-.57.42-.86l.49-.97c.25-.48.5-.96.76-1.45.03-.05.05-.1.08-.15l-.11.16c-.14.2-.28.39-.41.58,0,.01-.66.97-.66.97-.21.32-.42.64-.63.96,0,0-.45.71-.67,1.05-.19.3-.38.61-.56.92,0,0-.44.73-.44.73-.19.32-.38.64-.56.96l-.6,1.07-.25.46c-.43.8-.81,1.52-1.18,2.26l-.51,1.04-.49,1.04-.47,1.05c-.08.19-.6,1.39-.6,1.39l-.09.22c-.15.36-.3.72-.44,1.08-.6,1.48-1.15,2.99-1.66,4.5l-.16.48c-.51,1.55-.98,3.15-1.4,4.73l-.11.44c-.26,1.01-.5,2.02-.72,3.04l-.25,1.2c-.21,1.02-.4,2.04-.56,3.08l-.1.58c-.07.43-.13.86-.19,1.3-.06.42-.11.83-.17,1.24l-.15,1.25c-.05.43-.09.85-.13,1.28l-.06.64c-.04.42-.13,1.65-.13,1.65l-.09,1.4c-.01.26-.07,1.51-.07,1.51-.04,1.07-.06,2.13-.06,3.19,0,.48,0,.96.01,1.44l.06,2.02c.02.43.04.85.06,1.27l.03.47c.08,1.34.19,2.67.33,3.94.05.44-.09.88-.39,1.21s-.72.52-1.16.52h-13.94c-.79,0-1.46-.59-1.55-1.38-.37-3.17-.56-6.4-.56-9.61,0-16.89,5.07-33.11,14.65-46.93,1.7-2.45,3.56-4.84,5.53-7.11,4.29-4.95,9.18-9.39,14.53-13.19,5.54-3.95,11.56-7.19,17.88-9.65.68-.27,1.37-.52,2.07-.77,1.69-.6,3.41-1.16,5.12-1.65.09-.03.21-.06.32-.09,1.63-.46,3.32-.88,4.99-1.24,1.19-.25,2.15-1.09,2.58-2.24.43-1.15.26-2.37-.47-3.34-1.33-1.77-3.34-2.7-5.98-2.76-.63-.01-1.19-.41-1.42-.99s-.08-1.26.38-1.69c2.09-1.99,4.83-3.09,7.72-3.09,1.56,0,3.07.33,4.46.93-1.83-2.75-4.79-4.68-8.21-5.14-.71-.09-1.26-.66-1.34-1.36-.08-.71.32-1.38.99-1.64,1.7-.65,3.5-.99,5.34-.99,5.98,0,11.14,3.54,13.51,8.64,2.5-4.71,7.45-7.87,13.15-7.87,1.84,0,3.64.33,5.34.99.66.26,1.07.93.99,1.64-.08.71-.64,1.27-1.34,1.36-3.42.46-6.38,2.39-8.22,5.14,1.39-.61,2.91-.93,4.47-.93,2.89,0,5.63,1.1,7.72,3.1.46.44.6,1.1.38,1.69-.23.59-.79.98-1.42.99-1.79.04-3.31.49-4.52,1.36-1.16.83-1.68,2.17-1.39,3.58.29,1.42,1.31,2.46,2.72,2.78,1.65.37,3.31.79,4.94,1.27.07.02.15.04.22.06,1.75.51,3.57,1.11,5.32,1.76.58.22,1.16.44,1.74.67,7.61,3,14.72,7.13,21.14,12.25,19.73,15.76,31.05,39.26,31.05,64.48,0,3.22-.19,6.46-.56,9.61-.09.79-.76,1.38-1.55,1.38h-13.55Z"/>
            <path class="cls-5" d="M440.29,22.71c7.36,0,13.33,5.97,13.33,13.33,0,.08,0,.16,0,.24h.02c.27-7.12,6.13-12.81,13.32-12.81,1.68,0,3.3.31,4.78.88-5.93.79-10.62,5.48-11.42,11.4,1.74-2.47,4.62-4.1,7.88-4.1,2.58,0,4.92,1.01,6.64,2.67-2.32.05-4.07.7-5.39,1.65-3.58,2.58-2.4,8.18,1.9,9.15,1.65.37,3.28.79,4.89,1.25.03,0,.07.02.1.03,1.79.52,3.56,1.1,5.29,1.75.57.21,1.14.43,1.71.65,7.53,2.97,14.51,7.05,20.74,12.02,18.57,14.82,30.46,37.65,30.46,63.26,0,3.19-.18,6.33-.55,9.43h-13.55c.14-1.33.25-2.67.33-4.02,0-.16.02-.31.03-.47.02-.43.04-.86.06-1.3,0-.2.02-.39.02-.59,0-.11,0-.21,0-.32,0-.21.01-.42.02-.63,0-.18,0-.35.01-.53,0-.49.01-.98.01-1.46,0-.31,0-.62,0-.92,0-.09,0-.19,0-.28,0-.26,0-.53-.02-.79,0-.1,0-.19,0-.29,0-.32-.02-.63-.03-.95-.01-.34-.03-.67-.04-1.01,0-.03,0-.06,0-.09-.01-.26-.02-.52-.04-.78,0-.06,0-.11,0-.17,0-.1-.01-.19-.02-.29-.02-.29-.04-.57-.06-.86,0-.05,0-.11-.01-.16-.02-.28-.04-.57-.07-.85,0-.04,0-.07,0-.11-.02-.27-.05-.54-.07-.81-.01-.14-.03-.28-.04-.42-.02-.21-.04-.42-.06-.63-.01-.14-.03-.28-.05-.42-.03-.26-.06-.51-.09-.77,0-.05,0-.1-.02-.15-.03-.27-.07-.53-.1-.8,0-.07-.02-.13-.03-.2-.04-.29-.08-.58-.12-.87,0-.07-.02-.14-.03-.21-.04-.28-.08-.55-.12-.83,0-.03,0-.06-.02-.09-.05-.31-.1-.62-.15-.92-.01-.08-.03-.16-.04-.25-.05-.27-.09-.54-.14-.81-.01-.06-.02-.12-.03-.18-.06-.3-.11-.59-.17-.89,0,0,0,0,0-.02-.06-.32-.12-.64-.19-.95-.06-.3-.12-.6-.19-.9-.04-.17-.07-.34-.11-.51-.02-.09-.04-.17-.06-.26-.04-.16-.07-.31-.11-.47-.05-.21-.1-.42-.15-.63-.05-.2-.09-.39-.14-.59,0-.01,0-.03,0-.04-.09-.36-.18-.71-.27-1.07-.12-.45-.24-.89-.36-1.33-.04-.15-.09-.31-.13-.46-.27-.93-.55-1.85-.85-2.76-.08-.26-.17-.52-.26-.77-.08-.26-.17-.51-.26-.77-.06-.19-.13-.37-.2-.56-.07-.2-.14-.39-.21-.58-.07-.19-.14-.38-.21-.58-.07-.19-.14-.38-.22-.58-.11-.29-.22-.57-.33-.86-.11-.28-.23-.57-.34-.85,0-.02-.02-.05-.03-.07-.12-.29-.24-.58-.36-.87-.1-.25-.21-.5-.32-.74,0,0,0,0,0-.01-.04-.1-.09-.21-.14-.31-.11-.25-.22-.5-.33-.75,0-.01-.01-.03-.02-.04-.12-.26-.24-.52-.36-.78-.17-.37-.35-.75-.53-1.12-.1-.21-.2-.41-.3-.62-.17-.34-.34-.68-.51-1.02-.14-.27-.28-.54-.42-.81,0-.01-.01-.02-.02-.03-.15-.29-.31-.58-.46-.86-.15-.29-.31-.57-.47-.85-.16-.28-.32-.56-.48-.85,0,0,0-.02-.02-.03-.14-.23-.27-.47-.41-.7-.06-.11-.13-.22-.19-.33-.12-.2-.24-.41-.37-.61-.17-.27-.34-.55-.51-.82-.02-.03-.04-.06-.06-.09-.15-.24-.31-.48-.46-.72-.17-.27-.35-.54-.52-.81-.15-.23-.31-.46-.46-.69-.06-.09-.11-.17-.17-.25-.15-.22-.3-.43-.44-.65-.18-.26-.37-.52-.55-.78-.16-.22-.32-.44-.48-.66-.07-.1-.15-.2-.22-.3-.14-.19-.28-.38-.42-.57-.18-.23-.35-.47-.53-.7-.03-.04-.07-.09-.1-.13-.17-.21-.33-.43-.5-.64-.02-.03-.04-.05-.06-.08-.19-.23-.37-.46-.56-.7-.19-.23-.38-.47-.58-.7l-.03-.04c-.2-.24-.4-.47-.6-.71-.82-.95-1.66-1.88-2.52-2.78-.02-.02-.04-.04-.06-.06-.2-.2-.39-.41-.59-.61-.2-.21-.41-.42-.62-.62-.01-.01-.03-.03-.04-.04-.01-.01-.03-.03-.04-.04-.18-.18-.36-.36-.55-.53-.06-.06-.12-.12-.19-.18-.15-.14-.3-.29-.45-.43-.22-.21-.44-.42-.67-.62-.18-.17-.37-.34-.55-.51,0,0-.02-.02-.03-.03-.42-.38-.85-.75-1.28-1.12-.24-.2-.48-.41-.72-.61-.19-.15-.37-.31-.56-.46,0,0-.02-.01-.02-.02-.22-.18-.43-.35-.65-.52,0,0-.01,0-.02-.02-.21-.17-.43-.34-.64-.5-.9-.7-1.81-1.36-2.73-2.01-.21-.15-.42-.29-.64-.44-.25-.17-.5-.34-.76-.5.21.17.42.34.63.52.17.14.34.28.5.42.46.39.91.79,1.35,1.2.2.19.4.38.6.56,0,0,0,0,0,0,.4.38.8.77,1.19,1.16.16.16.32.32.47.48.24.24.47.49.7.73.19.2.38.41.57.62.16.17.31.34.46.51.06.06.11.13.17.19.13.14.26.29.38.44.08.09.16.18.23.27.13.15.26.3.39.46.06.07.12.14.17.21.15.17.29.35.44.53.18.22.37.45.55.67,0,0,0,0,0,0,.18.23.36.45.53.68.51.66,1.01,1.33,1.5,2.01.27.37.53.75.8,1.13.54.78,1.07,1.58,1.58,2.39.15.24.31.48.46.73.15.24.3.49.45.74.14.23.29.47.43.71,0,.01.01.02.02.03.15.25.29.5.44.75.12.22.25.43.37.65.02.05.05.09.07.13.14.24.27.49.4.73.02.04.04.07.06.11.26.49.52.98.78,1.48,0,0,0,0,0,0,.13.26.27.52.4.79.13.27.27.53.4.8.13.27.26.54.39.81.02.04.04.09.06.13.11.23.21.45.32.68.13.27.25.55.38.82.25.55.49,1.11.73,1.67.24.56.47,1.13.7,1.7.12.29.23.57.34.86.11.29.22.58.33.87.11.29.22.58.32.87,0,0,0,0,0,0,.2.56.4,1.11.59,1.67,0,.03.02.06.03.1.1.29.2.59.3.88.1.3.2.6.29.9.1.3.19.6.28.91.09.3.19.61.27.91.07.24.15.49.22.74.11.37.21.74.31,1.11.07.26.14.52.21.78.01.05.03.1.04.14.06.23.12.47.18.7.12.47.24.94.35,1.41.06.24.12.47.17.71.07.32.15.63.22.95.06.29.13.57.19.86,0,.03.02.06.02.1.07.32.13.64.2.96.06.32.13.64.19.97.12.65.24,1.3.36,1.95.05.31.11.62.16.93,0,.02,0,.03,0,.05.05.31.1.62.15.93.06.37.11.73.16,1.1.05.32.09.63.13.95.05.33.09.66.13,1,.04.34.08.67.12,1.01.04.34.08.67.11,1.01.04.34.07.68.1,1.02.03.31.06.61.08.92.04.41.07.82.1,1.23.02.3.04.61.06.92,0,.02,0,.04,0,.05.02.33.04.65.06.98.02.25.03.5.04.75,0,.08,0,.15.01.23,0,.12.01.23.02.35,0,.2.02.4.02.59,0,.12,0,.24.01.37.01.27.02.55.03.82.02.7.03,1.4.04,2.1,0,.35,0,.7,0,1.05s0,.68,0,1.02c0,.11,0,.21,0,.31,0,.31,0,.61-.02.92,0,.14,0,.27,0,.41,0,.29-.02.58-.02.87-.02.78-.06,1.55-.1,2.33-.02.38-.04.76-.07,1.13,0,.02,0,.04,0,.05-.02.38-.05.75-.08,1.13-.02.34-.05.69-.08,1.03,0,.04,0,.08,0,.12h-34.78c.02-.38.05-.76.07-1.15.02-.34.04-.68.05-1.02,0-.15.02-.3.02-.45.02-.28.03-.56.04-.84.01-.32.03-.64.04-.96.01-.34.02-.67.03-1.01.04-1.28.05-2.58.05-3.88,0-.41,0-.82,0-1.23,0-.37,0-.74-.01-1.12,0-.07,0-.14,0-.22,0-.34-.01-.69-.02-1.03,0-.1,0-.2,0-.3,0-.33-.02-.66-.03-.99-.01-.33-.02-.66-.04-1-.01-.37-.03-.73-.05-1.1-.01-.26-.02-.51-.04-.77-.03-.51-.06-1.02-.09-1.52-.02-.25-.03-.51-.05-.76-.06-.87-.13-1.74-.21-2.6-.03-.36-.06-.72-.1-1.07,0-.08-.01-.16-.02-.23-.02-.2-.04-.4-.06-.6-.02-.25-.05-.5-.08-.74-.02-.2-.04-.39-.06-.58-.06-.58-.13-1.16-.21-1.73-.02-.2-.05-.4-.08-.6-.07-.56-.15-1.12-.23-1.67-.02-.18-.05-.35-.08-.53-.04-.24-.07-.48-.11-.72-.02-.16-.05-.33-.08-.49-.02-.15-.05-.3-.07-.44-.03-.17-.05-.34-.08-.5-.08-.47-.16-.95-.24-1.42-.05-.25-.09-.5-.14-.75-.05-.25-.09-.5-.14-.75-.05-.25-.1-.5-.15-.75-.05-.25-.1-.5-.15-.74-.05-.25-.1-.49-.15-.74-.04-.19-.08-.38-.12-.56-.12-.55-.24-1.09-.36-1.64-.06-.24-.11-.48-.17-.73-.06-.24-.12-.48-.17-.72-.13-.55-.27-1.09-.41-1.63-.04-.17-.09-.34-.13-.52-.12-.47-.25-.94-.38-1.41-.06-.23-.13-.46-.19-.7-.33-1.17-.68-2.32-1.04-3.46-.07-.21-.13-.42-.2-.62-.15-.46-.31-.92-.46-1.38-.05-.16-.11-.31-.16-.46-.09-.27-.19-.54-.28-.81-.1-.29-.21-.57-.31-.86-.11-.31-.23-.62-.35-.93-.15-.38-.29-.76-.44-1.13-.08-.21-.17-.43-.25-.64-.14-.34-.28-.68-.42-1.02-.11-.25-.21-.51-.32-.76-.14-.31-.27-.63-.41-.94-.09-.2-.18-.4-.27-.6-.45-.99-.91-1.97-1.39-2.92-.13-.26-.26-.52-.4-.78-.16-.3-.32-.61-.48-.91-.13-.25-.27-.5-.4-.75-.32-.59-.65-1.17-.98-1.74-.09-.16-.19-.32-.29-.48-.15-.26-.31-.52-.47-.77-.09-.14-.18-.29-.27-.43-.04-.07-.09-.14-.13-.21-.08-.13-.16-.25-.24-.38-.16-.24-.31-.48-.47-.72-.12-.19-.25-.37-.37-.56-.01-.02-.02-.03-.04-.05-.14-.21-.29-.42-.43-.63-.03-.05-.07-.09-.1-.14-.14-.2-.28-.4-.42-.6,0,0-.01-.02-.02-.02-.16-.22-.31-.43-.47-.64,0,0-.02-.02-.02-.03-.15-.2-.3-.39-.44-.59-.19-.25-.38-.49-.57-.73.41.71.81,1.44,1.2,2.2.08.16.17.33.25.49.11.21.21.43.32.64.02.04.04.08.06.12.11.22.21.44.32.66.1.2.2.41.29.62.03.05.05.11.08.17.11.23.21.46.31.69.11.25.22.5.33.76.08.19.17.38.25.57.14.34.28.67.42,1.02.1.25.2.5.3.75.14.34.27.69.4,1.03.08.2.15.39.23.59.13.34.25.68.38,1.02.08.21.15.43.23.65.1.28.2.57.3.85.1.29.2.57.29.87.11.32.21.64.32.96.09.26.17.53.25.8.09.3.19.6.28.9.06.19.11.38.17.56.05.15.09.29.13.44.37,1.25.72,2.53,1.06,3.85.07.25.13.5.19.76.08.32.16.65.24.97.07.29.14.59.21.88.02.08.04.16.06.23.06.28.13.56.2.85.06.27.12.55.18.82.17.78.34,1.57.5,2.36.1.51.21,1.03.31,1.55.07.34.13.69.19,1.04.02.12.04.24.06.36.06.35.13.7.19,1.05.19,1.06.36,2.14.53,3.23.05.35.11.7.16,1.05.04.23.07.46.1.7.03.23.07.46.1.69.15,1.05.28,2.12.41,3.19.08.69.16,1.38.23,2.08.05.47.1.94.14,1.42.03.3.06.6.09.9.04.37.07.75.1,1.12,0,.03,0,.07,0,.1.03.36.06.72.09,1.08.03.39.06.77.09,1.17.03.39.06.78.08,1.17.02.35.05.69.07,1.04,0,.07,0,.15.02.22.05.76.09,1.52.12,2.28.02.4.04.8.06,1.2.02.4.03.8.05,1.2.01.38.03.76.04,1.13,0,0,0,0,0,0,.01.42.02.85.03,1.27,0,.28.01.57.02.86,0,.26.01.51.01.77,0,.11,0,.22,0,.32,0,.34,0,.68.01,1.03,0,.19,0,.38,0,.56,0,.45,0,.91,0,1.36,0,.61,0,1.21,0,1.82,0,.32,0,.64-.01.97,0,.07,0,.15,0,.22h0c0,.09,0,.18,0,.26,0,.32,0,.63-.02.94,0,.19,0,.38-.01.57,0,.04,0,.08,0,.12-.02.95-.05,1.88-.09,2.82,0,.02,0,.05,0,.07-.02.51-.04,1.01-.07,1.52,0,0,0,0,0,0h-41.2s0,0,0,0c-.02-.38-.04-.76-.05-1.14-.05-1.08-.08-2.17-.11-3.27-.01-.4-.02-.81-.03-1.22,0-.41-.01-.81-.02-1.22,0-.82-.02-1.63-.02-2.46,0-26.3,5.18-49.5,13.06-63.25-10.89,13.76-18.04,36.96-18.04,63.25,0,1.3.02,2.6.05,3.88,0,.34.02.67.03,1.01,0,.32.02.64.04.96.01.28.02.56.04.84,0,.15.01.3.02.45.02.34.03.68.05,1.02.02.38.05.77.07,1.15h-34.78c-.03-.38-.06-.76-.09-1.15-.03-.38-.05-.75-.08-1.13,0-.02,0-.03,0-.05-.02-.38-.05-.75-.07-1.13-.04-.77-.07-1.55-.1-2.33,0-.29-.02-.58-.02-.87,0-.13,0-.27,0-.41,0-.3-.01-.61-.02-.92,0-.1,0-.21,0-.31,0-.34,0-.68,0-1.02,0-.27,0-.54,0-.81,0-.25,0-.5,0-.75,0-.04,0-.09,0-.13,0-.22,0-.44.01-.66,0-.3.01-.59.02-.89,0-.25.02-.5.02-.75,0-.03,0-.06,0-.09,0-.26.02-.51.03-.77.01-.27.02-.53.04-.8.01-.27.03-.53.04-.79.02-.27.03-.53.05-.79,0-.01,0-.02,0-.04.04-.65.09-1.3.15-1.94,0-.06,0-.11.02-.17.01-.16.03-.32.04-.48.02-.17.03-.34.05-.52.02-.26.05-.51.08-.77,0,0,0,0,0-.01.03-.26.05-.52.08-.77.03-.26.06-.52.09-.78.04-.36.08-.72.13-1.08.05-.35.09-.7.14-1.06,0-.04,0-.07.02-.11.04-.28.08-.56.12-.84.07-.45.13-.89.21-1.34.05-.32.1-.63.16-.95h0c.05-.31.1-.61.16-.92.02-.11.04-.22.06-.33.05-.29.11-.58.16-.86.05-.24.09-.48.14-.72.04-.2.08-.39.12-.58.05-.26.11-.52.17-.78.07-.32.14-.64.21-.96,0-.04.02-.09.03-.13.06-.27.12-.54.19-.82.06-.23.11-.46.17-.69.07-.29.14-.59.22-.88.06-.22.11-.44.17-.65.06-.25.13-.5.19-.75.03-.12.07-.24.1-.37.08-.28.16-.57.23-.85.09-.33.19-.66.28-.99.07-.23.14-.47.21-.7.04-.12.07-.25.11-.37.08-.26.16-.52.24-.78.12-.38.24-.76.37-1.14.09-.28.19-.56.28-.84.03-.1.06-.19.1-.29.08-.25.17-.5.26-.74.11-.31.22-.62.33-.93.04-.12.09-.23.13-.35.09-.25.19-.5.28-.75.1-.27.2-.53.31-.8.09-.22.17-.45.26-.67.02-.05.04-.11.07-.16.05-.12.09-.23.14-.35.1-.24.2-.48.3-.73.11-.27.23-.54.34-.81.26-.62.53-1.23.81-1.84.11-.24.22-.47.33-.7.05-.11.1-.22.15-.33.12-.25.24-.5.36-.75.14-.28.27-.56.42-.84.12-.25.25-.5.38-.74.03-.06.07-.13.1-.2.25-.48.5-.96.76-1.43.14-.26.28-.52.42-.77.27-.49.54-.97.82-1.44.05-.08.1-.16.15-.25.18-.31.37-.62.56-.93,0,0,0-.02.02-.03.09-.15.18-.3.28-.45.1-.17.21-.34.32-.51.09-.14.17-.27.26-.41.2-.3.39-.61.59-.91.1-.15.2-.3.3-.45.3-.45.6-.89.91-1.33.1-.15.2-.29.31-.44.1-.14.21-.29.31-.43.26-.36.52-.71.79-1.07.16-.21.32-.42.48-.62.07-.1.15-.19.22-.29.15-.19.31-.39.46-.58.19-.24.38-.47.57-.7.2-.24.41-.49.61-.73.15-.17.3-.35.44-.52.07-.08.14-.16.21-.24.18-.2.35-.4.53-.6.2-.23.41-.45.61-.67,0,0,0,0,0-.01.16-.17.32-.34.49-.52.07-.08.14-.15.21-.22.2-.21.41-.42.62-.63.18-.19.37-.37.56-.56.17-.17.35-.34.52-.51.09-.08.17-.16.26-.24.17-.16.33-.32.51-.48.14-.13.27-.25.41-.38.31-.29.63-.57.95-.84.2-.18.41-.35.62-.53.22-.19.45-.37.67-.56-.36.24-.73.48-1.08.73-.26.18-.52.36-.77.54-.15.11-.31.22-.46.33-.15.11-.31.22-.46.33-.33.24-.66.49-.98.74-.22.17-.44.34-.66.51-.09.07-.19.15-.29.22-.2.16-.41.32-.61.49-.41.33-.82.67-1.22,1.02-.03.03-.06.05-.09.08-.4.34-.8.69-1.19,1.04,0,0-.02.02-.03.03-.2.18-.4.36-.6.55,0,0-.01.01-.02.02-.2.18-.4.36-.59.55-.2.19-.4.38-.6.57-.2.19-.4.38-.6.58t0,0s0,0,0,0c-.22.21-.43.43-.65.65-.22.22-.43.44-.64.66-.43.44-.85.89-1.26,1.34-.21.23-.42.46-.62.69-.2.23-.41.46-.61.7-.2.23-.4.47-.6.7-.4.47-.8.95-1.19,1.43-.19.24-.39.48-.58.73-.37.47-.74.95-1.1,1.43-.23.3-.45.61-.67.91-.16.22-.32.44-.47.66-.14.2-.28.4-.42.6h0c-.11.16-.22.32-.33.49-.11.15-.21.31-.32.46,0,0,0,.02-.02.02-.22.33-.44.66-.65.99,0,0,0,.01-.01.02-.22.35-.45.7-.67,1.05-.19.31-.39.63-.58.94-.02.04-.05.08-.07.11-.11.18-.21.36-.32.53-.21.36-.42.72-.63,1.08-.1.18-.2.36-.31.54-.1.18-.2.36-.3.55-.1.18-.2.37-.3.55-.4.73-.78,1.48-1.16,2.23-.09.17-.17.35-.26.53l-.26.53c-.08.18-.17.35-.25.53-.08.18-.17.35-.25.53-.08.18-.16.36-.25.54-.08.18-.16.36-.24.54-.08.18-.16.36-.24.54-.09.21-.19.43-.28.64-.06.15-.13.3-.19.45-.15.36-.3.73-.45,1.1-.61,1.5-1.17,3.03-1.69,4.59-.05.16-.11.32-.16.48-.52,1.59-1,3.2-1.43,4.83-.04.15-.08.3-.12.46-.26,1.02-.51,2.05-.73,3.08-.04.2-.09.4-.13.6-.04.21-.09.41-.13.62-.21,1.04-.4,2.08-.58,3.14-.03.19-.06.39-.09.58-.07.45-.14.89-.2,1.34-.06.42-.12.84-.17,1.26-.03.23-.06.47-.09.7-.02.19-.05.39-.07.58-.05.43-.09.86-.13,1.29-.02.22-.04.43-.06.65-.04.43-.07.87-.11,1.3,0,.13-.02.26-.03.39,0,.13-.02.27-.03.4-.01.17-.02.34-.03.52-.01.16-.02.33-.03.49-.02.27-.03.55-.04.82,0,.12-.01.24-.02.36,0,.13-.01.26-.02.38-.04,1.07-.06,2.15-.06,3.23,0,.49,0,.98.01,1.46,0,.18,0,.35.01.53,0,.21,0,.42.02.63,0,.11,0,.21,0,.32,0,.2.01.39.02.59.02.43.04.87.06,1.3,0,.16.02.31.03.47.08,1.35.19,2.69.33,4.02h-13.94c-.37-3.09-.55-6.24-.55-9.43,0-17.11,5.31-32.98,14.37-46.05,1.68-2.43,3.49-4.75,5.42-6.98,4.21-4.86,9-9.2,14.25-12.94,5.39-3.84,11.28-7.03,17.54-9.47.67-.26,1.35-.51,2.03-.76,1.65-.59,3.33-1.13,5.03-1.62.1-.03.2-.06.3-.08,1.62-.46,3.26-.86,4.92-1.22,3.62-.78,5.25-5.07,3.03-8.04-1.37-1.82-3.59-3.3-7.19-3.38,1.73-1.65,4.07-2.66,6.64-2.66,3.26,0,6.14,1.62,7.87,4.09-.8-5.92-5.49-10.61-11.42-11.4,1.48-.57,3.09-.88,4.78-.88M440.29,19.59c-2.03,0-4.02.37-5.9,1.09-1.33.51-2.14,1.86-1.98,3.27.17,1.41,1.27,2.54,2.68,2.72,1.23.16,2.39.55,3.44,1.11-3.1.12-6.03,1.36-8.28,3.51-.91.87-1.21,2.21-.75,3.38s1.58,1.96,2.84,1.99c2.16.05,3.72.74,4.77,2.13.57.76.37,1.55.26,1.86-.12.31-.49,1.06-1.45,1.26-1.71.37-3.43.79-5.11,1.27-.09.02-.22.06-.35.1-1.7.49-3.46,1.05-5.18,1.67-.7.25-1.41.51-2.11.79-6.44,2.51-12.57,5.81-18.22,9.83-5.44,3.87-10.42,8.39-14.8,13.44-2,2.3-3.9,4.74-5.63,7.25-9.77,14.08-14.93,30.62-14.93,47.82,0,3.27.19,6.57.57,9.79.19,1.57,1.52,2.75,3.1,2.75h13.94c.88,0,1.73-.38,2.32-1.03.59-.66.88-1.54.78-2.41-.13-1.26-.24-2.56-.32-3.87v-.08s-.02-.35-.02-.35c-.03-.44-.04-.85-.06-1.27,0-.19-.01-.37-.02-.55v-.29s0-.04-.01-.05c0-.19-.01-.38-.02-.57v-.28s-.01-.26-.01-.26c0-.45-.01-.92-.01-1.4,0-1.05.02-2.1.06-3.11v-.3s.01-.06.01-.06v-.28s.01-.07.01-.07c.01-.27.02-.53.04-.79v-.15s.03-.3.03-.3l.03-.44v-.09s.03-.31.03-.31v-.08s.03-.38.03-.38c.03-.42.07-.83.1-1.25.02-.21.04-.42.06-.62.04-.42.08-.83.13-1.24l.06-.56c.03-.22.05-.44.08-.67.05-.41.1-.79.16-1.18-.01.13-.03.27-.04.4,0,.02,0,.03,0,.05h0c-.02.22-.05.45-.07.67v.12s-.06.55-.06.55c-.01.15-.03.32-.04.49,0,.06-.01.14-.02.22-.05.62-.1,1.29-.15,1.96h0s0,.05,0,.07c-.02.27-.03.52-.05.78l-.04.81c-.01.29-.03.56-.04.83v.06c-.01.23-.02.46-.03.7,0,.05,0,.09,0,.14,0,.25-.02.49-.02.74,0,.3-.02.61-.02.92v.2c0,.15,0,.3-.01.45,0,.07,0,.13,0,.2,0,.21,0,.46,0,.72,0,.28,0,.56,0,.84,0,.35,0,.7,0,1.05v.15s0,.13,0,.13v.8s.02.18.02.18c0,.14,0,.29.01.44,0,.24.01.52.02.8v.08c.03.8.06,1.6.1,2.4.02.33.04.66.06.99v.11c0,.06.01.12.02.17l.07,1.06s0,.06,0,.07c.03.38.06.77.09,1.15.14,1.61,1.49,2.85,3.11,2.85h34.78c.86,0,1.69-.36,2.27-.99.06-.06.12-.13.17-.2.58.74,1.48,1.19,2.45,1.19h41.2c.81,0,1.59-.32,2.17-.88.1-.1.19-.2.27-.3.05.07.11.14.17.2.59.63,1.41.98,2.27.98h34.78c1.6,0,2.94-1.22,3.1-2.81,0-.07.01-.13.02-.2.03-.34.06-.68.08-1.02.03-.36.05-.73.08-1.11,0-.05,0-.09,0-.14.02-.37.04-.74.06-1.12.04-.8.08-1.59.1-2.4v-.08c.01-.28.02-.55.03-.83,0-.12,0-.27,0-.42,0-.3.01-.61.02-.92v-.17s0-.19,0-.19c0-.31,0-.66,0-1.02s0-.73,0-1.09c0-.71-.02-1.44-.04-2.16,0-.28-.02-.57-.03-.86,0-.11,0-.24-.01-.38v-.08c0-.18-.02-.36-.03-.53l-.02-.35v-.23c-.02-.25-.04-.51-.05-.78-.02-.31-.04-.63-.06-.95,0-.05,0-.1-.01-.14v-.13c-.03-.26-.04-.52-.06-.77-.03-.42-.07-.85-.1-1.27-.03-.31-.05-.63-.09-.95-.03-.34-.07-.69-.11-1.04,0-.07-.01-.14-.02-.21.03.19.05.38.08.57l.02.14s0,.05,0,.07c.03.25.07.5.1.76,0,.02,0,.04,0,.05,0,.03,0,.07.01.1.03.24.06.49.09.73.02.15.03.26.04.37,0,.01,0,.07,0,.08.02.18.04.35.05.53,0,.02,0,.04,0,.05l.03.34c.03.3.05.55.07.8,0,.02,0,.04,0,.05h0s0,.05,0,.08c.02.27.05.54.07.81v.16c.03.27.05.54.07.81v.15s.02.15.02.15v.08s0,.07.01.11c.02.24.03.47.04.71,0,.01,0,.03,0,.04,0,.02,0,.04,0,.06.02.32.03.64.04.96.01.31.02.61.03.92,0,.12,0,.19,0,.26,0,.28.01.53.02.79v.12s0,.11,0,.11c0,.33,0,.63,0,.92,0,.47,0,.95-.01,1.42v.51c-.01.21-.02.4-.03.59,0,.02,0,.03,0,.05v.26c-.01.21-.02.39-.03.58-.02.42-.03.83-.06,1.24l-.02.38v.08c-.08,1.31-.19,2.61-.32,3.87-.09.88.19,1.76.78,2.41.59.66,1.43,1.03,2.32,1.03h13.55c1.58,0,2.91-1.18,3.1-2.75.38-3.21.57-6.51.57-9.79,0-25.7-11.53-49.64-31.63-65.69-6.54-5.22-13.79-9.42-21.54-12.48-.59-.23-1.18-.46-1.77-.68-1.77-.66-3.61-1.26-5.45-1.8-.07-.02-.14-.04-.22-.06-1.65-.48-3.34-.91-5.02-1.28-1.15-.26-1.46-1.18-1.53-1.57-.08-.38-.16-1.33.78-2,.94-.68,2.16-1.03,3.64-1.06,1.26-.03,2.38-.81,2.84-1.98s.16-2.51-.75-3.38c-2.25-2.16-5.18-3.4-8.28-3.52,1.05-.56,2.21-.94,3.44-1.11,1.41-.19,2.52-1.31,2.68-2.72.17-1.41-.65-2.76-1.97-3.27-1.88-.73-3.87-1.09-5.9-1.09-5.33,0-10.07,2.51-13.07,6.43-2.96-4.34-7.95-7.19-13.59-7.19h0Z"/>
          </g>
          <g>
            <g>
              <path class="cls-1" d="M245.88,135.06c-.84,0-1.54-.67-1.56-1.52v-.27c0-7.77,3.06-15.04,8.62-20.47.62-.61,1.28-1.2,1.96-1.75-1.02-2.41-1.54-4.97-1.54-7.63,0-1.09.09-2.18.27-3.24.28-1.68.78-3.33,1.5-4.9,1.52-3.33,3.94-6.15,6.98-8.18,1.39-.93,2.9-1.68,4.5-2.22,1.5-.51,3.06-.84,4.66-.98.55-.05,1.12-.07,1.68-.07,10.8,0,19.59,8.79,19.59,19.59,0,.23,0,.46-.01.69.61-.12,1.23-.24,1.85-.34,1.52-.25,3.06-.44,4.58-.57,1.42-.11,2.86-.18,4.27-.19h.53c1.33,0,2.67.05,3.99.15,1.53.11,3.08.29,4.62.53,17.24,2.72,32.43,13.58,40.63,29.06.26.48.24,1.06-.04,1.53-.28.47-.79.75-1.33.75h-105.74Z"/>
              <path class="cls-8" d="M272.95,85.4c9.96,0,18.03,8.07,18.03,18.03,0,.91-.07,1.8-.2,2.67,1.27-.31,2.55-.57,3.85-.78,1.46-.24,2.95-.43,4.45-.55,1.37-.11,2.75-.17,4.15-.18.12,0,.24,0,.35,0h.17c1.3,0,2.59.05,3.87.15,1.51.11,3.01.28,4.49.52,17.17,2.71,31.66,13.45,39.5,28.26h-105.74c0-.07,0-.15,0-.23,0-7.58,3.12-14.44,8.15-19.35.88-.86,1.82-1.66,2.8-2.39-1.23-2.43-1.92-5.18-1.92-8.09,0-1.02.08-2.01.25-2.98.26-1.58.73-3.1,1.38-4.51,1.4-3.07,3.64-5.68,6.43-7.53,1.27-.85,2.66-1.54,4.14-2.04,1.36-.47,2.8-.77,4.29-.9.51-.05,1.03-.07,1.55-.07M272.95,82.28c-.61,0-1.23.03-1.83.08-1.71.15-3.41.5-5.02,1.06-1.72.59-3.35,1.4-4.86,2.4-3.28,2.18-5.89,5.23-7.53,8.82-.78,1.7-1.32,3.48-1.62,5.3-.19,1.13-.29,2.31-.29,3.49,0,2.48.42,4.87,1.24,7.16-.41.36-.81.73-1.19,1.11-5.86,5.73-9.09,13.39-9.09,21.58,0,.11,0,.22,0,.33.06,1.68,1.43,3.01,3.11,3.01h105.74c1.09,0,2.11-.57,2.67-1.51.56-.94.6-2.1.08-3.07-8.43-15.91-24.05-27.08-41.77-29.87-1.58-.25-3.18-.43-4.75-.55-1.34-.1-2.72-.15-4.09-.16h-.18c-.14,0-.27,0-.41,0-1.42,0-2.9.07-4.35.19-1.56.13-3.14.32-4.71.58-.02,0-.04,0-.06,0-.61-11.12-9.85-19.97-21.11-19.97h0Z"/>
            </g>
            <g>
              <path class="cls-1" d="M361.29,135.06c-.62,0-1.18-.36-1.43-.93-3.07-6.98-7.38-13.26-12.8-18.69-5.64-5.64-12.21-10.07-19.54-13.17-5.26-2.22-10.78-3.69-16.41-4.38-1.38-.17-2.82-.29-4.27-.37-1.05-.06-2.15-.08-3.26-.08-.33,0-.65,0-.98,0-.23,0-.43,0-.63.01-.01,0-.03,0-.04,0-.42,0-.83-.17-1.12-.47-.3-.31-.47-.74-.44-1.17.08-1.39.31-2.77.71-4.12.96-3.25,2.82-6.18,5.37-8.47,1.57-1.41,3.35-2.53,5.29-3.33,2.23-.92,4.58-1.39,6.98-1.39h.14c.38,0,.77.02,1.15.05-.14-.93-.22-1.87-.22-2.82,0-6.9,3.81-13.16,9.96-16.34.79-.41,1.64-.62,2.53-.62,1.64,0,3.2.72,4.29,1.98,2.91,3.36,7.12,5.28,11.55,5.28,2.85,0,5.32-.45,6.2-1.12,1.8-4.18,4.96-7.7,8.92-9.96,3.15-1.79,6.74-2.74,10.38-2.74,5.56,0,10.8,2.15,14.75,6.06.3.29.46.69.46,1.1,0,.42-.16.81-.46,1.11,0,0-.34.35-.35.36l-.46.48c-1.95,2.04-3.81,4.18-5.54,6.36-.1.12-.21.26-.33.42-1.05,1.34-2.07,2.72-3.05,4.12-.75,1.07-1.46,2.14-2.12,3.19-5.64,8.86-9.65,18.5-11.92,28.66l-1.21,6.51c-.47,3.16-.78,6.45-.92,9.71,0,.03,0,.08,0,.1-.04,1.17-.07,2.44-.07,3.69,0,3.11.16,6.22.47,9.27.04.44-.1.88-.39,1.2-.3.33-.72.51-1.16.51h-.05Z"/>
              <path class="cls-8" d="M373.63,53.78c5.32,0,10.15,2.14,13.66,5.61-.12.12-.23.23-.35.35,0,0,0,0,0,0-.16.17-.32.33-.49.5-1.98,2.07-3.87,4.24-5.63,6.47-.1.13-.22.28-.34.44-1.05,1.33-2.08,2.74-3.09,4.17-.74,1.06-1.47,2.15-2.16,3.24-5.74,9.03-9.81,18.81-12.13,29.15l-1.22,6.57h0c-.49,3.27-.8,6.61-.94,9.93,0,0,0,.02,0,.03-.05,1.28-.08,2.57-.08,3.83,0,3.16.16,6.33.48,9.42h-.05c-3.15-7.16-7.56-13.6-13.13-19.16-5.79-5.79-12.53-10.33-20.03-13.51-5.4-2.28-11.04-3.79-16.83-4.49-1.45-.18-2.91-.3-4.37-.38-1.11-.06-2.22-.09-3.34-.09-.33,0-.67,0-1.01,0-.22,0-.43,0-.65.01.07-1.3.29-2.56.65-3.76.9-3.03,2.63-5.7,4.91-7.75,1.42-1.28,3.06-2.31,4.84-3.05,1.98-.82,4.14-1.27,6.39-1.27h.14c1.08.01,2.13.12,3.14.32-.43-1.48-.65-3.04-.65-4.65,0-6.51,3.7-12.16,9.11-14.96.58-.3,1.2-.44,1.82-.44,1.16,0,2.31.51,3.11,1.44,3.09,3.56,7.64,5.82,12.73,5.82,1.54,0,6-.14,7.51-1.77,1.66-4.03,4.63-7.38,8.38-9.52,2.83-1.61,6.11-2.54,9.6-2.54M373.63,50.66c-3.91,0-7.76,1.02-11.15,2.94-4.1,2.33-7.4,5.94-9.36,10.21-.74.31-2.51.66-4.99.66-3.98,0-7.76-1.73-10.37-4.74-1.38-1.6-3.38-2.52-5.47-2.52-1.15,0-2.24.27-3.25.79-6.66,3.44-10.79,10.24-10.79,17.72,0,.41.01.81.04,1.22-2.46.06-4.85.56-7.13,1.5-2.1.87-4.03,2.08-5.73,3.61-2.76,2.48-4.78,5.66-5.82,9.19-.43,1.46-.69,2.97-.77,4.47-.05.87.27,1.72.88,2.34.59.6,1.39.94,2.23.94.03,0,.05,0,.08,0,.19,0,.38,0,.57,0,.02,0,.03,0,.05,0,.32,0,.64,0,.96,0,1.08,0,2.15.03,3.18.08,1.42.08,2.82.2,4.16.36,5.49.67,10.87,2.1,15.99,4.27,7.14,3.02,13.54,7.34,19.04,12.84,5.29,5.29,9.49,11.41,12.48,18.21.5,1.13,1.62,1.86,2.85,1.86.88,0,1.75-.37,2.34-1.03s.9-1.53.81-2.41c-.31-2.99-.46-6.05-.46-9.11,0-1.21.02-2.45.07-3.67,0-.02,0-.04,0-.06h0c.13-3.19.44-6.4.9-9.55l1.2-6.45c2.24-9.96,6.17-19.42,11.7-28.11.65-1.03,1.35-2.08,2.09-3.13.96-1.38,1.96-2.73,2.98-4.03.13-.17.24-.31.33-.42,1.71-2.16,3.54-4.26,5.45-6.26l.46-.48s.01-.01.02-.02c.1-.1.2-.21.31-.31.59-.59.92-1.38.91-2.21,0-.83-.34-1.62-.93-2.21-4.25-4.2-9.88-6.51-15.85-6.51h0Z"/>
            </g>
            <g>
              <path class="cls-1" d="M294.79,89.57c-.5,0-.98-.24-1.27-.66-.83-1.17-1.77-2.28-2.77-3.28-4.76-4.75-11.08-7.37-17.8-7.37,0,0-.26,0-.29,0-.5,0-.97-.24-1.26-.64-.31-.42-.38-.97-.2-1.46,3.16-8.5,11.19-14.31,20.19-14.72-.36-1.69-.54-3.43-.54-5.19,0-13.87,11.29-25.16,25.16-25.16,3.65,0,7.18.77,10.49,2.28,1.31.6,2.56,1.32,3.74,2.13,1.17-.86,2.42-1.62,3.71-2.26,1.21-.6,2.46-1.09,3.72-1.48,2.39-.74,4.89-1.11,7.42-1.11,2.69,0,5.33.42,7.86,1.25.21-.23.42-.45.63-.66,1.37-1.36,2.92-2.51,4.62-3.4,2.8-1.49,5.98-2.28,9.18-2.28,9.57,0,17.75,7.05,19.31,16.34.63-.06,1.25-.09,1.88-.09,4.89,0,9.57,1.81,13.18,5.11.35.32.54.78.5,1.26-.03.47-.28.91-.67,1.18-.56.38-1.12.79-1.69,1.2-1.05.76-2.01,1.49-2.95,2.23-.78.62-1.55,1.25-2.3,1.88-.28.24-.64.37-1.01.37h0c-.42,0-.81-.17-1.11-.47-.87-.88-1.8-1.71-2.79-2.46-3.13-2.39-6.63-4.02-10.42-4.85-1.87-.41-3.79-.61-5.72-.61-.68,0-1.37.03-2.04.08-3.89.3-7.73,1.47-11.1,3.39-3.99,2.27-7.35,5.57-9.72,9.54-.26.44-.72.72-1.23.76-.42.03-.9.05-1.41.05-2.81,0-5.48-1.22-7.33-3.36-2.15-2.48-5.25-3.9-8.51-3.9-1.77,0-3.53.43-5.1,1.24-1.98,1.02-3.81,2.32-5.43,3.85-1.52,1.43-2.84,3.05-3.94,4.81-1.75,2.81-2.87,5.89-3.35,9.17-.09.63-.56,1.15-1.19,1.29-1.03.24-2.05.55-3.03.92-1.68.64-3.3,1.48-4.8,2.48-1.15.77-2.25,1.66-3.28,2.63-2.66,2.55-4.65,5.56-5.92,8.96-.2.54-.68.93-1.26,1-.07,0-.14.01-.2.01Z"/>
              <path class="cls-8" d="M367.41,27.11c9.45,0,17.21,7.28,17.97,16.54,1.05-.19,2.13-.29,3.22-.29,4.67,0,8.93,1.78,12.13,4.7-.57.39-1.15.8-1.73,1.22-.03.02-.05.04-.08.06-.99.72-1.97,1.46-2.92,2.21-.79.63-1.58,1.27-2.34,1.92h0c-.92-.94-1.91-1.81-2.95-2.61-3.31-2.53-7.05-4.26-11.03-5.13-1.97-.43-3.99-.65-6.05-.65-.72,0-1.44.03-2.16.08-4.13.32-8.16,1.55-11.75,3.59-4.24,2.41-7.8,5.92-10.29,10.1-.39.03-.83.05-1.3.05-2.36,0-4.6-1.03-6.15-2.82-2.44-2.82-5.98-4.44-9.69-4.44-2.01,0-4.02.49-5.81,1.41-2.12,1.09-4.06,2.47-5.78,4.1-1.61,1.51-3.02,3.23-4.19,5.12-1.86,2.98-3.07,6.31-3.57,9.76-1.1.26-2.18.58-3.23.98-1.79.68-3.51,1.57-5.12,2.65-1.23.82-2.4,1.76-3.49,2.8-2.84,2.71-4.97,5.97-6.3,9.55-.87-1.23-1.85-2.4-2.94-3.48-5.05-5.05-11.76-7.83-18.9-7.83-.1,0-.19,0-.29,0,2.98-8.02,10.7-13.73,19.76-13.73.33,0,.65,0,.98.02-.64-2.14-.98-4.4-.98-6.74,0-13.03,10.57-23.6,23.6-23.6,3.51,0,6.84.77,9.84,2.14,1.54.71,3,1.58,4.35,2.6.03.02.05.04.08.06,1.34-1.09,2.81-2.03,4.38-2.81,1.12-.55,2.28-1.02,3.49-1.39,2.2-.68,4.54-1.05,6.96-1.05,2.94,0,5.75.54,8.34,1.52.39-.48.81-.94,1.25-1.38,1.25-1.24,2.68-2.3,4.25-3.13,2.52-1.34,5.4-2.1,8.45-2.1M367.41,24c-3.46,0-6.89.85-9.92,2.47-1.82.96-3.49,2.2-4.97,3.67-2.4-.69-4.88-1.04-7.4-1.04-2.69,0-5.34.4-7.89,1.18-1.34.41-2.67.94-3.95,1.57-1.05.52-2.08,1.12-3.06,1.77-.98-.62-2-1.17-3.06-1.66-3.52-1.61-7.27-2.43-11.15-2.43-14.73,0-26.72,11.99-26.72,26.72,0,1.27.09,2.53.26,3.77-8.9,1.07-16.66,7.06-19.83,15.59-.36.98-.21,2.07.4,2.91.59.81,1.53,1.29,2.52,1.29.04,0,.08,0,.12,0,.03,0,.07,0,.1,0,.02,0,.05,0,.07,0,6.31,0,12.24,2.46,16.7,6.92.94.95,1.82,1.98,2.6,3.08.59.83,1.54,1.31,2.54,1.31.14,0,.27,0,.41-.03,1.15-.15,2.11-.92,2.51-2,1.18-3.18,3.04-6,5.53-8.38.96-.91,1.99-1.74,3.07-2.46,1.41-.94,2.92-1.72,4.5-2.33.91-.34,1.86-.63,2.82-.86,1.25-.29,2.19-1.32,2.38-2.58.45-3.06,1.5-5.95,3.13-8.57,1.03-1.65,2.26-3.16,3.68-4.5,1.52-1.43,3.23-2.64,5.08-3.6,1.35-.7,2.86-1.06,4.38-1.06,2.81,0,5.48,1.23,7.34,3.37,2.14,2.47,5.24,3.89,8.51,3.89.5,0,1.01-.02,1.52-.05,1.02-.07,1.94-.64,2.46-1.51,2.23-3.74,5.39-6.85,9.15-8.98,3.18-1.81,6.79-2.91,10.45-3.19.63-.05,1.27-.07,1.92-.07,1.82,0,3.63.19,5.39.58,3.56.78,6.86,2.31,9.8,4.56.92.71,1.81,1.49,2.62,2.32.61.62,1.42.94,2.23.94.73,0,1.45-.25,2.04-.76.73-.62,1.49-1.24,2.24-1.83.91-.72,1.86-1.44,2.82-2.14,0,0,.02-.01.03-.02.02-.01.04-.03.04-.03.56-.41,1.12-.81,1.67-1.18.78-.54,1.28-1.41,1.34-2.35.06-.95-.31-1.88-1.01-2.52-3.9-3.56-8.95-5.51-14.23-5.51-.21,0-.41,0-.62,0-2.23-9.33-10.72-16.26-20.57-16.26h0Z"/>
            </g>
            <g>
              <path class="cls-1" d="M408.32,44.9c-.43,0-.84-.17-1.15-.5-.25-.27-.51-.54-.77-.8-3.97-3.97-8.98-6.44-14.5-7.16-.55-.07-1.02-.43-1.24-.95-1.39-3.36-3.46-6.32-6.15-8.82-4.67-4.32-10.74-6.7-17.1-6.7-5.59,0-11.08,1.88-15.46,5.3-.28.22-.61.33-.96.33-.09,0-.19,0-.28-.03-1.85-.34-3.73-.51-5.6-.51-2.21,0-4.42.24-6.57.7-.11.02-.22.04-.33.04-.6,0-1.16-.35-1.42-.91-.61-1.33-1.33-2.64-2.16-3.89-.28-.42-.33-.95-.16-1.42,4.13-10.78,14.67-18.02,26.21-18.02,7.09,0,13.79,2.62,18.98,7.39,2.45-.68,4.98-1.02,7.53-1.02,13.28,0,24.63,9.21,27.42,22.06,2.24.33,4.42.93,6.51,1.79.6.25.98.84.96,1.49-.03,1.04.1,2.08.4,3.08.05.19.11.36.17.53.29.81-.12,1.7-.93,1.99-.48.18-.96.36-1.43.54-3.63,1.41-7.22,3.08-10.65,4.96l-.58.32c-.24.14-.51.2-.77.2Z"/>
              <path class="cls-8" d="M360.7,3.12c7.23,0,13.78,2.89,18.56,7.58,2.51-.79,5.18-1.21,7.95-1.21,13.07,0,23.93,9.46,26.11,21.9,2.53.27,4.96.9,7.23,1.83-.03,1.18.12,2.39.46,3.57.06.21.13.42.2.62-.49.18-.98.36-1.46.55-3.7,1.44-7.34,3.14-10.83,5.05-.2.11-.4.22-.6.33-.27-.29-.54-.57-.82-.85-4.21-4.21-9.58-6.84-15.39-7.6-1.46-3.52-3.68-6.71-6.54-9.36-4.96-4.59-11.4-7.11-18.16-7.11-6.03,0-11.77,2.01-16.42,5.63-1.93-.35-3.89-.53-5.88-.53-2.33,0-4.64.25-6.9.74-.65-1.43-1.42-2.8-2.28-4.11,3.82-9.95,13.46-17.02,24.76-17.02M360.7,0c-12.19,0-23.31,7.64-27.67,19.02-.36.94-.24,2,.31,2.84.78,1.18,1.47,2.42,2.04,3.68.51,1.13,1.63,1.82,2.83,1.82.22,0,.44-.02.66-.07,2.04-.44,4.14-.67,6.24-.67,1.77,0,3.56.16,5.31.48.19.03.37.05.56.05.69,0,1.36-.23,1.92-.66,4.17-3.25,9.18-4.97,14.5-4.97,5.97,0,11.66,2.23,16.04,6.28,2.52,2.34,4.47,5.12,5.77,8.27.43,1.03,1.37,1.75,2.47,1.89,5.17.68,9.88,3,13.59,6.72.25.25.49.5.72.76.61.66,1.45,1.01,2.3,1.01.53,0,1.06-.13,1.54-.41.16-.09.31-.17.47-.26l.1-.05c3.37-1.85,6.89-3.49,10.46-4.87.47-.18.94-.36,1.41-.53,1.61-.59,2.44-2.37,1.86-3.98-.05-.14-.09-.28-.14-.43-.25-.86-.37-1.73-.34-2.61.04-1.3-.73-2.48-1.93-2.97-1.88-.77-3.83-1.35-5.83-1.72-3.32-13.02-15.04-22.25-28.7-22.25-2.41,0-4.8.29-7.12.86-5.38-4.68-12.2-7.23-19.39-7.23h0Z"/>
            </g>
            <g>
              <path class="cls-1" d="M251.08,89.61c-.06,0-.12,0-.19-.01-.57-.07-1.05-.44-1.26-.97-1.05-2.65-1.58-5.44-1.58-8.31,0-12.4,10.03-22.51,22.41-22.63-.89-2.45-1.34-5.03-1.34-7.7,0-11.99,9.48-21.91,21.33-22.59,3.63-8.2,11.64-13.44,20.68-13.44,6.21,0,12,2.47,16.31,6.94,1.56,1.63,2.87,3.47,3.89,5.48.3.6.19,1.33-.29,1.81-.3.3-.7.46-1.11.46-.23,0-.46-.05-.67-.15-1.28-.62-2.63-1.15-4-1.58-2.97-.93-6.08-1.41-9.24-1.41-4.14,0-8.17.81-11.97,2.42-3.66,1.55-6.94,3.76-9.77,6.59-2.82,2.82-5.04,6.11-6.59,9.77-1.52,3.59-2.33,7.4-2.41,11.3-.01.67-.46,1.26-1.11,1.46-4.38,1.33-8.42,3.77-11.71,7.05-4.06,4.06-6.75,9.15-7.79,14.74-.1.53-.46.97-.96,1.17-3.21,1.26-6.1,3.16-8.57,5.64-1.03,1.03-1.97,2.14-2.8,3.32-.29.42-.77.66-1.27.66Z"/>
              <path class="cls-8" d="M311.13,15.52c5.96,0,11.35,2.48,15.18,6.46,1.45,1.5,2.67,3.22,3.62,5.1h0c-1.36-.65-2.77-1.21-4.2-1.66-3.1-.98-6.37-1.48-9.71-1.48-4.36,0-8.59.86-12.58,2.54-3.85,1.63-7.3,3.96-10.27,6.92-2.96,2.96-5.29,6.42-6.92,10.27-1.59,3.77-2.45,7.77-2.53,11.88-4.62,1.4-8.85,3.93-12.36,7.44-4.3,4.3-7.13,9.7-8.22,15.56-3.37,1.32-6.47,3.35-9.11,5.98-1.1,1.1-2.09,2.28-2.97,3.52-.95-2.39-1.47-5-1.47-7.74,0-11.64,9.43-21.07,21.07-21.07.74,0,1.47.04,2.19.11-1.4-2.82-2.19-6-2.19-9.36,0-11.56,9.3-20.94,20.83-21.07,3.06-7.85,10.7-13.4,19.63-13.4M311.13,12.41c-9.35,0-17.67,5.24-21.71,13.51-12.23,1.18-21.86,11.58-21.86,24.07,0,2.14.27,4.23.81,6.25-12.26,1.16-21.88,11.52-21.88,24.08,0,3.06.57,6.05,1.68,8.88.42,1.06,1.39,1.81,2.53,1.95.12.02.25.02.37.02,1,0,1.95-.48,2.54-1.32.79-1.11,1.67-2.16,2.63-3.12,2.33-2.33,5.03-4.1,8.04-5.29,1-.39,1.73-1.27,1.92-2.33.98-5.27,3.53-10.09,7.36-13.92,3.1-3.1,6.92-5.4,11.06-6.66,1.29-.39,2.18-1.57,2.21-2.92.08-3.71.85-7.32,2.29-10.73,1.47-3.47,3.57-6.59,6.25-9.28,2.68-2.68,5.8-4.78,9.27-6.25,3.61-1.52,7.43-2.3,11.36-2.3,3.01,0,5.96.45,8.78,1.34,1.3.41,2.57.91,3.79,1.5.43.21.89.31,1.35.31.76,0,1.5-.28,2.09-.8,1.04-.94,1.33-2.47.69-3.72-1.09-2.15-2.49-4.11-4.16-5.85-4.6-4.78-10.79-7.42-17.43-7.42h0Z"/>
            </g>
          </g>
          <g>
            <g>
              <path class="cls-1" d="M614.36,66.32c-.22,0-.44-.05-.65-.14-6.64-3.05-12.11-8.32-15.39-14.86-.77-1.53-1.4-3.11-1.9-4.69l-2.29-7.35-3.48,6.86c-2.45,4.83-6.1,8.99-10.57,12.04-.63.43-1.29.85-1.95,1.23-.24.14-.51.21-.79.21-.14,0-.27-.02-.41-.05-.4-.11-.74-.37-.95-.73-1.27-2.24-2.28-4.65-2.99-7.18-.83-2.95-1.24-5.98-1.22-9.01.01-1.3.1-2.61.28-3.88l.72-5.27-4.95,1.94c-.43.17-.87.33-1.31.47-3.03,1.01-6.28,1.54-9.67,1.57h-.26c-3.69,0-7.44-.62-10.83-1.81-.47-.17-.84-.55-.98-1.03s-.04-1,.26-1.4c.47-.6.97-1.2,1.49-1.78,3.63-4.03,8.26-7.1,13.39-8.88l8.54-2.96s-8.53-2.95-8.56-2.96c-.26-.09-.52-.19-.78-.28l-.23-.09c-.21-.08-.4-.16-.6-.24,0,0-.23-.09-.24-.1-.24-.1-.47-.2-.71-.31-.33-.15-.58-.26-.83-.39-.05-.02-1.02-.51-1.02-.51-.18-.09-.37-.2-.56-.3l-.13-.07c-.26-.15-.48-.27-.69-.39,0,0-.32-.19-.32-.19-.16-.09-.34-.21-.53-.33,0,0-.92-.6-.93-.61-.23-.16-.46-.32-.69-.48l-.7-.52-.23-.18c-.16-.12-.35-.27-.53-.42,0,0-.17-.14-.18-.15-.49-.42-.67-1.09-.46-1.7.21-.6.77-1.02,1.41-1.04,2.75-.11,5.5-.49,8.2-1.15.04,0,.08-.02.12-.02,1.47-.23,2.99-.35,4.51-.35,8.2,0,16.43,3.36,22,9,.58.59,1.4.93,2.23.93.1,0,.21,0,.31-.02.94-.09,1.78-.6,2.3-1.39,5.61-8.52,15.51-13.81,25.84-13.81.9,0,1.81.04,2.71.12.35.03.68.18.93.43,3.19,3.06,5.65,6.68,7.31,10.76.21.52.13,1.11-.22,1.55-.3.38-.75.6-1.23.6-.08,0-.15,0-.23-.02-1.81-.27-3.67-.4-5.54-.4-6.62,0-13.2,1.71-18.52,4.8-1.23.72-1.82,2.18-1.44,3.55.38,1.34,1.62,2.28,3.03,2.28.29,0,.54,0,.78,0,16.42,0,24.89,11.46,27.1,14.97.91,1.44,1.97,2.75,3.19,3.94.67.65,1.37,1.29,2.09,1.9.52.44.69,1.16.44,1.78-.24.59-.81.97-1.44.97-.04,0-.51-.02-.51-.02l-.56-.03-1.33-.1-.94-.11c-.18-.02-.37-.05-.55-.08l-.37-.06c-.16-.02-.35-.06-.54-.09l-.33-.06c-.31-.06-.57-.11-.83-.17l-.11-.02c-.29-.06-.59-.13-.88-.2-.06-.01-.13-.03-.21-.05-.26-.06-.48-.12-.69-.18,0,0-.69-.2-.88-.25l-.86-.28-.96-.34-.25-.1c-.16-.06-.83-.34-.83-.34-.17-.07-.67-.29-.67-.29l-.14-.06c-.27-.12-.54-.25-.8-.38l-5.38-2.68.89,5.95c.1.66.18,1.36.24,2.08.05.7.09,1.4.1,2.1.06,4.18-.71,8.44-2.22,12.32-.16.4-.47.72-.87.88-.19.08-.39.11-.58.11Z"/>
              <path class="cls-8" d="M616.47,3.12c.85,0,1.71.04,2.56.12,3.03,2.9,5.39,6.39,6.94,10.22-1.9-.28-3.83-.42-5.76-.42-6.79,0-13.61,1.7-19.3,5.02-1.84,1.08-2.73,3.26-2.15,5.32.57,2.03,2.42,3.42,4.53,3.42.03,0,.05,0,.08,0,.23,0,.47,0,.7,0,15.62,0,23.66,10.87,25.78,14.24l.04.07c.94,1.49,2.08,2.89,3.38,4.16.7.69,1.43,1.34,2.17,1.97-.03,0-.06,0-.09,0-.12,0-.24,0-.36-.01-.18,0-.36-.02-.53-.03-.12,0-.25-.02-.38-.03-.17-.01-.34-.03-.51-.04l-.38-.04c-.17-.02-.34-.04-.51-.06-.12-.01-.25-.03-.37-.04-.18-.02-.35-.05-.53-.07-.12-.02-.23-.03-.35-.05-.19-.03-.38-.06-.57-.09-.1-.02-.2-.04-.3-.05-.26-.05-.51-.1-.76-.15-.03,0-.07-.01-.1-.02-.29-.06-.57-.13-.86-.2-.08-.02-.16-.04-.24-.06-.2-.05-.4-.1-.6-.16-.1-.03-.2-.06-.31-.09-.18-.05-.35-.1-.53-.15-.11-.03-.22-.07-.33-.1-.17-.05-.33-.11-.5-.16-.11-.04-.22-.07-.33-.11-.16-.06-.33-.12-.49-.18-.11-.04-.21-.08-.32-.12-.16-.06-.33-.13-.49-.2-.1-.04-.2-.08-.3-.12-.18-.08-.35-.15-.53-.23-.08-.04-.16-.07-.25-.11-.26-.12-.51-.24-.75-.36l-8.06-4.02,1.33,8.91c.1.65.17,1.31.23,1.97.05.66.08,1.33.09,1.99.06,3.99-.67,8.03-2.12,11.73-6.31-2.89-11.54-7.95-14.65-14.14-.72-1.43-1.32-2.92-1.8-4.45l-3.44-11.01-5.22,10.28c-2.35,4.63-5.83,8.57-10.05,11.46-.6.41-1.22.8-1.86,1.17-1.22-2.14-2.17-4.45-2.84-6.84-.79-2.79-1.18-5.69-1.16-8.58,0-1.24.1-2.47.26-3.69l1.07-7.9-7.42,2.9c-.41.16-.82.31-1.23.45-2.91.98-6.04,1.46-9.19,1.49-.08,0-.17,0-.25,0-3.52,0-7.05-.58-10.32-1.72.45-.58.93-1.15,1.42-1.69,3.44-3.82,7.8-6.74,12.74-8.45l12.79-4.43-12.79-4.43s0,0-.01,0c-.25-.09-.5-.18-.75-.27-.07-.03-.15-.06-.23-.09-.18-.07-.36-.14-.54-.22-.08-.03-.15-.06-.23-.09-.23-.1-.45-.19-.68-.29-.02,0-.04-.02-.07-.03-.24-.11-.49-.22-.73-.34-.07-.03-.14-.07-.21-.1-.18-.09-.35-.18-.53-.27-.08-.04-.15-.08-.23-.11-.21-.11-.41-.22-.61-.33-.03-.02-.06-.04-.1-.05-.23-.13-.47-.27-.7-.4-.06-.04-.13-.08-.19-.12-.17-.1-.34-.21-.51-.32-.07-.04-.14-.09-.21-.13-.19-.12-.38-.25-.57-.38-.04-.03-.07-.05-.11-.07-.22-.15-.45-.31-.67-.47-.05-.04-.11-.08-.16-.12-.17-.12-.34-.25-.5-.38-.06-.05-.13-.1-.19-.15-.18-.14-.36-.28-.53-.42-.04-.03-.07-.06-.11-.08-.02-.01-.03-.03-.04-.04,2.83-.11,5.7-.51,8.51-1.19,1.41-.22,2.84-.33,4.27-.33,7.7,0,15.55,3.13,20.9,8.54.88.9,2.09,1.39,3.33,1.39.15,0,.31,0,.46-.02,1.41-.14,2.68-.91,3.45-2.09,5.36-8.14,14.87-13.11,24.54-13.11M616.47,0c-10.85,0-21.25,5.56-27.14,14.52-.26.4-.68.65-1.16.7-.05,0-.1,0-.15,0-.42,0-.82-.17-1.12-.47-5.86-5.93-14.5-9.46-23.11-9.46-1.61,0-3.21.12-4.76.37-.08.01-.17.03-.25.05-2.6.63-5.25,1-7.89,1.11-1.28.05-2.4.88-2.82,2.09-.42,1.21-.06,2.56.92,3.39,0,0,.04.04.05.04.02.02.06.05.08.06l.11.09c.17.14.36.29.56.44.05.04.09.07.14.11l.05.04c.2.15.37.28.54.4.03.02.09.06.11.08l.09.07c.27.19.51.36.75.53.02.01.06.04.09.06.02.01.03.02.05.03.21.14.42.28.63.41l.21.13c.18.12.38.24.57.35l.08.05.06.04s.06.04.09.06c.27.16.51.3.75.43.02.01.05.03.07.04.03.01.05.03.08.04.21.12.43.23.64.35.08.04.17.09.25.13.19.1.38.19.56.29.08.04.17.08.26.13.26.12.51.24.77.36.02.01.08.04.1.05.22.1.46.2.71.31.02,0,.04.02.07.03l.08.03.11.04c.2.08.41.17.61.25l.11.04.13.05c.27.1.54.2.82.3.03.01.07.02.1.03l4.2,1.46-4.29,1.48c-5.38,1.86-10.23,5.08-14.04,9.31-.55.62-1.08,1.25-1.56,1.87-.61.79-.81,1.83-.52,2.79.29.96,1.02,1.73,1.96,2.06,3.56,1.24,7.48,1.89,11.35,1.89h.27c3.55-.03,6.97-.59,10.16-1.65.44-.15.9-.31,1.37-.49l2.5-.97-.36,2.65c-.18,1.35-.28,2.72-.29,4.08-.02,3.17.41,6.35,1.28,9.44.75,2.65,1.8,5.19,3.13,7.53.41.72,1.1,1.25,1.9,1.47.27.07.54.11.81.11.55,0,1.09-.14,1.57-.42.7-.41,1.38-.84,2.05-1.3,4.68-3.2,8.51-7.57,11.07-12.63l1.75-3.45,1.15,3.69c.52,1.67,1.19,3.32,1.99,4.92,3.45,6.85,9.18,12.38,16.14,15.58.41.19.86.28,1.3.28.4,0,.79-.08,1.17-.23.8-.32,1.42-.96,1.73-1.76,1.59-4.06,2.39-8.52,2.33-12.91-.01-.73-.04-1.47-.1-2.19-.06-.75-.15-1.48-.25-2.19l-.45-2.98,2.7,1.35c.28.14.56.27.85.4l.16.07.09.04c.22.1.41.18.61.27.1.04.22.09.34.14.18.08.36.15.54.22l.26.1.08.03.15.05c.14.05.29.1.43.15l.06.02c.1.04.2.07.31.1.16.05.31.1.47.15,0,0,.05.02.06.02l.07.02c.11.03.21.07.32.1.17.05.38.11.58.17.08.02.2.06.33.09.21.06.45.12.69.18h.01c.09.03.18.05.27.07.27.06.57.13.88.2.07.01.12.02.17.03.26.05.52.1.78.16.02,0,.05,0,.07.01h.05s.19.04.19.04c.25.04.47.08.68.11.1.02.24.04.37.06.18.03.39.06.59.08.11.01.25.03.39.05.1.01.24.03.37.04l.16.02s.03,0,.05,0l.19.02.19.02c.22.02.4.03.59.05.15.01.28.02.41.03.21.01.4.02.59.03h.1c.1,0,.21.01.31.02.02,0,.03,0,.05,0,.04,0,.07,0,.11,0,1.26,0,2.4-.76,2.88-1.93.51-1.25.16-2.69-.87-3.56-.69-.58-1.37-1.2-2.01-1.82-1.13-1.11-2.12-2.32-2.92-3.59l-.06-.1c-2.29-3.65-11.18-15.66-28.4-15.66-.25,0-.51,0-.76,0-.73,0-1.35-.47-1.54-1.14-.19-.69.1-1.42.72-1.78,5.08-2.96,11.38-4.59,17.73-4.59,1.79,0,3.57.13,5.31.38.15.02.3.03.45.03.95,0,1.86-.43,2.45-1.19.69-.88.86-2.06.43-3.1-1.74-4.28-4.32-8.08-7.67-11.29-.51-.49-1.17-.79-1.87-.85-.94-.09-1.9-.13-2.85-.13h0Z"/>
            </g>
            <g>
              <path class="cls-2" d="M545.91,135.06c-.44,0-.86-.19-1.16-.51-.29-.33-.44-.76-.39-1.2.31-3.03.47-6.15.47-9.27,0-18.58-5.57-36.45-16.12-51.67-4.67-6.73-10.22-12.81-16.51-18.06-.53-.45-1.07-.89-1.66-1.36-7.05-5.61-14.85-10.12-23.19-13.41-.55-.22-1.1-.43-1.65-.63-.77-.28-1.18-1.11-.96-1.89.3-1.03.42-2.09.38-3.16-.02-.55.24-1.06.7-1.37,16.81-11.14,36.64-17.54,57.34-18.49.02,0,.05,0,.07,0,.41,0,.8.16,1.1.45.03.03.07.07.09.08.15.13.36.33.57.51l.2.18c.2.17.37.32.54.46l.21.18c.25.21.49.4.72.59.02.01.03.03.04.03.25.19.48.37.72.55.08.06.98.71,1.06.77.2.14.46.31.73.49.44.29.7.78.7,1.3s-.26,1.01-.7,1.3c-5.25,3.47-9.62,8.24-12.62,13.79l-1.46,2.69,2.66,1.52c.59.33,1.18.65,1.78.95,4.25,2.1,9.12,3.4,14.09,3.76.96.07,1.93.1,2.89.1,2.42,0,4.83-.22,7.14-.65.1-.02.19-.03.29-.03.35,0,.69.12.97.34.35.28.57.7.59,1.15.29,6.32,2.12,12.52,5.29,17.92l.38.62c.25.4.5.8.77,1.2.4.59.82,1.17,1.25,1.74l1.47,1.93,2.23-.95c1.05-.44,2.09-.94,3.1-1.48,4.38-2.34,8.22-5.47,11.41-9.3.3-.36.74-.56,1.2-.56.04,0,.08,0,.12,0,.5.04.96.32,1.22.76,4.1,6.91,10.38,12.48,17.67,15.69,1.35.6,2.76,1.12,4.18,1.55l2.41.73,1.23-2.19c.36-.65.71-1.31,1.03-1.98,2.24-4.63,3.54-9.83,3.76-15.03.02-.45.23-.87.58-1.15.28-.22.62-.34.97-.34.07,0,.13,0,.2.01.04,0,.09.01.13.02.03,0,.07.01.1.02.39.11.78.2,1.18.29l.36.08c.33.07.62.13.91.19l.46.09c.28.05,1.16.19,1.3.22.83.12,1.69.22,2.51.28l.4.03c.29.02.59.04.9.05.16,0,.82.04.82.04.45.02.87.24,1.15.59,14.46,18.27,22.1,40.08,22.1,63.08,0,5.03-.38,10.09-1.13,15.04-.12.76-.77,1.33-1.54,1.33h-109.77Z"/>
              <path class="cls-7" d="M543.23,15.59s0,0,.01.01c.02.02.04.03.06.05.22.2.44.41.67.6.08.07.15.13.23.2.18.16.36.31.55.46.07.06.15.13.22.19.25.21.5.41.75.61.02.01.03.02.04.03.24.19.49.38.74.56.08.06.16.12.24.18.19.14.39.28.58.42.08.06.16.11.24.17.27.18.54.37.81.55-5.44,3.6-9.97,8.5-13.13,14.35l-2.19,4.03,3.98,2.27c.61.35,1.23.68,1.86.99,4.44,2.19,9.46,3.54,14.67,3.92,1,.07,2,.11,3,.11,2.52,0,5.01-.23,7.43-.68.3,6.52,2.21,13.04,5.5,18.64.13.21.26.43.39.64.26.42.53.84.81,1.26.42.62.85,1.23,1.3,1.82l2.2,2.9,3.35-1.42c1.1-.47,2.18-.98,3.23-1.55,4.54-2.43,8.58-5.72,11.87-9.67,4.26,7.16,10.74,12.95,18.38,16.32,1.41.62,2.87,1.16,4.36,1.62l3.61,1.09,1.84-3.29c.38-.68.73-1.36,1.07-2.06,2.36-4.88,3.69-10.23,3.92-15.65.01,0,.02,0,.03,0,.41.11.83.21,1.25.31.14.03.27.06.41.09.3.07.6.13.9.19.15.03.3.06.46.09.31.05.61.11.92.16.13.02.27.04.4.07.88.13,1.77.23,2.66.3.14.01.27.02.4.03.32.02.64.04.95.06.15,0,.31.02.46.02.12,0,.24.01.36.02,14.24,18,21.76,39.42,21.76,62.11,0,5.02-.38,9.97-1.11,14.8h-109.77c.32-3.09.48-6.26.48-9.42,0-18.9-5.67-37.07-16.4-52.56-4.74-6.85-10.39-13.03-16.79-18.37-.53-.45-1.09-.9-1.69-1.38-7.17-5.71-15.1-10.3-23.59-13.65-.56-.22-1.12-.44-1.68-.64.35-1.2.49-2.44.44-3.66,16.11-10.67,35.48-17.26,56.55-18.24M543.23,12.47s-.1,0-.14,0c-20.98.97-41.08,7.46-58.13,18.75-.91.6-1.44,1.64-1.39,2.73.04.9-.07,1.79-.32,2.66-.45,1.57.38,3.22,1.91,3.79.54.2,1.09.41,1.62.62,8.19,3.24,15.86,7.67,22.79,13.19.57.46,1.1.89,1.62,1.32,6.19,5.17,11.65,11.14,16.24,17.76,10.36,14.96,15.84,32.52,15.84,50.78,0,3.06-.15,6.12-.46,9.11-.09.88.2,1.75.79,2.41.59.65,1.43,1.03,2.31,1.03h109.77c1.54,0,2.85-1.13,3.08-2.65.76-5.03,1.15-10.16,1.15-15.27,0-23.35-7.76-45.5-22.43-64.05-.56-.71-1.4-1.14-2.3-1.18h-.1c-.1-.01-.2-.02-.3-.02-.12,0-.25-.01-.37-.02-.33-.02-.63-.03-.92-.05h-.11s-.22-.03-.22-.03c-.81-.06-1.62-.16-2.45-.28-.14-.03-.29-.05-.43-.07-.26-.04-.55-.09-.84-.14l-.09-.02c-.08-.02-.16-.03-.24-.05-.03,0-.05-.01-.08-.02-.28-.05-.55-.11-.82-.17-.15-.03-.25-.05-.36-.08-.02,0-.03,0-.05-.01-.37-.08-.74-.17-1.11-.27-.06-.02-.11-.03-.17-.04-.1-.02-.2-.04-.31-.05-.12-.01-.25-.02-.37-.02-.71,0-1.4.24-1.96.69-.7.56-1.12,1.4-1.15,2.29-.21,4.99-1.46,9.97-3.61,14.42-.32.65-.65,1.29-.99,1.9l-.61,1.1-1.21-.37c-1.37-.41-2.71-.91-4-1.48-7-3.08-13.02-8.43-16.96-15.06-.52-.87-1.42-1.43-2.43-1.51-.08,0-.16,0-.25,0-.92,0-1.8.41-2.39,1.12-3.06,3.67-6.74,6.67-10.94,8.92-.97.52-1.97,1-2.97,1.42l-1.13.48-.74-.97c-.42-.56-.83-1.12-1.2-1.67-.25-.38-.5-.77-.74-1.16l-.11-.18-.25-.42c-3.03-5.16-4.79-11.11-5.07-17.18-.04-.9-.47-1.74-1.18-2.3-.55-.44-1.24-.67-1.94-.67-.19,0-.38.02-.57.05-2.22.42-4.53.63-6.86.63-.92,0-1.86-.03-2.78-.1-4.77-.35-9.44-1.59-13.51-3.61-.58-.29-1.15-.59-1.7-.9l-1.34-.76.73-1.35c2.89-5.33,7.07-9.91,12.11-13.24.87-.58,1.4-1.56,1.4-2.6,0-1.05-.53-2.02-1.4-2.6-.24-.16-.48-.32-.71-.48-.07-.05-.14-.1-.21-.15l-.03-.02c-.19-.14-.39-.28-.58-.42-.06-.04-.1-.07-.13-.1,0,0-.05-.03-.05-.04-.23-.17-.45-.34-.67-.51-.01-.01-.03-.02-.04-.03-.02-.01-.03-.02-.05-.04-.21-.17-.42-.34-.63-.51-.02-.01-.03-.03-.05-.04-.04-.03-.08-.07-.12-.1-.02-.02-.05-.04-.07-.06-.16-.13-.31-.26-.47-.4-.02-.02-.04-.04-.07-.06-.04-.04-.09-.07-.13-.11-.02-.01-.03-.03-.05-.04-.19-.17-.38-.34-.57-.51-.02-.02-.04-.04-.06-.05-.58-.55-1.35-.86-2.15-.86h0Z"/>
            </g>
          </g>
        </g>
      </g>
      <text class="cls-9" transform="translate(44.51 456.12) scale(1.05 1)"><tspan x="0" y="0">P</tspan><tspan class="cls-10" x="106.16" y="0">R</tspan><tspan x="216.72" y="0">ODUCE</tspan><tspan x="112.07" y="146.48">HOUSE</tspan></text>
    </g>
  </g>
</svg>