<?xml version="1.0" encoding="UTF-8"?>
<svg id="Capa_2" data-name="Capa 2" xmlns="http://www.w3.org/2000/svg" viewBox="0 0 902.67 651.17">
  <defs>
    <style>
      .cls-1 {
        letter-spacing: -.02em;
      }

      .cls-2 {
        font-family: Cambria-Bold, Cambria;
        font-size: 172.97px;
        font-weight: 700;
      }

      .cls-2, .cls-3 {
        fill: #fff;
      }

      .cls-3 {
        stroke-width: 0px;
      }
    </style>
  </defs>
  <g id="Capa_1-2" data-name="Capa 1">
    <g>
      <text class="cls-2" transform="translate(44.51 453) scale(1.05 1)"><tspan x="0" y="0">P</tspan><tspan class="cls-1" x="106.16" y="0">R</tspan><tspan x="216.72" y="0">ODUCE</tspan><tspan x="112.07" y="146.48">HOUSE</tspan></text>
      <g>
        <g>
          <polygon class="cls-3" points="259.94 175.27 642.73 175.27 660.14 138.57 242.53 138.57 259.94 175.27"/>
          <polygon class="cls-3" points="303.94 268.01 598.73 268.01 616.14 231.32 286.53 231.32 303.94 268.01"/>
          <polygon class="cls-3" points="281.94 221.64 620.73 221.64 638.14 184.94 264.53 184.94 281.94 221.64"/>
        </g>
        <g>
          <path class="cls-3" d="M505.17,56.34c-6.34-5.07-13.45-9.22-21.13-12.25-.58-.23-1.16-.45-1.74-.67-1.77-.65-3.57-1.25-5.39-1.78-.03-.01-.07-.02-.1-.03-1.64-.48-3.3-.9-4.98-1.28-4.38-.98-5.58-6.69-1.94-9.32,1.34-.96,3.13-1.63,5.49-1.68-1.76-1.68-4.14-2.72-6.77-2.72-3.32,0-6.25,1.65-8.02,4.17.82-6.03,5.6-10.81,11.64-11.61-1.51-.58-3.16-.9-4.87-.9-7.32,0-13.29,5.8-13.57,13.05h-.02c0-.08,0-.17,0-.25,0-7.5-6.08-13.58-13.58-13.58-1.72,0-3.36.32-4.87.9,6.03.81,10.82,5.58,11.63,11.62-1.77-2.52-4.71-4.17-8.02-4.17-2.62,0-5.01,1.03-6.77,2.71,3.67.08,5.93,1.58,7.33,3.44,2.27,3.02.6,7.4-3.09,8.19-1.69.36-3.36.78-5.01,1.24-.1.03-.2.05-.3.08-1.73.49-3.44,1.04-5.12,1.65-.69.25-1.38.5-2.06.77-6.38,2.48-12.38,5.74-17.87,9.65-5.35,3.81-10.23,8.23-14.52,13.18-1.97,2.26-3.81,4.64-5.53,7.11-9.23,13.31-14.64,29.48-14.64,46.91,0,3.25.19,6.45.56,9.6h14.21c-.14-1.35-.26-2.72-.34-4.1,0-.16-.02-.32-.03-.47-.03-.44-.04-.88-.06-1.32,0-.2-.02-.4-.02-.6,0-.11,0-.22,0-.32,0-.21-.01-.43-.02-.64,0-.18,0-.36-.01-.54,0-.5-.01-.99-.01-1.49,0-1.1.02-2.2.06-3.29,0-.13,0-.26.02-.39,0-.12,0-.25.02-.37.01-.28.03-.56.04-.84,0-.17.02-.34.03-.5,0-.18.02-.35.03-.53,0-.14.02-.27.03-.41,0-.13.02-.26.03-.39.03-.44.07-.89.11-1.33.02-.22.04-.44.06-.66.04-.44.09-.88.14-1.32.02-.19.04-.39.07-.59.03-.24.06-.48.09-.72.05-.43.11-.85.17-1.28.06-.46.13-.91.2-1.37.03-.2.06-.4.1-.59.18-1.07.37-2.14.59-3.19.04-.21.09-.42.13-.63.04-.2.09-.41.13-.61.23-1.06.48-2.1.75-3.14.04-.16.08-.31.12-.47.44-1.67.92-3.31,1.46-4.93.05-.16.11-.33.16-.49.53-1.58,1.11-3.14,1.72-4.67.15-.37.3-.75.46-1.12.06-.15.13-.3.19-.46.09-.22.19-.44.28-.65.08-.19.16-.37.24-.55.08-.18.16-.37.25-.55.08-.18.17-.36.25-.55.08-.18.17-.36.25-.54.08-.18.17-.36.26-.54l.26-.54c.09-.18.18-.36.27-.54.38-.77.78-1.52,1.18-2.27.1-.19.2-.37.3-.56.1-.19.2-.37.31-.56.1-.19.21-.37.31-.55.21-.37.42-.73.64-1.1.11-.18.22-.36.33-.54.02-.04.05-.08.07-.12.19-.32.39-.64.59-.96.22-.36.45-.71.68-1.07,0,0,0-.01.01-.02.22-.34.44-.67.66-1.01,0,0,.01-.01.02-.02.11-.16.21-.32.32-.47.11-.17.22-.33.34-.49h0c.14-.21.28-.41.43-.61.16-.23.32-.45.48-.67.23-.31.46-.62.69-.93.37-.49.74-.98,1.12-1.46.19-.25.39-.5.59-.74.4-.49.8-.98,1.21-1.46.2-.24.41-.48.62-.72.21-.24.41-.47.62-.71.21-.23.42-.47.63-.7.42-.46.85-.92,1.29-1.37.22-.23.43-.45.65-.67.22-.22.44-.44.66-.66t0,0s0,0,0,0c.2-.2.4-.4.61-.59.2-.2.41-.39.62-.58.2-.19.4-.37.6-.56,0,0,.01-.01.02-.02.2-.19.41-.37.61-.56.01,0,.02-.02.03-.03.4-.36.8-.71,1.21-1.06.03-.03.07-.06.1-.08.41-.35.83-.69,1.25-1.03.21-.17.41-.33.62-.5.1-.08.19-.15.29-.23.22-.17.44-.35.67-.52.33-.25.67-.5,1-.75.15-.11.31-.23.47-.34.15-.11.31-.22.47-.33.26-.19.52-.37.79-.55.36-.25.73-.5,1.1-.74-.23.19-.46.38-.69.57-.21.18-.42.36-.63.54-.33.28-.65.57-.97.86-.14.13-.28.25-.42.38-.17.16-.35.32-.52.49-.09.08-.18.16-.26.25-.18.17-.36.35-.53.52-.19.19-.38.38-.57.57-.21.21-.42.43-.63.65-.07.08-.14.15-.22.23-.17.17-.33.35-.49.52,0,0,0,0,0,.01-.21.23-.42.46-.63.69-.18.2-.36.41-.54.61-.07.08-.14.17-.22.25-.15.17-.3.35-.45.53-.21.25-.41.49-.62.74-.19.24-.39.48-.58.72-.16.2-.31.39-.47.59-.08.1-.15.19-.23.29-.16.21-.32.42-.49.63-.27.36-.54.72-.8,1.09-.11.15-.21.29-.32.44-.11.15-.21.3-.31.44-.31.44-.62.9-.93,1.35-.1.15-.2.3-.3.46-.2.31-.4.62-.6.93-.09.14-.18.28-.27.42-.11.17-.22.35-.32.52-.09.15-.19.3-.28.46,0,0-.01.02-.02.03-.19.31-.38.63-.57.95-.05.08-.1.17-.15.25-.28.48-.56.97-.84,1.47-.14.26-.29.52-.43.79-.26.48-.52.97-.77,1.46-.03.07-.07.13-.1.2-.13.25-.26.5-.38.76-.14.29-.28.57-.42.86-.12.25-.25.51-.37.77-.05.11-.1.22-.16.33-.11.24-.22.48-.33.72-.28.62-.56,1.24-.83,1.87-.12.27-.23.55-.35.82-.1.25-.2.49-.3.74-.05.12-.1.24-.14.36-.02.06-.04.11-.07.17-.09.23-.18.45-.27.68-.11.27-.21.54-.31.81-.1.25-.19.51-.29.76-.04.12-.09.24-.13.36-.12.31-.23.63-.34.95-.09.25-.18.5-.26.76-.03.1-.07.2-.1.3-.1.28-.19.57-.29.85-.13.39-.25.77-.37,1.16-.08.26-.16.53-.25.8-.04.12-.08.25-.11.37-.07.24-.14.47-.21.71-.1.34-.19.67-.29,1.01-.08.29-.16.58-.24.87-.03.13-.07.25-.1.37-.07.25-.13.51-.2.76-.06.22-.11.44-.17.67-.08.3-.15.59-.22.89-.06.23-.11.47-.17.7-.06.28-.13.55-.19.83,0,.04-.02.09-.03.13-.07.33-.14.65-.21.98-.06.26-.11.53-.17.8-.04.2-.08.39-.12.59-.05.24-.1.49-.14.73-.06.29-.11.58-.16.88-.02.11-.04.22-.06.34-.06.31-.11.62-.16.93h0c-.06.32-.11.64-.16.97-.07.45-.14.91-.21,1.36-.04.28-.08.57-.12.85,0,.04-.01.07-.02.11-.05.36-.1.72-.14,1.07-.05.37-.09.74-.14,1.1-.03.26-.06.53-.09.8-.03.26-.06.52-.08.79,0,0,0,0,0,.01-.03.26-.05.52-.08.78-.02.18-.03.35-.05.53-.02.16-.03.33-.04.49,0,.06-.01.11-.02.17-.06.66-.11,1.32-.15,1.98,0,.01,0,.03,0,.04-.02.27-.03.54-.05.81-.02.27-.03.54-.04.81-.01.27-.03.54-.04.81-.01.26-.02.52-.03.78,0,.03,0,.06,0,.09,0,.25-.02.51-.03.76,0,.3-.02.6-.02.9,0,.22,0,.44-.01.67,0,.04,0,.09,0,.13,0,.25,0,.51,0,.76,0,.27,0,.55,0,.82,0,.35,0,.69,0,1.03,0,.11,0,.21,0,.32,0,.31,0,.63.02.94,0,.14,0,.28,0,.41,0,.3.02.59.03.89.03.79.06,1.58.1,2.37.02.39.04.77.07,1.15,0,.02,0,.04,0,.05.03.38.05.76.08,1.15.03.39.06.78.09,1.17h35.43c-.03-.39-.05-.78-.07-1.17-.02-.35-.04-.69-.06-1.04,0-.15-.02-.3-.02-.46-.02-.28-.03-.57-.04-.85-.01-.33-.03-.65-.04-.98-.01-.34-.02-.68-.03-1.03-.04-1.31-.05-2.63-.05-3.95,0-26.79,7.29-50.43,18.38-64.44-8.03,14.02-13.31,37.65-13.31,64.44,0,.84,0,1.67.02,2.5,0,.41.01.83.02,1.24,0,.41.02.83.03,1.24.03,1.12.06,2.23.11,3.33.02.39.03.77.05,1.16,0,0,0,0,0,0h41.98s0,0,0,0c.03-.51.05-1.03.07-1.54,0-.02,0-.05,0-.07.04-.95.07-1.91.09-2.87,0-.04,0-.08,0-.12,0-.19,0-.38.01-.58,0-.32.01-.64.02-.96,0-.08,0-.17,0-.26h0c0-.08,0-.16,0-.24,0-.33,0-.66.01-.98,0-.62,0-1.23,0-1.85,0-.46,0-.92,0-1.38,0-.19,0-.38,0-.57,0-.35,0-.7-.01-1.05,0-.11,0-.22,0-.33,0-.26,0-.52-.01-.78,0-.29-.01-.58-.02-.87,0-.43-.02-.87-.03-1.3,0,0,0,0,0,0-.01-.39-.03-.77-.04-1.16-.02-.41-.03-.82-.05-1.22-.02-.41-.04-.81-.06-1.22-.04-.78-.08-1.56-.13-2.33,0-.08,0-.15-.02-.23-.02-.36-.04-.71-.07-1.06-.03-.4-.06-.8-.08-1.19-.03-.4-.06-.79-.09-1.19-.03-.37-.06-.74-.09-1.1,0-.04,0-.07,0-.11-.03-.38-.07-.76-.1-1.14-.03-.31-.06-.61-.09-.92-.05-.48-.1-.97-.15-1.45-.08-.71-.16-1.41-.24-2.12-.13-1.1-.27-2.18-.42-3.25-.03-.24-.07-.47-.1-.71-.03-.24-.07-.47-.1-.71-.05-.36-.1-.71-.16-1.07-.17-1.11-.35-2.21-.54-3.29-.06-.36-.13-.72-.19-1.07-.02-.12-.04-.24-.07-.36-.07-.36-.13-.71-.2-1.06-.1-.53-.2-1.06-.31-1.58-.16-.81-.33-1.61-.51-2.41-.06-.28-.12-.56-.19-.84-.07-.29-.13-.58-.2-.87-.02-.08-.04-.16-.06-.24-.07-.3-.14-.6-.22-.9-.08-.33-.16-.66-.24-.99-.07-.26-.13-.52-.2-.77-.34-1.34-.7-2.64-1.08-3.92-.04-.15-.09-.3-.13-.45-.06-.19-.11-.38-.17-.57-.09-.31-.19-.61-.28-.91-.08-.27-.17-.54-.26-.81-.11-.33-.21-.66-.32-.98-.1-.3-.2-.59-.3-.88-.1-.29-.2-.58-.3-.87-.08-.22-.16-.44-.24-.66-.13-.35-.25-.7-.38-1.04-.08-.2-.15-.4-.23-.6-.13-.36-.27-.71-.41-1.05-.1-.26-.2-.51-.31-.77-.14-.35-.29-.69-.43-1.04-.08-.2-.17-.39-.25-.58-.11-.26-.23-.52-.34-.77-.1-.24-.21-.47-.32-.7-.03-.06-.05-.11-.08-.17-.1-.21-.2-.42-.3-.63-.11-.23-.22-.45-.33-.68-.02-.04-.04-.08-.06-.12-.11-.22-.22-.44-.33-.65-.08-.17-.17-.33-.25-.5-.4-.77-.8-1.52-1.22-2.24.19.25.39.49.58.74.15.2.3.4.45.6,0,.01.02.02.02.03.16.22.32.43.48.65,0,0,.01.02.02.02.14.2.29.4.43.61.03.05.07.1.1.14.15.21.29.42.44.64.01.02.03.03.04.05.13.19.25.37.38.57.16.24.32.49.48.74.08.13.17.26.25.39.04.07.09.14.13.21.09.14.18.29.27.44.16.26.32.52.47.78.1.16.19.33.29.49.34.58.67,1.17,1,1.77.14.25.28.51.41.76.16.3.32.61.48.92.14.26.27.53.4.79.49.97.96,1.96,1.42,2.97.09.2.18.41.27.61.14.32.28.64.42.96.11.26.22.51.33.77.14.34.28.69.42,1.03.09.21.17.43.26.65.15.38.3.77.45,1.15.12.31.24.63.35.94.11.29.21.58.32.87.1.27.19.55.29.82.06.16.11.31.16.47.16.47.32.93.47,1.41.07.21.14.42.2.63.37,1.15.73,2.33,1.06,3.52.07.24.13.47.2.71.13.48.26.95.39,1.43.05.17.09.35.14.52.14.55.28,1.1.41,1.66.06.25.12.49.18.74.06.25.11.49.17.74.13.55.25,1.11.37,1.67.04.19.08.38.12.57.05.25.11.5.16.75.05.25.1.51.15.76.05.25.1.51.15.76.05.25.1.51.14.77.05.25.09.51.14.77.08.48.17.96.25,1.45.03.17.06.34.08.51.03.15.05.3.07.45.03.17.05.33.08.5.04.24.08.49.11.73.03.18.05.36.08.54.08.57.16,1.13.24,1.7.03.2.05.41.08.61.08.59.15,1.18.21,1.77.02.2.04.39.07.59.03.25.06.5.08.76.02.2.04.41.06.61,0,.08.02.16.02.24.04.36.07.73.1,1.09.08.88.15,1.76.21,2.64.02.26.04.52.05.77.03.52.07,1.03.09,1.55.02.26.03.52.04.78.02.37.04.74.05,1.12.02.34.03.68.04,1.02.01.34.02.67.03,1.01,0,.1,0,.2,0,.31,0,.35.02.7.02,1.05,0,.08,0,.15,0,.22,0,.38.01.76.01,1.14,0,.42,0,.84,0,1.25,0,1.33-.02,2.65-.05,3.95,0,.34-.02.69-.03,1.03,0,.33-.02.65-.04.98-.01.29-.02.57-.04.85,0,.15-.01.31-.02.46-.02.35-.03.69-.06,1.04-.02.39-.05.78-.07,1.17h35.43s0-.08,0-.12c.03-.35.06-.7.08-1.05.03-.38.06-.76.08-1.15,0-.02,0-.03,0-.05.03-.38.05-.77.07-1.15.04-.79.08-1.58.1-2.37,0-.3.02-.59.03-.89,0-.14,0-.27,0-.41,0-.31.01-.62.02-.94,0-.11,0-.21,0-.32,0-.34,0-.69,0-1.03s0-.72,0-1.07c0-.71-.02-1.43-.04-2.14,0-.28-.02-.56-.03-.84,0-.13,0-.25-.01-.37,0-.2-.02-.41-.03-.61,0-.12-.01-.24-.02-.36,0-.08,0-.15-.01-.23-.01-.25-.03-.51-.04-.77-.02-.33-.04-.66-.06-1,0-.02,0-.04,0-.06-.02-.31-.04-.63-.07-.94-.03-.42-.07-.84-.1-1.25-.03-.31-.05-.63-.08-.94-.03-.35-.07-.69-.1-1.03-.03-.34-.07-.69-.11-1.03-.04-.34-.08-.69-.12-1.03-.04-.34-.08-.68-.13-1.02-.04-.32-.09-.65-.14-.97-.05-.37-.11-.75-.17-1.12-.05-.31-.1-.63-.15-.94,0-.02,0-.03,0-.05-.05-.32-.11-.63-.16-.95-.12-.67-.24-1.33-.36-1.99-.06-.33-.13-.66-.19-.99-.07-.33-.14-.65-.2-.98,0-.03-.01-.07-.02-.1-.06-.29-.13-.58-.19-.87-.07-.32-.15-.65-.22-.97-.06-.24-.11-.48-.17-.72-.12-.48-.24-.96-.36-1.44-.06-.24-.12-.48-.19-.71-.01-.05-.03-.1-.04-.15-.07-.26-.14-.53-.21-.79-.1-.38-.21-.76-.32-1.13-.07-.25-.14-.5-.22-.75-.09-.31-.19-.62-.28-.93-.09-.31-.19-.62-.29-.92-.1-.31-.2-.61-.3-.92-.1-.3-.2-.6-.3-.9-.01-.03-.02-.07-.03-.1-.2-.57-.4-1.14-.6-1.7,0,0,0,0,0,0-.11-.3-.22-.59-.33-.89-.11-.3-.22-.59-.34-.88-.11-.29-.23-.58-.35-.88-.23-.58-.47-1.16-.71-1.73-.24-.57-.49-1.14-.74-1.7-.13-.28-.25-.56-.38-.84-.11-.23-.21-.47-.32-.69-.02-.05-.04-.09-.07-.14-.13-.28-.26-.55-.4-.82-.13-.27-.27-.55-.41-.82-.13-.27-.27-.54-.41-.8,0,0,0,0,0,0-.26-.51-.53-1.01-.8-1.51-.02-.03-.04-.07-.06-.11-.14-.25-.27-.5-.41-.75-.02-.04-.05-.09-.08-.14-.12-.22-.25-.44-.37-.66-.15-.26-.3-.51-.45-.77,0-.01-.01-.02-.02-.03-.14-.24-.29-.49-.43-.73-.15-.25-.3-.5-.46-.75-.15-.25-.31-.5-.47-.74-.52-.83-1.06-1.64-1.61-2.44-.27-.39-.54-.77-.81-1.15-.5-.69-1.01-1.38-1.53-2.05-.18-.23-.36-.46-.54-.69,0,0,0,0,0,0-.18-.23-.37-.46-.56-.69-.15-.18-.3-.36-.45-.54-.06-.07-.12-.14-.18-.21-.13-.16-.27-.31-.4-.47-.08-.09-.15-.18-.23-.27-.13-.15-.26-.3-.39-.44-.06-.06-.11-.13-.17-.19-.16-.17-.31-.35-.47-.52-.19-.21-.39-.42-.58-.63-.24-.25-.47-.5-.72-.75-.16-.16-.32-.33-.48-.49-.4-.4-.8-.8-1.21-1.18,0,0,0,0,0,0-.2-.19-.41-.38-.62-.58-.46-.42-.91-.83-1.38-1.23-.17-.14-.34-.29-.51-.43-.21-.18-.43-.36-.64-.53.26.17.52.34.77.51.22.15.43.3.65.45.94.66,1.87,1.34,2.78,2.05.22.17.44.34.65.51,0,0,.01,0,.02.02.22.18.44.35.66.53,0,0,.02.01.02.02.19.16.38.31.57.47.25.2.49.41.73.62.44.37.87.76,1.3,1.14.01,0,.02.02.03.03.19.17.38.34.56.52.23.21.46.42.68.63.15.14.31.29.46.44.07.06.13.12.19.19.19.18.37.36.56.54.02.01.03.03.04.04.02.01.03.03.04.04.21.21.42.42.63.63.2.2.4.41.6.62.02.02.04.04.06.06.88.92,1.73,1.86,2.57,2.84.21.24.41.48.61.72l.03.04c.2.24.39.47.59.71.19.24.38.47.57.71.02.03.04.05.06.08.17.21.34.43.51.65.03.04.07.09.1.14.18.24.36.47.54.71.14.19.29.38.43.58.08.1.15.2.23.31.16.23.33.45.49.68.19.26.38.53.56.8.15.22.3.44.45.66.06.08.12.17.17.26.16.23.31.47.47.7.18.27.36.55.53.82.16.24.31.49.47.74.02.03.04.06.06.09.17.28.35.56.52.84.13.21.25.41.37.62.07.11.13.22.2.33.14.24.28.47.42.71,0,0,.01.02.02.03.16.29.33.57.49.86.16.29.32.58.48.87.16.29.31.58.47.88,0,.01.01.02.02.03.14.27.29.55.43.83.18.34.35.69.52,1.04.1.21.2.42.3.63.18.38.36.76.54,1.14.12.26.24.53.36.79,0,.01.01.03.02.04.11.25.23.51.34.76.05.11.09.21.14.32,0,0,0,0,0,.01.11.25.22.5.32.76.13.29.25.59.37.89.01.03.02.05.03.08.12.29.23.58.35.87.11.29.23.58.34.88.08.19.15.39.22.59.07.19.15.39.22.59.07.2.14.39.21.59.07.19.14.38.2.57.09.26.18.52.27.78.09.26.18.52.26.79.3.93.59,1.87.86,2.81.04.16.09.32.13.47.13.45.25.9.37,1.36.09.36.19.72.28,1.09,0,.01,0,.03,0,.04.05.2.1.4.15.6.05.21.1.43.15.64.04.16.07.32.11.48.02.09.04.18.06.26.04.17.08.34.11.52.07.3.13.61.19.91.07.32.13.65.2.97,0,0,0,0,0,.02.06.3.12.61.17.91.01.06.02.13.03.19.05.27.1.55.14.82.02.08.03.17.04.25.05.31.11.63.15.94,0,.03,0,.06.02.09.04.28.09.56.13.85.01.07.02.14.03.21.04.3.08.59.12.89,0,.07.02.14.03.2.04.27.07.54.1.82,0,.05.01.1.02.15.03.26.06.52.09.79.02.14.03.29.05.43.02.21.05.43.07.64.02.14.03.29.04.43.03.27.05.55.07.83,0,.04,0,.08,0,.11.03.29.05.58.07.87,0,.05,0,.11.01.16.02.29.04.58.06.87,0,.1.01.2.02.3,0,.06,0,.12,0,.18.02.26.03.53.04.79,0,.03,0,.06,0,.09.02.34.03.69.04,1.03.01.32.02.65.03.97,0,.1,0,.2,0,.3,0,.27.01.54.02.8,0,.09,0,.19,0,.28,0,.31,0,.63,0,.94,0,.5,0,1-.01,1.49,0,.18,0,.36-.01.54,0,.21,0,.43-.02.64,0,.11,0,.22,0,.32,0,.2-.01.4-.02.6-.02.44-.04.88-.06,1.32,0,.16-.02.32-.03.47-.08,1.37-.19,2.74-.34,4.1h13.8c.37-3.15.56-6.36.56-9.6,0-26.09-12.12-49.35-31.03-64.45Z"/>
          <g>
            <path class="cls-3" d="M351.62,130.39h-105.74c0-.07,0-.15,0-.23,0-7.58,3.12-14.44,8.15-19.35.88-.86,1.82-1.66,2.8-2.39-1.23-2.43-1.91-5.18-1.91-8.09,0-1.02.08-2.01.25-2.98.26-1.58.73-3.1,1.38-4.51,1.4-3.07,3.64-5.68,6.43-7.53,1.27-.85,2.66-1.54,4.14-2.04,1.36-.47,2.8-.77,4.29-.9.51-.05,1.03-.07,1.55-.07,9.96,0,18.03,8.07,18.03,18.03,0,.91-.07,1.8-.2,2.67,1.27-.31,2.55-.57,3.85-.78,1.46-.24,2.94-.43,4.45-.55,1.37-.11,2.75-.17,4.15-.18.12,0,.24,0,.35,0h.17c1.3,0,2.59.05,3.87.15,1.51.11,3.01.28,4.49.52,17.17,2.71,31.66,13.45,39.5,28.26Z"/>
            <path class="cls-3" d="M363.1,100.61c2.32-10.34,6.38-20.13,12.13-29.15.69-1.09,1.42-2.18,2.16-3.24,1-1.44,2.04-2.84,3.09-4.17.12-.16.24-.31.34-.44,1.76-2.22,3.65-4.4,5.63-6.47.16-.17.32-.34.49-.5,0,0,0,0,0,0,.11-.12.23-.23.35-.35-3.51-3.47-8.34-5.61-13.66-5.61-3.49,0-6.77.92-9.6,2.54-3.76,2.14-6.73,5.49-8.38,9.52-1.51,1.62-5.97,1.77-7.51,1.77-5.09,0-9.64-2.26-12.73-5.82-.81-.93-1.95-1.44-3.11-1.44-.62,0-1.24.14-1.82.44-5.41,2.8-9.11,8.44-9.11,14.96,0,1.62.23,3.18.65,4.65-1.02-.2-2.07-.31-3.14-.32h-.14c-2.25,0-4.41.45-6.39,1.27-1.79.74-3.42,1.78-4.84,3.05-2.29,2.05-4.02,4.73-4.91,7.75-.36,1.2-.58,2.46-.65,3.76.22,0,.43-.01.65-.01.34,0,.67,0,1.01,0,1.12,0,2.23.03,3.34.09,1.46.08,2.92.2,4.37.38,5.79.7,11.42,2.21,16.83,4.49,7.5,3.18,14.24,7.72,20.03,13.51,5.56,5.56,9.98,12,13.13,19.16h.05c-.32-3.1-.48-6.26-.48-9.42,0-1.26.03-2.55.08-3.83,0-.01,0-.02,0-.03.14-3.32.45-6.65.94-9.93h0s1.23-6.57,1.23-6.57Z"/>
            <path class="cls-3" d="M400.74,44.94c-.57.39-1.15.8-1.73,1.22-.03.02-.05.04-.08.06-.99.72-1.97,1.46-2.92,2.21-.79.63-1.58,1.27-2.34,1.92h0c-.92-.94-1.91-1.81-2.95-2.61-3.31-2.53-7.05-4.26-11.03-5.13-1.97-.43-3.99-.65-6.05-.65-.72,0-1.44.03-2.16.08-4.13.32-8.16,1.55-11.75,3.59-4.24,2.41-7.8,5.92-10.29,10.1-.39.03-.83.05-1.3.05-2.36,0-4.6-1.03-6.15-2.82-2.44-2.82-5.98-4.44-9.69-4.44-2.01,0-4.02.49-5.81,1.41-2.12,1.09-4.06,2.47-5.78,4.1-1.61,1.51-3.02,3.23-4.19,5.12-1.86,2.98-3.07,6.31-3.57,9.76-1.1.26-2.18.58-3.23.98-1.79.68-3.51,1.57-5.12,2.65-1.23.82-2.4,1.76-3.49,2.8-2.84,2.71-4.97,5.97-6.3,9.55-.87-1.23-1.85-2.4-2.94-3.48-5.05-5.05-11.76-7.83-18.9-7.83-.1,0-.19,0-.29,0,2.98-8.02,10.7-13.73,19.76-13.73.33,0,.65,0,.98.02-.64-2.14-.98-4.4-.98-6.74,0-13.03,10.57-23.6,23.6-23.6,3.51,0,6.84.77,9.84,2.14,1.54.71,3,1.58,4.35,2.6.03.02.05.04.08.06,1.34-1.09,2.81-2.03,4.38-2.81,1.12-.55,2.28-1.02,3.49-1.39,2.2-.68,4.54-1.05,6.96-1.05,2.94,0,5.75.54,8.34,1.52.39-.48.81-.94,1.25-1.38,1.25-1.24,2.68-2.3,4.25-3.13,2.52-1.34,5.4-2.1,8.45-2.1,9.45,0,17.21,7.28,17.97,16.54,1.05-.19,2.13-.29,3.22-.29,4.67,0,8.93,1.78,12.13,4.7Z"/>
            <path class="cls-3" d="M421.22,34.28c-.49.18-.98.36-1.46.55-3.7,1.44-7.34,3.14-10.83,5.05-.2.11-.4.22-.6.33-.27-.29-.54-.57-.82-.85-4.21-4.21-9.58-6.84-15.39-7.6-1.46-3.52-3.68-6.71-6.54-9.36-4.96-4.59-11.4-7.11-18.16-7.11-6.03,0-11.77,2.01-16.42,5.63-1.93-.35-3.89-.53-5.88-.53-2.33,0-4.64.25-6.9.74-.65-1.43-1.42-2.8-2.28-4.11,3.82-9.95,13.46-17.02,24.76-17.02,7.23,0,13.78,2.89,18.56,7.58,2.51-.79,5.18-1.21,7.95-1.21,13.07,0,23.93,9.46,26.11,21.9,2.53.27,4.96.9,7.23,1.83-.03,1.18.12,2.39.46,3.57.06.21.13.42.2.62Z"/>
            <path class="cls-3" d="M329.94,23.97h0c-1.36-.65-2.77-1.21-4.2-1.66-3.1-.98-6.37-1.48-9.71-1.48-4.36,0-8.59.86-12.58,2.54-3.85,1.63-7.3,3.96-10.27,6.92-2.96,2.96-5.29,6.42-6.92,10.27-1.59,3.77-2.45,7.77-2.53,11.88-4.62,1.4-8.85,3.93-12.36,7.44-4.3,4.3-7.13,9.7-8.22,15.56-3.37,1.32-6.47,3.35-9.11,5.98-1.1,1.1-2.09,2.28-2.97,3.52-.95-2.39-1.47-5-1.47-7.74,0-11.64,9.43-21.07,21.07-21.07.74,0,1.47.04,2.19.11-1.4-2.82-2.19-6-2.19-9.36,0-11.56,9.3-20.94,20.83-21.07,3.06-7.85,10.7-13.4,19.63-13.4,5.96,0,11.35,2.48,15.18,6.46,1.45,1.5,2.67,3.22,3.62,5.1Z"/>
          </g>
          <g>
            <path class="cls-3" d="M551.69,7.36c-.18-.14-.36-.28-.53-.42l-.11-.08s-.03-.03-.04-.04c2.83-.11,5.7-.51,8.51-1.19,8.96-1.42,18.82,1.79,25.17,8.21.99,1.01,2.39,1.51,3.79,1.37,1.41-.14,2.68-.91,3.45-2.09,5.83-8.86,16.58-13.96,27.1-12.99,3.03,2.9,5.39,6.39,6.94,10.22-8.57-1.25-17.75.34-25.06,4.6-1.84,1.08-2.73,3.26-2.15,5.32.58,2.06,2.47,3.45,4.61,3.42,16.07-.33,24.33,10.81,26.48,14.23l.04.07c.94,1.49,2.08,2.89,3.38,4.16.7.69,1.43,1.34,2.18,1.97-.03,0-.06,0-.09,0-.12,0-.24,0-.36-.01-.18,0-.36-.02-.53-.03-.12,0-.25-.02-.38-.03-.17-.01-.34-.03-.51-.04l-.38-.04c-.17-.02-.34-.04-.51-.06-.12-.01-.25-.03-.37-.04-.18-.02-.35-.05-.53-.07-.12-.02-.23-.03-.35-.05-.19-.03-.38-.06-.57-.09-.1-.02-.2-.04-.3-.05-.26-.05-.51-.1-.76-.15-.03,0-.07-.01-.1-.02-.29-.06-.57-.13-.86-.2-.08-.02-.16-.04-.24-.06-.2-.05-.4-.1-.6-.16-.1-.03-.2-.06-.31-.09-.18-.05-.35-.1-.53-.15-.11-.03-.22-.07-.33-.1-.17-.05-.33-.11-.5-.16-.11-.04-.22-.08-.33-.11-.16-.06-.33-.12-.49-.18-.11-.04-.21-.08-.32-.12-.16-.06-.33-.13-.49-.2-.1-.04-.2-.08-.3-.12-.18-.08-.35-.15-.53-.23-.08-.04-.16-.07-.25-.11-.26-.12-.51-.24-.75-.36l-8.06-4.02,1.33,8.91c.1.65.17,1.31.23,1.97.05.66.08,1.33.09,1.99.06,3.99-.67,8.03-2.12,11.73-6.3-2.89-11.54-7.95-14.65-14.14-.72-1.43-1.32-2.92-1.8-4.45l-3.44-11.01-5.22,10.28c-2.35,4.63-5.83,8.57-10.06,11.46-.6.41-1.22.8-1.86,1.17-1.22-2.14-2.17-4.45-2.84-6.84-.79-2.79-1.18-5.69-1.16-8.58,0-1.24.1-2.47.26-3.69l1.07-7.9-7.42,2.9c-.41.16-.82.31-1.23.45-2.91.98-6.04,1.46-9.19,1.49-3.6.03-7.22-.55-10.57-1.72.45-.58.93-1.15,1.42-1.69,3.44-3.82,7.8-6.74,12.74-8.45l12.79-4.43-12.79-4.43s0,0-.01,0c-.25-.09-.5-.18-.75-.27-.08-.03-.15-.06-.23-.09-.18-.07-.36-.14-.54-.22-.08-.03-.15-.06-.23-.09-.23-.1-.45-.19-.68-.29-.02,0-.04-.02-.07-.03-.24-.11-.49-.22-.73-.34-.07-.03-.14-.07-.21-.1-.18-.09-.35-.18-.53-.27-.08-.04-.15-.08-.23-.11-.21-.11-.41-.22-.61-.33-.03-.02-.06-.04-.1-.05-.23-.13-.47-.27-.7-.4-.06-.04-.13-.08-.19-.12-.17-.1-.34-.21-.51-.32-.07-.04-.14-.09-.21-.13-.19-.12-.38-.25-.57-.38-.04-.03-.07-.05-.11-.07-.22-.15-.45-.31-.67-.47-.05-.04-.11-.08-.16-.12-.17-.12-.34-.25-.5-.38-.06-.05-.13-.1-.19-.15Z"/>
            <path class="cls-3" d="M656.79,115.59c0,5.02-.38,9.97-1.11,14.8h-109.77c.32-3.09.48-6.26.48-9.42,0-18.9-5.67-37.07-16.4-52.56-4.74-6.85-10.39-13.03-16.79-18.37-.53-.45-1.09-.9-1.68-1.38-7.17-5.71-15.11-10.3-23.59-13.65-.56-.22-1.12-.44-1.68-.64.35-1.2.49-2.44.44-3.66,16.11-10.67,35.48-17.26,56.55-18.24,0,0,0,0,.01.01.02.02.04.03.05.05.22.2.44.41.67.6.08.07.15.13.23.2.18.16.36.31.55.46.07.06.15.13.22.19.25.21.5.41.75.61.02.01.03.02.04.03.24.19.49.38.74.56.08.06.16.12.24.18.19.14.39.28.58.42.08.06.16.11.24.17.27.18.54.37.81.55-5.44,3.6-9.97,8.5-13.13,14.35l-2.19,4.03,3.98,2.27c.61.35,1.23.68,1.86.99,4.44,2.19,9.47,3.54,14.67,3.92,3.54.25,7.06.06,10.43-.57.3,6.52,2.21,13.04,5.5,18.64.13.21.26.43.39.64.26.42.53.84.81,1.26.42.62.85,1.23,1.3,1.82l2.2,2.9,3.35-1.42c1.1-.47,2.18-.98,3.23-1.55,4.54-2.43,8.58-5.72,11.87-9.67,4.26,7.16,10.74,12.95,18.38,16.32,1.41.62,2.87,1.16,4.36,1.62l3.61,1.09,1.84-3.29c.38-.68.73-1.36,1.07-2.06,2.36-4.88,3.69-10.23,3.92-15.65.01,0,.02,0,.03,0,.41.11.83.21,1.25.31.14.03.27.06.41.09.3.07.6.13.9.19.15.03.3.06.46.09.31.05.61.11.92.16.13.02.27.04.4.07.88.13,1.77.23,2.66.3.14.01.27.02.4.03.32.02.64.04.95.06.15,0,.31.02.46.02.12,0,.24.01.36.02,14.24,18,21.76,39.42,21.76,62.11Z"/>
          </g>
        </g>
      </g>
    </g>
  </g>
</svg>