<?xml version="1.0" encoding="UTF-8"?>
<svg id="Capa_2" data-name="Capa 2" xmlns="http://www.w3.org/2000/svg" viewBox="0 0 919.72 219.66">
  <defs>
    <style>
      .cls-1 {
        font-family: Cambria-Bold, Cambria;
        font-size: 111px;
        font-weight: 700;
      }

      .cls-1, .cls-2 {
        fill: #fff;
      }

      .cls-2 {
        stroke-width: 0px;
      }

      .cls-3 {
        letter-spacing: -.02em;
      }
    </style>
  </defs>
  <g id="Capa_1-2" data-name="Capa 1">
    <g>
      <g>
        <g>
          <polygon class="cls-2" points="11.17 130.29 256.83 130.29 268 106.74 0 106.74 11.17 130.29"/>
          <polygon class="cls-2" points="39.41 189.8 228.59 189.8 239.76 166.26 28.24 166.26 39.41 189.8"/>
          <polygon class="cls-2" points="25.29 160.04 242.71 160.04 253.88 136.5 14.12 136.5 25.29 160.04"/>
        </g>
        <g>
          <path class="cls-2" d="M168.55,53.96c-4.07-3.25-8.63-5.91-13.56-7.86-.37-.15-.74-.29-1.12-.43-1.14-.42-2.29-.8-3.46-1.14-.02,0-.04-.01-.07-.02-1.05-.31-2.12-.58-3.2-.82-2.81-.63-3.58-4.3-1.24-5.98.86-.62,2.01-1.05,3.53-1.08-1.13-1.08-2.66-1.74-4.34-1.74-2.13,0-4.01,1.06-5.15,2.68.52-3.87,3.59-6.94,7.47-7.45-.97-.37-2.02-.58-3.13-.58-4.7,0-8.53,3.72-8.71,8.37h-.01c0-.05,0-.11,0-.16,0-4.81-3.9-8.72-8.72-8.72-1.1,0-2.15.2-3.12.58,3.87.52,6.94,3.58,7.46,7.45-1.14-1.62-3.02-2.68-5.15-2.68-1.68,0-3.22.66-4.34,1.74,2.35.05,3.81,1.02,4.7,2.21,1.45,1.94.39,4.75-1.98,5.25-1.08.23-2.16.5-3.22.8-.07.02-.13.03-.2.05-1.11.32-2.21.67-3.29,1.06-.44.16-.89.32-1.33.49-4.09,1.59-7.94,3.68-11.47,6.19-3.43,2.44-6.56,5.28-9.32,8.46-1.26,1.45-2.45,2.97-3.55,4.56-5.93,8.54-9.4,18.92-9.4,30.1,0,2.08.12,4.14.36,6.16h9.12c-.09-.87-.16-1.75-.22-2.63,0-.1-.01-.2-.02-.3-.02-.28-.03-.56-.04-.85,0-.13,0-.26-.01-.38,0-.07,0-.14,0-.21,0-.14,0-.27-.01-.41,0-.12,0-.23,0-.35,0-.32,0-.64,0-.96,0-.71.01-1.41.04-2.11,0-.08,0-.17,0-.25,0-.08,0-.16,0-.24,0-.18.02-.36.03-.54,0-.11.01-.22.02-.32,0-.11.01-.23.02-.34,0-.09.01-.17.02-.26,0-.08.01-.17.02-.25.02-.28.04-.57.07-.85.01-.14.03-.28.04-.42.03-.28.06-.56.09-.84.01-.13.03-.25.04-.38.02-.15.04-.31.06-.46.03-.27.07-.55.11-.82.04-.29.08-.59.13-.88.02-.13.04-.25.06-.38.11-.69.24-1.37.38-2.05.03-.13.06-.27.08-.41.03-.13.06-.26.08-.39.15-.68.31-1.35.48-2.02.02-.1.05-.2.08-.3.28-1.07.59-2.12.94-3.16.03-.1.07-.21.1-.31.34-1.02.71-2.01,1.11-3,.1-.24.2-.48.3-.72.04-.1.08-.2.12-.29.06-.14.12-.28.18-.42.05-.12.1-.24.16-.35.05-.12.11-.24.16-.35.05-.12.11-.23.16-.35.05-.12.11-.23.16-.35.05-.12.11-.23.17-.35l.17-.35c.06-.12.11-.23.17-.34.25-.49.5-.98.76-1.46.06-.12.13-.24.2-.36.07-.12.13-.24.2-.36.07-.12.13-.24.2-.36.13-.24.27-.47.41-.7.07-.12.14-.23.21-.35.01-.02.03-.05.04-.07.13-.21.25-.41.38-.62.14-.23.29-.46.43-.68,0,0,0,0,0-.01.14-.22.28-.43.42-.65,0,0,0,0,0-.01.07-.1.14-.2.21-.3.07-.11.14-.21.22-.32h0c.09-.13.18-.26.27-.39.1-.14.21-.29.31-.43.15-.2.29-.4.44-.6.24-.32.47-.63.72-.94.13-.16.25-.32.38-.48.26-.32.51-.63.78-.94.13-.15.26-.31.4-.46.13-.15.27-.3.4-.45.13-.15.27-.3.41-.45.27-.3.55-.59.83-.88.14-.14.28-.29.42-.43.14-.14.28-.28.42-.42t0,0s0,0,0,0c.13-.13.26-.25.39-.38.13-.13.26-.25.4-.38.13-.12.26-.24.39-.36,0,0,0,0,.01-.01.13-.12.26-.24.39-.36,0,0,.01-.01.02-.02.26-.23.52-.46.78-.68.02-.02.04-.04.06-.05.26-.23.53-.45.8-.66.13-.11.27-.21.4-.32.06-.05.13-.1.19-.15.14-.11.28-.22.43-.33.21-.16.43-.32.64-.48.1-.07.2-.15.3-.22.1-.07.2-.14.3-.21.17-.12.34-.24.51-.35.23-.16.47-.32.71-.48-.15.12-.29.24-.44.36-.13.11-.27.23-.4.34-.21.18-.42.37-.62.55-.09.08-.18.16-.27.25-.11.1-.22.21-.33.31-.06.05-.11.11-.17.16-.12.11-.23.22-.34.33-.12.12-.24.24-.36.37-.14.14-.27.27-.4.41-.05.05-.09.1-.14.15-.11.11-.21.22-.32.34,0,0,0,0,0,0-.13.15-.27.29-.4.44-.12.13-.23.26-.35.39-.05.05-.09.11-.14.16-.1.11-.19.22-.29.34-.13.16-.27.32-.4.48-.13.15-.25.31-.37.46-.1.13-.2.25-.3.38-.05.06-.1.13-.15.19-.1.13-.21.27-.31.41-.17.23-.35.46-.52.7-.07.09-.14.19-.2.28-.07.1-.13.19-.2.28-.2.28-.4.57-.59.87-.07.1-.13.2-.19.29-.13.2-.26.4-.39.59-.06.09-.11.18-.17.27-.07.11-.14.22-.21.33-.06.1-.12.2-.18.29,0,0,0,.01,0,.02-.12.2-.24.4-.36.61-.03.05-.06.11-.1.16-.18.31-.36.63-.54.94-.09.17-.18.34-.28.51-.17.31-.33.62-.49.94-.02.04-.04.09-.07.13-.08.16-.16.32-.25.49-.09.18-.18.37-.27.55-.08.16-.16.33-.24.49-.03.07-.07.14-.1.21-.07.15-.14.31-.21.46-.18.4-.36.8-.53,1.2-.08.17-.15.35-.22.53-.07.16-.13.32-.19.47-.03.08-.06.15-.09.23-.01.04-.03.07-.04.11-.06.14-.12.29-.17.44-.07.17-.13.35-.2.52-.06.16-.12.33-.18.49-.03.08-.06.15-.08.23-.07.2-.15.4-.22.61-.06.16-.11.32-.17.49-.02.06-.04.13-.06.19-.06.18-.12.36-.18.55-.08.25-.16.5-.24.74-.05.17-.11.34-.16.51-.02.08-.05.16-.07.24-.05.15-.09.3-.13.46-.06.22-.13.43-.19.65-.05.19-.1.37-.15.56-.02.08-.04.16-.07.24-.04.16-.09.32-.13.49-.04.14-.07.28-.11.43-.05.19-.1.38-.14.57-.04.15-.07.3-.11.45-.04.18-.08.36-.12.53,0,.03-.01.06-.02.09-.05.21-.09.42-.14.63-.04.17-.07.34-.11.51-.03.13-.05.25-.08.38-.03.16-.06.31-.09.47-.04.19-.07.38-.11.56-.01.07-.03.14-.04.22-.04.2-.07.4-.1.6h0c-.04.21-.07.41-.1.62-.05.29-.09.58-.13.88-.03.18-.05.36-.08.55,0,.02,0,.05,0,.07-.03.23-.06.46-.09.69-.03.24-.06.47-.09.71-.02.17-.04.34-.06.51-.02.17-.04.34-.05.51,0,0,0,0,0,0-.02.17-.03.33-.05.5-.01.11-.02.23-.03.34,0,.11-.02.21-.03.31,0,.04,0,.07,0,.11-.04.42-.07.85-.1,1.27,0,0,0,.02,0,.02-.01.17-.02.34-.03.52,0,.17-.02.35-.03.52,0,.17-.02.35-.02.52,0,.17-.01.33-.02.5,0,.02,0,.04,0,.06,0,.16-.01.33-.02.49,0,.19-.01.39-.01.58,0,.14,0,.28,0,.43,0,.03,0,.06,0,.08,0,.16,0,.32,0,.49,0,.18,0,.35,0,.53,0,.22,0,.44,0,.66,0,.07,0,.14,0,.21,0,.2,0,.4,0,.6,0,.09,0,.18,0,.27,0,.19,0,.38.02.57.02.51.04,1.02.06,1.52.01.25.03.49.04.74,0,.01,0,.02,0,.03.02.25.03.49.05.74.02.25.04.5.06.75h22.74c-.02-.25-.03-.5-.05-.75-.01-.22-.02-.44-.04-.67,0-.1,0-.2-.01-.29,0-.18-.02-.37-.02-.55,0-.21-.02-.42-.02-.63,0-.22-.01-.44-.02-.66-.02-.84-.03-1.69-.03-2.54,0-17.19,4.68-32.36,11.79-41.36-5.15,9-8.54,24.16-8.54,41.36,0,.54,0,1.07,0,1.61,0,.27,0,.53.01.8,0,.27,0,.53.02.8.02.72.04,1.43.07,2.14,0,.25.02.5.03.74,0,0,0,0,0,0h26.94s0,0,0,0c.02-.33.03-.66.04-.99,0-.01,0-.03,0-.05.02-.61.04-1.22.06-1.84,0-.02,0-.05,0-.08,0-.12,0-.25,0-.37,0-.21,0-.41.01-.62,0-.05,0-.11,0-.16h0c0-.05,0-.1,0-.15,0-.21,0-.42,0-.63,0-.4,0-.79,0-1.19,0-.3,0-.59,0-.89,0-.12,0-.24,0-.37,0-.22,0-.45,0-.67,0-.07,0-.14,0-.21,0-.17,0-.33,0-.5,0-.19,0-.37-.01-.56,0-.28-.01-.56-.02-.83,0,0,0,0,0,0,0-.25-.02-.5-.03-.74,0-.26-.02-.52-.03-.79-.01-.26-.02-.52-.04-.78-.02-.5-.05-1-.08-1.49,0-.05,0-.1,0-.14-.01-.23-.03-.45-.04-.68-.02-.26-.04-.51-.05-.77-.02-.26-.04-.51-.06-.76-.02-.24-.04-.47-.06-.71,0-.02,0-.05,0-.07-.02-.25-.04-.49-.07-.73-.02-.2-.04-.39-.06-.59-.03-.31-.06-.62-.09-.93-.05-.45-.1-.91-.15-1.36-.08-.7-.17-1.4-.27-2.09-.02-.15-.04-.3-.06-.45-.02-.15-.04-.3-.07-.45-.03-.23-.07-.46-.1-.69-.11-.71-.22-1.42-.35-2.11-.04-.23-.08-.46-.12-.69-.01-.08-.03-.16-.04-.23-.04-.23-.08-.46-.13-.68-.06-.34-.13-.68-.2-1.01-.11-.52-.21-1.04-.33-1.54-.04-.18-.08-.36-.12-.54-.04-.19-.09-.37-.13-.56-.01-.05-.02-.1-.04-.15-.05-.19-.09-.39-.14-.58-.05-.21-.1-.42-.16-.63-.04-.17-.08-.33-.13-.5-.22-.86-.45-1.7-.69-2.52-.03-.1-.06-.19-.09-.29-.04-.12-.07-.25-.11-.37-.06-.2-.12-.39-.18-.59-.05-.17-.11-.35-.16-.52-.07-.21-.14-.42-.21-.63-.06-.19-.13-.38-.19-.57-.06-.19-.13-.37-.19-.56-.05-.14-.1-.28-.15-.42-.08-.23-.16-.45-.25-.67-.05-.13-.1-.26-.15-.39-.09-.23-.17-.45-.26-.68-.07-.17-.13-.33-.2-.49-.09-.22-.18-.45-.28-.67-.05-.13-.11-.25-.16-.38-.07-.17-.14-.33-.22-.5-.07-.15-.13-.3-.2-.45-.02-.04-.03-.07-.05-.11-.06-.14-.13-.27-.19-.4-.07-.15-.14-.29-.21-.43-.01-.03-.02-.05-.04-.08-.07-.14-.14-.28-.21-.42-.05-.11-.11-.21-.16-.32-.26-.5-.52-.97-.78-1.44.12.16.25.32.37.48.1.13.19.26.29.38,0,0,0,.01.01.02.1.14.2.28.31.42,0,0,0,0,.01.01.09.13.18.26.28.39.02.03.04.06.06.09.09.14.19.27.28.41,0,.01.02.02.02.03.08.12.16.24.24.36.1.16.21.31.31.47.05.08.11.17.16.25.03.04.06.09.08.13.06.09.12.19.17.28.1.17.2.33.3.5.06.1.13.21.19.32.22.37.43.75.64,1.13.09.16.18.32.26.49.1.2.21.39.31.59.09.17.17.34.26.51.31.62.62,1.26.91,1.91.06.13.12.26.18.39.09.2.18.41.27.61.07.16.14.33.21.5.09.22.18.44.27.66.06.14.11.28.17.42.1.25.19.49.29.74.08.2.15.4.23.61.07.19.14.37.2.56.06.18.13.35.19.53.04.1.07.2.11.3.1.3.2.6.3.9.04.13.09.27.13.41.24.74.47,1.49.68,2.26.04.15.09.3.13.45.08.31.17.61.25.92.03.11.06.22.09.34.09.35.18.71.27,1.06.04.16.08.31.11.47.04.16.07.32.11.47.08.36.16.71.24,1.07.03.12.05.24.08.37.03.16.07.32.1.48.03.16.07.32.1.49.03.16.06.33.1.49.03.16.06.33.09.49.03.16.06.33.09.49.05.31.11.62.16.93.02.11.04.22.05.33.02.1.03.19.05.29.02.11.03.21.05.32.02.16.05.31.07.47.02.12.03.23.05.35.05.36.1.73.15,1.09.02.13.03.26.05.39.05.38.09.75.14,1.13.01.13.03.25.04.38.02.16.04.32.05.49.01.13.03.26.04.39,0,.05.01.1.01.15.02.23.05.47.07.7.05.56.1,1.13.14,1.7.01.16.02.33.03.5.02.33.04.66.06,1,0,.17.02.33.03.5.01.24.02.48.03.72,0,.22.02.43.02.65,0,.22.01.43.02.65,0,.07,0,.13,0,.2,0,.22.01.45.01.67,0,.05,0,.1,0,.14,0,.24,0,.49,0,.73,0,.27,0,.54,0,.81,0,.85-.01,1.7-.03,2.54,0,.22-.01.44-.02.66,0,.21-.01.42-.02.63,0,.18-.01.37-.02.55,0,.1,0,.2-.01.29-.01.22-.02.44-.04.67-.01.25-.03.5-.05.75h22.74s0-.05,0-.08c.02-.22.04-.45.05-.67.02-.24.04-.49.05-.74,0-.01,0-.02,0-.03.02-.25.03-.49.04-.74.03-.51.05-1.01.06-1.52,0-.19.01-.38.02-.57,0-.09,0-.18,0-.27,0-.2,0-.4,0-.6,0-.07,0-.14,0-.21,0-.22,0-.44,0-.66s0-.46,0-.69c0-.46-.01-.92-.03-1.37,0-.18,0-.36-.02-.54,0-.08,0-.16,0-.24,0-.13,0-.26-.02-.39,0-.08,0-.15-.01-.23,0-.05,0-.1,0-.15,0-.16-.02-.33-.03-.49-.01-.21-.02-.43-.04-.64,0-.01,0-.02,0-.04-.01-.2-.03-.4-.04-.6-.02-.27-.04-.54-.07-.8-.02-.2-.03-.4-.05-.6-.02-.22-.04-.44-.07-.66-.02-.22-.05-.44-.07-.66-.02-.22-.05-.44-.08-.66-.03-.22-.05-.44-.08-.65-.03-.21-.06-.42-.09-.62-.03-.24-.07-.48-.11-.72-.03-.2-.06-.4-.1-.61,0-.01,0-.02,0-.03-.03-.2-.07-.41-.1-.61-.07-.43-.15-.85-.23-1.28-.04-.21-.08-.42-.13-.63-.04-.21-.09-.42-.13-.63,0-.02,0-.04-.01-.06-.04-.19-.08-.37-.12-.56-.05-.21-.09-.42-.14-.62-.04-.15-.07-.31-.11-.46-.07-.31-.15-.62-.23-.92-.04-.15-.08-.31-.12-.46,0-.03-.02-.06-.02-.09-.04-.17-.09-.34-.14-.51-.07-.24-.13-.49-.21-.73-.05-.16-.09-.32-.14-.48-.06-.2-.12-.4-.18-.6-.06-.2-.12-.4-.19-.59-.06-.2-.13-.39-.19-.59-.06-.19-.13-.39-.19-.58,0-.02-.01-.04-.02-.06-.13-.37-.26-.73-.39-1.09,0,0,0,0,0,0-.07-.19-.14-.38-.21-.57-.07-.19-.14-.38-.22-.57-.07-.19-.15-.38-.22-.56-.15-.37-.3-.74-.46-1.11-.16-.37-.31-.73-.48-1.09-.08-.18-.16-.36-.25-.54-.07-.15-.14-.3-.21-.45-.01-.03-.03-.06-.04-.09-.08-.18-.17-.35-.25-.53-.09-.18-.17-.35-.26-.53-.09-.17-.17-.34-.26-.52,0,0,0,0,0,0-.17-.33-.34-.65-.51-.97-.01-.02-.02-.05-.04-.07-.09-.16-.17-.32-.26-.48-.01-.03-.03-.06-.05-.09-.08-.14-.16-.28-.24-.42-.09-.16-.19-.33-.29-.49,0,0,0-.01-.01-.02-.09-.16-.18-.31-.28-.47-.1-.16-.19-.32-.29-.48-.1-.16-.2-.32-.3-.48-.34-.53-.68-1.05-1.04-1.56-.17-.25-.35-.5-.52-.74-.32-.45-.65-.88-.98-1.31-.12-.15-.23-.3-.35-.44,0,0,0,0,0,0-.12-.15-.24-.29-.36-.44-.09-.12-.19-.23-.29-.34-.04-.05-.08-.09-.11-.14-.09-.1-.17-.2-.26-.3-.05-.06-.1-.12-.15-.17-.08-.1-.17-.19-.25-.28-.04-.04-.07-.08-.11-.13-.1-.11-.2-.22-.3-.33-.12-.14-.25-.27-.38-.4-.15-.16-.3-.32-.46-.48-.1-.11-.21-.21-.31-.31-.26-.26-.52-.51-.78-.76,0,0,0,0,0,0-.13-.12-.26-.25-.4-.37-.29-.27-.59-.53-.89-.79-.11-.09-.22-.19-.33-.28-.14-.12-.27-.23-.41-.34.17.11.33.22.49.33.14.09.28.19.42.29.61.42,1.2.86,1.79,1.31.14.11.28.22.42.33,0,0,0,0,.01,0,.14.11.28.23.42.34,0,0,0,0,.01.01.12.1.25.2.37.3.16.13.31.26.47.4.28.24.56.49.83.73,0,0,.01.01.02.02.12.11.24.22.36.33.15.13.29.27.44.41.1.09.2.19.29.28.04.04.08.08.12.12.12.12.24.23.36.35,0,0,.02.02.03.03,0,0,.02.02.03.03.13.13.27.27.4.41.13.13.26.26.39.4.01.01.03.03.04.04.56.59,1.11,1.2,1.65,1.82.13.15.26.31.39.46l.02.03c.13.15.25.3.38.46.12.15.25.3.37.45.01.02.03.03.04.05.11.14.22.28.33.42.02.03.05.06.07.09.12.15.23.3.35.46.09.12.18.25.28.37.05.07.1.13.15.2.11.14.21.29.31.43.12.17.24.34.36.51.1.14.19.28.29.42.04.05.07.11.11.16.1.15.2.3.3.45.12.17.23.35.34.53.1.16.2.31.3.47.01.02.02.04.04.06.11.18.22.36.33.54.08.13.16.27.24.4.04.07.09.14.13.21.09.15.18.3.27.46,0,0,0,.01,0,.02.11.18.21.37.31.55.1.18.21.37.31.56.1.19.2.37.3.56,0,0,0,.01.01.02.09.18.18.35.27.53.11.22.23.44.33.67.07.13.13.27.2.4.12.24.23.49.35.73.08.17.16.34.23.51,0,0,0,.02.01.03.07.16.15.33.22.49.03.07.06.14.09.2,0,0,0,0,0,0,.07.16.14.32.21.49.08.19.16.38.24.57,0,.02.01.03.02.05.08.18.15.37.22.56.07.19.15.37.22.56.05.13.1.25.14.38.05.13.09.25.14.38.05.13.09.25.14.38.04.12.09.24.13.36.06.17.12.34.17.5.06.17.11.34.17.51.19.6.38,1.2.55,1.8.03.1.06.2.09.3.08.29.16.58.24.87.06.23.12.46.18.7,0,0,0,.02,0,.02.03.13.06.26.09.38.03.14.07.27.1.41.02.1.05.2.07.31.01.06.03.11.04.17.02.11.05.22.07.33.04.2.08.39.12.59.04.21.09.41.13.62,0,0,0,0,0,0,.04.19.07.39.11.58,0,.04.01.08.02.12.03.17.06.35.09.53,0,.05.02.11.03.16.03.2.07.4.1.6,0,.02,0,.04,0,.06.03.18.06.36.08.54,0,.05.01.09.02.14.03.19.05.38.08.57,0,.04.01.09.02.13.02.17.05.35.07.52,0,.03,0,.07.01.1.02.17.04.34.06.5.01.09.02.18.03.27.01.14.03.27.04.41,0,.09.02.18.03.28.02.18.03.35.05.53,0,.02,0,.05,0,.07.02.18.03.37.04.56,0,.03,0,.07,0,.1.01.19.03.37.04.56,0,.06,0,.13.01.19,0,.04,0,.08,0,.11.01.17.02.34.03.51,0,.02,0,.04,0,.06.01.22.02.44.03.66,0,.21.01.41.02.62,0,.06,0,.13,0,.19,0,.17,0,.34,0,.52,0,.06,0,.12,0,.18,0,.2,0,.4,0,.6,0,.32,0,.64,0,.96,0,.12,0,.23,0,.35,0,.14,0,.27-.01.41,0,.07,0,.14,0,.21,0,.13,0,.26-.01.38-.01.28-.02.57-.04.85,0,.1-.01.2-.02.3-.05.88-.12,1.76-.22,2.63h8.86c.24-2.02.36-4.08.36-6.16,0-16.74-7.78-31.67-19.92-41.36Z"/>
          <g>
            <path class="cls-2" d="M70.01,101.49H2.15s0-.1,0-.15c0-4.87,2-9.27,5.23-12.42.56-.55,1.17-1.07,1.8-1.54-.79-1.56-1.23-3.33-1.23-5.19,0-.65.05-1.29.16-1.91.17-1.02.47-1.99.89-2.89.9-1.97,2.34-3.64,4.12-4.83.82-.55,1.71-.99,2.66-1.31.88-.3,1.8-.5,2.75-.58.33-.03.66-.04,1-.04,6.39,0,11.57,5.18,11.57,11.57,0,.58-.04,1.15-.13,1.71.81-.2,1.64-.36,2.47-.5.94-.16,1.89-.28,2.85-.35.88-.07,1.77-.11,2.67-.12.08,0,.15,0,.23,0h.11c.83,0,1.66.03,2.49.1.97.07,1.93.18,2.88.33,11.02,1.74,20.31,8.63,25.35,18.13Z"/>
            <path class="cls-2" d="M77.38,82.37c1.49-6.64,4.1-12.92,7.78-18.71.44-.7.91-1.4,1.39-2.08.64-.92,1.31-1.82,1.98-2.68.08-.1.16-.2.22-.28,1.13-1.43,2.35-2.82,3.61-4.15.1-.11.21-.22.31-.32,0,0,0,0,0,0,.07-.08.15-.15.22-.23-2.25-2.22-5.35-3.6-8.77-3.6-2.24,0-4.35.59-6.16,1.63-2.41,1.37-4.32,3.52-5.38,6.11-.97,1.04-3.83,1.13-4.82,1.13-3.26,0-6.19-1.45-8.17-3.74-.52-.6-1.25-.92-2-.92-.4,0-.79.09-1.17.28-3.47,1.8-5.85,5.42-5.85,9.6,0,1.04.15,2.04.42,2.99-.65-.13-1.33-.2-2.02-.21h-.09c-1.45,0-2.83.29-4.1.82-1.15.47-2.2,1.14-3.11,1.96-1.47,1.32-2.58,3.04-3.15,4.98-.23.77-.37,1.58-.42,2.41.14,0,.28,0,.41,0,.22,0,.43,0,.65,0,.72,0,1.43.02,2.14.06.94.05,1.88.13,2.81.24,3.71.45,7.33,1.42,10.8,2.88,4.82,2.04,9.14,4.95,12.85,8.67,3.57,3.57,6.4,7.7,8.42,12.3h.03c-.2-1.99-.31-4.02-.31-6.05,0-.81.02-1.63.05-2.46,0,0,0-.01,0-.02.09-2.13.29-4.27.6-6.37h0s.79-4.22.79-4.22Z"/>
            <path class="cls-2" d="M101.53,46.65c-.36.25-.74.51-1.11.78-.02.01-.03.02-.05.04-.63.46-1.27.94-1.87,1.42-.51.4-1.02.82-1.5,1.23h0c-.59-.6-1.22-1.16-1.9-1.67-2.12-1.62-4.52-2.74-7.08-3.29-1.26-.27-2.56-.42-3.88-.42-.46,0-.92.02-1.39.05-2.65.2-5.23.99-7.54,2.31-2.72,1.55-5,3.8-6.6,6.48-.25.02-.53.03-.84.03-1.51,0-2.95-.66-3.95-1.81-1.57-1.81-3.84-2.85-6.22-2.85-1.29,0-2.58.31-3.73.91-1.36.7-2.61,1.59-3.71,2.63-1.03.97-1.94,2.07-2.69,3.29-1.19,1.92-1.97,4.05-2.29,6.27-.71.16-1.4.37-2.07.63-1.15.44-2.25,1.01-3.28,1.7-.79.53-1.54,1.13-2.24,1.8-1.82,1.74-3.19,3.83-4.04,6.13-.56-.79-1.19-1.54-1.89-2.24-3.24-3.24-7.55-5.02-12.13-5.02-.06,0-.12,0-.18,0,1.91-5.15,6.87-8.81,12.68-8.81.21,0,.42,0,.63.01-.41-1.37-.63-2.82-.63-4.33,0-8.36,6.78-15.15,15.15-15.15,2.25,0,4.39.49,6.32,1.37.99.46,1.93,1.02,2.79,1.67.02.01.03.02.05.04.86-.7,1.8-1.3,2.81-1.8.72-.35,1.46-.65,2.24-.89,1.41-.44,2.91-.67,4.47-.67,1.88,0,3.69.34,5.35.97.25-.31.52-.6.8-.88.8-.8,1.72-1.48,2.73-2.01,1.62-.86,3.46-1.35,5.43-1.35,6.07,0,11.04,4.67,11.53,10.61.67-.12,1.36-.19,2.07-.19,3,0,5.73,1.14,7.79,3.02Z"/>
            <path class="cls-2" d="M114.67,39.81c-.31.12-.63.23-.94.36-2.37.92-4.71,2.01-6.95,3.24-.13.07-.26.14-.39.21-.17-.19-.34-.37-.52-.55-2.7-2.7-6.15-4.39-9.88-4.88-.94-2.26-2.36-4.31-4.19-6.01-3.18-2.94-7.32-4.56-11.65-4.56-3.87,0-7.55,1.29-10.53,3.61-1.24-.23-2.5-.34-3.77-.34-1.5,0-2.98.16-4.43.47-.42-.92-.91-1.8-1.46-2.64,2.45-6.39,8.64-10.92,15.89-10.92,4.64,0,8.84,1.86,11.91,4.87,1.61-.51,3.33-.78,5.1-.78,8.39,0,15.36,6.07,16.76,14.06,1.63.17,3.18.58,4.64,1.18-.02.76.07,1.53.3,2.29.04.14.08.27.13.4Z"/>
            <path class="cls-2" d="M56.1,33.19h0c-.88-.42-1.78-.77-2.7-1.06-1.99-.63-4.09-.95-6.23-.95-2.8,0-5.51.55-8.07,1.63-2.47,1.04-4.68,2.54-6.59,4.44-1.9,1.9-3.4,4.12-4.44,6.59-1.02,2.42-1.57,4.98-1.63,7.62-2.96.9-5.68,2.52-7.93,4.77-2.76,2.76-4.57,6.22-5.27,9.98-2.16.85-4.15,2.15-5.84,3.84-.7.7-1.34,1.46-1.91,2.26-.61-1.54-.94-3.21-.94-4.96,0-7.47,6.05-13.52,13.52-13.52.48,0,.94.02,1.41.07-.9-1.81-1.41-3.85-1.41-6.01,0-7.42,5.97-13.44,13.36-13.52,1.97-5.04,6.87-8.6,12.6-8.6,3.83,0,7.29,1.59,9.74,4.15.93.96,1.71,2.07,2.33,3.27Z"/>
          </g>
          <g>
            <path class="cls-2" d="M198.4,22.53c-.12-.09-.23-.18-.34-.27l-.07-.05s-.02-.02-.03-.02c1.82-.07,3.66-.33,5.46-.77,5.75-.91,12.08,1.15,16.15,5.27.64.65,1.53.97,2.44.88.9-.09,1.72-.58,2.22-1.34,3.74-5.69,10.64-8.96,17.39-8.34,1.94,1.86,3.46,4.1,4.46,6.56-5.5-.8-11.39.22-16.08,2.95-1.18.69-1.75,2.09-1.38,3.41.37,1.32,1.59,2.22,2.96,2.19,10.32-.21,15.61,6.94,16.99,9.13l.03.04c.6.96,1.33,1.85,2.17,2.67.45.44.92.86,1.4,1.27-.02,0-.04,0-.06,0-.08,0-.15,0-.23,0-.11,0-.23-.01-.34-.02-.08,0-.16-.01-.24-.02-.11,0-.22-.02-.33-.03l-.24-.02c-.11-.01-.22-.02-.33-.04-.08,0-.16-.02-.24-.03-.11-.01-.23-.03-.34-.05-.08-.01-.15-.02-.22-.03-.12-.02-.24-.04-.37-.06-.06-.01-.13-.02-.19-.03-.16-.03-.33-.06-.49-.1-.02,0-.04,0-.06-.01-.18-.04-.37-.08-.55-.13-.05-.01-.1-.03-.16-.04-.13-.03-.26-.06-.39-.1-.07-.02-.13-.04-.2-.06-.11-.03-.23-.06-.34-.1-.07-.02-.14-.04-.21-.07-.11-.03-.21-.07-.32-.11-.07-.02-.14-.05-.21-.07-.11-.04-.21-.08-.31-.11-.07-.03-.14-.05-.21-.08-.11-.04-.21-.08-.31-.13-.06-.03-.13-.05-.19-.08-.11-.05-.23-.1-.34-.15-.05-.02-.11-.05-.16-.07-.16-.08-.32-.15-.48-.23l-5.17-2.58.85,5.72c.06.42.11.84.15,1.27.03.42.05.85.06,1.28.04,2.56-.43,5.16-1.36,7.53-4.05-1.86-7.4-5.1-9.4-9.07-.46-.92-.85-1.87-1.16-2.86l-2.21-7.06-3.35,6.6c-1.51,2.97-3.74,5.5-6.45,7.36-.39.26-.78.52-1.19.75-.78-1.37-1.39-2.85-1.82-4.39-.5-1.79-.76-3.65-.75-5.5,0-.79.06-1.58.17-2.37l.69-5.07-4.76,1.86c-.26.1-.52.2-.79.29-1.87.63-3.88.94-5.9.96-2.31.02-4.64-.35-6.79-1.1.29-.37.59-.74.91-1.09,2.21-2.45,5.01-4.32,8.18-5.42l8.21-2.84-8.21-2.84s0,0,0,0c-.16-.06-.32-.11-.48-.17-.05-.02-.1-.04-.15-.06-.12-.05-.23-.09-.35-.14-.05-.02-.1-.04-.15-.06-.15-.06-.29-.12-.43-.19-.01,0-.03-.01-.04-.02-.16-.07-.31-.14-.47-.22-.05-.02-.09-.04-.14-.07-.11-.06-.23-.11-.34-.17-.05-.02-.1-.05-.14-.07-.13-.07-.26-.14-.39-.21-.02-.01-.04-.02-.06-.03-.15-.08-.3-.17-.45-.26-.04-.03-.08-.05-.12-.08-.11-.07-.22-.13-.33-.2-.05-.03-.09-.06-.13-.09-.12-.08-.25-.16-.37-.24-.02-.02-.05-.03-.07-.05-.14-.1-.29-.2-.43-.3-.03-.03-.07-.05-.1-.08-.11-.08-.22-.16-.32-.24-.04-.03-.08-.06-.12-.09Z"/>
            <path class="cls-2" d="M265.85,91.99c0,3.22-.24,6.4-.71,9.5h-70.45c.2-1.98.31-4.02.31-6.05,0-12.13-3.64-23.79-10.52-33.73-3.04-4.39-6.67-8.36-10.78-11.79-.34-.29-.7-.58-1.08-.88-4.6-3.66-9.69-6.61-15.14-8.76-.36-.14-.72-.28-1.08-.41.22-.77.31-1.57.28-2.35,10.34-6.85,22.77-11.08,36.29-11.7,0,0,0,0,0,0,.01.01.02.02.04.03.14.13.29.26.43.39.05.04.1.08.15.13.12.1.23.2.35.3.05.04.1.08.14.12.16.13.32.26.48.39.01,0,.02.02.03.02.16.12.31.24.47.36.05.04.1.08.15.11.12.09.25.18.37.27.05.04.1.07.15.11.17.12.34.24.52.35-3.49,2.31-6.4,5.45-8.43,9.21l-1.4,2.59,2.56,1.46c.39.22.79.44,1.2.64,2.85,1.41,6.07,2.27,9.41,2.52,2.27.16,4.53.04,6.7-.37.19,4.19,1.42,8.37,3.53,11.96.08.14.17.27.25.41.17.27.34.54.52.81.27.4.55.79.84,1.17l1.41,1.86,2.15-.91c.71-.3,1.4-.63,2.07-.99,2.92-1.56,5.5-3.67,7.61-6.21,2.73,4.6,6.89,8.31,11.8,10.47.91.4,1.84.75,2.8,1.04l2.31.7,1.18-2.11c.24-.43.47-.87.69-1.32,1.51-3.13,2.37-6.56,2.51-10.04,0,0,.01,0,.02,0,.27.07.53.14.8.2.09.02.18.04.26.06.19.04.38.08.58.12.1.02.2.04.29.06.2.04.39.07.59.1.08.01.17.03.26.04.56.08,1.13.15,1.71.2.09,0,.17.01.26.02.2.01.41.03.61.04.1,0,.2.01.3.01.08,0,.15,0,.23.01,9.14,11.55,13.97,25.3,13.97,39.86Z"/>
          </g>
        </g>
      </g>
      <text class="cls-1" transform="translate(340.44 92.49) scale(1.05 1)"><tspan x="0" y="0">P</tspan><tspan class="cls-3" x="68.13" y="0">R</tspan><tspan x="139.08" y="0">ODUCE</tspan><tspan x="0" y="94">HOUSE</tspan></text>
    </g>
  </g>
</svg>