<?xml version="1.0" encoding="UTF-8"?>
<svg id="Capa_2" data-name="Capa 2" xmlns="http://www.w3.org/2000/svg" viewBox="0 0 919.72 219.66">
  <defs>
    <style>
      .cls-1 {
        fill: #00c100;
      }

      .cls-1, .cls-2, .cls-3, .cls-4, .cls-5, .cls-6, .cls-7, .cls-8 {
        stroke-width: 0px;
      }

      .cls-2 {
        fill: #aa0202;
      }

      .cls-3 {
        fill: #894700;
      }

      .cls-4 {
        fill: #381d00;
      }

      .cls-5, .cls-9 {
        fill: #000;
      }

      .cls-6 {
        fill: #f2f2f2;
      }

      .cls-7 {
        fill: #380000;
      }

      .cls-9 {
        font-family: Cambria-Bold, Cambria;
        font-size: 111px;
        font-weight: 700;
      }

      .cls-8 {
        fill: #004c0e;
      }

      .cls-10 {
        letter-spacing: -.02em;
      }
    </style>
  </defs>
  <g id="Capa_1-2" data-name="Capa 1">
    <g>
      <g>
        <g>
          <g>
            <polygon class="cls-3" points="11.8 129.17 1.58 107.62 266.42 107.62 256.19 129.17 11.8 129.17"/>
            <path class="cls-4" d="M264.84,108.62l-9.27,19.55H12.44l-9.27-19.55h261.67M268,106.62h0,0ZM268,106.62H0l11.17,23.55h245.66l11.17-23.55h0Z"/>
          </g>
          <g>
            <polygon class="cls-3" points="40.04 188.69 29.82 167.14 238.18 167.14 227.96 188.69 40.04 188.69"/>
            <path class="cls-4" d="M236.6,168.14l-9.27,19.55H40.67l-9.27-19.55h205.2M239.76,166.14h0,0ZM239.76,166.14H28.24l11.17,23.55h189.18l11.17-23.55h0Z"/>
          </g>
          <g>
            <polygon class="cls-3" points="25.92 158.93 15.7 137.38 252.3 137.38 242.08 158.93 25.92 158.93"/>
            <path class="cls-4" d="M250.72,138.38l-9.27,19.55H26.56l-9.27-19.55h233.44M253.88,136.38h0,0ZM253.88,136.38H14.12l11.17,23.55h217.42l11.17-23.55h0Z"/>
          </g>
        </g>
        <g>
          <g>
            <path class="cls-6" d="M178.34,102.37c-.28,0-.55-.12-.74-.33-.19-.21-.28-.49-.25-.77.09-.84.16-1.68.21-2.53,0,0,.04-.84.05-1.11l.04-1.31c0-.3,0-.61,0-.91v-.58s1-.19,1-.19h-1s-.03-1.27-.03-1.27c0-.22-.04-1.02-.06-1.18,0,0-.06-.94-.06-.94l-.04-.53c-.02-.25-.08-.84-.08-.84l-.07-.66-.06-.49.98-.24-.99.12s-.13-.98-.16-1.16c0,0-.1-.66-.1-.66-.04-.26-.13-.79-.13-.79,0,0-.22-1.18-.22-1.18-.04-.23-.25-1.19-.25-1.19,0,0-.35-1.5-.36-1.53l-.18-.71c-.07-.28-.15-.56-.23-.83l-.08-.3c-.17-.58-.35-1.16-.53-1.74l-.43-1.26-.42-1.15-.21-.55-.28-.7-.46-1.09s-.25-.56-.25-.58l-.19-.41c-.11-.23-.22-.46-.33-.7l-.19-.39c-.1-.21-.21-.42-.32-.64,0,0-.28-.54-.29-.55l-.28-.52-.28-.51s-.31-.54-.32-.57l-.59-1-.34-.55-.32-.51c-.11-.17-.22-.34-.33-.51l-.49-.72-.45-.65c.2.37.37.68.53,1,0,0,0,.02.01.03l.26.52.26.52c.08.17.5,1.06.5,1.06l.24.54c.16.36.32.72.48,1.09.16.37.31.74.46,1.11l.44,1.13.21.57c.13.36.26.72.38,1.09l.4,1.23.19.6.32,1.08.2.71.28,1.07c.08.29.34,1.37.34,1.37l.26,1.18.14.69.12.64c.08.42.16.84.23,1.27l.2,1.25c.04.25.07.48.11.72.03.2.06.41.09.62.03.21.14,1.08.16,1.3l.14,1.32.12,1.4.08,1.27.03.49-.99.19,1-.05.05,1.4c.01.45.02.91.03,1.36v1.45s-.03,1.53-.03,1.53c-.02.51-.04,1.01-.06,1.52,0,0-.04.76-.05.78-.01.24-.1,1.39-.1,1.39-.04.52-.48,1-1,1h-22.32c-.28,0-.54-.11-.73-.32-.19-.2-.29-.47-.27-.75l.09-1.65.05-1.31v-.48c.04-.82.05-1.64.05-2.47v-.78s-.03-1.6-.03-1.6l-.05-1.35c0-.24-.06-1.18-.06-1.18-.02-.33-.04-.65-.06-.97l-.03-.48c-.04-.55-.08-1.1-.13-1.65-.02-.23-.12-1.21-.12-1.21l-.09-.84c-.04-.37-.18-1.49-.18-1.49-.05-.35-.2-1.4-.2-1.4l-.21-1.35-.24-1.39-.28-1.43-.17-.82c-.08-.35-.34-1.5-.34-1.5l-.11-.46c-.08-.34-.17-.68-.26-1.02l-.36-1.33-.09-.32c-.21-.75-.43-1.47-.66-2.19l-.13-.4c-.09-.29-.19-.57-.29-.86l.28,1.19.12.53c.11.51.22,1.02.32,1.53.07.34.35,1.83.35,1.83l.14.77c.12.69.23,1.39.34,2.09l.23,1.58c.09.68.18,1.37.27,2.07.05.44.1.89.15,1.34.03.3.19,1.94.19,1.94l.15,1.81.11,1.55c.03.51.06,1.01.08,1.5l.07,1.55.06,2.12.02,1.74v.87c0,.39-.01,1.95-.01,1.95l-1,.15h1s-.02,1-.02,1c-.01.68-.04,1.29-.06,1.89l-.04,1.01c0,.25-.11.5-.3.69-.19.18-.44.29-.7.29h-26.44c-.41,0-.78-.25-.93-.63-.04-.11-.07-.23-.07-.35l-.03-.72c-.03-.7-.05-1.4-.07-2.11l-.03-1.58c0-.53,0-1.06,0-1.59,0-9.34,1.03-18.35,2.9-26.08-2.64,7.67-4.09,16.69-4.09,26.08,0,.83.01,1.65.03,2.46l.02.64.06,1.43.08,1.38c.02.28-.08.55-.27.75-.19.2-.45.32-.73.32h-22.32c-.52,0-.95-.4-1-.91l-.06-.75-.1-1.5c-.03-.51-.05-1.01-.06-1.52l-.03-1.64v-1.18s.01-1,.01-1c0-.19.05-1.5.05-1.5l.06-1.12.03-.55c.03-.45.06-.87.1-1.29,0,0,.12-1.29.12-1.3l.11-.97c.03-.23.06-.47.09-.71l.18-1.3.16-1.01.23-1.3.1-.55.15-.76.26-1.22.25-1.07.42-1.64.18-.64.46-1.55.33-1.04.42-1.23.29-.79c.07-.19.4-1.05.4-1.05l.5-1.25c.07-.17.15-.35.22-.53.17-.4.35-.8.53-1.2l.31-.68.23-.49.58-1.15c.17-.32.33-.64.5-.95l.05-.1s-.35.5-.36.51c0,0-.42.61-.43.63-.11.16-.24.37-.37.57-.15.23-.29.45-.43.67l-.61,1-.59,1.02-.38.69c-.25.46-.49.93-.73,1.4l-.49,1-.46,1.01-.45,1.03c-.1.23-.19.46-.29.69-.38.95-.74,1.92-1.07,2.89l-.1.3c-.33,1.01-.63,2.03-.9,3.05l-.07.28c-.17.65-.32,1.3-.46,1.95l-.15.72c-.14.7-.26,1.36-.37,2.02l-.06.37c-.04.27-.08.55-.12.84-.04.27-.14,1.1-.14,1.1l-.06.51c-.03.27-.12,1.22-.12,1.22l-.14,1.97-.04.98c-.02.68-.04,1.35-.04,2.04,0,.31.01,1.25.01,1.25l.03.97c.01.27.05,1.1.05,1.1.05.86.12,1.7.21,2.54.03.28-.06.56-.25.77-.19.21-.46.33-.74.33h-8.95c-.51,0-.93-.38-.99-.88-.24-2.04-.36-4.11-.36-6.17,0-10.83,3.25-21.25,9.4-30.12,1.09-1.58,2.29-3.11,3.55-4.56,2.76-3.18,5.89-6.02,9.32-8.46,3.56-2.53,7.42-4.62,11.47-6.19.44-.17.88-.34,1.33-.5,1.08-.39,2.18-.74,3.29-1.06.06-.02.14-.04.22-.06,1.04-.29,2.12-.56,3.19-.79.76-.16,1.38-.7,1.66-1.44.28-.74.17-1.52-.3-2.14-.85-1.14-2.15-1.73-3.84-1.77-.4,0-.76-.26-.91-.64-.15-.38-.05-.81.24-1.09,1.34-1.28,3.1-1.98,4.95-1.98,1,0,1.97.21,2.87.6-1.18-1.76-3.08-3-5.27-3.3-.45-.06-.81-.42-.86-.87-.05-.45.21-.89.63-1.05,1.09-.42,2.24-.63,3.43-.63,3.84,0,7.15,2.27,8.67,5.54,1.6-3.02,4.78-5.05,8.44-5.05,1.18,0,2.33.21,3.43.63.43.16.69.6.63,1.05s-.41.81-.86.87c-2.2.29-4.1,1.53-5.27,3.3.89-.39,1.87-.6,2.87-.6,1.86,0,3.62.71,4.95,1.99.29.28.39.71.24,1.09-.15.38-.51.63-.91.64-1.15.02-2.13.32-2.9.87-.75.54-1.08,1.4-.89,2.3.19.91.84,1.58,1.75,1.78,1.06.24,2.14.51,3.2.82.02,0,.1.03.12.04,1.12.32,2.28.71,3.41,1.12.38.14.75.28,1.12.43,4.88,1.93,9.45,4.57,13.57,7.86,12.66,10.11,19.92,25.19,19.92,41.38,0,2.07-.12,4.14-.36,6.17-.06.5-.49.88-.99.88h-8.69Z"/>
            <path class="cls-5" d="M126.91,30.27c4.72,0,8.55,3.83,8.55,8.55,0,.05,0,.1,0,.16h.01c.17-4.57,3.93-8.22,8.55-8.22,1.08,0,2.12.2,3.07.57-3.8.51-6.82,3.52-7.33,7.32,1.12-1.59,2.96-2.63,5.05-2.63,1.65,0,3.16.65,4.26,1.71-1.49.03-2.61.45-3.46,1.06-2.3,1.65-1.54,5.25,1.22,5.87,1.06.24,2.1.5,3.14.8.02,0,.04.01.06.02,1.15.34,2.28.71,3.4,1.12.37.14.73.28,1.1.42,4.83,1.91,9.31,4.52,13.31,7.71,11.91,9.51,19.55,24.16,19.55,40.6,0,2.05-.12,4.07-.35,6.05h-8.69c.09-.85.16-1.71.21-2.58,0-.1.01-.2.02-.3.02-.28.03-.55.04-.83,0-.13,0-.25.01-.38,0-.07,0-.14,0-.2,0-.13,0-.27.01-.4,0-.11,0-.23,0-.34,0-.31,0-.63,0-.94,0-.2,0-.4,0-.59,0-.06,0-.12,0-.18,0-.17,0-.34,0-.51,0-.06,0-.12,0-.19,0-.2-.01-.41-.02-.61,0-.22-.02-.43-.03-.65,0-.02,0-.04,0-.06,0-.17-.02-.33-.03-.5,0-.04,0-.07,0-.11,0-.06,0-.12-.01-.19-.01-.18-.02-.37-.04-.55,0-.03,0-.07,0-.1-.01-.18-.03-.36-.04-.55,0-.02,0-.05,0-.07-.01-.17-.03-.35-.05-.52,0-.09-.02-.18-.03-.27-.01-.13-.03-.27-.04-.4,0-.09-.02-.18-.03-.27-.02-.17-.04-.33-.06-.49,0-.03,0-.06-.01-.1-.02-.17-.04-.34-.07-.51,0-.04-.01-.09-.02-.13-.02-.19-.05-.37-.08-.56,0-.04-.01-.09-.02-.13-.03-.18-.05-.35-.08-.53,0-.02,0-.04,0-.06-.03-.2-.06-.4-.1-.59,0-.05-.02-.11-.03-.16-.03-.17-.06-.35-.09-.52,0-.04-.01-.08-.02-.12-.04-.19-.07-.38-.11-.57,0,0,0,0,0,0-.04-.2-.08-.41-.12-.61-.04-.19-.08-.38-.12-.57-.02-.11-.05-.22-.07-.32-.01-.05-.02-.11-.04-.17-.02-.1-.05-.2-.07-.3-.03-.13-.06-.27-.1-.4-.03-.13-.06-.25-.09-.38,0,0,0-.02,0-.02-.06-.23-.12-.46-.17-.68-.08-.29-.15-.57-.23-.85-.03-.1-.06-.2-.08-.3-.17-.59-.35-1.19-.54-1.77-.05-.17-.11-.33-.16-.5-.05-.16-.11-.33-.17-.49-.04-.12-.08-.24-.12-.36-.04-.13-.09-.25-.13-.37-.04-.12-.09-.25-.14-.37-.04-.12-.09-.25-.14-.37-.07-.18-.14-.37-.21-.55-.07-.18-.14-.36-.22-.55,0-.02-.01-.03-.02-.05-.08-.19-.15-.37-.23-.56-.07-.16-.13-.32-.2-.48,0,0,0,0,0,0-.03-.07-.06-.13-.09-.2-.07-.16-.14-.32-.21-.48,0,0,0-.02-.01-.03-.08-.17-.15-.33-.23-.5-.11-.24-.22-.48-.34-.72-.06-.13-.13-.26-.19-.4-.11-.22-.22-.44-.33-.65-.09-.18-.18-.35-.27-.52,0,0,0-.01-.01-.02-.1-.19-.2-.37-.3-.55-.1-.18-.2-.37-.3-.55-.1-.18-.2-.36-.31-.54,0,0,0-.01,0-.02-.09-.15-.17-.3-.26-.45-.04-.07-.08-.14-.12-.21-.08-.13-.16-.26-.24-.39-.11-.18-.22-.35-.32-.53-.01-.02-.02-.04-.04-.06-.1-.16-.2-.31-.3-.46-.11-.17-.22-.35-.34-.52-.1-.15-.2-.3-.3-.44-.04-.05-.07-.11-.11-.16-.09-.14-.19-.28-.29-.41-.12-.17-.23-.33-.35-.5-.1-.14-.21-.28-.31-.43-.05-.07-.09-.13-.14-.19-.09-.12-.18-.24-.27-.36-.11-.15-.23-.3-.34-.45-.02-.03-.04-.06-.07-.09-.11-.14-.21-.27-.32-.41-.01-.02-.03-.03-.04-.05-.12-.15-.24-.3-.36-.45-.12-.15-.25-.3-.37-.45l-.02-.03c-.13-.15-.26-.3-.39-.45-.53-.61-1.06-1.21-1.62-1.79-.01-.01-.03-.03-.04-.04-.13-.13-.25-.26-.38-.39-.13-.13-.26-.27-.4-.4,0,0-.02-.02-.03-.03,0,0-.02-.02-.03-.03-.12-.12-.23-.23-.35-.34-.04-.04-.08-.08-.12-.12-.1-.09-.19-.18-.29-.28-.14-.13-.28-.27-.43-.4-.12-.11-.24-.22-.35-.32,0,0-.01-.01-.02-.02-.27-.24-.54-.48-.82-.72-.15-.13-.31-.26-.46-.39-.12-.1-.24-.2-.36-.3,0,0,0,0-.01-.01-.14-.11-.28-.22-.42-.34,0,0,0,0-.01,0-.14-.11-.27-.22-.41-.32-.58-.45-1.16-.88-1.75-1.29-.14-.09-.27-.19-.41-.28-.16-.11-.32-.22-.48-.32.13.11.27.22.4.33.11.09.22.18.32.27.29.25.58.51.87.77.13.12.26.24.39.36,0,0,0,0,0,0,.26.24.51.49.76.74.1.1.2.21.3.31.15.16.3.31.45.47.12.13.25.26.37.4.1.11.2.22.3.33.04.04.07.08.11.12.08.09.16.19.25.28.05.06.1.11.15.17.08.1.17.2.25.29.04.04.08.09.11.13.09.11.19.22.28.34.12.14.23.29.35.43,0,0,0,0,0,0,.11.14.23.29.34.44.33.42.65.85.97,1.29.17.24.34.48.51.73.35.5.69,1.01,1.02,1.53.1.16.2.31.29.47.1.16.19.31.29.47.09.15.18.3.27.46,0,0,0,.01.01.02.1.16.19.32.28.48.08.14.16.28.24.42.02.03.03.06.05.09.09.16.17.31.26.47.01.02.03.05.04.07.17.31.34.63.5.95,0,0,0,0,0,0,.09.17.17.34.26.51.09.17.17.34.26.52.08.17.17.35.25.52.01.03.03.06.04.09.07.14.14.29.2.44.08.18.16.35.24.53.16.35.31.71.47,1.07.15.36.3.72.45,1.09.07.18.15.37.22.55s.14.37.21.56c.07.19.14.37.21.56,0,0,0,0,0,0,.13.36.26.71.38,1.07,0,.02.01.04.02.06.06.19.13.38.19.57.06.19.13.38.19.58.06.19.12.39.18.58.06.19.12.39.18.58.05.16.09.31.14.47.07.24.14.48.2.71.05.17.09.33.14.5,0,.03.02.06.02.09.04.15.08.3.12.45.08.3.15.6.23.91.04.15.07.3.11.46.05.2.1.41.14.61.04.18.08.37.12.55,0,.02,0,.04.01.06.04.21.09.41.13.62.04.21.08.41.12.62.08.41.16.83.23,1.25.03.2.07.4.1.6,0,.01,0,.02,0,.03.03.2.06.4.09.59.04.23.07.47.1.71.03.2.06.41.09.61.03.21.06.43.08.64.03.22.05.43.08.65.02.22.05.43.07.65.02.22.04.43.07.65.02.2.04.39.05.59.02.26.04.53.06.79.01.2.03.39.04.59,0,.01,0,.02,0,.04.01.21.03.42.04.63,0,.16.02.32.03.48,0,.05,0,.1,0,.15,0,.08,0,.15.01.23,0,.13.01.25.02.38,0,.08,0,.16,0,.24,0,.18.01.35.02.53.01.45.02.9.03,1.35,0,.22,0,.45,0,.68s0,.44,0,.65c0,.07,0,.13,0,.2,0,.2,0,.39,0,.59,0,.09,0,.17,0,.26,0,.19,0,.37-.02.56-.02.5-.04,1-.06,1.49-.01.24-.03.49-.04.73,0,.01,0,.02,0,.03-.01.24-.03.48-.05.72-.02.22-.03.44-.05.66,0,.03,0,.05,0,.08h-22.32c.02-.24.03-.49.05-.74.01-.22.02-.44.04-.65,0-.1,0-.19.01-.29,0-.18.02-.36.02-.54,0-.21.02-.41.02-.62,0-.22.01-.43.02-.65.02-.82.03-1.66.03-2.49,0-.26,0-.53,0-.79,0-.24,0-.48,0-.72,0-.05,0-.09,0-.14,0-.22,0-.44-.01-.66,0-.07,0-.13,0-.19,0-.21-.01-.43-.02-.64,0-.21-.01-.43-.02-.64,0-.23-.02-.47-.03-.7,0-.16-.02-.33-.03-.49-.02-.33-.04-.65-.06-.98,0-.16-.02-.33-.03-.49-.04-.56-.08-1.11-.13-1.67-.02-.23-.04-.46-.06-.69,0-.05,0-.1-.01-.15-.01-.13-.03-.26-.04-.39-.02-.16-.03-.32-.05-.48-.01-.13-.03-.25-.04-.37-.04-.37-.09-.74-.13-1.11-.02-.13-.03-.26-.05-.39-.05-.36-.1-.72-.15-1.07-.02-.11-.03-.23-.05-.34-.02-.15-.05-.31-.07-.46-.02-.1-.03-.21-.05-.31-.01-.09-.03-.19-.05-.28-.02-.11-.03-.22-.05-.32-.05-.3-.1-.61-.16-.91-.03-.16-.06-.32-.09-.48-.03-.16-.06-.32-.09-.48-.03-.16-.06-.32-.09-.48-.03-.16-.06-.32-.09-.48-.03-.16-.06-.32-.1-.47-.02-.12-.05-.24-.08-.36-.08-.35-.15-.7-.23-1.05-.04-.16-.07-.31-.11-.47-.04-.15-.07-.31-.11-.46-.08-.35-.17-.7-.26-1.04-.03-.11-.06-.22-.09-.33-.08-.3-.16-.6-.24-.9-.04-.15-.08-.3-.12-.45-.21-.75-.44-1.49-.67-2.22-.04-.13-.08-.27-.13-.4-.1-.3-.2-.59-.3-.89-.03-.1-.07-.2-.1-.3-.06-.17-.12-.35-.18-.52-.07-.18-.13-.37-.2-.55-.07-.2-.15-.4-.22-.59-.09-.24-.19-.49-.28-.73-.05-.14-.11-.27-.16-.41-.09-.22-.18-.44-.27-.65-.07-.16-.14-.32-.21-.49-.09-.2-.17-.4-.26-.6-.06-.13-.11-.26-.17-.38-.29-.64-.59-1.26-.89-1.87-.08-.17-.17-.33-.25-.5-.1-.2-.2-.39-.31-.58-.09-.16-.17-.32-.26-.48-.21-.38-.42-.75-.63-1.11-.06-.1-.12-.21-.18-.31-.1-.17-.2-.33-.3-.49-.06-.09-.11-.18-.17-.27-.03-.04-.05-.09-.08-.13-.05-.08-.1-.16-.16-.24-.1-.16-.2-.31-.3-.46-.08-.12-.16-.24-.24-.36,0-.01-.01-.02-.02-.03-.09-.14-.18-.27-.28-.4-.02-.03-.04-.06-.06-.09-.09-.13-.18-.26-.27-.38,0,0,0,0-.01-.01-.1-.14-.2-.28-.3-.41,0,0,0-.01-.01-.02-.09-.13-.19-.25-.28-.38-.12-.16-.24-.31-.36-.47.26.45.52.93.77,1.41.05.1.11.21.16.31.07.14.14.27.21.41.01.02.02.05.04.08.07.14.14.28.21.43.06.13.13.26.19.4.02.04.03.07.05.11.07.15.14.29.2.44.07.16.14.32.22.49.05.12.11.24.16.37.09.22.18.43.27.65.07.16.13.32.19.48.09.22.17.44.26.66.05.13.1.25.15.38.08.22.16.44.24.66.05.14.1.28.15.42.06.18.13.36.19.55.06.18.13.37.19.56.07.2.14.41.2.62.05.17.11.34.16.51.06.19.12.38.18.58.04.12.07.24.11.36.03.09.06.19.08.28.24.8.46,1.63.68,2.47.04.16.08.32.12.49.05.21.1.41.15.62.05.19.09.38.14.57.01.05.02.1.04.15.04.18.08.36.13.55.04.18.08.35.12.53.11.5.22,1.01.32,1.52.07.33.13.66.2.99.04.22.08.44.12.67.01.08.03.15.04.23.04.22.08.45.12.68.12.68.23,1.37.34,2.07.03.22.07.45.1.67.02.15.04.3.06.45.02.15.04.3.06.44.09.68.18,1.36.26,2.05.05.44.1.89.15,1.33.03.3.06.61.09.91.02.19.04.38.06.58.02.24.04.48.07.72,0,.02,0,.04,0,.07.02.23.04.46.06.69.02.25.04.5.06.75.02.25.04.5.05.75.02.22.03.44.04.67,0,.05,0,.09,0,.14.03.49.06.97.08,1.47.01.26.02.51.04.77.01.26.02.51.03.77,0,.24.02.49.03.73,0,0,0,0,0,0,0,.27.02.54.02.82,0,.18,0,.37.01.55,0,.16,0,.33,0,.49,0,.07,0,.14,0,.21,0,.22,0,.44,0,.66,0,.12,0,.24,0,.36,0,.29,0,.58,0,.87,0,.39,0,.78,0,1.17,0,.21,0,.41,0,.62,0,.05,0,.09,0,.14h0c0,.06,0,.11,0,.17,0,.2,0,.4-.01.61,0,.12,0,.24,0,.36,0,.03,0,.05,0,.08-.01.61-.03,1.21-.06,1.81,0,.02,0,.03,0,.05-.01.32-.03.65-.04.97,0,0,0,0,0,0h-26.44s0,0,0,0c-.01-.24-.02-.49-.03-.73-.03-.69-.05-1.39-.07-2.1,0-.26-.01-.52-.02-.78,0-.26,0-.52-.01-.78,0-.52,0-1.05,0-1.58,0-16.88,3.32-31.76,8.38-40.59-6.99,8.83-11.58,23.72-11.58,40.59,0,.84.01,1.67.03,2.49,0,.22.01.43.02.65,0,.21.01.41.02.62,0,.18.01.36.02.54,0,.1,0,.19.01.29.01.22.02.44.04.65.01.25.03.49.04.74h-22.32c-.02-.24-.04-.49-.06-.74-.02-.24-.03-.48-.05-.72,0-.01,0-.02,0-.03-.01-.24-.03-.48-.04-.73-.03-.5-.05-.99-.06-1.49,0-.19-.01-.37-.02-.56,0-.09,0-.17,0-.26,0-.2,0-.39,0-.59,0-.07,0-.13,0-.2,0-.22,0-.43,0-.65,0-.17,0-.35,0-.52,0-.16,0-.32,0-.48,0-.03,0-.05,0-.08,0-.14,0-.28,0-.42,0-.19,0-.38.01-.57,0-.16,0-.32.02-.48,0-.02,0-.04,0-.05,0-.16.01-.33.02-.49,0-.17.02-.34.02-.51s.02-.34.03-.51c0-.17.02-.34.03-.51,0,0,0-.02,0-.02.03-.42.06-.83.09-1.25,0-.04,0-.07,0-.11,0-.1.02-.2.03-.31,0-.11.02-.22.03-.33.02-.16.03-.33.05-.49,0,0,0,0,0,0,.02-.17.03-.33.05-.5.02-.17.04-.33.06-.5.03-.23.05-.46.08-.7.03-.23.06-.45.09-.68,0-.02,0-.04,0-.07.02-.18.05-.36.08-.54.04-.29.09-.57.13-.86.03-.2.07-.4.1-.61h0c.03-.2.07-.39.1-.59.01-.07.03-.14.04-.21.03-.18.07-.37.1-.55.03-.15.06-.31.09-.46.02-.13.05-.25.08-.37.03-.17.07-.34.11-.5.04-.21.09-.41.13-.62,0-.03.01-.06.02-.08.04-.18.08-.35.12-.52.04-.15.07-.3.11-.44.04-.19.09-.38.14-.56.04-.14.07-.28.11-.42.04-.16.08-.32.12-.48.02-.08.04-.16.06-.24.05-.18.1-.36.15-.55.06-.21.12-.43.18-.64.04-.15.09-.3.13-.45.02-.08.05-.16.07-.24.05-.17.1-.33.15-.5.08-.24.16-.49.23-.73.06-.18.12-.36.18-.54.02-.06.04-.12.06-.19.05-.16.11-.32.17-.48.07-.2.14-.4.21-.6.03-.08.05-.15.08-.22.06-.16.12-.32.18-.48.06-.17.13-.34.2-.51.06-.14.11-.29.17-.43.01-.04.03-.07.04-.11.03-.07.06-.15.09-.22.06-.16.13-.31.19-.47.07-.17.14-.35.22-.52.17-.4.34-.79.52-1.18.07-.15.14-.3.21-.45.03-.07.07-.14.1-.21.08-.16.15-.32.23-.48.09-.18.18-.36.27-.54.08-.16.16-.32.24-.48.02-.04.04-.08.06-.13.16-.31.32-.61.49-.92.09-.17.18-.33.27-.5.17-.31.35-.62.53-.93.03-.05.06-.11.09-.16.12-.2.24-.4.36-.6,0,0,0-.01,0-.02.06-.1.12-.19.18-.29.07-.11.13-.22.2-.33.06-.09.11-.18.17-.26.13-.2.25-.39.38-.58.06-.1.13-.19.19-.29.19-.29.39-.57.58-.85.07-.09.13-.19.2-.28.07-.09.13-.18.2-.28.17-.23.34-.46.51-.68.1-.13.2-.27.31-.4.05-.06.1-.12.14-.18.1-.12.2-.25.3-.37.12-.15.24-.3.37-.45.13-.16.26-.31.39-.47.09-.11.19-.22.29-.33.04-.05.09-.1.14-.16.11-.13.23-.26.34-.39.13-.14.26-.29.39-.43,0,0,0,0,0,0,.1-.11.21-.22.31-.33.04-.05.09-.1.14-.14.13-.14.26-.27.4-.41.12-.12.24-.24.36-.36.11-.11.22-.22.34-.33.05-.05.11-.11.17-.16.11-.1.22-.21.32-.31.09-.08.18-.16.26-.24.2-.18.41-.36.61-.54.13-.11.26-.23.4-.34.14-.12.29-.24.43-.36-.23.15-.47.31-.7.47-.17.11-.33.23-.5.35-.1.07-.2.14-.29.21-.1.07-.2.14-.29.21-.21.16-.42.31-.63.47-.14.11-.28.22-.42.33-.06.05-.12.1-.18.14-.13.1-.26.21-.39.31-.26.21-.53.43-.79.65-.02.02-.04.03-.06.05-.26.22-.51.44-.76.66,0,0-.01.01-.02.02-.13.12-.26.23-.39.35,0,0,0,0-.01.01-.13.12-.25.23-.38.35-.13.12-.26.24-.39.37-.13.12-.26.25-.38.37t0,0s0,0,0,0c-.14.14-.28.28-.42.41-.14.14-.28.28-.41.42-.27.28-.54.57-.81.86-.13.15-.27.29-.4.44-.13.15-.26.3-.39.45-.13.15-.26.3-.39.45-.26.3-.51.61-.76.92-.12.15-.25.31-.37.47-.24.3-.47.61-.7.92-.15.19-.29.39-.43.59-.1.14-.2.28-.3.42-.09.13-.18.26-.27.39h0c-.07.1-.14.21-.21.31-.07.1-.13.2-.2.3,0,0,0,.01,0,.01-.14.21-.28.42-.42.63,0,0,0,0,0,.01-.14.22-.29.45-.43.67-.12.2-.25.4-.37.61-.01.02-.03.05-.04.07-.07.11-.14.23-.21.34-.13.23-.27.46-.4.69-.07.12-.13.23-.2.35-.07.12-.13.23-.19.35-.06.12-.13.24-.19.35-.26.47-.5.95-.74,1.43-.06.11-.11.22-.17.34l-.16.34c-.05.11-.11.23-.16.34-.05.11-.11.23-.16.34-.05.12-.11.23-.16.35-.05.11-.1.23-.16.35-.05.12-.1.23-.15.35-.06.14-.12.27-.18.41-.04.1-.08.19-.12.29-.1.23-.2.47-.29.71-.39.97-.75,1.95-1.09,2.94-.03.1-.07.21-.1.31-.34,1.02-.64,2.05-.92,3.1-.03.1-.05.2-.08.29-.17.65-.33,1.31-.47,1.98-.03.13-.06.26-.08.39-.03.13-.06.27-.08.4-.14.67-.26,1.34-.37,2.01-.02.12-.04.25-.06.37-.04.29-.09.57-.13.86-.04.27-.07.54-.11.81-.02.15-.04.3-.06.45-.01.12-.03.25-.04.37-.03.28-.06.55-.09.83-.01.14-.03.28-.04.42-.02.28-.05.56-.07.84,0,.08-.01.17-.02.25,0,.09-.01.17-.02.26,0,.11-.01.22-.02.33,0,.11-.01.21-.02.32,0,.18-.02.35-.03.53,0,.08,0,.15,0,.23,0,.08,0,.16,0,.25-.03.69-.04,1.38-.04,2.07,0,.31,0,.63,0,.94,0,.11,0,.23,0,.34,0,.13,0,.27.01.4,0,.07,0,.14,0,.2,0,.13,0,.25.01.38.01.28.02.56.04.83,0,.1.01.2.02.3.05.87.12,1.73.21,2.58h-8.95c-.23-1.99-.35-4-.35-6.05,0-10.98,3.41-21.16,9.22-29.55,1.08-1.56,2.24-3.05,3.48-4.48,2.7-3.12,5.78-5.91,9.15-8.3,3.46-2.46,7.24-4.51,11.26-6.08.43-.17.86-.33,1.3-.49,1.06-.38,2.13-.73,3.23-1.04.06-.02.13-.04.19-.05,1.04-.29,2.09-.55,3.16-.78,2.32-.5,3.37-3.26,1.95-5.16-.88-1.17-2.31-2.12-4.62-2.17,1.11-1.06,2.61-1.71,4.26-1.71,2.09,0,3.94,1.04,5.05,2.63-.51-3.8-3.53-6.81-7.33-7.32.95-.37,1.99-.57,3.07-.57M126.91,28.27c-1.3,0-2.58.24-3.78.7-.85.33-1.38,1.19-1.27,2.1.11.91.81,1.63,1.72,1.75.79.11,1.53.35,2.21.71-1.99.08-3.87.87-5.31,2.26-.59.56-.78,1.42-.48,2.17.29.75,1.01,1.26,1.82,1.28,1.39.03,2.39.48,3.06,1.37.37.49.24,1,.17,1.19-.07.2-.31.68-.93.81-1.1.24-2.2.51-3.28.81-.06.01-.14.04-.23.06-1.09.31-2.22.67-3.32,1.07-.45.16-.9.33-1.35.5-4.13,1.61-8.07,3.73-11.69,6.31-3.49,2.48-6.69,5.39-9.5,8.62-1.28,1.48-2.5,3.04-3.61,4.65-6.27,9.04-9.58,19.65-9.58,30.69,0,2.1.12,4.22.37,6.28.12,1.01.97,1.77,1.99,1.77h8.95c.57,0,1.11-.24,1.49-.66.38-.42.56-.99.5-1.55-.09-.8-.16-1.64-.21-2.49v-.07s-.02-.2-.02-.2c-.02-.28-.03-.54-.04-.81v-.36s-.02-.17-.02-.17c0-.17,0-.29-.01-.41v-.34c-.01-.3-.01-.6-.01-.9,0-.69.01-1.36.04-2v-.23s.02-.22.02-.22c0-.19.02-.35.02-.52v-.1s.02-.19.02-.19l.02-.33v-.2s.02-.06.02-.06v-.11s.02-.12.02-.12c.02-.28.04-.55.07-.81l.04-.39c.03-.27.05-.53.08-.8l.04-.36.05-.44c.03-.26.07-.51.1-.77l-.03.28s0,.01,0,.02h0l-.05.51-.03.35-.03.32v.14c-.05.39-.08.82-.11,1.25h0s0,.03,0,.05v.1s-.03.4-.03.4l-.03.53v.12s-.02.4-.02.4c0,.16-.01.32-.02.49,0,.03,0,.06,0,.09l-.02.46c0,.2-.01.4-.02.6v.14s0,.27,0,.27c0,.04,0,.09,0,.13v.47s0,.53,0,.53c0,.23,0,.45,0,.67v.1s0,.08,0,.08v.63c.01.08.01.18.02.28,0,.18,0,.37.02.57.02.52.04,1.03.07,1.54l.04.74h0s0,.05,0,.07l.05.71.06.76c.09,1.04.95,1.83,1.99,1.83h22.32c.55,0,1.08-.23,1.46-.63.04-.04.08-.08.11-.13.37.47.95.76,1.57.76h26.44c.47,0,.92-.17,1.28-.47.11-.09.2-.19.29-.29.03.04.07.09.11.13.38.4.91.63,1.46.63h22.32c1.03,0,1.89-.78,1.99-1.81,0-.05,0-.1.01-.15.02-.18.03-.4.05-.63.02-.24.04-.49.05-.74,0-.01,0-.02,0-.04h0c.01-.21.03-.42.04-.64v-.1c.03-.52.06-1.03.07-1.54,0-.19.01-.38.02-.58,0-.08,0-.18,0-.28v-.13s0-.46,0-.46v-.11s0-.12,0-.12c0-.2,0-.43,0-.65s0-.47,0-.7c0-.46-.01-.92-.03-1.39,0-.18-.01-.37-.02-.55v-.24s-.02-.39-.02-.39v-.11s-.01-.12-.01-.12v-.07s0-.07,0-.07c0-.16-.02-.33-.03-.5-.01-.21-.02-.43-.04-.65h0s0-.02,0-.03h0l-.04-.6c-.02-.28-.04-.55-.07-.82-.02-.2-.04-.41-.06-.61-.02-.22-.04-.44-.07-.67,0-.04,0-.09-.01-.13.02.12.03.24.05.36v.1c.04.2.06.36.08.52,0,.01,0,.03,0,.04,0,.02,0,.04,0,.06.02.16.04.31.05.47l.03.25c.02.14.03.26.04.38l.03.28c.02.17.03.33.04.49,0,.01,0,.03,0,.04,0,.02,0,.03,0,.05.02.17.03.34.04.51v.08s.01.08.01.08c.01.15.02.3.03.46v.18s.02.08.02.08c.01.2.02.35.03.51v-.03s0,.07,0,.1c.01.21.02.41.03.62,0,.2.01.4.02.59v.17s.01.5.01.5v.08s0,.06,0,.06c0,.21,0,.4,0,.59,0,.3,0,.61,0,.91v.33c0,.13-.01.25-.02.37v.21s-.02.36-.02.36c-.01.27-.02.53-.04.8l-.02.29c-.05.84-.12,1.68-.21,2.49-.06.56.12,1.13.5,1.55.38.42.92.66,1.49.66h8.69c1.01,0,1.87-.76,1.99-1.77.24-2.06.36-4.18.36-6.28,0-16.49-7.4-31.86-20.3-42.16-4.2-3.35-8.85-6.05-13.82-8.01-.38-.15-.76-.29-1.14-.43-1.14-.42-2.32-.81-3.5-1.16-.05-.01-.09-.03-.14-.04-1.06-.31-2.14-.59-3.22-.82-.74-.16-.93-.76-.98-1.01-.05-.24-.1-.85.5-1.29.6-.43,1.39-.66,2.33-.68.81-.02,1.53-.52,1.82-1.27.29-.75.1-1.61-.48-2.17-1.45-1.38-3.32-2.18-5.31-2.26.67-.36,1.42-.61,2.21-.71.91-.12,1.61-.84,1.72-1.75.11-.91-.41-1.77-1.27-2.1-1.21-.47-2.48-.7-3.79-.7-3.42,0-6.46,1.61-8.39,4.13-1.9-2.78-5.1-4.62-8.72-4.62h0Z"/>
          </g>
          <g>
            <g>
              <path class="cls-1" d="M2.15,102.37c-.54,0-.98-.42-1-.96v-.19c0-4.98,1.96-9.65,5.53-13.14.4-.39.82-.77,1.26-1.12-.66-1.55-.99-3.19-.99-4.89,0-.7.06-1.4.17-2.08.18-1.08.5-2.14.96-3.14.98-2.13,2.53-3.95,4.48-5.25.89-.6,1.86-1.08,2.89-1.43.96-.33,1.97-.54,2.99-.63.35-.03.71-.05,1.08-.05,6.93,0,12.57,5.64,12.57,12.57,0,.15,0,.29,0,.44.39-.08.79-.15,1.19-.22.98-.16,1.97-.28,2.94-.36.9-.07,1.83-.11,2.74-.12h.34c.86,0,1.72.03,2.56.1.98.07,1.98.19,2.96.34,11.06,1.74,20.81,8.72,26.08,18.65.16.31.15.68-.03.98-.18.3-.51.48-.86.48H2.15Z"/>
              <path class="cls-8" d="M19.53,70.5c6.39,0,11.57,5.18,11.57,11.57,0,.58-.04,1.15-.13,1.71.81-.2,1.64-.36,2.47-.5.94-.16,1.89-.28,2.85-.35.88-.07,1.77-.11,2.67-.12.08,0,.15,0,.23,0h.11c.83,0,1.66.03,2.49.1.97.07,1.93.18,2.88.33,11.02,1.74,20.31,8.63,25.35,18.13H2.15s0-.1,0-.15c0-4.87,2-9.27,5.23-12.42.56-.55,1.17-1.07,1.8-1.54-.79-1.56-1.23-3.33-1.23-5.19,0-.65.05-1.29.16-1.91.17-1.02.47-1.99.89-2.89.9-1.97,2.34-3.64,4.12-4.83.82-.55,1.71-.99,2.66-1.31.88-.3,1.8-.5,2.75-.58.33-.03.66-.04,1-.04M19.53,68.5c-.39,0-.79.02-1.17.05-1.1.09-2.19.32-3.22.68-1.1.38-2.15.9-3.12,1.54-2.1,1.4-3.78,3.36-4.83,5.66-.5,1.09-.85,2.23-1.04,3.4-.12.73-.19,1.49-.19,2.24,0,1.59.27,3.13.8,4.59-.26.23-.52.47-.77.71-3.76,3.67-5.83,8.59-5.83,13.85,0,.07,0,.14,0,.21.03,1.08.92,1.94,2,1.94h67.86c.7,0,1.35-.37,1.71-.97.36-.6.38-1.35.05-1.97-5.41-10.21-15.43-17.38-26.8-19.17-1.01-.16-2.04-.28-3.05-.35-.86-.06-1.74-.1-2.62-.1h-.12c-.09,0-.18,0-.26,0-.91,0-1.86.05-2.79.12-1,.08-2.02.21-3.02.37-.01,0-.02,0-.04,0-.39-7.13-6.32-12.82-13.55-12.82h0Z"/>
            </g>
            <g>
              <path class="cls-1" d="M76.21,102.37c-.4,0-.76-.23-.92-.6-1.97-4.48-4.73-8.51-8.21-11.99-3.62-3.62-7.84-6.46-12.54-8.45-3.37-1.43-6.92-2.37-10.53-2.81-.88-.11-1.8-.19-2.74-.24-.69-.04-1.39-.05-2.09-.05,0,0-1.05.01-1.06.01-.27,0-.53-.11-.72-.3-.2-.2-.3-.47-.28-.75.05-.89.2-1.78.46-2.64.62-2.09,1.81-3.97,3.45-5.44,1.01-.91,2.15-1.63,3.39-2.14,1.43-.59,2.94-.89,4.48-.89.29,0,.56.01.82.03-.09-.6-.14-1.2-.14-1.81,0-4.43,2.45-8.45,6.39-10.49.51-.26,1.05-.4,1.62-.4,1.05,0,2.05.46,2.75,1.27,1.87,2.16,4.57,3.39,7.41,3.39,1.83,0,3.42-.29,3.98-.72,1.15-2.68,3.18-4.94,5.72-6.39,2.02-1.15,4.32-1.76,6.66-1.76,3.57,0,6.93,1.38,9.47,3.89.19.19.3.44.3.71,0,.27-.1.52-.29.71l-.52.54c-1.25,1.31-2.45,2.68-3.55,4.08l-.21.26c-.67.86-1.33,1.74-1.96,2.65-.47.67-.93,1.36-1.36,2.05-3.62,5.68-6.19,11.87-7.65,18.39l-.78,4.18c-.3,2.04-.5,4.15-.59,6.23,0,0,0,.01,0,.02-.03.81-.05,1.62-.05,2.41,0,2,.1,4,.3,5.95.03.28-.06.56-.25.77-.19.21-.46.33-.74.33h-.03Z"/>
              <path class="cls-8" d="M84.13,50.21c3.42,0,6.51,1.37,8.77,3.6-.08.08-.15.15-.22.23,0,0,0,0,0,0-.1.11-.21.21-.31.32-1.27,1.33-2.48,2.72-3.61,4.15-.06.08-.14.18-.22.28-.67.86-1.34,1.76-1.98,2.68-.47.68-.94,1.38-1.39,2.08-3.69,5.79-6.29,12.07-7.78,18.71l-.79,4.22h0c-.31,2.1-.52,4.24-.6,6.37,0,0,0,.01,0,.02-.03.82-.05,1.65-.05,2.46,0,2.03.1,4.06.31,6.05h-.03c-2.02-4.59-4.85-8.73-8.42-12.3-3.71-3.71-8.04-6.63-12.85-8.67-3.47-1.47-7.08-2.43-10.8-2.88-.93-.11-1.87-.19-2.81-.24-.71-.04-1.43-.06-2.14-.06-.21,0-.43,0-.65,0-.14,0-.28,0-.41,0,.04-.83.19-1.64.42-2.41.57-1.94,1.69-3.66,3.15-4.98.91-.82,1.96-1.49,3.11-1.96,1.27-.53,2.65-.82,4.1-.82h.09c.69,0,1.36.08,2.02.21-.27-.95-.42-1.95-.42-2.99,0-4.18,2.37-7.8,5.85-9.6.37-.19.77-.28,1.17-.28.75,0,1.48.33,2,.92,1.98,2.29,4.9,3.74,8.17,3.74.99,0,3.85-.09,4.82-1.13,1.06-2.59,2.97-4.74,5.38-6.11,1.82-1.04,3.92-1.63,6.16-1.63M84.13,48.21c-2.51,0-4.98.65-7.15,1.89-2.64,1.5-4.76,3.82-6.01,6.57-.45.18-1.59.41-3.19.41-2.56,0-4.98-1.11-6.66-3.04-.89-1.03-2.17-1.61-3.51-1.61-.73,0-1.44.17-2.09.51-4.27,2.21-6.93,6.57-6.93,11.37,0,.26,0,.52.02.78-1.58.04-3.11.36-4.58.97-1.35.56-2.59,1.34-3.68,2.32-1.77,1.59-3.06,3.63-3.74,5.9-.28.94-.44,1.91-.5,2.87-.03.56.17,1.1.56,1.5.38.39.89.61,1.43.61.02,0,.03,0,.05,0,.13,0,.24,0,.36,0,.24,0,.44,0,.65,0,.69,0,1.38.02,2.04.05.91.05,1.81.13,2.67.23,3.52.43,6.97,1.35,10.26,2.74,4.58,1.94,8.69,4.71,12.22,8.24,3.39,3.39,6.09,7.32,8.01,11.69.32.73,1.04,1.19,1.83,1.19.57,0,1.12-.24,1.5-.66.38-.42.58-.98.52-1.54-.2-1.91-.3-3.88-.3-5.84,0-.79.02-1.58.05-2.37,0,0,0-.02,0-.03h0c.08-2.05.28-4.11.58-6.13l.77-4.14c1.44-6.39,3.96-12.46,7.51-18.04.42-.66.87-1.34,1.34-2.01.61-.88,1.26-1.75,1.91-2.59.08-.11.15-.19.21-.27,1.09-1.38,2.27-2.73,3.5-4.02l.3-.31s0,0,0,0l.2-.2c.38-.38.59-.89.59-1.42s-.22-1.04-.59-1.42c-2.73-2.69-6.34-4.18-10.17-4.18h0Z"/>
            </g>
            <g>
              <path class="cls-1" d="M33.54,73.18c-.32,0-.63-.15-.82-.42-.53-.75-1.13-1.46-1.78-2.11-3.05-3.05-7.11-4.73-11.42-4.73,0,0-.17,0-.18,0-.32,0-.62-.15-.81-.41-.2-.27-.24-.62-.13-.94,2.03-5.45,7.18-9.18,12.96-9.45-.23-1.09-.34-2.2-.34-3.33,0-8.9,7.24-16.15,16.15-16.15,2.35,0,4.61.49,6.73,1.47.84.39,1.64.85,2.4,1.37.75-.55,1.55-1.04,2.38-1.45.77-.38,1.58-.7,2.39-.95,1.53-.47,3.14-.71,4.76-.71,1.73,0,3.42.27,5.04.8.13-.14.27-.29.41-.42.88-.87,1.88-1.61,2.96-2.19,1.8-.96,3.84-1.47,5.89-1.47,6.14,0,11.39,4.53,12.4,10.48.4-.04.8-.06,1.2-.06,3.14,0,6.14,1.16,8.46,3.28.23.21.34.5.32.81-.02.3-.18.58-.43.76-.36.25-.72.51-1.09.77-.67.49-1.29.96-1.89,1.43-.5.4-1,.8-1.48,1.21-.19.16-.42.24-.65.24-.26,0-.52-.1-.71-.3-.56-.57-1.17-1.1-1.79-1.58-2.01-1.53-4.26-2.58-6.68-3.11-1.2-.26-2.43-.39-3.67-.39-.44,0-.87.02-1.31.05-2.5.19-4.96.95-7.12,2.18-2.56,1.46-4.72,3.57-6.24,6.12-.17.28-.46.46-.79.49-.27.02-.58.03-.91.03-1.8,0-3.52-.79-4.7-2.15-1.38-1.59-3.37-2.51-5.46-2.51-1.13,0-2.26.27-3.27.79-1.27.66-2.44,1.49-3.48,2.47-.98.92-1.83,1.96-2.53,3.09-1.12,1.8-1.84,3.78-2.15,5.88-.06.41-.36.74-.76.83-.66.15-1.31.35-1.94.59-1.08.41-2.12.95-3.08,1.59-.74.49-1.44,1.06-2.1,1.69-1.71,1.63-2.99,3.57-3.8,5.75-.13.35-.44.59-.81.64-.04,0-.09,0-.13,0Z"/>
              <path class="cls-8" d="M80.14,33.09c6.07,0,11.04,4.67,11.53,10.61.67-.12,1.36-.19,2.07-.19,3,0,5.73,1.14,7.79,3.02-.36.25-.74.51-1.11.78-.02.01-.03.02-.05.04-.63.46-1.27.94-1.87,1.42-.51.4-1.02.82-1.5,1.23h0c-.59-.6-1.22-1.16-1.9-1.67-2.12-1.62-4.52-2.74-7.08-3.29-1.26-.27-2.56-.42-3.88-.42-.46,0-.92.02-1.39.05-2.65.2-5.23.99-7.54,2.31-2.72,1.55-5,3.8-6.6,6.48-.25.02-.53.03-.84.03-1.51,0-2.95-.66-3.95-1.81-1.57-1.81-3.84-2.85-6.22-2.85-1.29,0-2.58.31-3.73.91-1.36.7-2.61,1.59-3.71,2.63-1.03.97-1.94,2.07-2.69,3.29-1.19,1.92-1.97,4.05-2.29,6.27-.71.16-1.4.37-2.07.63-1.15.44-2.25,1.01-3.28,1.7-.79.53-1.54,1.13-2.24,1.8-1.82,1.74-3.19,3.83-4.04,6.13-.56-.79-1.19-1.54-1.89-2.24-3.24-3.24-7.55-5.02-12.13-5.02-.06,0-.12,0-.18,0,1.91-5.15,6.87-8.81,12.68-8.81.21,0,.42,0,.63.01-.41-1.37-.63-2.82-.63-4.33,0-8.36,6.78-15.15,15.15-15.15,2.25,0,4.39.49,6.31,1.37.99.46,1.93,1.02,2.79,1.67.02.01.03.02.05.04.86-.7,1.8-1.3,2.81-1.8.72-.35,1.46-.65,2.24-.89,1.41-.44,2.91-.67,4.47-.67,1.88,0,3.69.34,5.35.97.25-.31.52-.6.8-.88.8-.8,1.72-1.48,2.73-2.01,1.62-.86,3.46-1.35,5.43-1.35M80.14,31.09c-2.22,0-4.42.55-6.37,1.58-1.17.62-2.24,1.41-3.19,2.35-1.54-.44-3.13-.67-4.75-.67-1.73,0-3.43.26-5.06.76-.86.26-1.71.6-2.53,1.01-.68.33-1.33.72-1.96,1.14-.63-.4-1.28-.75-1.96-1.06-2.26-1.04-4.66-1.56-7.15-1.56-9.45,0-17.15,7.69-17.15,17.15,0,.81.06,1.62.17,2.42-5.71.69-10.69,4.53-12.72,10-.23.63-.14,1.33.25,1.87.38.52.98.83,1.62.83.03,0,.05,0,.08,0h.11c4.05,0,7.85,1.58,10.72,4.44.61.61,1.17,1.27,1.67,1.98.38.53.99.84,1.63.84.09,0,.17,0,.26-.02.73-.1,1.35-.59,1.61-1.29.76-2.04,1.95-3.85,3.55-5.38.61-.59,1.28-1.12,1.97-1.58.9-.6,1.87-1.11,2.88-1.49.59-.22,1.2-.41,1.81-.55.8-.19,1.41-.84,1.52-1.66.29-1.97.96-3.82,2.01-5.5.66-1.06,1.45-2.03,2.36-2.89.98-.92,2.07-1.7,3.26-2.31.86-.45,1.84-.68,2.81-.68,1.8,0,3.52.79,4.71,2.16,1.37,1.59,3.36,2.5,5.46,2.5.32,0,.65-.01.98-.03.65-.05,1.24-.41,1.58-.97,1.43-2.4,3.46-4.39,5.87-5.76,2.04-1.16,4.36-1.87,6.71-2.05.4-.03.82-.05,1.23-.05,1.17,0,2.33.12,3.46.37,2.28.5,4.4,1.48,6.29,2.93.59.45,1.16.95,1.68,1.49.38.38.89.6,1.43.6.03,0,.06,0,.1,0,.45-.02.88-.2,1.22-.49.46-.39.94-.79,1.43-1.17.58-.46,1.19-.92,1.81-1.37,0,0,0,0,.01-.01.01,0,.03-.02.03-.02.36-.26.72-.51,1.07-.76.5-.35.82-.9.86-1.51.04-.61-.2-1.2-.65-1.62-2.5-2.28-5.75-3.54-9.13-3.54-.13,0-.26,0-.4,0-1.43-5.99-6.88-10.43-13.2-10.43h0Z"/>
            </g>
            <g>
              <path class="cls-1" d="M106.39,44.51c-.27,0-.54-.11-.74-.32-.16-.17-.32-.34-.49-.51-2.55-2.55-5.76-4.13-9.3-4.6-.35-.05-.66-.28-.79-.61-.89-2.16-2.22-4.06-3.95-5.66-3-2.77-6.89-4.3-10.97-4.3-3.58,0-7.11,1.21-9.92,3.4-.18.14-.39.21-.62.21-.06,0-.12,0-.18-.02-1.18-.22-2.39-.33-3.59-.33-1.42,0-2.83.15-4.21.45-.07.02-.14.02-.21.02-.39,0-.75-.22-.91-.59-.39-.85-.86-1.69-1.39-2.5-.18-.27-.21-.61-.1-.91,2.65-6.92,9.41-11.56,16.82-11.56,4.55,0,8.85,1.68,12.18,4.74,1.57-.44,3.19-.66,4.83-.66,8.52,0,15.81,5.91,17.6,14.16,1.44.21,2.84.6,4.18,1.15.39.16.63.54.62.95-.02.67.07,1.33.26,1.98.03.12.07.23.11.34.19.52-.08,1.09-.6,1.28-.31.11-.61.23-.92.35-2.33.9-4.63,1.98-6.84,3.19l-.38.21c-.15.09-.32.13-.49.13Z"/>
              <path class="cls-8" d="M75.84,17.69c4.64,0,8.84,1.86,11.91,4.86,1.61-.51,3.33-.78,5.1-.78,8.39,0,15.36,6.07,16.76,14.06,1.63.17,3.18.58,4.64,1.18-.02.76.07,1.53.3,2.29.04.14.08.27.13.4-.31.12-.63.23-.94.36-2.37.92-4.71,2.01-6.95,3.24-.13.07-.26.14-.39.21-.17-.19-.34-.37-.52-.55-2.7-2.7-6.15-4.39-9.88-4.88-.94-2.26-2.36-4.31-4.19-6.01-3.18-2.94-7.32-4.56-11.65-4.56-3.87,0-7.55,1.29-10.54,3.61-1.24-.23-2.5-.34-3.77-.34-1.5,0-2.98.16-4.43.47-.42-.92-.91-1.8-1.46-2.64,2.45-6.39,8.64-10.92,15.89-10.92M75.84,15.69c-7.82,0-14.96,4.91-17.76,12.21-.23.6-.16,1.28.2,1.82.5.76.95,1.56,1.31,2.36.33.72,1.05,1.17,1.82,1.17.14,0,.28-.01.42-.05,1.31-.28,2.66-.43,4-.43,1.14,0,2.29.1,3.41.31.12.02.24.03.36.03.44,0,.88-.15,1.23-.42,2.67-2.09,5.89-3.19,9.31-3.19,3.83,0,7.48,1.43,10.29,4.03,1.62,1.5,2.87,3.28,3.71,5.31.27.66.88,1.12,1.59,1.22,3.32.43,6.34,1.92,8.72,4.31.16.16.32.32.47.48.39.42.93.65,1.47.65.34,0,.68-.09.99-.26l.28-.16.08-.05c2.16-1.18,4.42-2.24,6.71-3.13.3-.12.6-.23.9-.34,1.03-.38,1.57-1.52,1.19-2.56-.03-.09-.06-.18-.09-.28-.16-.55-.23-1.11-.22-1.67.02-.83-.47-1.59-1.24-1.91-1.2-.5-2.46-.86-3.74-1.1-2.13-8.36-9.65-14.28-18.42-14.28-1.55,0-3.08.19-4.57.55-3.45-3-7.83-4.64-12.44-4.64h0Z"/>
            </g>
            <g>
              <path class="cls-1" d="M5.37,73.19c-.37-.04-.68-.28-.81-.62-.67-1.7-1.01-3.49-1.01-5.33,0-7.96,6.44-14.45,14.38-14.52-.57-1.58-.86-3.23-.86-4.94,0-7.69,6.08-14.06,13.69-14.5,2.33-5.26,7.47-8.62,13.27-8.62,3.99,0,7.7,1.58,10.46,4.46,1,1.04,1.84,2.23,2.5,3.51.22.43.1.96-.29,1.25-.18.13-.39.2-.6.2-.15,0-.29-.03-.43-.1-.82-.4-1.69-.74-2.57-1.01-1.91-.6-3.9-.9-5.93-.9-2.66,0-5.24.52-7.68,1.55-2.35.99-4.46,2.41-6.27,4.23-1.81,1.81-3.23,3.92-4.23,6.27-.97,2.31-1.49,4.75-1.55,7.25,0,.43-.3.81-.71.94-2.81.85-5.41,2.42-7.51,4.52-2.6,2.6-4.33,5.87-5,9.46-.06.34-.3.62-.62.75-2.06.81-3.91,2.03-5.5,3.62-.66.66-1.26,1.38-1.8,2.13-.19.27-.49.42-.82.42-.04,0-.08,0-.12,0Z"/>
              <path class="cls-8" d="M44.03,25.66c3.83,0,7.29,1.59,9.74,4.15.93.96,1.71,2.07,2.33,3.27h0c-.88-.42-1.78-.77-2.7-1.06-1.99-.63-4.09-.95-6.23-.95-2.8,0-5.51.55-8.07,1.63-2.47,1.04-4.68,2.54-6.59,4.44-1.9,1.9-3.4,4.12-4.44,6.59-1.02,2.42-1.57,4.98-1.63,7.62-2.96.9-5.68,2.52-7.93,4.77-2.76,2.76-4.57,6.22-5.27,9.98-2.16.85-4.15,2.15-5.84,3.84-.71.7-1.34,1.46-1.91,2.26-.61-1.54-.94-3.21-.94-4.96,0-7.47,6.05-13.52,13.52-13.52.48,0,.94.02,1.41.07-.9-1.81-1.41-3.85-1.41-6.01,0-7.42,5.97-13.44,13.37-13.52,1.97-5.04,6.87-8.6,12.6-8.6M44.03,23.66c-6,0-11.34,3.36-13.93,8.67-7.85.76-14.03,7.43-14.03,15.45,0,1.37.17,2.71.52,4.01-7.87.75-14.04,7.39-14.04,15.45,0,1.97.36,3.88,1.08,5.7.27.68.89,1.16,1.62,1.25.08,0,.16.01.24.01.64,0,1.25-.31,1.63-.84.5-.71,1.07-1.39,1.69-2,1.49-1.49,3.23-2.63,5.16-3.39.64-.25,1.11-.82,1.23-1.5.63-3.39,2.26-6.47,4.72-8.93,1.99-1.99,4.44-3.47,7.1-4.27.83-.25,1.4-1.01,1.42-1.87.05-2.38.54-4.7,1.47-6.89.94-2.23,2.29-4.23,4.01-5.95,1.72-1.72,3.72-3.07,5.95-4.01,2.31-.98,4.77-1.47,7.29-1.47,1.93,0,3.82.29,5.63.86.83.26,1.65.59,2.43.96.28.13.57.2.86.2.51,0,1.01-.19,1.39-.56.63-.61.8-1.56.4-2.35-.7-1.38-1.6-2.64-2.67-3.75-2.95-3.07-6.92-4.76-11.18-4.76h0Z"/>
            </g>
          </g>
          <g>
            <g>
              <path class="cls-1" d="M238.62,58.26c-.14,0-.29-.03-.42-.09-4.26-1.95-7.77-5.34-9.88-9.53-.49-.98-.9-1.99-1.22-3.01l-1.47-4.71-2.24,4.41c-1.57,3.1-3.92,5.77-6.78,7.73-.41.28-.82.54-1.25.79-.15.09-.33.14-.5.14-.09,0-.17-.01-.26-.03-.26-.07-.48-.24-.61-.47-.82-1.43-1.46-2.99-1.92-4.61-.53-1.89-.8-3.84-.79-5.78,0-.83.07-1.67.18-2.49l.46-3.38-3.18,1.24c-.28.11-.56.21-.84.3-1.95.65-4.03.99-6.21,1.01h-.17c-2.37,0-4.78-.4-6.95-1.16-.3-.11-.54-.35-.63-.66-.09-.31-.03-.64.17-.9.31-.39.62-.77.96-1.14,2.33-2.59,5.3-4.56,8.59-5.7l5.48-1.9s-5.48-1.9-5.49-1.9c-.17-.06-.65-.24-.65-.24-.13-.05-.53-.21-.53-.21-.15-.06-.3-.13-.45-.2-.21-.09-.38-.17-.54-.25l-.65-.33c-.13-.07-.27-.15-.41-.22,0,0-.56-.32-.57-.33l.48-.88-.59.81c-.1-.06-.48-.3-.48-.3-.12-.07-.25-.16-.38-.25-.22-.15-.37-.26-.52-.36,0,0-.6-.45-.6-.45-.1-.08-.43-.34-.43-.34l.62-.78-.04-1c1.76-.07,3.53-.32,5.26-.74,1.02-.17,2-.24,2.98-.24,5.26,0,10.54,2.16,14.12,5.78.37.38.9.6,1.43.6.07,0,.13,0,.2,0,.61-.06,1.14-.39,1.48-.89,3.6-5.47,9.95-8.87,16.58-8.87.58,0,1.16.03,1.74.08.23.02.44.12.6.27,2.05,1.96,3.63,4.29,4.69,6.9.14.33.08.71-.14.99-.19.24-.48.38-.79.38-.05,0-.1,0-.14-.01-1.16-.17-2.36-.26-3.55-.26-4.25,0-8.47,1.1-11.88,3.08-.79.46-1.17,1.4-.92,2.28.24.86,1.04,1.46,1.94,1.46h.5c10.54,0,15.97,7.35,17.39,9.6.58.93,1.26,1.76,2.05,2.53.42.41.88.82,1.34,1.22.33.28.44.74.28,1.14-.15.38-.52.62-.93.62-.02,0-.68-.03-.68-.03l-.6-.04-.85-.09-.6-.08-.51-.08c-.25-.05-.42-.08-.59-.12l-.76-.18c-.18-.04-.67-.18-.67-.18-.11-.03-.58-.17-.58-.17l-.49-.16-.61-.22-.54-.22s-.52-.23-.52-.23c-.17-.08-.35-.16-.51-.25l-3.45-1.72.57,3.82c.07.44.12.89.15,1.33.04.45.06.9.06,1.35.04,2.69-.46,5.42-1.43,7.91-.1.26-.3.46-.56.56-.12.05-.25.07-.38.07Z"/>
              <path class="cls-8" d="M239.97,17.69c.55,0,1.1.02,1.64.08,1.94,1.86,3.46,4.1,4.46,6.56-1.22-.18-2.46-.27-3.7-.27-4.35,0-8.73,1.09-12.39,3.22-1.18.69-1.75,2.09-1.38,3.41.37,1.3,1.56,2.19,2.91,2.19.02,0,.03,0,.05,0,.15,0,.3,0,.45,0,10.02,0,15.18,6.98,16.54,9.14l.03.04c.6.96,1.33,1.85,2.17,2.67.45.44.92.86,1.4,1.27-.02,0-.04,0-.06,0-.08,0-.15,0-.23,0-.11,0-.23-.01-.34-.02-.08,0-.16-.01-.24-.02-.11,0-.22-.02-.33-.03-.08,0-.16-.02-.24-.02-.11-.01-.22-.02-.33-.04-.08,0-.16-.02-.24-.03-.11-.01-.23-.03-.34-.05-.08-.01-.15-.02-.22-.03-.12-.02-.24-.04-.37-.06-.06-.01-.13-.02-.19-.03-.16-.03-.33-.06-.49-.1-.02,0-.04,0-.06-.01-.18-.04-.37-.08-.55-.13-.05-.01-.1-.03-.16-.04-.13-.03-.26-.06-.39-.1-.07-.02-.13-.04-.2-.06-.11-.03-.23-.06-.34-.1-.07-.02-.14-.04-.21-.07-.11-.03-.21-.07-.32-.11-.07-.02-.14-.05-.21-.07-.1-.04-.21-.08-.31-.11-.07-.03-.14-.05-.21-.08-.1-.04-.21-.08-.31-.13-.06-.03-.13-.05-.19-.08-.11-.05-.23-.1-.34-.15-.05-.02-.11-.05-.16-.07-.16-.08-.33-.15-.48-.23l-5.17-2.58.85,5.72c.06.42.11.84.15,1.27.03.42.05.85.06,1.28.04,2.56-.43,5.16-1.36,7.53-4.05-1.86-7.4-5.1-9.4-9.07-.46-.92-.85-1.87-1.16-2.86l-2.21-7.06-3.35,6.6c-1.51,2.97-3.74,5.5-6.45,7.36-.39.26-.78.52-1.19.75-.78-1.37-1.39-2.85-1.82-4.39-.5-1.79-.76-3.65-.75-5.5,0-.79.06-1.58.17-2.37l.69-5.07-4.76,1.86c-.26.1-.52.2-.79.29-1.87.63-3.88.94-5.9.96-.05,0-.11,0-.16,0-2.26,0-4.53-.37-6.62-1.1.29-.37.59-.74.91-1.09,2.21-2.45,5.01-4.32,8.18-5.42l8.21-2.84-8.21-2.84s0,0,0,0c-.16-.06-.32-.11-.48-.17-.05-.02-.1-.04-.15-.06-.12-.05-.23-.09-.35-.14-.05-.02-.1-.04-.15-.06-.15-.06-.29-.12-.43-.19-.01,0-.03-.01-.04-.02-.16-.07-.31-.14-.47-.22-.05-.02-.09-.04-.14-.07-.11-.06-.23-.11-.34-.17-.05-.02-.1-.05-.14-.07-.13-.07-.26-.14-.39-.21-.02-.01-.04-.02-.06-.03-.15-.08-.3-.17-.45-.26-.04-.03-.08-.05-.12-.08-.11-.07-.22-.13-.33-.2-.05-.03-.09-.06-.13-.09-.12-.08-.25-.16-.37-.24-.02-.02-.05-.03-.07-.05-.14-.1-.29-.2-.43-.3-.03-.03-.07-.05-.1-.08-.11-.08-.22-.16-.32-.24-.04-.03-.08-.06-.12-.09-.12-.09-.23-.18-.34-.27-.02-.02-.05-.04-.07-.05-.01,0-.02-.02-.03-.02,1.82-.07,3.66-.33,5.46-.77.9-.14,1.82-.21,2.74-.21,4.94,0,9.98,2.01,13.41,5.48.57.57,1.34.89,2.14.89.1,0,.2,0,.3-.01.9-.09,1.72-.58,2.22-1.34,3.44-5.22,9.54-8.41,15.75-8.41M239.97,15.69c-6.96,0-13.64,3.57-17.42,9.31-.17.26-.44.42-.74.45-.03,0-.06,0-.1,0-.27,0-.53-.11-.72-.3-3.76-3.8-9.31-6.07-14.83-6.07-1.03,0-2.06.08-3.05.24-.05,0-.11.02-.16.03-1.67.41-3.37.64-5.07.71-.82.03-1.54.56-1.81,1.34-.27.78-.04,1.64.59,2.18,0,0,.04.03.04.04l.12.09c.1.08.23.19.36.29h0s.08.06.08.06c0,0,.04.03.05.04.12.09.23.17.35.26.02.01.03.02.04.03,0,0,.05.04.05.04.18.13.33.24.49.34.01,0,.04.03.06.04,0,0,.02.01.03.02.13.09.27.18.41.27l.14.09c.11.07.24.15.36.22l.05.03s.07.04.09.06c.16.09.32.19.48.28.01,0,.03.02.04.02.02,0,.03.02.05.03.14.08.28.15.41.22.05.03.12.06.18.09.09.05.22.11.34.17.05.02.11.05.17.08.16.08.33.16.5.23.02,0,.05.02.07.03.14.06.3.13.45.2l.09.04.1.04c.1.04.23.1.37.15l.07.03.09.04c.17.06.34.13.52.19.02,0,.04.01.06.02l2.7.94-2.75.95c-3.45,1.19-6.57,3.26-9.01,5.97-.36.4-.69.8-1,1.2-.39.51-.52,1.18-.34,1.79s.65,1.11,1.26,1.32c2.28.8,4.8,1.22,7.28,1.22h.18c2.28-.02,4.47-.38,6.52-1.06.29-.1.59-.21.88-.32l1.6-.63-.23,1.7c-.12.86-.18,1.74-.19,2.62-.01,2.04.26,4.07.82,6.06.48,1.7,1.16,3.33,2.01,4.83.26.46.7.8,1.22.94.17.05.35.07.52.07.35,0,.7-.09,1.01-.27.45-.26.89-.54,1.31-.83,3-2.05,5.46-4.85,7.11-8.1l1.12-2.21.74,2.37c.33,1.07.76,2.13,1.28,3.16,2.21,4.4,5.89,7.95,10.36,10,.26.12.55.18.83.18.25,0,.51-.05.75-.15.51-.21.91-.61,1.11-1.13,1.02-2.61,1.54-5.47,1.5-8.28,0-.47-.03-.95-.06-1.41-.04-.48-.09-.95-.16-1.41l-.29-1.92,1.73.87c.18.09.36.18.54.26l.11.05.05.02c.14.06.27.12.39.17.07.03.15.06.23.09.08.04.21.09.33.13l.16.06.06.02.1.04c.09.03.18.07.27.1h.04c.07.04.14.06.21.09l.32.1c.11.03.18.06.26.08.11.03.24.07.37.11.05.02.13.04.21.06.14.04.29.08.44.11.07.02.12.03.18.05.18.04.37.09.57.13.02,0,.07.01.1.02.17.04.33.07.5.1.02,0,.03,0,.05,0l.16.03c.16.03.3.05.44.07.07.01.15.02.24.04.12.02.25.04.38.05l.25.03.24.03h.1s.28.04.28.04l.38.03.26.02.38.02h.06c.07,0,.13,0,.2.01.01,0,.02,0,.03,0,.02,0,.05,0,.07,0,.81,0,1.54-.49,1.85-1.24.33-.8.1-1.73-.56-2.29-.44-.37-.88-.77-1.29-1.17-.73-.71-1.36-1.49-1.87-2.31,0,0-.03-.05-.03-.05-1.48-2.35-7.18-10.06-18.23-10.06-.16,0-.33,0-.49,0-.47,0-.87-.3-.99-.73-.12-.44.07-.91.46-1.15,3.26-1.9,7.3-2.95,11.38-2.95,1.15,0,2.29.08,3.41.25.1.01.19.02.29.02.61,0,1.19-.28,1.57-.77.44-.56.55-1.32.28-1.99-1.12-2.75-2.78-5.19-4.93-7.25-.33-.31-.75-.51-1.2-.55-.6-.06-1.22-.08-1.83-.08h0Z"/>
            </g>
            <g>
              <path class="cls-2" d="M194.69,102.37c-.28,0-.55-.12-.74-.33-.19-.21-.28-.49-.25-.77.2-1.95.3-3.95.3-5.95,0-11.92-3.58-23.39-10.34-33.16-2.99-4.32-6.56-8.22-10.59-11.59-.34-.29-.69-.57-1.06-.87-4.52-3.6-9.53-6.5-14.88-8.61-.35-.14-.71-.27-1.06-.41-.49-.18-.76-.71-.61-1.21.19-.66.27-1.34.24-2.03-.02-.35.15-.68.45-.88,10.79-7.15,23.52-11.25,36.8-11.87.01,0,.03,0,.05,0,.27,0,.52.11.71.29.16.15.29.26.42.38l.61.52c.17.15.33.27.48.39.18.14.62.47.62.47l.55.4c.12.08.29.2.46.31.28.19.45.5.45.83s-.17.65-.45.83c-3.37,2.23-6.17,5.29-8.1,8.85l-.94,1.73,1.71.97c.38.21.76.42,1.14.61,2.73,1.35,5.86,2.18,9.04,2.42.62.04,1.24.07,1.85.07,1.56,0,3.1-.14,4.59-.42.06-.01.12-.02.18-.02.22,0,.44.08.62.22.23.18.36.45.38.74.19,4.06,1.36,8.04,3.39,11.5l.24.4c.16.26.32.52.5.77.25.38.52.75.8,1.12l.94,1.24,1.43-.61c.67-.28,1.34-.6,1.99-.95,2.81-1.5,5.27-3.51,7.32-5.97.19-.23.47-.36.77-.36.03,0,.05,0,.08,0,.32.03.62.21.78.49,2.63,4.43,6.66,8.01,11.34,10.07.87.38,1.77.72,2.68.99l1.54.47.79-1.41c.23-.42.45-.84.66-1.27,1.44-2.97,2.27-6.31,2.41-9.64.01-.28.14-.55.36-.73.18-.15.41-.23.64-.23.05,0,.09,0,.14.01.03,0,.09.01.12.02.27.07.52.13.77.19l1.01.21c.27.05.92.16.92.16.51.07,1.06.14,1.61.18h.18c.26.03.46.05.66.06l.46.02c.29.01.63.16.81.38,9.28,11.72,14.18,25.72,14.18,40.48,0,3.23-.24,6.47-.72,9.65-.07.49-.5.85-.99.85h-70.45Z"/>
              <path class="cls-7" d="M192.97,25.7s0,0,0,0c.01.01.02.02.04.03.14.13.29.26.43.39.05.04.1.08.15.13.12.1.23.2.35.3.05.04.1.08.14.12.16.13.32.26.48.39.01,0,.02.02.03.02.16.12.31.24.47.36.05.04.1.08.15.11.12.09.25.18.37.27.05.04.1.07.15.11.17.12.34.24.52.35-3.49,2.31-6.4,5.45-8.43,9.21l-1.4,2.59,2.56,1.46c.39.22.79.44,1.2.64,2.85,1.41,6.07,2.27,9.41,2.52.64.05,1.29.07,1.93.07,1.62,0,3.22-.15,4.77-.44.19,4.19,1.42,8.37,3.53,11.96.08.14.17.27.25.41.17.27.34.54.52.81.27.4.55.79.84,1.17l1.42,1.86,2.15-.91c.71-.3,1.4-.63,2.07-.99,2.92-1.56,5.5-3.67,7.61-6.21,2.73,4.6,6.89,8.31,11.8,10.47.91.4,1.84.75,2.8,1.04l2.31.7,1.18-2.11c.24-.43.47-.87.69-1.32,1.51-3.13,2.37-6.56,2.51-10.04,0,0,.01,0,.02,0,.27.07.53.14.8.2.09.02.18.04.26.06.19.04.38.08.58.12.1.02.19.04.29.06.2.04.39.07.59.1.08.01.17.03.26.04.56.08,1.13.15,1.71.2.09,0,.17.01.26.02.2.01.41.03.61.04.1,0,.2.01.3.01.08,0,.15,0,.23.01,9.14,11.55,13.96,25.3,13.96,39.86,0,3.22-.24,6.4-.71,9.5h-70.45c.2-1.98.31-4.02.31-6.05,0-12.13-3.64-23.79-10.52-33.73-3.04-4.39-6.67-8.36-10.78-11.79-.34-.29-.7-.58-1.08-.88-4.6-3.66-9.69-6.61-15.14-8.76-.36-.14-.72-.28-1.08-.41.22-.77.31-1.57.28-2.35,10.34-6.85,22.77-11.08,36.29-11.7M192.97,23.7s-.06,0-.09,0c-13.46.62-26.36,4.78-37.3,12.03-.58.39-.92,1.05-.89,1.75.02.57-.04,1.15-.2,1.7-.29,1.01.24,2.07,1.23,2.43.35.13.7.26,1.04.4,5.26,2.08,10.18,4.92,14.62,8.46.37.29.71.57,1.04.85,3.97,3.32,7.48,7.15,10.42,11.4,6.65,9.6,10.17,20.87,10.17,32.59,0,1.96-.1,3.93-.3,5.84-.06.56.13,1.12.51,1.54.38.42.92.66,1.48.66h70.45c.99,0,1.83-.72,1.98-1.7.49-3.23.73-6.52.73-9.8,0-14.99-4.98-29.2-14.4-41.1-.36-.45-.9-.73-1.48-.76h-.07s-.19-.01-.19-.01c-.08,0-.16,0-.24-.01-.21-.01-.4-.02-.59-.04h-.07s-.14-.02-.14-.02c-.52-.04-1.04-.1-1.57-.18-.09-.02-.19-.03-.28-.05-.17-.03-.35-.06-.54-.09h-.06s-.16-.04-.16-.04c-.23-.04-.4-.08-.58-.12l-.23-.05c-.28-.06-.51-.12-.75-.18-.04-.01-.08-.02-.13-.03-.06-.01-.12-.02-.18-.03-.08,0-.16-.01-.23-.01-.45,0-.9.15-1.26.44-.45.36-.72.9-.74,1.47-.14,3.2-.94,6.4-2.32,9.26-.2.42-.42.83-.63,1.22l-.39.7-.77-.23c-.88-.27-1.74-.59-2.57-.95-4.49-1.98-8.36-5.41-10.89-9.66-.33-.56-.91-.92-1.56-.97-.05,0-.11,0-.16,0-.59,0-1.16.26-1.54.72-1.96,2.36-4.32,4.28-7.02,5.72-.63.34-1.26.64-1.91.91l-.72.31-.47-.62c-.27-.36-.53-.72-.77-1.07-.16-.24-.32-.49-.48-.74l-.03-.05-.21-.34c-1.94-3.31-3.07-7.13-3.25-11.02-.03-.58-.3-1.12-.76-1.48-.36-.28-.79-.43-1.24-.43-.12,0-.25.01-.37.03-1.43.27-2.91.4-4.4.4-.59,0-1.19-.02-1.78-.06-3.06-.22-6.06-1.02-8.67-2.31-.37-.18-.74-.38-1.09-.58l-.86-.49.47-.87c1.85-3.42,4.54-6.36,7.77-8.5.56-.37.9-1,.9-1.67,0-.67-.34-1.3-.9-1.67-.15-.1-.31-.2-.46-.31-.05-.03-.09-.07-.14-.1l-.38-.28-.1-.07c-.17-.13-.31-.23-.45-.35-.01,0-.03-.02-.04-.03-.14-.11-.28-.22-.42-.34l-.12-.1s-.03-.02-.04-.03c-.1-.08-.2-.17-.3-.26l-.13-.11c-.16-.14-.29-.25-.41-.37h0s0,0,0,0c-.37-.36-.88-.57-1.4-.57h0Z"/>
            </g>
          </g>
        </g>
      </g>
      <text class="cls-9" transform="translate(340.44 92.49) scale(1.05 1)"><tspan x="0" y="0">P</tspan><tspan class="cls-10" x="68.13" y="0">R</tspan><tspan x="139.08" y="0">ODUCE</tspan><tspan x="0" y="94">HOUSE</tspan></text>
    </g>
  </g>
</svg>