<?xml version="1.0" encoding="UTF-8"?>
<svg id="Capa_2" data-name="Capa 2" xmlns="http://www.w3.org/2000/svg" viewBox="0 0 296.24 192.32">
  <defs>
    <style>
      .cls-1 {
        fill: #00c100;
      }

      .cls-1, .cls-2, .cls-3, .cls-4, .cls-5, .cls-6, .cls-7, .cls-8 {
        stroke-width: 0px;
      }

      .cls-2 {
        fill: #aa0202;
      }

      .cls-3 {
        fill: #894700;
      }

      .cls-4 {
        fill: #381d00;
      }

      .cls-5 {
        fill: #000;
      }

      .cls-6 {
        fill: #f2f2f2;
      }

      .cls-7 {
        fill: #380000;
      }

      .cls-8 {
        fill: #004c0e;
      }
    </style>
  </defs>
  <g id="Capa_1-2" data-name="Capa 1">
    <g>
      <g>
        <g>
          <polygon class="cls-3" points="13.05 125.43 1.75 101.61 294.48 101.61 283.18 125.43 13.05 125.43"/>
          <path class="cls-4" d="M292.74,102.72l-10.25,21.61H13.75l-10.25-21.61h289.24M296.23,100.51h0,0ZM296.23,100.51H0l12.35,26.03h271.54l12.35-26.03h0Z"/>
        </g>
        <g>
          <polygon class="cls-3" points="44.26 191.22 32.96 167.4 263.27 167.4 251.97 191.22 44.26 191.22"/>
          <path class="cls-4" d="M261.53,168.5l-10.25,21.61H44.96l-10.25-21.61h226.82M265.02,166.29h0,0ZM265.02,166.29H31.21l12.35,26.03h209.11l12.35-26.03h0Z"/>
        </g>
        <g>
          <polygon class="cls-3" points="28.65 158.32 17.35 134.51 278.88 134.51 267.58 158.32 28.65 158.32"/>
          <path class="cls-4" d="M277.13,135.61l-10.25,21.61H29.35l-10.25-21.61h258.03M280.63,133.4h0,0ZM280.63,133.4H15.61l12.35,26.03h240.32l12.35-26.03h0Z"/>
        </g>
      </g>
      <g>
        <g>
          <path class="cls-6" d="M197.13,95.81c-.31,0-.61-.13-.82-.37-.21-.23-.31-.54-.28-.86.1-.92.17-1.86.23-2.8l.02-.32c.02-.3.03-.6.04-.91l.04-1.43c0-.34,0-.68,0-1.02v-.85s-.02-.73-.02-.73l-.02-.67c0-.23-.05-1.12-.06-1.29,0,0-.07-1.04-.07-1.04,0,0-.08-1.04-.1-1.22l-.1-1.02c-.02-.2-.08-.66-.08-.66l-.09-.68c-.03-.22-.11-.76-.11-.77l-.09-.58c-.04-.27-.14-.87-.14-.87l-.12-.7s-.12-.62-.12-.64c-.04-.21-.22-1.07-.26-1.28l-.4-1.71-.2-.77c-.08-.3-.33-1.18-.33-1.18-.21-.71-.4-1.35-.61-1.99l-.18-.54c-.06-.18-.44-1.26-.44-1.26l-.32-.87-.23-.61-.23-.59-.27-.66-.32-.74s-.25-.56-.25-.57l-.24-.53c-.12-.26-.58-1.2-.58-1.2-.12-.24-.23-.47-.35-.7l-.3-.58c-.12-.22-.22-.42-.33-.62-.11-.21-.22-.4-.33-.59l-.29-.52s-.08-.15-.1-.19c.02.04.03.07.05.1l-.68-1.15-.35-.57.85-.73-.94.59-.27-.42c-.12-.2-.25-.38-.37-.56l-.27-.4.82-.76-.91.62-.39-.56-.29-.41s.04.07.04.07c.18.33.36.68.55,1.03,0,0,.59,1.17.59,1.17.09.19.19.39.28.59,0,0,.2.42.28.59l.27.58c.18.4.35.8.53,1.21.17.4.34.81.51,1.23,0,0,.4,1.03.48,1.25.07.19.24.64.24.64.14.4.28.8.42,1.2l.24.71.42,1.3.35,1.19c.08.26.15.53.22.8l.15.56-1.04.38,1.07-.28s.3,1.18.38,1.52l.28,1.2.29,1.38.14.7c.09.47.18.94.26,1.41l.22,1.37c.04.27.18,1.25.21,1.48.03.24.15,1.2.18,1.45l.08.72.13,1.39c.03.29.05.59.07.88,0,0,.05.75.05.77.01.16.03.39.04.63l.07,1.38.03.86c.02.5.02,1.01.03,1.51v.76s0,.94,0,.94l-.02.97-.02.62c-.02.56-.04,1.12-.07,1.67l-.05.82c-.02.31-.12,1.68-.13,1.69-.06.56-.53.99-1.1.99h-24.67c-.3,0-.6-.13-.81-.35-.21-.22-.32-.52-.3-.82l.1-1.83.06-1.41.02-.56c.03-.91.04-1.82.04-2.73v-.86s-.04-1.87-.04-1.87l-.05-1.41c0-.26-.06-1.3-.06-1.3-.02-.37-.04-.72-.06-1.07l-.04-.53c-.04-.62-.09-1.22-.15-1.82-.02-.25-.13-1.34-.13-1.34l-.1-.92c-.04-.42-.09-.82-.15-1.22l-.05-.42c-.05-.39-.22-1.54-.22-1.54l-.24-1.51-.25-1.45-.32-1.66-.19-.91c-.08-.38-.17-.77-.25-1.15l-.24-1.02c-.09-.38-.18-.75-.28-1.13l-.09-.36c-.09-.34-.18-.66-.27-.99l-.14-.48c-.23-.82-.47-1.62-.73-2.41l-.14-.43c-.11-.32-.21-.64-.32-.95l.31,1.31.13.59c.12.56.24,1.12.36,1.69.08.37.15.74.22,1.11l.32,1.76c.13.76.26,1.53.38,2.31.04.25.25,1.74.25,1.74.1.76.2,1.52.29,2.29.06.49.12.99.17,1.49l.24,2.46s.12,1.41.14,1.69l.11,1.58-1.09.22,1.1-.07c.03.54.06,1.09.09,1.63l.07,1.71.05,1.73.04,2.11v1.39c0,.44,0,.87,0,1.3,0,0-.04,2.23-.04,2.25-.01.62-.04,1.29-.06,1.96l-.05,1.12c0,.16-.04.32-.12.47-.19.37-.57.61-.99.61h-29.23c-.48,0-.9-.31-1.05-.76-.03-.1-.05-.21-.05-.32l-.04-.8c-.03-.77-.06-1.55-.08-2.33l-.03-1.74c0-.58-.01-1.17-.01-1.76,0-10.33,1.14-20.28,3.21-28.83-2.92,8.48-4.53,18.45-4.53,28.83,0,.91.01,1.82.04,2.72,0,.24.05,1.38.05,1.38l.08,1.62.05.81c.02.3-.09.6-.3.83s-.5.35-.81.35h-24.67c-.58,0-1.05-.44-1.1-1.01l-.08-1.02-.09-1.46c-.03-.56-.05-1.11-.07-1.68l-.03-.92-.02-1.62.02-1.68.03-1.18.05-1.18.07-1.15c.03-.49.07-.96.11-1.42,0,0,.13-1.39.13-1.4l.12-1.11c.03-.26.06-.52.1-.78l.1-.75.1-.68c.05-.32.1-.64.15-.96l.26-1.54.22-1.17s.16-.8.21-1c.05-.22.3-1.36.3-1.36l.31-1.25.3-1.15.16-.57.37-1.27.25-.82.26-.82.46-1.35.34-.93c.06-.17.46-1.21.46-1.21l.52-1.28.25-.58c.19-.44.38-.88.58-1.32l.34-.74.23-.49c.13-.26.57-1.14.57-1.14l.11-.22c.17-.33.35-.68.54-1.02l.06-.11-.78,1.12h0s-.05.08-.08.12c-.14.21-.43.66-.44.67-.16.24-.31.48-.46.73-.14.22-.67,1.11-.67,1.11-.14.25-.65,1.13-.65,1.13l-.41.75c-.28.51-.55,1.03-.81,1.55l-.53,1.1-.52,1.12-.49,1.14c-.11.26-.21.51-.32.77-.42,1.05-.82,2.12-1.18,3.19l-.11.33c-.37,1.11-.7,2.24-1,3.37l-.08.31c-.18.72-.36,1.43-.51,2.15l-.18.85c-.15.73-.28,1.45-.4,2.19l-.07.42c-.04.29-.09.61-.14.92-.04.3-.08.59-.12.88l-.11.89c-.04.31-.06.61-.09.91l-.04.45-.11,1.45-.04.71-.05,1.08c-.03.75-.04,1.5-.04,2.25,0,.34,0,.68,0,1.02l.04,1.43c.01.31.02.6.04.9l.02.33c.06.95.13,1.89.23,2.8.03.31-.07.62-.28.86-.21.23-.51.37-.82.37h-9.89c-.56,0-1.03-.42-1.1-.98-.26-2.25-.4-4.54-.4-6.82,0-11.98,3.59-23.49,10.39-33.29,1.21-1.75,2.53-3.44,3.92-5.04,3.04-3.51,6.51-6.66,10.3-9.35,3.93-2.8,8.2-5.1,12.68-6.85.49-.19.98-.37,1.47-.55,1.19-.43,2.42-.82,3.63-1.17l.17-.05c1.22-.34,2.42-.64,3.6-.9.84-.18,1.53-.77,1.83-1.59.31-.82.18-1.68-.33-2.37-.94-1.26-2.37-1.92-4.24-1.95-.45,0-.84-.29-1.01-.71s-.06-.89.27-1.2c1.48-1.41,3.43-2.19,5.48-2.19,1.1,0,2.18.23,3.17.66-1.3-1.95-3.4-3.32-5.83-3.64-.5-.07-.89-.46-.95-.97-.06-.5.23-.98.7-1.16,1.21-.46,2.48-.7,3.79-.7,4.24,0,7.91,2.51,9.58,6.13,1.77-3.34,5.28-5.58,9.33-5.58,1.31,0,2.58.24,3.79.7.47.18.76.66.7,1.16-.06.5-.45.9-.95.97-2.43.33-4.53,1.7-5.83,3.64.99-.43,2.06-.66,3.17-.66,2.05,0,4,.78,5.48,2.2.32.31.43.78.27,1.2-.16.42-.56.69-1.01.7-1.27.03-2.35.35-3.2.96-.82.59-1.19,1.54-.99,2.54.21,1.01.93,1.75,1.93,1.97,1.18.26,2.37.57,3.53.91.02,0,.11.03.13.04,1.25.36,2.54.79,3.78,1.25.41.15.83.31,1.23.47,5.4,2.13,10.44,5.06,14.99,8.69,14,11.18,22.02,27.85,22.02,45.74,0,2.29-.13,4.58-.39,6.82-.07.56-.54.98-1.1.98h-9.61Z"/>
          <path class="cls-5" d="M140.28,16.11c5.22,0,9.46,4.23,9.46,9.46,0,.06,0,.11,0,.17h.01c.19-5.05,4.35-9.09,9.45-9.09,1.19,0,2.34.22,3.39.63-4.2.56-7.53,3.89-8.1,8.09,1.23-1.75,3.27-2.91,5.59-2.91,1.83,0,3.49.72,4.71,1.89-1.65.03-2.89.5-3.83,1.17-2.54,1.83-1.71,5.8,1.35,6.49,1.17.26,2.33.56,3.47.89.02,0,.05.01.07.02,1.27.37,2.52.78,3.76,1.24.41.15.81.3,1.21.46,5.34,2.11,10.29,5,14.71,8.53,13.17,10.52,21.61,26.71,21.61,44.87,0,2.26-.13,4.49-.39,6.69h-9.61c.1-.94.18-1.89.24-2.85,0-.11.01-.22.02-.33.02-.31.03-.61.04-.92,0-.14.01-.28.01-.42,0-.08,0-.15,0-.23,0-.15,0-.3.01-.45,0-.12,0-.25,0-.37,0-.35,0-.69,0-1.04,0-.22,0-.44,0-.66,0-.07,0-.13,0-.2,0-.19,0-.37-.01-.56,0-.07,0-.14,0-.21,0-.23-.01-.45-.02-.68,0-.24-.02-.48-.03-.72,0-.02,0-.04,0-.06,0-.18-.02-.37-.03-.55,0-.04,0-.08,0-.12,0-.07,0-.14-.01-.21-.01-.2-.03-.41-.04-.61,0-.04,0-.08,0-.11-.01-.2-.03-.4-.05-.6,0-.03,0-.05,0-.08-.02-.19-.03-.38-.05-.58,0-.1-.02-.2-.03-.3-.01-.15-.03-.3-.05-.45,0-.1-.02-.2-.03-.3-.02-.18-.04-.36-.06-.55,0-.03,0-.07-.01-.11-.02-.19-.05-.38-.07-.57,0-.05-.01-.1-.02-.14-.03-.21-.06-.41-.09-.62,0-.05-.01-.1-.02-.15-.03-.2-.06-.39-.09-.59,0-.02,0-.04-.01-.07-.03-.22-.07-.44-.11-.65,0-.06-.02-.12-.03-.18-.03-.19-.07-.38-.1-.57,0-.04-.02-.09-.02-.13-.04-.21-.08-.42-.12-.63,0,0,0,0,0-.01-.04-.23-.09-.45-.14-.68-.04-.21-.09-.42-.13-.64-.03-.12-.05-.24-.08-.36-.01-.06-.03-.12-.04-.18-.03-.11-.05-.22-.08-.33-.04-.15-.07-.3-.11-.44-.03-.14-.07-.28-.1-.42,0,0,0-.02,0-.03-.06-.25-.13-.51-.19-.76-.08-.32-.17-.63-.26-.94-.03-.11-.06-.22-.09-.33-.19-.66-.39-1.31-.6-1.96-.06-.18-.12-.37-.18-.55-.06-.18-.12-.36-.19-.55-.04-.13-.09-.26-.14-.39-.05-.14-.1-.28-.15-.41-.05-.14-.1-.27-.15-.41-.05-.14-.1-.27-.15-.41-.08-.2-.16-.41-.24-.61-.08-.2-.16-.4-.24-.6,0-.02-.01-.04-.02-.05-.08-.21-.17-.41-.26-.62-.07-.18-.15-.35-.22-.53,0,0,0,0,0,0-.03-.07-.06-.15-.1-.22-.08-.18-.16-.35-.23-.53,0,0,0-.02-.01-.03-.08-.19-.17-.37-.25-.55-.12-.26-.25-.53-.37-.79-.07-.15-.14-.29-.21-.44-.12-.24-.24-.48-.36-.72-.1-.19-.2-.39-.3-.58,0,0,0-.02-.01-.02-.11-.21-.22-.41-.33-.61-.11-.2-.22-.4-.33-.6-.11-.2-.23-.4-.34-.6,0,0,0-.01-.01-.02-.1-.17-.19-.33-.29-.5-.04-.08-.09-.15-.14-.23-.09-.15-.17-.29-.26-.43-.12-.19-.24-.39-.36-.58-.01-.02-.03-.04-.04-.06-.11-.17-.22-.34-.33-.51-.12-.19-.25-.38-.37-.57-.11-.16-.22-.33-.33-.49-.04-.06-.08-.12-.12-.18-.1-.15-.21-.31-.32-.46-.13-.19-.26-.37-.39-.55-.11-.16-.23-.31-.34-.47-.05-.07-.1-.14-.16-.21-.1-.13-.2-.27-.3-.4-.13-.17-.25-.33-.38-.5-.02-.03-.05-.06-.07-.09-.12-.15-.23-.3-.35-.45-.01-.02-.03-.04-.04-.05-.13-.17-.26-.33-.4-.49-.14-.17-.27-.33-.41-.5l-.02-.03c-.14-.17-.28-.33-.43-.5-.58-.68-1.18-1.33-1.79-1.97-.01-.01-.03-.03-.04-.04-.14-.15-.28-.29-.42-.43-.15-.15-.29-.3-.44-.44,0,0-.02-.02-.03-.03,0,0-.02-.02-.03-.03-.13-.13-.26-.25-.39-.38-.04-.04-.09-.09-.13-.13-.11-.1-.21-.2-.32-.31-.16-.15-.31-.3-.47-.44-.13-.12-.26-.24-.39-.36,0,0-.01-.01-.02-.02-.3-.27-.6-.53-.91-.8-.17-.15-.34-.29-.51-.43-.13-.11-.26-.22-.4-.33h-.02c-.15-.14-.31-.26-.46-.38,0,0,0,0-.01-.01-.15-.12-.3-.24-.45-.35-.64-.49-1.28-.97-1.94-1.42-.15-.1-.3-.21-.45-.31-.18-.12-.36-.24-.54-.36.15.12.3.24.45.37.12.1.24.2.35.3.32.28.64.56.96.85.14.13.29.27.43.4,0,0,0,0,0,0,.28.27.57.54.85.82.11.11.22.23.34.34.17.17.33.35.5.52.14.15.27.29.41.44.11.12.22.24.33.36.04.05.08.09.12.14.09.1.18.21.27.31.05.06.11.12.16.19.09.11.19.22.28.33.04.05.08.1.12.15.1.12.21.25.31.37.13.16.26.32.39.48,0,0,0,0,0,0,.13.16.25.32.38.48.36.46.72.94,1.07,1.42.19.26.38.53.57.8.38.55.76,1.12,1.12,1.7.11.17.22.34.32.52.11.17.21.35.32.52.1.17.2.34.3.51,0,0,0,.02.01.02.1.18.21.36.31.53.09.15.17.31.26.46.02.03.04.06.05.1.1.17.19.35.29.52.02.03.03.05.04.08.19.35.37.7.55,1.05,0,0,0,0,0,0,.1.19.19.37.28.56.1.19.19.38.28.57.09.19.19.38.28.57.02.03.03.06.05.1.08.16.15.32.23.48.09.19.18.39.27.58.18.39.35.79.52,1.19.17.4.33.8.5,1.21.08.2.16.41.24.61.08.2.16.41.23.61.08.21.15.41.23.62,0,0,0,0,0,0,.14.39.28.79.42,1.19,0,.02.01.05.02.07.07.21.14.42.21.63.07.21.14.42.21.64.07.21.14.43.2.64s.13.43.19.65c.05.17.1.35.15.52.08.26.15.53.22.79.05.18.1.37.15.55,0,.03.02.07.03.1.04.17.09.33.13.5.09.33.17.67.25,1,.04.17.08.34.12.5.05.22.1.45.15.68.05.2.09.41.13.61,0,.02.01.05.01.07.05.23.1.45.14.68.05.23.09.46.14.69.09.46.17.92.25,1.38.04.22.08.44.11.66,0,.01,0,.02,0,.04.04.22.07.44.1.66.04.26.08.52.12.78.03.22.06.45.09.68.03.24.06.47.09.71.03.24.06.48.09.71.03.24.05.48.08.72.03.24.05.48.07.72.02.22.04.44.06.65.03.29.05.58.07.87.02.22.03.44.05.65,0,.01,0,.03,0,.04.02.23.03.46.04.69.01.18.02.36.03.53,0,.05,0,.11,0,.16,0,.08,0,.17.01.25,0,.14.01.28.02.42,0,.09,0,.17,0,.26,0,.19.01.39.02.58.01.49.02.99.03,1.49,0,.25,0,.5,0,.75s0,.48,0,.72c0,.08,0,.15,0,.22,0,.22,0,.44-.01.65,0,.1,0,.19,0,.29,0,.21-.01.41-.02.62-.02.55-.04,1.1-.07,1.65-.02.27-.03.54-.05.8,0,.01,0,.03,0,.04-.02.27-.04.53-.06.8-.02.24-.04.49-.06.73,0,.03,0,.06,0,.08h-24.67c.02-.27.04-.54.05-.81.01-.24.03-.48.04-.72,0-.11.01-.21.01-.32.01-.2.02-.4.03-.6,0-.23.02-.45.03-.68,0-.24.02-.48.02-.71.03-.91.04-1.83.04-2.75,0-.29,0-.58,0-.87,0-.26,0-.53,0-.79,0-.05,0-.1,0-.15,0-.24,0-.49-.02-.73,0-.07,0-.14,0-.22,0-.24-.01-.47-.02-.7,0-.24-.02-.47-.03-.71,0-.26-.02-.52-.03-.78,0-.18-.02-.36-.03-.54-.02-.36-.04-.72-.06-1.08-.01-.18-.02-.36-.04-.54-.04-.62-.09-1.23-.15-1.84-.02-.26-.05-.51-.07-.76,0-.06,0-.11-.02-.17-.01-.14-.03-.28-.04-.43-.02-.18-.04-.35-.06-.53-.01-.14-.03-.28-.05-.41-.05-.41-.1-.82-.15-1.23-.02-.14-.04-.28-.06-.43-.05-.4-.11-.79-.16-1.19-.02-.13-.04-.25-.05-.38-.03-.17-.05-.34-.08-.51-.02-.12-.04-.23-.05-.35-.02-.1-.03-.21-.05-.31-.02-.12-.04-.24-.06-.36-.06-.34-.11-.67-.17-1.01-.03-.18-.06-.36-.1-.53-.03-.18-.06-.36-.1-.53-.03-.18-.07-.35-.1-.53-.03-.18-.07-.35-.1-.53-.04-.17-.07-.35-.11-.52-.03-.13-.06-.27-.08-.4-.08-.39-.17-.78-.26-1.16-.04-.17-.08-.34-.12-.51-.04-.17-.08-.34-.12-.51-.09-.39-.19-.77-.29-1.15-.03-.12-.06-.24-.1-.37-.09-.33-.18-.67-.27-1-.05-.17-.09-.33-.14-.49-.24-.83-.48-1.65-.74-2.45-.05-.15-.09-.3-.14-.44-.11-.33-.22-.66-.33-.98-.04-.11-.08-.22-.11-.33-.07-.19-.13-.38-.2-.57-.07-.2-.15-.41-.22-.61-.08-.22-.16-.44-.25-.66-.1-.27-.21-.54-.31-.8-.06-.15-.12-.3-.18-.45-.1-.24-.2-.48-.3-.72-.08-.18-.15-.36-.23-.54-.1-.22-.19-.45-.29-.67-.06-.14-.13-.28-.19-.42-.32-.71-.65-1.39-.99-2.07-.09-.19-.19-.37-.28-.55-.11-.22-.22-.43-.34-.64-.09-.18-.19-.35-.29-.53-.23-.42-.46-.83-.7-1.23-.07-.12-.13-.23-.2-.34-.11-.18-.22-.37-.33-.55-.06-.1-.12-.2-.19-.3-.03-.05-.06-.1-.09-.15-.06-.09-.11-.18-.17-.27-.11-.17-.22-.34-.33-.51-.09-.13-.17-.26-.26-.39,0-.01-.02-.02-.03-.04-.1-.15-.2-.3-.31-.45-.02-.03-.05-.07-.07-.1-.1-.14-.2-.28-.3-.42v-.02c-.12-.15-.23-.31-.34-.46,0,0-.01-.01-.02-.02-.1-.14-.21-.28-.31-.42-.13-.17-.27-.35-.4-.52.29.5.57,1.02.85,1.56.06.12.12.23.18.35.08.15.15.3.23.46.01.03.03.06.04.08.08.16.15.31.23.47.07.15.14.29.21.44.02.04.04.08.06.12.08.16.15.33.22.49.08.18.16.36.24.54.06.13.12.27.17.41.1.24.2.48.3.72.07.18.14.35.22.53.1.24.19.49.28.73.06.14.11.28.16.42.09.24.18.48.27.73.06.15.11.3.16.46.07.2.14.4.21.6.07.2.14.41.21.61.08.23.15.45.22.68.06.19.12.38.18.57.07.21.13.42.2.64.04.13.08.27.12.4.03.1.06.21.09.31.26.89.51,1.8.75,2.73.05.18.09.36.14.54.06.23.11.46.17.69.05.21.1.42.15.63.01.06.03.11.04.17.05.2.09.4.14.6.04.19.09.39.13.58.12.55.24,1.11.35,1.68.07.36.15.73.22,1.1.05.24.09.49.14.74.01.08.03.17.05.25.05.25.09.5.13.75.13.75.26,1.52.38,2.29.04.25.08.49.11.74.03.16.05.33.07.49.02.16.05.33.07.49.1.75.2,1.5.29,2.27.06.49.11.98.17,1.47.03.33.07.67.1,1.01.02.21.04.42.06.64.03.26.05.53.07.8,0,.02,0,.05,0,.07.02.26.04.51.06.77.02.28.04.55.06.83.02.28.04.55.06.83.02.25.03.49.05.74,0,.05,0,.1.01.16.03.54.06,1.08.09,1.62.01.28.03.56.04.85.01.28.02.57.03.85,0,.27.02.54.03.8,0,0,0,0,0,0,0,.3.02.6.02.9,0,.2,0,.4.01.61,0,.18,0,.36,0,.54,0,.08,0,.15,0,.23,0,.24,0,.49,0,.73,0,.13,0,.27,0,.4,0,.32,0,.64,0,.96,0,.43,0,.86,0,1.29,0,.23,0,.46,0,.69,0,.05,0,.1,0,.16h0c0,.07,0,.13,0,.19,0,.22,0,.45-.01.67,0,.13,0,.27,0,.4,0,.03,0,.06,0,.08-.02.67-.04,1.34-.06,2,0,.02,0,.03,0,.05-.01.36-.03.72-.05,1.07,0,0,0,0,0,0h-29.23s0,0,0,0c-.01-.27-.03-.54-.04-.81-.03-.77-.06-1.54-.08-2.32,0-.29-.01-.57-.02-.86,0-.29,0-.58-.01-.87,0-.58-.01-1.16-.01-1.74,0-18.65,3.67-35.11,9.26-44.87-7.72,9.76-12.79,26.21-12.79,44.87,0,.92.01,1.84.04,2.75,0,.24.01.48.02.71,0,.23.02.46.03.68,0,.2.02.4.03.6,0,.11,0,.21.01.32.01.24.02.48.04.72.01.27.03.54.05.81h-24.67c-.02-.27-.04-.54-.07-.81-.02-.27-.04-.53-.06-.8,0-.01,0-.02,0-.04-.02-.27-.03-.53-.05-.8-.03-.55-.05-1.1-.07-1.65,0-.21-.01-.41-.02-.62,0-.1,0-.19,0-.29,0-.22,0-.43-.01-.65,0-.07,0-.15,0-.22,0-.24,0-.48,0-.72,0-.19,0-.38,0-.57,0-.18,0-.35,0-.53,0-.03,0-.06,0-.09,0-.16,0-.31,0-.46,0-.21,0-.42.02-.63,0-.18.01-.35.02-.53,0-.02,0-.04,0-.06,0-.18.01-.36.02-.54,0-.19.02-.38.03-.57s.02-.38.03-.56.02-.37.04-.56c0,0,0-.02,0-.03.03-.46.06-.92.1-1.38,0-.04,0-.08.01-.12,0-.11.02-.23.03-.34.01-.12.02-.24.03-.37.02-.18.03-.36.05-.54,0,0,0,0,0,0,.02-.18.04-.37.06-.55.02-.18.04-.37.06-.55.03-.26.06-.51.09-.77.03-.25.07-.5.1-.75,0-.03,0-.05.01-.08.03-.2.06-.4.08-.59.05-.32.1-.63.15-.95.04-.22.07-.45.11-.67h0c.04-.22.07-.44.11-.65.01-.08.03-.16.04-.23.04-.2.08-.41.11-.61.03-.17.07-.34.1-.51.03-.14.06-.28.08-.41.04-.19.08-.37.12-.56.05-.23.1-.46.15-.68,0-.03.01-.06.02-.09.04-.19.09-.39.13-.58.04-.16.08-.33.12-.49.05-.21.1-.42.15-.62.04-.15.08-.31.12-.46.05-.18.09-.35.14-.53.02-.09.05-.17.07-.26.05-.2.11-.4.17-.6.07-.24.13-.47.2-.7.05-.17.1-.33.15-.49.03-.09.05-.17.08-.26.06-.19.11-.37.17-.55.08-.27.17-.54.26-.81.07-.2.13-.4.2-.59.02-.07.05-.14.07-.21.06-.18.12-.35.18-.53.08-.22.16-.44.24-.66.03-.08.06-.17.09-.25.06-.18.13-.36.2-.53.07-.19.14-.38.22-.57.06-.16.12-.32.19-.47.02-.04.03-.08.05-.12.03-.08.07-.17.1-.25.07-.17.14-.34.21-.51.08-.19.16-.38.24-.57.19-.44.38-.87.58-1.3.08-.17.15-.33.23-.5.04-.08.07-.15.11-.23.08-.18.17-.36.25-.53.1-.2.19-.4.29-.6.09-.18.18-.35.27-.53.02-.05.05-.09.07-.14.18-.34.35-.68.54-1.01.1-.18.2-.37.3-.55.19-.35.39-.69.58-1.02.03-.06.07-.12.1-.18.13-.22.26-.44.4-.66,0,0,0-.01.01-.02.06-.11.13-.21.2-.32.07-.12.15-.24.22-.36.06-.1.12-.19.19-.29.14-.22.28-.43.42-.65.07-.11.14-.21.21-.32.21-.32.43-.63.65-.94.07-.1.15-.21.22-.31.07-.1.15-.2.22-.31.18-.25.37-.51.56-.76.11-.15.23-.3.34-.44.05-.07.11-.14.16-.2.11-.14.22-.27.33-.41.13-.17.27-.33.4-.5.14-.17.29-.35.43-.52.1-.12.21-.25.32-.37.05-.06.1-.12.15-.17.12-.14.25-.28.38-.43.14-.16.29-.32.44-.48,0,0,0,0,0,0,.11-.12.23-.24.34-.37.05-.05.1-.11.15-.16.15-.15.29-.3.44-.45.13-.13.26-.26.4-.4.12-.12.25-.24.37-.36.06-.06.12-.12.18-.17.12-.11.24-.23.36-.34.1-.09.19-.18.29-.27.22-.2.45-.4.68-.6.15-.13.29-.25.44-.37.16-.13.32-.26.48-.4-.26.17-.51.34-.77.52-.18.13-.37.25-.55.38-.11.08-.22.15-.33.23-.11.08-.22.16-.32.24-.23.17-.47.35-.7.52-.16.12-.31.24-.46.36-.07.05-.14.11-.2.16-.14.12-.29.23-.43.35-.29.24-.58.48-.87.72-.02.02-.04.04-.07.06-.28.24-.56.49-.84.73,0,0-.01.01-.02.02-.14.13-.29.26-.43.39,0,0,0,0-.01.01-.14.13-.28.26-.42.39-.14.13-.29.27-.43.41-.14.14-.28.27-.42.41t0,0s0,0,0,0c-.15.15-.31.31-.46.46-.15.15-.3.31-.46.47-.3.31-.6.63-.9.95-.15.16-.29.32-.44.49-.15.16-.29.33-.43.49-.14.17-.29.33-.43.5-.29.33-.56.67-.84,1.02-.14.17-.28.34-.41.52-.26.33-.52.67-.78,1.02-.16.21-.32.43-.48.65-.11.16-.22.31-.33.47-.1.14-.2.28-.3.43h0c-.08.12-.16.23-.24.35-.08.11-.15.22-.22.33,0,0,0,.01-.01.02-.16.23-.31.46-.46.7,0,0,0,0,0,.01-.16.25-.32.49-.47.74-.14.22-.28.44-.41.67-.02.03-.03.05-.05.08-.08.13-.15.25-.23.38-.15.25-.3.51-.44.76-.07.13-.15.26-.22.39-.07.13-.14.26-.22.39-.07.13-.14.26-.21.39-.28.52-.56,1.05-.82,1.58-.06.12-.12.25-.19.37l-.18.37c-.06.12-.12.25-.18.38-.06.12-.12.25-.18.38-.06.13-.12.25-.17.38-.06.13-.12.25-.17.38-.06.13-.11.26-.17.38-.07.15-.13.3-.2.46-.04.11-.09.21-.13.32-.11.26-.22.52-.32.78-.43,1.07-.83,2.15-1.2,3.25-.04.11-.08.23-.11.34-.37,1.13-.71,2.27-1.01,3.43-.03.11-.06.22-.08.33-.19.72-.36,1.45-.52,2.19-.03.14-.06.28-.09.43-.03.15-.06.29-.09.44-.15.74-.29,1.48-.41,2.22-.02.14-.04.27-.07.41-.05.32-.1.63-.14.95-.04.3-.08.59-.12.89-.02.17-.04.33-.06.5-.02.14-.03.27-.05.41-.03.31-.07.61-.1.92-.02.15-.03.31-.04.46-.03.31-.05.61-.08.92,0,.09-.01.18-.02.27,0,.1-.01.19-.02.28,0,.12-.02.24-.02.37,0,.12-.01.23-.02.35-.01.19-.02.39-.03.58,0,.08,0,.17-.01.26,0,.09,0,.18-.01.27-.03.76-.04,1.52-.04,2.29,0,.35,0,.69,0,1.04,0,.12,0,.25,0,.37,0,.15,0,.3.01.45,0,.08,0,.15,0,.23,0,.14,0,.28.01.42.01.31.03.61.04.92,0,.11.01.22.02.33.06.96.13,1.91.24,2.85h-9.89c-.26-2.19-.39-4.43-.39-6.69,0-12.13,3.77-23.39,10.2-32.66,1.19-1.72,2.48-3.37,3.85-4.95,2.99-3.45,6.39-6.53,10.11-9.18,3.83-2.72,8-4.99,12.44-6.72.48-.19.96-.36,1.44-.54,1.17-.42,2.36-.8,3.56-1.15.07-.02.14-.04.21-.06,1.15-.32,2.31-.61,3.49-.87,2.57-.55,3.73-3.6,2.15-5.7-.97-1.29-2.55-2.34-5.1-2.4,1.22-1.17,2.88-1.89,4.71-1.89,2.31,0,4.35,1.15,5.59,2.9-.57-4.2-3.9-7.52-8.1-8.09,1.05-.4,2.19-.63,3.39-.63M140.28,13.9c-1.44,0-2.85.26-4.18.77-.94.36-1.52,1.32-1.4,2.32.12,1,.9,1.8,1.9,1.93.87.12,1.7.39,2.44.79-2.2.09-4.27.96-5.88,2.49-.65.62-.86,1.57-.53,2.4.32.83,1.12,1.39,2.01,1.41,1.53.03,2.64.53,3.38,1.51.41.54.26,1.1.18,1.32-.08.22-.35.75-1.03.89-1.22.26-2.44.56-3.63.9-.06.02-.15.04-.25.07-1.21.34-2.45.75-3.67,1.18-.5.18-1,.36-1.49.56-4.57,1.78-8.92,4.12-12.92,6.98-3.86,2.75-7.39,5.95-10.5,9.53-1.42,1.63-2.76,3.36-3.99,5.14-6.93,9.99-10.59,21.72-10.59,33.92,0,2.32.14,4.66.41,6.95.13,1.11,1.07,1.95,2.2,1.95h9.89c.63,0,1.23-.27,1.64-.73.42-.47.62-1.09.55-1.71-.1-.89-.17-1.81-.23-2.75l-.02-.31c-.02-.31-.03-.6-.04-.9v-.39s-.02-.07-.02-.07v-.14c0-.17-.01-.31-.02-.44v-.2s0-.19,0-.19c0-.32,0-.65,0-.99,0-.75.01-1.5.04-2.21v-.21s.01-.07.01-.08v-.17s0-.05,0-.05c0-.2.02-.38.03-.56v-.09s.02-.22.02-.22l.02-.37v-.2s.02-.08.02-.08l.02-.26c.02-.3.05-.6.07-.89.01-.15.03-.29.04-.44.03-.3.06-.59.09-.88l.05-.4v-.11s.06-.36.06-.36c.04-.29.07-.57.11-.85l-.03.3s0,.03,0,.04h0c-.02.19-.04.38-.06.57l-.03.38-.02.26v.09s-.02.15-.02.15c-.04.45-.07.92-.1,1.4h0s0,.04,0,.06l-.03.55-.03.58v.11s-.03.47-.03.47c0,.17-.02.35-.02.53,0,.04,0,.08,0,.11l-.02.52c0,.21-.01.43-.02.65v.18s0,.27,0,.27c0,.05,0,.1,0,.15v.51s0,.59,0,.59c0,.25,0,.5,0,.75v.11s0,.09,0,.09c0,.25,0,.47.01.7v.24s0,.05,0,.05c0,.17,0,.35.01.53v.1c.02.57.04,1.14.08,1.7l.05.82h0s0,.03,0,.05h0l.04.61v.2s.08.85.08.85c.1,1.14,1.05,2.02,2.2,2.02h24.67c.61,0,1.2-.25,1.61-.7.04-.05.08-.09.12-.14.42.53,1.05.84,1.74.84h29.23c.68,0,1.32-.31,1.73-.84.04.05.08.1.12.14.42.45,1,.7,1.61.7h24.67c1.15,0,2.1-.88,2.2-2.02,0-.04,0-.08,0-.11.02-.24.04-.49.06-.73.02-.27.04-.54.06-.82,0,0,0-.02,0-.03h0c.02-.24.03-.48.04-.73v-.09c.04-.57.06-1.14.08-1.7v-.09c0-.19.01-.37.02-.56,0-.08,0-.19,0-.3v-.11s.01-.55.01-.55v-.11s0-.13,0-.13c0-.22,0-.47,0-.72s0-.51,0-.77c0-.51-.01-1.02-.03-1.53,0-.2-.01-.4-.02-.61v-.04s-.01-.25-.01-.25l-.02-.41v-.25s-.02-.09-.02-.09v-.09c-.01-.17-.02-.36-.03-.55v-.06c-.02-.22-.03-.43-.04-.65,0-.01,0-.02,0-.04h0l-.05-.67c-.02-.3-.05-.6-.07-.9v-.08c-.02-.2-.04-.4-.06-.6-.02-.23-.05-.48-.07-.73,0-.05-.01-.1-.02-.15.02.14.04.27.06.4v.11c.04.23.07.4.09.58,0,.02,0,.05,0,.07.03.22.05.39.06.56.01.11.02.19.03.26.02.16.03.3.04.43l.03.31c.02.19.03.37.05.54,0,.01,0,.03,0,.05,0,.02,0,.03,0,.05.02.19.03.38.05.57l2.21-.1-2.21.16v.07c.02.18.03.37.04.57v.1s.01.09.01.09v.08s0,.05,0,.06c.01.17.02.34.03.51,0,.01,0,.03,0,.04v.05c.01.23.02.45.03.68,0,.23.01.44.02.66v.18c0,.2.01.38.02.56v.09s0,.07,0,.07c0,.24,0,.45,0,.66,0,.34,0,.67,0,1v.18s0,.18,0,.18c0,.15,0,.28-.01.42v.17s0,.06,0,.06v.4c-.03.3-.04.59-.06.88l-.02.32c-.06.94-.13,1.87-.23,2.75-.07.62.13,1.25.55,1.71.42.47,1.02.73,1.64.73h9.61c1.12,0,2.07-.84,2.2-1.95.27-2.28.4-4.61.4-6.94,0-18.23-8.18-35.21-22.44-46.6-4.64-3.7-9.78-6.68-15.28-8.85-.42-.16-.84-.32-1.26-.48-1.26-.46-2.56-.89-3.87-1.28-.05-.02-.1-.03-.16-.04-1.17-.34-2.37-.65-3.56-.91-.81-.18-1.03-.84-1.09-1.11-.06-.27-.11-.94.55-1.42.68-.49,1.52-.73,2.58-.75.89-.02,1.69-.57,2.02-1.41.32-.83.11-1.78-.53-2.4-1.6-1.53-3.67-2.41-5.87-2.5.75-.4,1.57-.67,2.44-.79,1-.13,1.78-.93,1.9-1.93.12-1-.46-1.96-1.4-2.32-1.33-.51-2.74-.78-4.19-.78-3.78,0-7.14,1.78-9.27,4.56-2.1-3.08-5.64-5.1-9.64-5.1h0Z"/>
        </g>
        <g>
          <g>
            <path class="cls-1" d="M2.38,95.81c-.59,0-1.08-.47-1.1-1.07v-.2c0-5.51,2.17-10.67,6.11-14.52.44-.43.9-.85,1.39-1.24-.72-1.71-1.09-3.52-1.09-5.41,0-.77.06-1.54.19-2.3.2-1.2.56-2.37,1.06-3.48,1.08-2.36,2.79-4.36,4.95-5.8.98-.66,2.06-1.19,3.19-1.58,1.06-.36,2.17-.6,3.31-.69.39-.03.79-.05,1.2-.05,7.66,0,13.89,6.23,13.89,13.9,0,.16,0,.33,0,.49.44-.09.88-.17,1.32-.24,1.07-.18,2.17-.31,3.24-.4,1.01-.08,2.03-.13,3.03-.13h.38c.95,0,1.91.04,2.83.11,1.08.08,2.18.2,3.27.38,12.23,1.93,23.01,9.64,28.83,20.62.18.34.17.75-.03,1.09-.2.33-.56.54-.95.54H2.38Z"/>
            <path class="cls-8" d="M21.58,60.58c7.06,0,12.79,5.73,12.79,12.79,0,.64-.05,1.28-.14,1.89.9-.22,1.81-.4,2.73-.56,1.04-.17,2.09-.3,3.15-.39.97-.08,1.95-.12,2.95-.13.08,0,.17,0,.25,0h.12c.92,0,1.84.04,2.75.11,1.07.08,2.14.2,3.19.37,12.18,1.92,22.45,9.54,28.02,20.04H2.38c0-.05,0-.11,0-.16,0-5.38,2.21-10.24,5.78-13.73.62-.61,1.29-1.18,1.99-1.7-.87-1.73-1.36-3.68-1.36-5.74,0-.72.06-1.43.18-2.12.19-1.12.52-2.2.98-3.2,1-2.18,2.58-4.03,4.56-5.34.9-.6,1.89-1.09,2.94-1.45.97-.33,1.99-.55,3.04-.64.36-.03.73-.05,1.1-.05M21.58,58.37c-.44,0-.87.02-1.3.06-1.21.1-2.42.36-3.56.75-1.22.42-2.38.99-3.45,1.7-2.33,1.55-4.18,3.71-5.34,6.26-.55,1.2-.94,2.47-1.15,3.76-.14.81-.21,1.64-.21,2.48,0,1.76.3,3.46.88,5.08-.29.25-.57.52-.85.78C2.46,83.29.17,88.73.17,94.54c0,.08,0,.16,0,.24.04,1.19,1.02,2.13,2.21,2.13h75.01c.78,0,1.49-.41,1.89-1.07.4-.66.42-1.49.06-2.18-5.98-11.29-17.06-19.21-29.63-21.19-1.12-.18-2.25-.31-3.37-.39-.95-.07-1.93-.11-2.9-.11h-.13c-.1,0-.19,0-.29,0-1.01,0-2.05.05-3.08.14-1.1.09-2.23.23-3.34.41-.01,0-.03,0-.04,0-.44-7.89-6.99-14.17-14.98-14.17h0Z"/>
          </g>
          <g>
            <path class="cls-1" d="M84.24,95.81c-.44,0-.83-.26-1.01-.66-2.18-4.95-5.23-9.41-9.08-13.25-4-4-8.66-7.15-13.86-9.35-3.73-1.58-7.64-2.62-11.64-3.11-.99-.12-2-.21-3.03-.26-.77-.04-1.54-.06-2.31-.06-.23,0-1.16.01-1.17.01-.3,0-.59-.12-.79-.33-.21-.22-.33-.52-.31-.83.05-.99.22-1.97.5-2.92.68-2.31,2-4.39,3.81-6.01,1.11-1,2.38-1.8,3.75-2.36,1.58-.66,3.25-.99,4.95-.99h.11c.27,0,.53.01.8.03-.1-.66-.15-1.33-.15-2,0-4.9,2.71-9.34,7.06-11.59.56-.29,1.16-.44,1.8-.44,1.16,0,2.27.51,3.04,1.4,2.06,2.38,5.05,3.75,8.2,3.75,2.02,0,3.77-.32,4.4-.8,1.28-2.96,3.51-5.46,6.33-7.06,2.23-1.27,4.78-1.94,7.36-1.94,3.94,0,7.66,1.53,10.46,4.3.21.21.33.49.33.78,0,.29-.12.58-.32.79l-.58.6c-1.38,1.45-2.7,2.96-3.92,4.51l-.23.3c-.74.95-1.47,1.93-2.16,2.92-.52.74-1.02,1.5-1.51,2.26-4,6.28-6.84,13.12-8.46,20.33l-.86,4.62c-.33,2.24-.55,4.57-.65,6.89,0,.03,0,.08,0,.11-.03.8-.05,1.7-.05,2.58,0,2.2.11,4.41.33,6.57.03.31-.07.62-.28.85-.21.23-.51.37-.82.37h-.04Z"/>
            <path class="cls-8" d="M93,38.15c3.78,0,7.2,1.52,9.69,3.98-.08.08-.17.17-.25.25,0,0,0,0,0,0-.11.12-.23.24-.34.36-1.4,1.47-2.75,3.01-3.99,4.59-.07.09-.16.2-.24.31-.74.95-1.48,1.94-2.19,2.96-.52.75-1.04,1.53-1.53,2.3-4.07,6.4-6.96,13.34-8.6,20.68l-.87,4.66h0c-.35,2.32-.57,4.69-.67,7.04,0,0,0,.01,0,.02-.04.91-.05,1.82-.05,2.72,0,2.24.11,4.49.34,6.69h-.04c-2.23-5.08-5.36-9.65-9.31-13.59-4.1-4.1-8.89-7.33-14.21-9.58-3.83-1.62-7.83-2.69-11.94-3.18-1.03-.12-2.06-.21-3.1-.27-.79-.04-1.58-.06-2.37-.06-.24,0-.47,0-.71,0-.15,0-.31,0-.46,0,.05-.92.21-1.81.46-2.67.63-2.15,1.86-4.04,3.49-5.5,1.01-.91,2.17-1.64,3.44-2.17,1.4-.58,2.93-.9,4.53-.9h.1c.76,0,1.51.09,2.23.23-.3-1.05-.46-2.15-.46-3.3,0-4.62,2.62-8.62,6.46-10.61.41-.21.85-.31,1.29-.31.82,0,1.64.36,2.21,1.02,2.19,2.53,5.42,4.13,9.03,4.13,1.09,0,4.25-.1,5.33-1.25,1.17-2.86,3.28-5.23,5.95-6.75,2.01-1.14,4.33-1.8,6.81-1.8M93,35.94c-2.77,0-5.51.72-7.91,2.09-2.91,1.66-5.25,4.21-6.64,7.24-.53.22-1.78.47-3.54.47-2.82,0-5.51-1.23-7.36-3.37-.98-1.13-2.4-1.78-3.88-1.78-.81,0-1.59.19-2.31.56-4.72,2.44-7.65,7.26-7.65,12.57,0,.29,0,.58.03.86-1.74.04-3.44.4-5.06,1.07-1.49.61-2.86,1.48-4.07,2.56-1.96,1.76-3.39,4.02-4.13,6.52-.31,1.04-.49,2.11-.55,3.17-.03.62.19,1.22.62,1.66.42.43.99.67,1.58.67.02,0,.04,0,.06,0,.14,0,.27,0,.4,0,.26,0,.49,0,.71,0,.77,0,1.52.02,2.25.06,1,.05,2,.14,2.95.26,3.89.47,7.71,1.49,11.34,3.03,5.06,2.14,9.61,5.21,13.51,9.11,3.75,3.75,6.73,8.1,8.85,12.92.35.8,1.15,1.32,2.02,1.32.63,0,1.24-.27,1.66-.73.42-.46.64-1.08.58-1.71-.22-2.12-.33-4.29-.33-6.46,0-.85.02-1.72.05-2.6,0-.02,0-.03,0-.05h0c.09-2.26.31-4.54.64-6.77l.85-4.57c1.59-7.07,4.38-13.77,8.3-19.94.46-.73.96-1.48,1.48-2.22.68-.98,1.39-1.94,2.11-2.86.1-.12.17-.22.23-.3,1.21-1.52,2.51-3.02,3.86-4.44l.3-.32s0,0,0-.01c0,0,.02-.02.02-.03.07-.07.14-.15.22-.22.42-.42.65-.98.65-1.57,0-.59-.24-1.15-.66-1.57-3.01-2.98-7.01-4.61-11.24-4.61h0Z"/>
          </g>
          <g>
            <path class="cls-1" d="M37.08,63.54c-.36,0-.69-.17-.9-.47-.59-.83-1.25-1.61-1.97-2.33-3.37-3.37-7.86-5.23-12.63-5.23,0,0-.19,0-.2,0-.35,0-.69-.17-.89-.46-.22-.3-.27-.69-.14-1.04,2.24-6.03,7.94-10.15,14.32-10.44-.25-1.2-.38-2.43-.38-3.68,0-9.84,8.01-17.85,17.85-17.85,2.59,0,5.1.54,7.44,1.62.93.43,1.82.94,2.66,1.51.83-.61,1.72-1.15,2.63-1.6.85-.42,1.74-.77,2.64-1.05,1.69-.52,3.46-.79,5.27-.79,1.91,0,3.78.3,5.58.89.15-.16.3-.32.45-.47.97-.96,2.07-1.78,3.27-2.42,1.99-1.06,4.24-1.62,6.52-1.62,6.79,0,12.59,5,13.7,11.59.44-.04.89-.06,1.33-.06,3.47,0,6.79,1.29,9.35,3.62.25.23.38.56.36.89-.02.34-.2.64-.48.84-.4.27-.8.56-1.2.85-.75.54-1.43,1.06-2.09,1.58-.55.44-1.1.89-1.63,1.34-.07.06-.14.11-.22.14-.16.08-.33.12-.5.12-.29,0-.58-.11-.79-.33-.62-.63-1.28-1.22-1.98-1.75-2.22-1.7-4.71-2.85-7.39-3.44-1.32-.29-2.69-.43-4.06-.43-.48,0-.96.02-1.44.06-2.76.21-5.49,1.04-7.88,2.41-2.83,1.61-5.21,3.95-6.89,6.77-.18.31-.51.51-.87.54-.3.02-.64.04-1,.04-1.99,0-3.89-.87-5.2-2.38-1.52-1.76-3.73-2.77-6.04-2.77-1.25,0-2.5.3-3.62.88-1.4.72-2.7,1.64-3.85,2.73-1.08,1.01-2.01,2.16-2.79,3.41-1.24,1.99-2.04,4.18-2.38,6.5-.07.45-.4.81-.84.92-.73.17-1.45.39-2.15.65-1.19.45-2.34,1.05-3.41,1.76-.82.55-1.6,1.17-2.32,1.87-1.89,1.81-3.3,3.95-4.2,6.36-.14.38-.49.66-.89.71-.05,0-.1,0-.14,0Z"/>
            <path class="cls-8" d="M88.59,19.23c6.71,0,12.21,5.16,12.74,11.73.74-.13,1.51-.21,2.29-.21,3.31,0,6.33,1.26,8.61,3.33-.4.28-.81.57-1.23.87-.02.01-.04.03-.06.04-.7.51-1.4,1.04-2.07,1.57-.56.45-1.12.9-1.66,1.36h0c-.65-.66-1.35-1.28-2.1-1.85-2.35-1.79-5-3.02-7.82-3.64-1.4-.3-2.83-.46-4.29-.46-.51,0-1.02.02-1.53.06-2.93.23-5.79,1.1-8.34,2.55-3.01,1.71-5.53,4.2-7.3,7.16-.28.02-.59.03-.92.03-1.67,0-3.26-.73-4.36-2-1.73-2-4.24-3.15-6.87-3.15-1.43,0-2.85.35-4.12,1-1.5.78-2.88,1.75-4.1,2.91-1.14,1.07-2.14,2.29-2.97,3.63-1.32,2.12-2.17,4.47-2.53,6.93-.78.18-1.54.41-2.29.7-1.27.48-2.49,1.11-3.63,1.88-.87.58-1.7,1.25-2.47,1.99-2.01,1.93-3.53,4.24-4.47,6.77-.62-.87-1.31-1.7-2.09-2.47-3.58-3.58-8.34-5.55-13.41-5.55-.07,0-.13,0-.2,0,2.11-5.69,7.59-9.74,14.01-9.74.23,0,.46,0,.69.02-.45-1.52-.69-3.12-.69-4.78,0-9.25,7.5-16.74,16.74-16.74,2.49,0,4.85.55,6.98,1.52,1.1.51,2.13,1.12,3.08,1.84.02.01.04.03.05.04.95-.77,1.99-1.44,3.1-1.99.79-.39,1.62-.72,2.48-.99,1.56-.48,3.22-.74,4.94-.74,2.08,0,4.08.38,5.92,1.08.28-.34.57-.67.89-.98.89-.88,1.9-1.63,3.01-2.22,1.79-.95,3.83-1.49,6-1.49M88.59,17.02c-2.45,0-4.89.61-7.04,1.75-1.29.68-2.48,1.56-3.53,2.6-1.7-.49-3.46-.74-5.25-.74-1.91,0-3.79.28-5.59.84-.95.29-1.9.67-2.8,1.12-.75.37-1.47.79-2.17,1.26-.69-.44-1.42-.83-2.17-1.18-2.5-1.14-5.15-1.72-7.91-1.72-10.45,0-18.95,8.5-18.95,18.95,0,.9.06,1.8.19,2.68-6.31.76-11.81,5.01-14.06,11.06-.26.69-.15,1.47.28,2.07.42.58,1.08.91,1.79.91.03,0,.06,0,.08,0h.12c4.47,0,8.68,1.74,11.84,4.91.67.67,1.29,1.41,1.85,2.19.42.59,1.09.93,1.8.93.1,0,.19,0,.29-.02.81-.11,1.5-.65,1.78-1.42.84-2.25,2.16-4.25,3.93-5.94.68-.65,1.41-1.24,2.17-1.75,1-.67,2.07-1.22,3.19-1.65.65-.24,1.32-.45,2-.61.88-.21,1.55-.93,1.69-1.83.32-2.17,1.07-4.22,2.22-6.08.73-1.17,1.61-2.24,2.61-3.19,1.08-1.02,2.29-1.87,3.6-2.55.96-.49,2.03-.76,3.11-.76,1.99,0,3.89.87,5.2,2.39,1.52,1.76,3.72,2.76,6.03,2.76.36,0,.72-.01,1.08-.04.72-.05,1.38-.45,1.75-1.07,1.58-2.65,3.82-4.86,6.49-6.37,2.25-1.28,4.82-2.07,7.41-2.27.45-.04.9-.05,1.36-.05,1.29,0,2.58.14,3.82.41,2.52.55,4.86,1.64,6.95,3.24.65.5,1.28,1.05,1.86,1.64.42.43.99.66,1.58.66.06,0,.11,0,.17,0,.48-.04.93-.23,1.29-.54.52-.44,1.05-.87,1.58-1.29.65-.52,1.33-1.03,2-1.52,0,0,.02-.01.02-.02l.03-.02c.4-.29.79-.57,1.18-.84.56-.38.91-1,.95-1.67.05-.67-.22-1.33-.72-1.79-2.77-2.52-6.35-3.91-10.1-3.91-.15,0-.29,0-.44,0-1.58-6.62-7.6-11.53-14.59-11.53h0Z"/>
          </g>
          <g>
            <path class="cls-1" d="M117.6,31.85c-.3,0-.6-.12-.82-.36-.18-.19-.36-.38-.54-.56-2.82-2.82-6.37-4.57-10.29-5.08-.39-.05-.73-.31-.88-.67-.99-2.38-2.46-4.49-4.37-6.25-3.31-3.06-7.62-4.75-12.13-4.75-4.02,0-7.81,1.3-10.97,3.76-.2.15-.44.23-.68.23-.07,0-.13,0-.2-.02-1.31-.24-2.64-.36-3.97-.36-1.57,0-3.13.17-4.66.5-.08.02-.16.03-.23.03-.43,0-.82-.25-1.01-.65-.43-.94-.95-1.87-1.54-2.76-.2-.3-.24-.67-.11-1,2.93-7.65,10.4-12.78,18.6-12.78,5.03,0,9.78,1.86,13.46,5.24,1.73-.48,3.53-.73,5.34-.73,9.42,0,17.47,6.53,19.45,15.65,1.59.24,3.14.66,4.62,1.27.43.17.7.59.68,1.05-.02.74.07,1.47.28,2.19.04.13.08.25.12.37.21.57-.09,1.21-.66,1.42-.34.13-.68.25-1.02.39-2.57,1-5.12,2.19-7.56,3.52l-.41.23c-.17.1-.36.14-.54.14Z"/>
            <path class="cls-8" d="M83.82,2.21c5.13,0,9.77,2.05,13.16,5.38,1.78-.56,3.68-.86,5.64-.86,9.27,0,16.98,6.71,18.52,15.54,1.8.19,3.52.64,5.13,1.3-.02.84.08,1.69.33,2.53.04.15.09.3.14.44-.35.13-.69.26-1.04.39-2.62,1.02-5.21,2.23-7.68,3.58-.14.08-.28.16-.43.24-.19-.21-.38-.41-.58-.6-2.99-2.99-6.8-4.86-10.92-5.39-1.04-2.5-2.61-4.76-4.64-6.64-3.52-3.25-8.09-5.04-12.88-5.04-4.27,0-8.35,1.42-11.64,3.99-1.37-.25-2.76-.38-4.17-.38-1.66,0-3.29.18-4.89.52-.46-1.01-1-1.98-1.62-2.91,2.71-7.06,9.55-12.07,17.56-12.07M83.82,0c-8.65,0-16.53,5.42-19.63,13.49-.26.67-.17,1.42.22,2.01.56.84,1.04,1.72,1.45,2.61.36.8,1.16,1.29,2.01,1.29.16,0,.31-.02.47-.05,1.45-.31,2.94-.47,4.42-.47,1.26,0,2.53.12,3.77.34.13.02.27.04.4.04.49,0,.97-.16,1.36-.47,2.96-2.31,6.51-3.53,10.28-3.53,4.23,0,8.27,1.58,11.38,4.46,1.79,1.66,3.17,3.63,4.1,5.87.3.73.97,1.24,1.76,1.34,3.67.48,7,2.13,9.64,4.76.18.18.35.36.51.54.43.47,1.03.72,1.63.72.37,0,.75-.09,1.09-.29.11-.07.23-.13.35-.19l.05-.03c2.39-1.31,4.89-2.47,7.42-3.46.33-.13.67-.26,1-.38,1.14-.42,1.73-1.68,1.32-2.82-.04-.1-.07-.2-.1-.31-.18-.6-.26-1.23-.24-1.84.03-.92-.52-1.76-1.37-2.11-1.33-.55-2.72-.96-4.13-1.22-2.35-9.24-10.67-15.78-20.36-15.78-1.71,0-3.4.21-5.05.61-3.82-3.32-8.65-5.13-13.76-5.13h0Z"/>
          </g>
          <g>
            <path class="cls-1" d="M5.93,63.56c-.4-.05-.75-.31-.9-.69-.74-1.88-1.12-3.86-1.12-5.89,0-8.8,7.12-15.97,15.9-16.05-.63-1.74-.95-3.57-.95-5.46,0-8.5,6.72-15.54,15.13-16.02,2.57-5.82,8.25-9.53,14.67-9.53,4.41,0,8.51,1.75,11.57,4.92,1.11,1.15,2.04,2.46,2.76,3.88.16.31.16.68,0,1-.19.39-.58.61-.99.61-.16,0-.32-.04-.48-.11-.91-.44-1.86-.81-2.84-1.12-2.1-.66-4.31-1-6.56-1-2.94,0-5.8.58-8.49,1.72-2.6,1.1-4.93,2.67-6.93,4.67-2,2-3.57,4.34-4.67,6.93-1.08,2.55-1.65,5.25-1.71,8.02-.01.48-.33.9-.78,1.03-3.1.94-5.98,2.67-8.3,5-2.88,2.88-4.79,6.49-5.52,10.45-.07.38-.33.69-.68.83-2.28.9-4.33,2.24-6.08,4-.73.73-1.4,1.52-1.99,2.36-.21.29-.55.47-.9.47-.04,0-.09,0-.13,0Z"/>
            <path class="cls-8" d="M48.67,11.01c4.23,0,8.05,1.76,10.77,4.59,1.03,1.07,1.89,2.28,2.57,3.62h0c-.97-.46-1.96-.85-2.98-1.18-2.2-.69-4.52-1.05-6.89-1.05-3.09,0-6.09.61-8.92,1.8-2.73,1.15-5.18,2.81-7.28,4.91-2.1,2.1-3.75,4.55-4.91,7.28-1.13,2.68-1.74,5.51-1.8,8.42-3.27.99-6.28,2.79-8.76,5.27-3.05,3.05-5.06,6.88-5.83,11.03-2.39.94-4.59,2.37-6.46,4.24-.78.78-1.48,1.62-2.11,2.5-.67-1.7-1.04-3.55-1.04-5.49,0-8.26,6.69-14.95,14.94-14.95.53,0,1.04.03,1.56.08-1-2-1.56-4.26-1.56-6.64,0-8.2,6.6-14.85,14.77-14.94,2.17-5.57,7.59-9.51,13.92-9.51M48.67,8.8c-6.63,0-12.53,3.72-15.4,9.59-8.67.84-15.51,8.21-15.51,17.08,0,1.52.19,3,.58,4.43-8.69.83-15.52,8.17-15.52,17.08,0,2.17.4,4.29,1.19,6.3.3.75.99,1.29,1.79,1.38.09.01.18.02.27.02.71,0,1.39-.34,1.8-.93.56-.79,1.18-1.53,1.87-2.21,1.65-1.65,3.57-2.91,5.7-3.75.71-.28,1.23-.9,1.37-1.65.7-3.74,2.5-7.16,5.22-9.88,2.2-2.2,4.91-3.83,7.84-4.72.92-.28,1.55-1.11,1.57-2.07.06-2.63.6-5.19,1.62-7.61,1.04-2.46,2.53-4.68,4.44-6.58,1.9-1.9,4.12-3.39,6.58-4.43,2.56-1.08,5.27-1.63,8.06-1.63,2.13,0,4.23.32,6.22.95.92.29,1.83.65,2.69,1.06.31.15.63.22.96.22.6,0,1.2-.25,1.63-.71.62-.68.76-1.68.35-2.5-.77-1.52-1.76-2.92-2.95-4.15-3.26-3.39-7.65-5.26-12.36-5.26h0Z"/>
          </g>
        </g>
        <g>
          <g>
            <path class="cls-1" d="M263.75,47.05c-.16,0-.31-.03-.46-.1-4.71-2.16-8.59-5.9-10.92-10.54-.54-1.08-1-2.2-1.35-3.33l-1.63-5.21-2.47,4.87c-1.74,3.42-4.33,6.38-7.49,8.54-.45.31-.91.6-1.38.88-.17.1-.36.15-.56.15-.1,0-.19-.01-.29-.04-.29-.08-.53-.26-.67-.52-.9-1.59-1.61-3.3-2.12-5.1-.59-2.1-.88-4.25-.87-6.39,0-.92.07-1.85.19-2.75l.51-3.74-3.51,1.37c-.31.12-.62.23-.93.34-2.15.72-4.46,1.09-6.86,1.11h-.18c-2.62,0-5.28-.44-7.69-1.28-.34-.12-.59-.39-.7-.73-.1-.34-.03-.71.19-.99.34-.43.69-.86,1.05-1.26,2.58-2.86,5.86-5.04,9.5-6.3l6.06-2.1s-6.05-2.1-6.07-2.1c-.19-.06-.71-.26-.71-.26-.15-.06-.58-.23-.58-.23-.18-.08-.35-.15-.51-.22-.24-.11-.42-.19-.6-.28-.03-.01-.42-.21-.56-.28l-.16-.08c-.15-.08-.3-.16-.46-.25l-.59-.33.42-1.04-.57.95c-.13-.08-.55-.34-.55-.34-.13-.08-.27-.18-.42-.27-.25-.17-.41-.28-.58-.4,0,0-.65-.49-.65-.49-.12-.09-.47-.37-.47-.38-.35-.29-.5-.79-.35-1.22.15-.43.53-.74.99-.76,1.95-.08,3.9-.35,5.82-.82,1.13-.18,2.21-.27,3.29-.27,5.82,0,11.65,2.39,15.61,6.38.42.42.99.66,1.58.66.07,0,.14,0,.22,0,.67-.07,1.26-.43,1.63-.99,3.98-6.04,11-9.8,18.33-9.8.64,0,1.29.03,1.92.09.25.02.48.13.66.3,2.26,2.17,4.01,4.74,5.18,7.63.15.37.09.79-.15,1.1-.21.27-.53.42-.87.42-.05,0-.11,0-.16-.01-1.29-.19-2.61-.28-3.93-.28-4.7,0-9.36,1.21-13.13,3.41-.87.51-1.29,1.54-1.02,2.52.27.95,1.15,1.62,2.15,1.62.21,0,.38,0,.55,0,11.64,0,17.66,8.13,19.22,10.62.65,1.02,1.4,1.95,2.26,2.79.47.46.97.92,1.48,1.35.37.31.49.83.31,1.27-.17.41-.58.68-1.02.68-.03,0-.75-.03-.75-.03l-.94-.07-.68-.08-.66-.09c-.12-.02-.59-.1-.59-.1-.25-.05-.43-.08-.62-.12-.29-.06-.5-.11-.71-.16,0,0-.49-.12-.64-.17l-.62-.18-.61-.2c-.06-.02-.6-.21-.6-.21l-.26-.1c-.12-.05-.58-.23-.58-.23l-.5-.22c-.28-.13-.46-.22-.65-.31l-3.82-1.91.63,4.22c.07.49.13.98.17,1.47.04.5.06.99.07,1.49.04,2.97-.5,5.99-1.58,8.74-.11.28-.33.51-.62.62-.13.05-.27.08-.41.08Z"/>
            <path class="cls-8" d="M265.25,2.21c.61,0,1.21.03,1.82.08,2.15,2.06,3.82,4.53,4.93,7.25-1.35-.2-2.72-.3-4.09-.3-4.81,0-9.65,1.21-13.69,3.56-1.31.76-1.94,2.31-1.53,3.77.4,1.44,1.72,2.42,3.21,2.42.02,0,.04,0,.06,0,.17,0,.33,0,.5,0,11.08,0,16.78,7.71,18.29,10.1l.03.05c.67,1.06,1.47,2.05,2.4,2.95.5.49,1.01.95,1.54,1.4-.02,0-.04,0-.06,0-.08,0-.17,0-.25-.01-.13,0-.25-.01-.38-.02-.09,0-.18-.01-.27-.02-.12,0-.24-.02-.36-.03l-.27-.02c-.12-.01-.24-.02-.36-.04-.09-.01-.17-.02-.26-.03-.12-.01-.25-.03-.37-.05-.08-.01-.16-.02-.25-.04-.13-.02-.27-.04-.4-.07-.07-.01-.14-.03-.21-.04-.18-.03-.36-.07-.54-.11-.02,0-.05,0-.07-.01-.2-.04-.41-.09-.61-.14-.06-.01-.11-.03-.17-.04-.14-.03-.29-.07-.43-.11-.07-.02-.14-.04-.22-.06-.12-.03-.25-.07-.37-.11-.08-.02-.15-.05-.23-.07-.12-.04-.24-.08-.35-.12-.08-.02-.16-.05-.23-.08-.12-.04-.23-.08-.35-.12-.08-.03-.15-.06-.23-.09-.12-.04-.23-.09-.35-.14-.07-.03-.14-.06-.21-.09-.13-.05-.25-.11-.37-.16-.06-.03-.12-.05-.17-.08-.18-.08-.36-.17-.54-.26l-5.72-2.85.94,6.32c.07.46.12.93.16,1.4.04.47.06.94.06,1.41.04,2.83-.48,5.7-1.5,8.32-4.47-2.05-8.19-5.64-10.39-10.03-.51-1.01-.94-2.07-1.28-3.16l-2.44-7.81-3.7,7.29c-1.67,3.29-4.13,6.08-7.13,8.13-.43.29-.87.57-1.32.83-.86-1.52-1.54-3.15-2.02-4.85-.56-1.98-.84-4.04-.83-6.08,0-.88.07-1.75.18-2.62l.76-5.6-5.27,2.06c-.29.11-.58.22-.87.32-2.07.69-4.29,1.04-6.52,1.06-.06,0-.12,0-.18,0-2.5,0-5-.41-7.32-1.22.32-.41.66-.81,1-1.2,2.44-2.71,5.53-4.78,9.04-5.99l9.07-3.14-9.07-3.14s0,0,0,0c-.18-.06-.35-.13-.53-.19-.05-.02-.11-.04-.16-.06-.13-.05-.26-.1-.39-.15-.05-.02-.11-.04-.16-.07-.16-.07-.32-.14-.48-.21-.01,0-.03-.01-.05-.02-.17-.08-.34-.16-.52-.24-.05-.02-.1-.05-.15-.07-.12-.06-.25-.12-.37-.19-.05-.03-.11-.05-.16-.08-.15-.08-.29-.16-.44-.24-.02-.01-.04-.02-.07-.04-.17-.09-.33-.19-.5-.29-.04-.03-.09-.05-.13-.08-.12-.07-.24-.15-.36-.22-.05-.03-.1-.06-.15-.09-.14-.09-.27-.18-.41-.27-.02-.02-.05-.03-.07-.05-.16-.11-.32-.22-.47-.33-.04-.03-.07-.06-.11-.08-.12-.09-.24-.18-.36-.27-.04-.03-.09-.07-.13-.1-.13-.1-.25-.2-.38-.3-.02-.02-.05-.04-.07-.06-.01-.01-.02-.02-.03-.03,2.01-.08,4.04-.36,6.04-.85,1-.16,2.01-.23,3.03-.23,5.46,0,11.03,2.22,14.82,6.06.63.64,1.48.99,2.36.99.11,0,.22,0,.33-.02,1-.1,1.9-.64,2.45-1.48,3.8-5.77,10.55-9.3,17.41-9.3M265.25,0c-7.7,0-15.08,3.95-19.25,10.3-.19.28-.48.46-.82.5-.03,0-.07,0-.11,0-.3,0-.58-.12-.79-.33-4.16-4.2-10.29-6.71-16.4-6.71-1.14,0-2.28.09-3.38.26-.06,0-.12.02-.18.04-1.84.45-3.73.71-5.6.79-.91.04-1.71.63-2,1.49-.3.86-.04,1.82.66,2.41.02.01.07.06.08.07l.07.06c.13.11.27.22.42.33h0s.09.07.09.07c0,0,.05.04.05.04.13.1.26.19.39.29.01.01.03.02.04.03,0,0,.06.04.06.05.2.15.37.26.54.38.01,0,.04.03.06.04.01,0,.02.02.04.02.15.1.3.2.45.29l.13.08c.14.09.28.18.42.26l.06.04s.08.05.1.06c.18.1.35.21.53.31.02,0,.03.02.05.03.02,0,.03.02.05.03.17.09.31.17.46.25.05.03.12.06.19.1.11.06.25.13.39.2.05.03.11.06.18.09.18.09.37.17.55.26.02,0,.05.02.07.03.16.07.33.14.5.22.02,0,.03.01.05.02l.06.02.1.04c.11.05.26.1.41.16l.08.03.1.04c.19.07.38.14.57.21.02,0,.05.02.07.02l2.98,1.03-3.04,1.05c-3.81,1.32-7.26,3.6-9.96,6.6-.39.44-.76.88-1.11,1.33-.44.56-.57,1.3-.37,1.98s.72,1.23,1.39,1.46c2.52.88,5.31,1.34,8.05,1.34h.19c2.52-.02,4.94-.42,7.21-1.17.33-.11.65-.23.97-.35l1.77-.69-.25,1.88c-.13.95-.2,1.93-.2,2.9-.01,2.25.29,4.51.91,6.7.53,1.88,1.28,3.68,2.22,5.34.29.51.78.89,1.35,1.04.19.05.38.08.57.08.39,0,.77-.1,1.11-.3.49-.29.98-.6,1.45-.92,3.32-2.27,6.03-5.37,7.85-8.96l1.24-2.44.82,2.62c.37,1.18.84,2.36,1.41,3.49,2.45,4.86,6.51,8.78,11.45,11.05.29.13.61.2.92.2.28,0,.56-.05.83-.16.56-.23,1.01-.68,1.23-1.25,1.12-2.88,1.7-6.05,1.65-9.16,0-.52-.03-1.04-.07-1.55-.04-.54-.1-1.06-.18-1.56l-.31-2.11,1.92.96c.2.1.4.19.6.29l.12.05.06.03c.15.07.29.13.43.19.08.03.17.07.26.1.09.04.23.09.37.15l.2.07.05.02.11.04c.1.04.2.07.29.11l.05.02c.08.03.16.05.23.08.09.03.22.07.34.11.12.04.2.06.28.09.12.04.27.08.41.12.06.02.15.04.23.07.14.04.31.08.48.13.07.02.14.04.2.05.19.05.41.1.62.14.03,0,.08.02.12.02.19.04.37.08.55.11.02,0,.04,0,.06.01l.17.03c.19.03.34.06.48.08.07.01.17.03.27.04.13.02.27.04.42.06.07,0,.17.02.28.03.07,0,.17.02.26.03h.11s.17.03.17.03h.13c.16.03.29.04.42.05l.29.02c.16,0,.29.02.42.02h.06c.07,0,.15,0,.22.01.01,0,.02,0,.03,0,.03,0,.05,0,.08,0,.89,0,1.7-.54,2.04-1.37.36-.89.11-1.91-.62-2.53-.49-.41-.97-.85-1.42-1.29-.8-.79-1.5-1.64-2.07-2.55l-.05-.07c-1.62-2.58-7.93-11.11-20.14-11.11-.18,0-.36,0-.54,0-.51,0-.96-.33-1.09-.81-.14-.49.07-1.01.51-1.27,3.6-2.1,8.07-3.26,12.58-3.26,1.27,0,2.54.09,3.77.27.11.02.21.02.32.02.67,0,1.32-.31,1.74-.85.49-.62.61-1.46.31-2.2-1.24-3.04-3.07-5.73-5.44-8.01-.36-.35-.83-.56-1.33-.61-.67-.06-1.35-.09-2.02-.09h0Z"/>
          </g>
          <g>
            <path class="cls-2" d="M215.2,95.81c-.31,0-.61-.13-.82-.36-.21-.23-.31-.54-.28-.85.22-2.15.33-4.37.33-6.57,0-13.18-3.95-25.85-11.43-36.65-3.31-4.78-7.25-9.09-11.71-12.81-.38-.32-.76-.63-1.18-.96-5-3.98-10.53-7.18-16.45-9.51-.39-.15-.78-.3-1.17-.45-.54-.2-.84-.79-.68-1.34.21-.73.3-1.48.27-2.24-.02-.39.17-.76.49-.97,11.93-7.9,25.99-12.44,40.67-13.12.02,0,.03,0,.05,0,.29,0,.57.12.78.32,0,0,.04.04.05.04.12.11.27.24.42.38l.66.56c.2.16.36.3.53.43.2.16.37.28.54.41l.76.55c.14.09.32.22.51.34.31.2.5.55.5.92s-.19.72-.5.92c-3.73,2.46-6.82,5.85-8.96,9.79l-1.04,1.91,1.89,1.08c.42.24.84.46,1.26.67,3.01,1.49,6.47,2.41,10,2.67.68.05,1.37.07,2.05.07,1.72,0,3.43-.16,5.07-.46.07-.01.14-.02.2-.02.25,0,.49.08.69.24.25.2.4.5.42.82.21,4.49,1.5,8.88,3.75,12.71l.27.44c.17.28.35.56.54.85.28.42.58.83.89,1.23l1.04,1.37,1.58-.67c.75-.31,1.48-.67,2.2-1.05,3.11-1.66,5.83-3.88,8.09-6.59.21-.25.52-.4.85-.4.03,0,.06,0,.09,0,.36.03.68.23.86.54,2.91,4.9,7.36,8.85,12.54,11.13.96.42,1.95.79,2.97,1.1l1.71.52.87-1.56c.26-.46.5-.93.73-1.4,1.59-3.29,2.51-6.97,2.67-10.66.01-.31.15-.6.39-.8.2-.17.46-.26.71-.26.04,0,.09,0,.14,0,.07,0,.17.03.24.05.21.06.49.12.77.19,0,0,.29.07.29.07.2.04.4.08.6.12l.26.05c.27.05.89.15,1,.17.56.08,1.16.15,1.77.2,0,0,.29.02.29.02.2.01,1.14.06,1.14.06.32.02.7.17.89.42,10.25,12.96,15.67,28.43,15.67,44.74,0,3.56-.27,7.15-.8,10.67-.08.54-.55.94-1.09.94h-77.87Z"/>
            <path class="cls-7" d="M213.3,11.06s0,0,0,0c.01.01.03.02.04.04.16.14.32.29.48.43.05.05.11.09.16.14.13.11.26.22.39.33.05.05.1.09.16.13.18.15.36.29.54.43.01,0,.02.02.03.02.17.14.35.27.52.4.05.04.11.08.17.12.14.1.28.2.41.3.06.04.12.08.17.12.19.13.38.26.57.39-3.86,2.55-7.07,6.03-9.32,10.18l-1.55,2.86,2.83,1.61c.43.25.87.48,1.32.7,3.15,1.56,6.71,2.51,10.41,2.78.71.05,1.42.08,2.13.08,1.79,0,3.56-.16,5.27-.48.21,4.63,1.57,9.25,3.9,13.22.09.15.18.3.28.45.19.3.38.6.57.89.29.44.61.87.92,1.29l1.56,2.05,2.38-1.01c.78-.33,1.55-.7,2.29-1.1,3.22-1.72,6.08-4.06,8.42-6.86,3.02,5.08,7.62,9.19,13.04,11.57,1,.44,2.03.82,3.09,1.15l2.56.77,1.31-2.33c.27-.48.52-.97.76-1.46,1.67-3.46,2.62-7.25,2.78-11.1,0,0,.02,0,.02,0,.29.08.59.15.88.22.1.02.19.04.29.06.21.05.42.09.64.13.11.02.22.04.32.06.22.04.43.08.65.11.09.01.19.03.29.05.62.09,1.25.16,1.89.22.1,0,.19.02.29.02.22.02.45.03.68.04.11,0,.22.01.33.02.08,0,.17,0,.25.01,10.1,12.77,15.44,27.97,15.44,44.06,0,3.56-.27,7.07-.79,10.5h-77.87c.22-2.19.34-4.44.34-6.69,0-13.41-4.02-26.3-11.63-37.28-3.37-4.86-7.37-9.24-11.91-13.03-.38-.32-.77-.64-1.19-.98-5.09-4.05-10.71-7.3-16.73-9.68-.39-.16-.79-.31-1.19-.46.25-.85.35-1.73.31-2.59,11.43-7.57,25.17-12.24,40.11-12.94M213.3,8.85s-.07,0-.1,0c-14.88.69-29.14,5.29-41.23,13.3-.65.43-1.02,1.16-.99,1.94.03.64-.05,1.27-.23,1.89-.32,1.11.27,2.28,1.36,2.69.39.14.77.29,1.15.44,5.81,2.29,11.25,5.44,16.17,9.35.4.32.78.63,1.15.94,4.39,3.67,8.26,7.9,11.52,12.6,7.35,10.61,11.24,23.07,11.24,36.02,0,2.17-.11,4.35-.33,6.46-.06.62.14,1.24.56,1.71.42.46,1.02.73,1.64.73h77.87c1.09,0,2.02-.8,2.19-1.88.54-3.56.81-7.21.81-10.83,0-16.57-5.5-32.28-15.91-45.43-.4-.5-.99-.81-1.63-.84h-.07s-.21-.01-.21-.01c-.09,0-.18,0-.27-.01-.24-.01-.44-.02-.65-.04h-.08s-.15-.02-.15-.02c-.58-.05-1.15-.11-1.74-.2-.1-.02-.2-.04-.3-.05-.19-.03-.39-.06-.6-.1h-.07c-.06-.02-.12-.03-.17-.05-.02,0-.04,0-.06-.01-.2-.04-.39-.08-.58-.12-.1-.02-.18-.04-.25-.06-.3-.07-.56-.13-.82-.2-.06-.02-.12-.03-.19-.04-.05,0-.1-.02-.15-.02-.09-.01-.17-.02-.26-.02-.5,0-.99.17-1.39.49-.49.4-.79.99-.82,1.63-.15,3.54-1.03,7.07-2.56,10.23-.23.47-.46.92-.7,1.34l-.44.78-.86-.26c-.97-.29-1.92-.65-2.84-1.05-4.97-2.19-9.24-5.98-12.03-10.68-.37-.62-1.01-1.02-1.73-1.07-.06,0-.12,0-.17,0-.65,0-1.28.29-1.7.8-2.17,2.61-4.78,4.73-7.76,6.33-.69.37-1.4.71-2.11,1.01l-.8.34-.52-.69c-.3-.4-.59-.79-.85-1.18-.18-.27-.35-.54-.53-.82l-.06-.11-.19-.32c-2.15-3.66-3.4-7.88-3.59-12.19-.03-.64-.33-1.23-.84-1.63-.39-.31-.88-.48-1.37-.48-.14,0-.27.01-.41.04-1.58.3-3.21.45-4.87.45-.65,0-1.32-.02-1.97-.07-3.38-.25-6.7-1.13-9.58-2.56-.41-.2-.82-.42-1.2-.64l-.95-.54.52-.96c2.05-3.78,5.02-7.03,8.59-9.39.62-.41.99-1.1.99-1.85,0-.74-.37-1.44-.99-1.84-.17-.11-.34-.22-.5-.34-.05-.04-.11-.08-.16-.12l-.42-.3-.1-.07c-.2-.15-.36-.27-.52-.39-.01-.01-.03-.03-.05-.04-.15-.12-.31-.25-.46-.37l-.12-.1s-.04-.03-.06-.05c-.11-.09-.22-.19-.33-.28-.02-.01-.03-.03-.05-.04-.03-.03-.06-.05-.09-.08-.01-.01-.03-.02-.04-.03-.14-.12-.28-.25-.42-.38,0,0-.01-.01-.02-.02-.41-.39-.96-.61-1.53-.61h0Z"/>
          </g>
        </g>
      </g>
    </g>
  </g>
</svg>